<svg id="Layer_1" data-name="Layer 1" xmlns="http://www.w3.org/2000/svg" viewBox="0 0 999.28 999.28"><defs><style>.cls-1{fill:#fff;}.cls-2{fill:#f26522;}.cls-3{fill:#231f20;}</style></defs><circle class="cls-1" cx="844.47" cy="406.68" r="121.51"/><path class="cls-2" d="M845.41,538A130.81,130.81,0,1,1,958.49,341.8c36.07,62.47,14.59,142.63-47.88,178.7h0A130.09,130.09,0,0,1,845.41,538ZM845,295A112.23,112.23,0,1,0,901.3,504.38h0A112.28,112.28,0,0,0,845,295Z" transform="translate(-0.72 -0.53)"/><circle class="cls-1" cx="844.47" cy="406.68" r="72.03"/><path class="cls-2" d="M845.32,485.47a78.49,78.49,0,0,1-20.37-2.7A78.23,78.23,0,1,1,884.31,475h0A77.75,77.75,0,0,1,845.32,485.47Zm-.23-144.12a65.84,65.84,0,1,0,33,122.86h0a65.83,65.83,0,0,0-15.88-120.59A66.12,66.12,0,0,0,845.09,341.35Z" transform="translate(-0.72 -0.53)"/><circle class="cls-1" cx="844.47" cy="406.68" r="36.2"/><path class="cls-2" d="M845.26,446.5a39.28,39.28,0,1,1,19.59-5.26h0A39,39,0,0,1,845.26,446.5Zm-.12-72.41a33.1,33.1,0,1,0,16.6,61.78h0a33.13,33.13,0,0,0-16.6-61.78Z" transform="translate(-0.72 -0.53)"/><circle class="cls-1" cx="752.56" cy="247.48" r="121.51"/><path class="cls-2" d="M753.5,378.89a131.5,131.5,0,0,1-34.07-4.52,130.82,130.82,0,0,1-31.56-239.65c62.48-36.07,142.64-14.59,178.71,47.88s14.58,142.64-47.88,178.71A130.15,130.15,0,0,1,753.5,378.89Zm-.4-243.06a112.19,112.19,0,1,0,56.29,209.35h0A112.19,112.19,0,0,0,753.1,135.83Z" transform="translate(-0.72 -0.53)"/><circle class="cls-1" cx="752.56" cy="247.48" r="72.03"/><path class="cls-2" d="M753.42,326.23a78.17,78.17,0,1,1,39-10.46A78.3,78.3,0,0,1,753.42,326.23Zm-.24-144.07a66,66,0,1,0,17.14,2.27A66.18,66.18,0,0,0,753.18,182.16Z" transform="translate(-0.72 -0.53)"/><circle class="cls-1" cx="752.56" cy="247.48" r="36.2"/><path class="cls-2" d="M753.35,287.33A39.48,39.48,0,0,1,743.11,286a39.29,39.29,0,1,1,29.83-3.92h0A39.16,39.16,0,0,1,753.35,287.33Zm-.12-72.43a33.1,33.1,0,1,0,16.6,61.77h0a33.09,33.09,0,0,0-8-60.63A33.42,33.42,0,0,0,753.23,214.9Z" transform="translate(-0.72 -0.53)"/><rect class="cls-2" x="476.41" y="409.23" width="357.56" height="3.1" transform="translate(-118.33 382.14) rotate(-30)"/><circle class="cls-2" cx="936.9" cy="381.08" r="4.52"/><circle class="cls-2" cx="895.66" cy="406.46" r="4.52"/><circle class="cls-2" cx="890.29" cy="384.03" r="4.52"/><circle class="cls-2" cx="779.57" cy="204.42" r="4.52"/><circle class="cls-2" cx="796.31" cy="220.29" r="4.52"/><circle class="cls-2" cx="864.71" cy="400.81" r="4.52"/><circle class="cls-2" cx="919.36" cy="347.32" r="4.52"/><circle class="cls-2" cx="939.08" cy="419.23" r="4.52"/><circle class="cls-2" cx="821.08" cy="180.46" r="4.52"/><circle class="cls-2" cx="767.5" cy="232.44" r="4.52"/><circle class="cls-2" cx="841.54" cy="212.53" r="4.52"/><circle class="cls-2" cx="789.12" cy="159.5" r="4.52"/><circle class="cls-1" cx="752.56" cy="751.79" r="121.51"/><path class="cls-2" d="M753.06,883.12a129.93,129.93,0,0,1-65.18-17.51h0c-62.46-36.06-84-116.23-47.88-178.7A130.82,130.82,0,1,1,753.06,883.12Zm-55.88-33.63a112.2,112.2,0,1,0-41.07-153.27,112.34,112.34,0,0,0,41.07,153.27Z" transform="translate(-0.72 -0.53)"/><circle class="cls-1" cx="752.56" cy="751.79" r="72.03"/><path class="cls-2" d="M753.16,830.59a77.75,77.75,0,0,1-39-10.51h0a78.25,78.25,0,1,1,59.36,7.81A78.49,78.49,0,0,1,753.16,830.59Zm-32.79-21.26a65.82,65.82,0,1,0-30.67-40,65.41,65.41,0,0,0,30.67,40Z" transform="translate(-0.72 -0.53)"/><circle class="cls-1" cx="752.56" cy="751.79" r="36.2"/><path class="cls-2" d="M753.22,791.64a39.16,39.16,0,0,1-19.59-5.28h0a39.06,39.06,0,1,1,19.59,5.28Zm.12-72.43a33.42,33.42,0,0,0-8.62,1.14,33.09,33.09,0,0,0-8,60.63h0a33.09,33.09,0,1,0,16.6-61.77Z" transform="translate(-0.72 -0.53)"/><circle class="cls-1" cx="844.47" cy="592.6" r="121.51"/><path class="cls-2" d="M845,724a130,130,0,0,1-65.2-17.58h0A130.82,130.82,0,0,1,910.61,479.83c62.46,36.07,83.95,116.24,47.88,178.71a129.94,129.94,0,0,1-79.44,61A131.49,131.49,0,0,1,845,724Zm.4-243.13a112.9,112.9,0,0,0-29.23,3.88A112.2,112.2,0,0,0,789.09,690.3h0a112.2,112.2,0,1,0,56.29-209.43Z" transform="translate(-0.72 -0.53)"/><circle class="cls-1" cx="844.47" cy="592.6" r="72.03"/><path class="cls-2" d="M845.07,671.4a78.49,78.49,0,1,1,20.37-2.7A78.86,78.86,0,0,1,845.07,671.4Zm.23-144.13a66.14,66.14,0,0,0-17.14,2.28,65.35,65.35,0,1,0,17.14-2.28Z" transform="translate(-0.72 -0.53)"/><circle class="cls-1" cx="844.47" cy="592.6" r="36.2"/><path class="cls-2" d="M845.13,632.42a39,39,0,0,1-19.59-5.26h0a39.32,39.32,0,1,1,19.59,5.26Zm-16.48-10.63a33.09,33.09,0,1,0-12.12-45.21,33.13,33.13,0,0,0,12.12,45.21Z" transform="translate(-0.72 -0.53)"/><rect class="cls-2" x="653.64" y="410.78" width="3.1" height="357.56" transform="translate(-183.7 861.66) rotate(-60)"/><circle class="cls-2" cx="820.95" cy="819.04" r="4.52"/><circle class="cls-2" cx="778.34" cy="796.01" r="4.52"/><circle class="cls-2" cx="795.08" cy="780.15" r="4.52"/><circle class="cls-2" cx="895.27" cy="594.46" r="4.52"/><circle class="cls-2" cx="889.9" cy="616.89" r="4.52"/><circle class="cls-2" cx="767.76" cy="766.39" r="4.52"/><circle class="cls-2" cx="841.41" cy="786.97" r="4.52"/><circle class="cls-2" cx="789" cy="840" r="4.52"/><circle class="cls-2" cx="936.77" cy="618.42" r="4.52"/><circle class="cls-2" cx="864.97" cy="598.01" r="4.52"/><circle class="cls-2" cx="919.23" cy="652.18" r="4.52"/><circle class="cls-2" cx="938.95" cy="580.27" r="4.52"/><circle class="cls-1" cx="407.73" cy="844.75" r="121.51"/><path class="cls-2" d="M408.45,976.1c-72.13,0-130.82-58.68-130.82-130.82s58.69-130.82,130.82-130.82,130.82,58.69,130.82,130.82A131,131,0,0,1,408.45,976.1Zm0-243a112.21,112.21,0,1,0,112.21,112.2A112.32,112.32,0,0,0,408.45,733.08Z" transform="translate(-0.72 -0.53)"/><circle class="cls-1" cx="407.73" cy="844.75" r="72.03"/><path class="cls-2" d="M408.45,923.52a78.24,78.24,0,1,1,78.24-78.24A78.32,78.32,0,0,1,408.45,923.52Zm0-144.06a65.83,65.83,0,1,0,65.83,65.82A65.89,65.89,0,0,0,408.45,779.46Z" transform="translate(-0.72 -0.53)"/><circle class="cls-1" cx="407.73" cy="844.75" r="36.2"/><path class="cls-2" d="M408.45,884.58a39.3,39.3,0,1,1,39.3-39.3A39.34,39.34,0,0,1,408.45,884.58Zm0-72.39a33.1,33.1,0,1,0,33.1,33.09A33.13,33.13,0,0,0,408.45,812.19Z" transform="translate(-0.72 -0.53)"/><circle class="cls-1" cx="591.55" cy="844.75" r="121.51"/><path class="cls-2" d="M592.27,976.1c-72.13,0-130.82-58.68-130.82-130.82s58.69-130.82,130.82-130.82,130.82,58.69,130.82,130.82A131,131,0,0,1,592.27,976.1Zm0-243a112.21,112.21,0,1,0,112.21,112.2A112.32,112.32,0,0,0,592.27,733.08Z" transform="translate(-0.72 -0.53)"/><circle class="cls-1" cx="591.55" cy="844.75" r="72.03"/><path class="cls-2" d="M592.27,923.52a78.24,78.24,0,1,1,78.24-78.24A78.32,78.32,0,0,1,592.27,923.52Zm0-144.06a65.83,65.83,0,1,0,65.83,65.82A65.9,65.9,0,0,0,592.27,779.46Z" transform="translate(-0.72 -0.53)"/><circle class="cls-1" cx="591.55" cy="844.75" r="36.2"/><path class="cls-2" d="M592.27,884.58a39.3,39.3,0,1,1,39.3-39.3A39.34,39.34,0,0,1,592.27,884.58Zm0-72.39a33.1,33.1,0,1,0,33.1,33.09A33.13,33.13,0,0,0,592.27,812.19Z" transform="translate(-0.72 -0.53)"/><rect class="cls-2" x="498.09" y="499.64" width="3.1" height="357.56"/><circle class="cls-2" cx="383.68" cy="937.6" r="4.52"/><circle class="cls-2" cx="382.33" cy="889.19" r="4.52"/><circle class="cls-2" cx="404.43" cy="895.75" r="4.52"/><circle class="cls-2" cx="615.33" cy="889.67" r="4.52"/><circle class="cls-2" cx="593.23" cy="896.24" r="4.52"/><circle class="cls-2" cx="402.69" cy="865.21" r="4.52"/><circle class="cls-2" cx="421.69" cy="939.28" r="4.52"/><circle class="cls-2" cx="349.56" cy="920.41" r="4.52"/><circle class="cls-2" cx="615.33" cy="937.6" r="4.52"/><circle class="cls-2" cx="597.11" cy="865.21" r="4.52"/><circle class="cls-2" cx="577.33" cy="939.28" r="4.52"/><circle class="cls-2" cx="649.46" cy="920.41" r="4.52"/><circle class="cls-1" cx="154.8" cy="592.6" r="121.51"/><path class="cls-2" d="M155.74,724a131.54,131.54,0,0,1-34.07-4.51,130,130,0,0,1-79.44-61C6.17,596.07,27.65,515.9,90.12,479.83A130.82,130.82,0,1,1,155.74,724Zm-.4-243.06A112.19,112.19,0,1,0,252.7,537,111.5,111.5,0,0,0,155.34,480.94Z" transform="translate(-0.72 -0.53)"/><circle class="cls-1" cx="154.8" cy="592.6" r="72.03"/><path class="cls-2" d="M155.65,671.4a78.92,78.92,0,0,1-20.37-2.7,77.74,77.74,0,1,1,20.37,2.7Zm-.23-144.13a65.53,65.53,0,0,0-32.81,8.85h0a65.83,65.83,0,1,0,50-6.57A66.14,66.14,0,0,0,155.42,527.27Z" transform="translate(-0.72 -0.53)"/><circle class="cls-1" cx="154.8" cy="592.6" r="36.2"/><path class="cls-2" d="M155.59,632.42a39.28,39.28,0,1,1,19.59-5.26A39.33,39.33,0,0,1,155.59,632.42Zm-.12-72.4a33.19,33.19,0,1,0,8.62,1.14A33.42,33.42,0,0,0,155.47,560Z" transform="translate(-0.72 -0.53)"/><circle class="cls-1" cx="246.71" cy="751.79" r="121.51"/><path class="cls-2" d="M247.66,883.12A130.8,130.8,0,0,1,182,639h0a130.81,130.81,0,0,1,178.7,47.88c36.07,62.47,14.59,142.64-47.88,178.7A130,130,0,0,1,247.66,883.12Zm-.41-243a111.58,111.58,0,0,0-55.92,15.08h0a112.21,112.21,0,1,0,85.15-11.21A112.88,112.88,0,0,0,247.25,640.07Z" transform="translate(-0.72 -0.53)"/><circle class="cls-1" cx="246.71" cy="751.79" r="72.03"/><path class="cls-2" d="M247.57,830.54a78.19,78.19,0,1,1,39-10.46A78.3,78.3,0,0,1,247.57,830.54Zm-.24-144.07a66,66,0,1,0,17.14,2.27A65.52,65.52,0,0,0,247.33,686.47Z" transform="translate(-0.72 -0.53)"/><circle class="cls-1" cx="246.71" cy="751.79" r="36.2"/><path class="cls-2" d="M247.5,791.64a39.48,39.48,0,0,1-10.24-1.36,39.3,39.3,0,0,1-9.47-72h0a39.3,39.3,0,1,1,19.71,73.36Zm-16.61-68a33.1,33.1,0,1,0,45.21,12.11,33.13,33.13,0,0,0-45.21-12.11Z" transform="translate(-0.72 -0.53)"/><rect class="cls-2" x="166.76" y="588" width="357.56" height="3.1" transform="translate(-249.2 251.21) rotate(-30)"/><circle class="cls-2" cx="62.37" cy="618.2" r="4.52"/><circle class="cls-2" cx="103.62" cy="592.82" r="4.52"/><circle class="cls-2" cx="108.99" cy="615.24" r="4.52"/><circle class="cls-2" cx="219.7" cy="794.85" r="4.52"/><circle class="cls-2" cx="202.97" cy="778.99" r="4.52"/><circle class="cls-2" cx="134.57" cy="598.46" r="4.52"/><circle class="cls-2" cx="79.92" cy="651.95" r="4.52"/><circle class="cls-2" cx="60.2" cy="580.05" r="4.52"/><circle class="cls-2" cx="178.2" cy="818.82" r="4.52"/><circle class="cls-2" cx="231.78" cy="766.83" r="4.52"/><circle class="cls-2" cx="157.74" cy="786.74" r="4.52"/><circle class="cls-2" cx="210.15" cy="839.77" r="4.52"/><circle class="cls-1" cx="246.71" cy="247.48" r="121.51"/><path class="cls-2" d="M247.22,378.89a131.25,131.25,0,1,1,34.08-4.52A131.58,131.58,0,0,1,247.22,378.89Zm.41-243.06a112.17,112.17,0,1,0,55.91,15A112.28,112.28,0,0,0,247.63,135.83Z" transform="translate(-0.72 -0.53)"/><circle class="cls-1" cx="246.71" cy="247.48" r="72.03"/><path class="cls-2" d="M247.31,326.28a78.25,78.25,0,1,1,39.24-146h0a78.28,78.28,0,0,1-39.24,146Zm.24-144.08a65.8,65.8,0,1,0,32.8,8.81h0A65.42,65.42,0,0,0,247.55,182.2Z" transform="translate(-0.72 -0.53)"/><circle class="cls-1" cx="246.71" cy="247.48" r="36.2"/><path class="cls-2" d="M247.37,287.33A39.31,39.31,0,1,1,267.09,214h0a39.33,39.33,0,0,1-19.72,73.35Zm.12-72.43a33.47,33.47,0,0,0-8.62,1.14A33.1,33.1,0,1,0,264,219.35h0A33,33,0,0,0,247.49,214.9Z" transform="translate(-0.72 -0.53)"/><circle class="cls-1" cx="154.8" cy="406.68" r="121.51"/><path class="cls-2" d="M155.31,538a130.81,130.81,0,1,1,65.63-244.09h0A130.8,130.8,0,0,1,155.31,538Zm.41-243a112.14,112.14,0,1,0,55.91,15h0A111.56,111.56,0,0,0,155.72,295Z" transform="translate(-0.72 -0.53)"/><circle class="cls-1" cx="154.8" cy="406.68" r="72.03"/><path class="cls-2" d="M155.4,485.43a78.23,78.23,0,1,1,67.88-39.11A77.81,77.81,0,0,1,155.4,485.43Zm.23-144.08a66.18,66.18,0,0,0-17.14,2.27,65.44,65.44,0,1,0,17.14-2.27Z" transform="translate(-0.72 -0.53)"/><circle class="cls-1" cx="154.8" cy="406.68" r="36.2"/><path class="cls-2" d="M155.46,446.5a39.3,39.3,0,1,1,19.72-73.33h0a39.3,39.3,0,0,1-19.72,73.33Zm.12-72.41a33.14,33.14,0,1,0,16.5,4.45h0A33,33,0,0,0,155.58,374.09Z" transform="translate(-0.72 -0.53)"/><rect class="cls-2" x="343.98" y="232" width="3.1" height="357.56" transform="translate(-183.7 504.1) rotate(-60)"/><circle class="cls-2" cx="178.33" cy="180.24" r="4.52"/><circle class="cls-2" cx="220.93" cy="203.27" r="4.52"/><circle class="cls-2" cx="204.2" cy="219.13" r="4.52"/><circle class="cls-2" cx="104.01" cy="404.82" r="4.52"/><circle class="cls-2" cx="109.38" cy="382.39" r="4.52"/><circle class="cls-2" cx="231.52" cy="232.89" r="4.52"/><circle class="cls-2" cx="157.87" cy="212.31" r="4.52"/><circle class="cls-2" cx="210.28" cy="159.28" r="4.52"/><circle class="cls-2" cx="62.5" cy="380.85" r="4.52"/><circle class="cls-2" cx="134.31" cy="401.26" r="4.52"/><circle class="cls-2" cx="80.05" cy="347.1" r="4.52"/><circle class="cls-2" cx="60.33" cy="419" r="4.52"/><circle class="cls-1" cx="591.55" cy="154.52" r="121.51"/><path class="cls-2" d="M592.27,285.87c-72.13,0-130.82-58.68-130.82-130.82S520.14,24.23,592.27,24.23,723.09,82.92,723.09,155.05A131,131,0,0,1,592.27,285.87Zm0-243a112.21,112.21,0,1,0,112.21,112.2A112.32,112.32,0,0,0,592.27,42.85Z" transform="translate(-0.72 -0.53)"/><circle class="cls-1" cx="591.55" cy="154.52" r="72.03"/><path class="cls-2" d="M592.27,233.29a78.24,78.24,0,1,1,78.24-78.24A78.32,78.32,0,0,1,592.27,233.29Zm0-144.06a65.83,65.83,0,1,0,65.83,65.82A65.89,65.89,0,0,0,592.27,89.23Z" transform="translate(-0.72 -0.53)"/><circle class="cls-1" cx="591.55" cy="154.52" r="36.2"/><path class="cls-2" d="M592.27,194.35a39.3,39.3,0,1,1,39.3-39.3A39.34,39.34,0,0,1,592.27,194.35Zm0-72.4a33.1,33.1,0,1,0,33.1,33.1A33.14,33.14,0,0,0,592.27,122Z" transform="translate(-0.72 -0.53)"/><circle class="cls-1" cx="407.73" cy="154.52" r="121.51"/><path class="cls-2" d="M408.45,285.87c-72.13,0-130.82-58.68-130.82-130.82S336.32,24.23,408.45,24.23,539.27,82.92,539.27,155.05A131,131,0,0,1,408.45,285.87Zm0-243a112.21,112.21,0,1,0,112.21,112.2A112.32,112.32,0,0,0,408.45,42.85Z" transform="translate(-0.72 -0.53)"/><circle class="cls-1" cx="407.73" cy="154.52" r="72.03"/><path class="cls-2" d="M408.45,233.29a78.24,78.24,0,1,1,78.24-78.24A78.32,78.32,0,0,1,408.45,233.29Zm0-144.06a65.83,65.83,0,1,0,65.83,65.82A65.89,65.89,0,0,0,408.45,89.23Z" transform="translate(-0.72 -0.53)"/><circle class="cls-1" cx="407.73" cy="154.52" r="36.2"/><path class="cls-2" d="M408.45,194.35a39.3,39.3,0,1,1,39.3-39.3A39.34,39.34,0,0,1,408.45,194.35Zm0-72.4a33.1,33.1,0,1,0,33.1,33.1A33.14,33.14,0,0,0,408.45,122Z" transform="translate(-0.72 -0.53)"/><rect class="cls-2" x="498.09" y="142.08" width="3.1" height="357.56"/><circle class="cls-2" cx="615.59" cy="61.68" r="4.52"/><circle class="cls-2" cx="616.95" cy="110.09" r="4.52"/><circle class="cls-2" cx="594.84" cy="103.53" r="4.52"/><circle class="cls-2" cx="383.94" cy="109.6" r="4.52"/><circle class="cls-2" cx="406.05" cy="103.04" r="4.52"/><circle class="cls-2" cx="596.59" cy="134.07" r="4.52"/><circle class="cls-2" cx="577.59" cy="60" r="4.52"/><circle class="cls-2" cx="649.72" cy="78.87" r="4.52"/><circle class="cls-2" cx="383.94" cy="61.68" r="4.52"/><circle class="cls-2" cx="402.17" cy="134.07" r="4.52"/><circle class="cls-2" cx="421.95" cy="60" r="4.52"/><circle class="cls-2" cx="349.82" cy="78.87" r="4.52"/><path class="cls-1" d="M651.28,238.76c-63.71,17.08-91.38-13.4-66-59.28,52.49-95,161.13-105.42,161.13-105.42s45.32,99.28-10.73,192.25C708.58,311.21,666,293.57,651.28,238.76Z" transform="translate(-0.72 -0.53)"/><path class="cls-2" d="M699.44,298a36.94,36.94,0,0,1-5.1-.36c-20.28-2.86-38.07-22.36-47.34-51.42-32.31,7.44-57.55,2.91-69.77-12.71-6.33-8.09-14.42-26.26,2.58-57,28-50.63,71.57-77.45,103.23-91C717.26,70.75,744.63,68,745.78,67.89l4.4-.42,1.84,4c.47,1.05,11.78,26.12,16.17,63.1,4.06,34.22,2.63,85.4-27.23,134.93C726.66,293.24,710.29,298,699.44,298Zm-43.77-66.84,1.61,6c7.33,27.39,22.2,45.86,38.79,48.2,12.38,1.76,24.55-6.15,34.26-22.25,28-46.37,29.34-94.46,25.58-126.64a233,233,0,0,0-13.46-55.62A234.07,234.07,0,0,0,687.55,97c-29.74,12.84-70.69,38.08-96.88,85.48-9.89,17.91-11.23,33.73-3.66,43.4,9.59,12.26,33,14.84,62.67,6.89Z" transform="translate(-0.72 -0.53)"/><path class="cls-2" d="M584.66,216.11a33,33,0,0,1,.5-7.74,68.13,68.13,0,0,1,1.56-7.09,84.84,84.84,0,0,1,5-13.33,94.6,94.6,0,0,1,7-12.2,96.31,96.31,0,0,1,8.71-10.84,94.5,94.5,0,0,0-7.08,11.8,90.72,90.72,0,0,0-5.09,12.62,78.84,78.84,0,0,0-2.94,13.1,63.88,63.88,0,0,0-.53,6.57,27.18,27.18,0,0,0,.4,6Z" transform="translate(-0.72 -0.53)"/><path class="cls-2" d="M595.72,216.61a65.47,65.47,0,0,1,4-20.08,61.72,61.72,0,0,1,9.74-17.44,60.19,60.19,0,0,0-6.92,18.25,61,61,0,0,0-.95,19Z" transform="translate(-0.72 -0.53)"/><path class="cls-2" d="M604.18,224.2a50.41,50.41,0,0,1,.69-10.36,70.13,70.13,0,0,1,2.24-9.73,54.2,54.2,0,0,1,8.76-17.44,52.13,52.13,0,0,0-4.75,18.23,65.28,65.28,0,0,0-.12,9.27,43.9,43.9,0,0,0,1.26,8.76Z" transform="translate(-0.72 -0.53)"/><path class="cls-2" d="M700.1,277.37a28.63,28.63,0,0,0,5.51-2.69,60.52,60.52,0,0,0,5.48-3.7A69.13,69.13,0,0,0,729,250.9a66.15,66.15,0,0,0,5.45-12.65,67,67,0,0,1-3.75,13.47A71.57,71.57,0,0,1,724,264.2a73.4,73.4,0,0,1-9.13,11.06,66.5,66.5,0,0,1-5.43,4.85,35,35,0,0,1-6.46,4.28Z" transform="translate(-0.72 -0.53)"/><path class="cls-2" d="M694.25,269.84a64.77,64.77,0,0,0,8.41-4.07,41.58,41.58,0,0,0,7.41-5.58,48.62,48.62,0,0,0,10.78-15.59,50.09,50.09,0,0,1-8.6,17.56,44.85,44.85,0,0,1-7,7.2,68.27,68.27,0,0,1-8.25,5.7Z" transform="translate(-0.72 -0.53)"/><path class="cls-2" d="M683.21,263.89a37.53,37.53,0,0,0,6.66-2.38c2.27-1,4.52-2.17,6.71-3.43,4.34-2.55,8.64-5.39,11.91-9.43-2.12,4.8-5.7,8.9-9.41,12.67-1.89,1.88-3.86,3.68-6,5.4a44.67,44.67,0,0,1-7,4.81Z" transform="translate(-0.72 -0.53)"/><line class="cls-3" x1="693.42" y1="164" x2="499.64" y2="499.64"/><path class="cls-1" d="M761.76,349.25c-63.71-17.08-72.44-57.3-27.55-84.37,93-56,192.25-10.72,192.25-10.72S916.08,362.79,821.05,415.29C775.16,440.63,747.08,404.05,761.76,349.25Z" transform="translate(-0.72 -0.53)"/><path class="cls-2" d="M793.47,429.73a38.09,38.09,0,0,1-23.86-8c-16.13-12.62-21.79-38.4-15.28-68.2-31.71-9.71-51.3-26.25-54.08-45.89-1.43-10.17.65-30,30.76-48.11,49.53-29.86,100.71-31.29,134.92-27.23,37,4.39,62.06,15.69,63.11,16.17l4,1.84-.42,4.4c-.11,1.15-2.86,28.52-17.55,62.73-13.59,31.66-40.41,75.27-91,103.24C812,427.39,801.8,429.73,793.47,429.73Zm44.6-186.64c-29.43,0-65.53,5.94-100.65,27.11-17.53,10.56-26.59,23.59-24.88,35.75,2.18,15.41,21.18,29.36,50.83,37.3l6,1.61-1.6,6c-7.34,27.39-3.7,50.82,9.49,61.15,9.85,7.7,24.34,6.94,40.8-2.15,47.4-26.18,72.64-67.13,85.47-96.87a233.64,233.64,0,0,0,16.16-54.91,234,234,0,0,0-55.63-13.46A224.66,224.66,0,0,0,838.07,243.09Z" transform="translate(-0.72 -0.53)"/><path class="cls-2" d="M715.39,296.31a33.51,33.51,0,0,1,4.31-6.45,67.62,67.62,0,0,1,4.89-5.35,84.25,84.25,0,0,1,11-9.06,89.65,89.65,0,0,1,25.11-12.11,94.44,94.44,0,0,0-12,6.68,92.33,92.33,0,0,0-10.72,8.38,79.24,79.24,0,0,0-9.1,9.88,63.72,63.72,0,0,0-3.73,5.42,27,27,0,0,0-2.69,5.43Z" transform="translate(-0.72 -0.53)"/><path class="cls-2" d="M724.73,302.28a65.45,65.45,0,0,1,13.49-15.39,61.52,61.52,0,0,1,17.16-10.23A60,60,0,0,0,740.26,289a60.88,60.88,0,0,0-10.32,16Z" transform="translate(-0.72 -0.53)"/><path class="cls-2" d="M728.25,313.09a50.79,50.79,0,0,1,5.78-8.64,72.72,72.72,0,0,1,6.81-7.31,54.23,54.23,0,0,1,16.3-10.72,52,52,0,0,0-13.22,13.42,65,65,0,0,0-4.75,8,43.14,43.14,0,0,0-3.28,8.23Z" transform="translate(-0.72 -0.53)"/><path class="cls-2" d="M784.74,407.09a28.39,28.39,0,0,0,6.11.43,61.55,61.55,0,0,0,6.6-.47,67.76,67.76,0,0,0,13.1-2.95A69.4,69.4,0,0,0,823,398.6a66.41,66.41,0,0,0,11-8.23,67,67,0,0,1-10,9.79A71.92,71.92,0,0,1,812,407.61a74,74,0,0,1-13.44,5,66.23,66.23,0,0,1-7.13,1.49,34.74,34.74,0,0,1-7.73.47Z" transform="translate(-0.72 -0.53)"/><path class="cls-2" d="M783.44,397.64a63.25,63.25,0,0,0,9.32.68,41,41,0,0,0,9.2-1.12,48.92,48.92,0,0,0,17.14-8.12A50.3,50.3,0,0,1,802.86,400a45.18,45.18,0,0,1-9.7,2.72,69.65,69.65,0,0,1-10,.8Z" transform="translate(-0.72 -0.53)"/><path class="cls-2" d="M776.85,387a37.69,37.69,0,0,0,7,1.27,72.13,72.13,0,0,0,7.52.38c5,0,10.18-.34,15-2.21-4.23,3.1-9.38,4.85-14.48,6.27a78.34,78.34,0,0,1-7.86,1.69,44.21,44.21,0,0,1-8.44.68Z" transform="translate(-0.72 -0.53)"/><line class="cls-3" x1="835.27" y1="305.86" x2="499.64" y2="499.64"/><path class="cls-1" d="M802.2,500.17c-46.64-46.65-34.08-85.84,18.32-86.84,108.55-2.05,171.86,86.84,171.86,86.84S929.07,589.06,820.52,587C768.12,586,762.08,540.28,802.2,500.17Z" transform="translate(-0.72 -0.53)"/><path class="cls-2" d="M824.17,593.24c-1.25,0-2.5,0-3.76,0-32.5-.61-43.82-16.74-47.68-26.31-7.65-19,.34-44.15,20.87-66.7-22.6-24.26-31.3-48.38-23.88-66.77,3.84-9.53,15.53-25.62,50.69-26.29,57.86-1.07,102.86,23.26,130.46,43.88,29.83,22.29,45.9,44.62,46.57,45.56l2.56,3.6-2.56,3.6c-.67.94-16.74,23.27-46.57,45.56C923.87,569.5,880.18,593.24,824.17,593.24Zm0-173.74c-1.17,0-2.34,0-3.52,0-20.46.38-34.83,7.13-39.41,18.52-5.83,14.44,3.66,36,25.36,57.72l4.39,4.39-4.39,4.38c-20.05,20.05-28.61,42.16-22.35,57.7,4.68,11.61,17.61,18.19,36.4,18.55l3.52,0c52.46,0,93.53-22.27,118.94-41.19a233.63,233.63,0,0,0,41.45-39.47A233.63,233.63,0,0,0,943.1,460.7C917.69,441.78,876.61,419.5,824.16,419.5Z" transform="translate(-0.72 -0.53)"/><path class="cls-2" d="M788.51,431.14a33.41,33.41,0,0,1,7-3.43,66.54,66.54,0,0,1,6.91-2.19,83.86,83.86,0,0,1,14-2.36,92.83,92.83,0,0,1,14.05-.05,95.67,95.67,0,0,1,13.75,2.11,95.9,95.9,0,0,0-13.76-.22A91.71,91.71,0,0,0,817,426.9a80.71,80.71,0,0,0-12.81,4,62.61,62.61,0,0,0-5.95,2.83,27.06,27.06,0,0,0-5,3.36Z" transform="translate(-0.72 -0.53)"/><path class="cls-2" d="M793.61,441A65.39,65.39,0,0,1,813,434.39a61.51,61.51,0,0,1,20-.27,59.88,59.88,0,0,0-19.26,3.12,61.24,61.24,0,0,0-16.94,8.68Z" transform="translate(-0.72 -0.53)"/><path class="cls-2" d="M791.26,452.1a50.55,50.55,0,0,1,9.32-4.59,71.89,71.89,0,0,1,9.55-2.93,54.17,54.17,0,0,1,19.48-1.13,52.3,52.3,0,0,0-18.16,5,67.88,67.88,0,0,0-8.09,4.53,43.66,43.66,0,0,0-7,5.48Z" transform="translate(-0.72 -0.53)"/><path class="cls-2" d="M793.18,561.75a28.23,28.23,0,0,0,5.08,3.42,62.78,62.78,0,0,0,5.94,2.9,69,69,0,0,0,26.34,5.44,66.33,66.33,0,0,0,13.68-1.6,67.58,67.58,0,0,1-13.55,3.49,72.7,72.7,0,0,1-14.16.42,73.58,73.58,0,0,1-14.14-2.38,68.17,68.17,0,0,1-6.92-2.27,35.11,35.11,0,0,1-6.94-3.47Z" transform="translate(-0.72 -0.53)"/><path class="cls-2" d="M796.77,552.92a64.25,64.25,0,0,0,7.74,5.24,41,41,0,0,0,8.53,3.63,48.65,48.65,0,0,0,18.9,1.54,50.32,50.32,0,0,1-19.52,1.33,44.59,44.59,0,0,1-9.76-2.5,70.37,70.37,0,0,1-9-4.29Z" transform="translate(-0.72 -0.53)"/><path class="cls-2" d="M796.4,540.38a37.59,37.59,0,0,0,5.4,4.58,71.14,71.14,0,0,0,6.32,4.09c4.38,2.49,9,4.79,14.12,5.6-5.21.57-10.55-.49-15.67-1.81a79.09,79.09,0,0,1-7.65-2.46,45.18,45.18,0,0,1-7.66-3.63Z" transform="translate(-0.72 -0.53)"/><line class="cls-3" x1="887.2" y1="499.64" x2="499.64" y2="499.64"/><path class="cls-1" d="M761.76,651.09c-17.07-63.72,13.4-91.39,59.29-66,95,52.49,105.41,161.13,105.41,161.13s-99.27,45.32-192.25-10.73C689.32,708.38,707,665.77,761.76,651.09Z" transform="translate(-0.72 -0.53)"/><path class="cls-2" d="M838.05,769.65c-31.28,0-69.62-6.33-107-28.89-27.84-16.78-29.57-36.41-28.13-46.62,2.86-20.27,22.36-38.07,51.42-47.33-7.44-32.32-2.91-57.55,12.7-69.77,8.1-6.34,26.27-14.42,57,2.58,50.63,28,77.45,71.57,91,103.23,14.69,34.22,17.44,61.59,17.55,62.74l.42,4.4-4,1.83c-1,.48-26.13,11.79-63.11,16.17A235.62,235.62,0,0,1,838.05,769.65ZM790.14,582c-6.08,0-11.35,1.61-15.49,4.85-12.26,9.6-14.84,33-6.89,62.67l1.6,6-6,1.6c-27.39,7.34-45.86,22.21-48.21,38.8-1.75,12.38,6.16,24.55,22.26,34.25,46.37,28,94.46,29.35,126.63,25.59a233.52,233.52,0,0,0,55.63-13.46,233.74,233.74,0,0,0-16.16-54.9c-12.83-29.75-38.07-70.7-85.47-96.88C807.81,584.82,798.25,582,790.14,582Z" transform="translate(-0.72 -0.53)"/><path class="cls-2" d="M784.42,584.46a33.5,33.5,0,0,1,7.74.51,68.13,68.13,0,0,1,7.09,1.56,85.18,85.18,0,0,1,13.33,5,89.69,89.69,0,0,1,23,15.69,94.42,94.42,0,0,0-11.8-7.07A91.22,91.22,0,0,0,811.2,595a79.3,79.3,0,0,0-13.1-2.94,58.73,58.73,0,0,0-6.57-.53,26.59,26.59,0,0,0-6,.39Z" transform="translate(-0.72 -0.53)"/><path class="cls-2" d="M783.92,595.53a65.23,65.23,0,0,1,20.08,4,61.31,61.31,0,0,1,17.43,9.75,60.06,60.06,0,0,0-18.24-6.93,61.33,61.33,0,0,0-19-.94Z" transform="translate(-0.72 -0.53)"/><path class="cls-2" d="M776.33,604a50.47,50.47,0,0,1,10.36.68,72,72,0,0,1,9.73,2.25,54.18,54.18,0,0,1,17.44,8.75,52.17,52.17,0,0,0-18.23-4.74,66.8,66.8,0,0,0-9.27-.13,43.38,43.38,0,0,0-8.77,1.27Z" transform="translate(-0.72 -0.53)"/><path class="cls-2" d="M723.16,699.91a28.48,28.48,0,0,0,2.68,5.5,61.2,61.2,0,0,0,3.7,5.48,69.18,69.18,0,0,0,20.09,17.89,66.78,66.78,0,0,0,12.65,5.45,67.72,67.72,0,0,1-13.48-3.75,71.89,71.89,0,0,1-12.47-6.73,73.34,73.34,0,0,1-11.06-9.12,70.12,70.12,0,0,1-4.86-5.43,34.72,34.72,0,0,1-4.27-6.47Z" transform="translate(-0.72 -0.53)"/><path class="cls-2" d="M730.69,694.06a64.11,64.11,0,0,0,4.07,8.41,41.58,41.58,0,0,0,5.58,7.41,48.94,48.94,0,0,0,15.59,10.78,50.41,50.41,0,0,1-17.57-8.61,46.06,46.06,0,0,1-7.2-7,70.16,70.16,0,0,1-5.69-8.25Z" transform="translate(-0.72 -0.53)"/><path class="cls-2" d="M736.63,683a37.89,37.89,0,0,0,2.39,6.66c1,2.27,2.17,4.51,3.42,6.7,2.56,4.34,5.4,8.65,9.43,11.91-4.79-2.11-8.89-5.7-12.66-9.41a78.47,78.47,0,0,1-5.4-6,45.64,45.64,0,0,1-4.81-7Z" transform="translate(-0.72 -0.53)"/><line class="cls-3" x1="835.27" y1="693.42" x2="499.64" y2="499.64"/><path class="cls-1" d="M651.28,761.57c17.07-63.72,57.3-72.44,84.36-27.55,56.05,93,10.73,192.25,10.73,192.25S637.73,915.88,585.24,820.85C559.9,775,596.48,746.88,651.28,761.57Z" transform="translate(-0.72 -0.53)"/><path class="cls-2" d="M750.18,932.87l-4.4-.42c-1.15-.11-28.52-2.86-62.74-17.55-31.66-13.59-75.26-40.42-103.23-91-15.72-28.45-7.4-46.32-1-54.44,12.61-16.12,38.4-21.78,68.2-15.28,9.71-31.71,26.25-51.3,45.89-54.07,10.17-1.44,29.95.64,48.11,30.76,29.86,49.53,31.29,100.71,27.23,134.92-4.39,37-15.7,62.06-16.17,63.11Zm-126.84-169c-15.54,0-28,4.54-34.81,13.23-7.71,9.85-6.95,24.34,2.14,40.79,26.19,47.4,67.14,72.65,96.88,85.48a233.06,233.06,0,0,0,54.9,16.15,232.76,232.76,0,0,0,13.46-55.62c3.76-32.18,2.38-80.26-25.58-126.64-10.57-17.52-23.6-26.58-35.75-24.87-15.41,2.18-29.36,21.18-37.3,50.82l-1.61,6-6-1.61A102.65,102.65,0,0,0,623.34,763.83Z" transform="translate(-0.72 -0.53)"/><path class="cls-2" d="M704.22,715.2a33.36,33.36,0,0,1,6.45,4.31A69.43,69.43,0,0,1,716,724.4a84.25,84.25,0,0,1,9.06,11,92.91,92.91,0,0,1,7.07,12.14,95.66,95.66,0,0,1,5,13,94.31,94.31,0,0,0-6.68-12,90.51,90.51,0,0,0-8.39-10.72,79.87,79.87,0,0,0-9.87-9.1,61.62,61.62,0,0,0-5.42-3.74,27,27,0,0,0-5.44-2.68Z" transform="translate(-0.72 -0.53)"/><path class="cls-2" d="M698.25,724.53A65.27,65.27,0,0,1,713.64,738a61.62,61.62,0,0,1,10.23,17.16,60.17,60.17,0,0,0-12.34-15.12,61,61,0,0,0-16-10.32Z" transform="translate(-0.72 -0.53)"/><path class="cls-2" d="M687.44,728.06a50.21,50.21,0,0,1,8.64,5.78,71.37,71.37,0,0,1,7.3,6.8A54.08,54.08,0,0,1,714.1,757a51.83,51.83,0,0,0-13.41-13.22,66.59,66.59,0,0,0-8-4.75,43.72,43.72,0,0,0-8.23-3.29Z" transform="translate(-0.72 -0.53)"/><path class="cls-2" d="M593.44,784.55a28.34,28.34,0,0,0-.43,6.11,61.37,61.37,0,0,0,.47,6.59,68.72,68.72,0,0,0,8.45,25.53,66.91,66.91,0,0,0,8.23,11.05,67.61,67.61,0,0,1-9.8-10,72.12,72.12,0,0,1-7.44-12.06,72.88,72.88,0,0,1-5-13.43,67.26,67.26,0,0,1-1.49-7.13,34.24,34.24,0,0,1-.47-7.74Z" transform="translate(-0.72 -0.53)"/><path class="cls-2" d="M602.88,783.24a64.72,64.72,0,0,0-.67,9.32,41.14,41.14,0,0,0,1.12,9.21,48.62,48.62,0,0,0,8.12,17.13,50.26,50.26,0,0,1-10.91-16.23,44.93,44.93,0,0,1-2.72-9.7,69.88,69.88,0,0,1-.8-10Z" transform="translate(-0.72 -0.53)"/><path class="cls-2" d="M613.55,776.65a37.83,37.83,0,0,0-1.26,7,74.82,74.82,0,0,0-.39,7.52c.05,5,.35,10.18,2.21,15-3.09-4.23-4.85-9.39-6.26-14.48-.69-2.58-1.26-5.19-1.7-7.86a46,46,0,0,1-.68-8.44Z" transform="translate(-0.72 -0.53)"/><line class="cls-3" x1="693.42" y1="835.27" x2="499.64" y2="499.64"/><path class="cls-1" d="M500.36,802c46.64-46.64,85.84-34.09,86.83,18.32,2.06,108.54-86.83,171.86-86.83,171.86s-88.89-63.32-86.83-171.86C414.52,767.92,460.24,761.89,500.36,802Z" transform="translate(-0.72 -0.53)"/><path class="cls-2" d="M500.36,999.81l-3.6-2.57c-.94-.67-23.27-16.73-45.56-46.56-20.62-27.6-45-72.64-43.88-130.47.62-32.5,16.75-43.82,26.31-47.67,19-7.66,44.15.33,66.71,20.87,24.26-22.61,48.38-31.3,66.77-23.89,9.53,3.85,25.62,15.54,26.29,50.69,1.09,57.83-23.26,102.87-43.88,130.47-22.29,29.83-44.62,45.89-45.56,46.56ZM449.21,782a29,29,0,0,0-10.94,2c-11.6,4.68-18.18,17.6-18.54,36.4-1,54.14,21.82,96.48,41.16,122.46a233.83,233.83,0,0,0,39.47,41.44,233.45,233.45,0,0,0,39.47-41.44c19.34-26,42.19-68.32,41.16-122.46-.39-20.46-7.14-34.83-18.52-39.42-14.44-5.82-36,3.66-57.72,25.37l-4.39,4.38L496,806.4C480.27,790.69,463.29,782,449.21,782Z" transform="translate(-0.72 -0.53)"/><path class="cls-2" d="M569.39,788.32a33.34,33.34,0,0,1,3.43,6.95,66,66,0,0,1,2.19,6.92,84.61,84.61,0,0,1,2.36,14,94.3,94.3,0,0,1,0,14.06A95.55,95.55,0,0,1,575.3,844a94.43,94.43,0,0,0,.23-13.76,91.77,91.77,0,0,0-1.9-13.47,79.52,79.52,0,0,0-4-12.82,62.43,62.43,0,0,0-2.82-6,26.82,26.82,0,0,0-3.37-5Z" transform="translate(-0.72 -0.53)"/><path class="cls-2" d="M559.55,793.41a65.55,65.55,0,0,1,6.59,19.39,61.78,61.78,0,0,1,.27,20,60,60,0,0,0-3.12-19.27,61.08,61.08,0,0,0-8.69-16.93Z" transform="translate(-0.72 -0.53)"/><path class="cls-2" d="M548.43,791.07a50.55,50.55,0,0,1,4.59,9.32,71,71,0,0,1,2.92,9.55,54.11,54.11,0,0,1,1.14,19.47,52,52,0,0,0-5-18.15,65.83,65.83,0,0,0-4.52-8.1,44.14,44.14,0,0,0-5.48-6.95Z" transform="translate(-0.72 -0.53)"/><path class="cls-2" d="M438.78,793a28.68,28.68,0,0,0-3.43,5.07,60.55,60.55,0,0,0-2.89,6A69.2,69.2,0,0,0,427,830.34,66.19,66.19,0,0,0,428.62,844a67.31,67.31,0,0,1-3.49-13.54,71.29,71.29,0,0,1-.42-14.17,73.84,73.84,0,0,1,2.38-14.14,69,69,0,0,1,2.27-6.92,35.52,35.52,0,0,1,3.46-6.93Z" transform="translate(-0.72 -0.53)"/><path class="cls-2" d="M447.61,796.58a65.44,65.44,0,0,0-5.25,7.73,41,41,0,0,0-3.62,8.54,48.58,48.58,0,0,0-1.54,18.89,50.26,50.26,0,0,1-1.34-19.51,45.59,45.59,0,0,1,2.5-9.76,71.19,71.19,0,0,1,4.3-9.06Z" transform="translate(-0.72 -0.53)"/><path class="cls-2" d="M460.15,796.21a37,37,0,0,0-4.58,5.4,72.46,72.46,0,0,0-4.09,6.31c-2.49,4.39-4.79,9-5.61,14.13-.56-5.21.5-10.55,1.82-15.68a80,80,0,0,1,2.46-7.65,45.46,45.46,0,0,1,3.63-7.65Z" transform="translate(-0.72 -0.53)"/><line class="cls-3" x1="499.64" y1="887.2" x2="499.64" y2="499.64"/><path class="cls-1" d="M349.44,761.57c63.72-17.07,91.38,13.4,66,59.28-52.49,95-161.13,105.42-161.13,105.42S209,827,265.08,734C292.14,689.13,334.76,706.77,349.44,761.57Z" transform="translate(-0.72 -0.53)"/><path class="cls-2" d="M250.54,932.87l-1.83-4c-.48-1.05-11.79-26.13-16.18-63.11-4.06-34.21-2.63-85.39,27.24-134.92,16.78-27.84,36.41-29.58,46.62-28.14,20.27,2.87,38.06,22.37,47.33,51.43,32.31-7.44,57.55-2.92,69.77,12.7,6.33,8.09,14.42,26.27-2.58,57-28,50.63-71.57,77.46-103.23,91-34.22,14.69-61.59,17.44-62.74,17.55Zm50.73-218.14c-11.21,0-22.06,7.86-30.88,22.49-28,46.38-29.34,94.46-25.58,126.64a233.4,233.4,0,0,0,13.46,55.62,233.06,233.06,0,0,0,54.9-16.15c29.74-12.83,70.7-38.08,96.88-85.48,9.89-17.91,11.23-33.73,3.67-43.39-9.6-12.26-33-14.84-62.67-6.9l-6,1.61-1.6-6c-7.34-27.38-22.21-45.86-38.8-48.2A24.12,24.12,0,0,0,301.27,714.73Z" transform="translate(-0.72 -0.53)"/><path class="cls-2" d="M416.07,784.23a33.54,33.54,0,0,1-.51,7.74,68.51,68.51,0,0,1-1.56,7.08,83.86,83.86,0,0,1-5,13.33,92.79,92.79,0,0,1-7,12.2,96.34,96.34,0,0,1-8.7,10.85,95.27,95.27,0,0,0,7.07-11.81A90.72,90.72,0,0,0,405.5,811a78.84,78.84,0,0,0,2.94-13.1,61.22,61.22,0,0,0,.53-6.56,26.68,26.68,0,0,0-.4-6.05Z" transform="translate(-0.72 -0.53)"/><path class="cls-2" d="M405,783.72a65.76,65.76,0,0,1-4,20.08,61.75,61.75,0,0,1-9.75,17.44A60.13,60.13,0,0,0,398.18,803a61,61,0,0,0,.95-19Z" transform="translate(-0.72 -0.53)"/><path class="cls-2" d="M396.54,776.13a50.55,50.55,0,0,1-.69,10.37,70.8,70.8,0,0,1-2.24,9.73,54,54,0,0,1-8.75,17.43,52.28,52.28,0,0,0,4.74-18.22,66.94,66.94,0,0,0,.13-9.28,43.17,43.17,0,0,0-1.27-8.76Z" transform="translate(-0.72 -0.53)"/><path class="cls-2" d="M300.62,723a28.56,28.56,0,0,0-5.5,2.69,61.35,61.35,0,0,0-5.49,3.7,69,69,0,0,0-17.88,20.09,66.42,66.42,0,0,0-5.45,12.64,67.82,67.82,0,0,1,3.75-13.47,72.62,72.62,0,0,1,15.85-23.53,68.12,68.12,0,0,1,5.43-4.86A34.23,34.23,0,0,1,297.8,716Z" transform="translate(-0.72 -0.53)"/><path class="cls-2" d="M306.47,730.49a65.44,65.44,0,0,0-8.41,4.08,41.53,41.53,0,0,0-7.41,5.57,48.82,48.82,0,0,0-10.78,15.6,50.33,50.33,0,0,1,8.61-17.57,44.37,44.37,0,0,1,7-7.2,70.16,70.16,0,0,1,8.25-5.69Z" transform="translate(-0.72 -0.53)"/><path class="cls-2" d="M317.51,736.44a37.82,37.82,0,0,0-6.66,2.38c-2.27,1-4.51,2.17-6.7,3.43-4.35,2.56-8.65,5.39-11.92,9.43,2.12-4.79,5.71-8.89,9.41-12.67,1.89-1.88,3.87-3.68,6-5.39a44.46,44.46,0,0,1,7-4.81Z" transform="translate(-0.72 -0.53)"/><line class="cls-3" x1="305.86" y1="835.27" x2="499.64" y2="499.64"/><path class="cls-1" d="M239,651.09c63.71,17.07,72.44,57.29,27.55,84.36-93,56-192.25,10.73-192.25,10.73S84.65,637.54,179.67,585.05C225.56,559.7,253.64,596.28,239,651.09Z" transform="translate(-0.72 -0.53)"/><path class="cls-2" d="M162.68,769.65A235.66,235.66,0,0,1,134.79,768c-37-4.38-62.06-15.69-63.11-16.17l-4-1.83.42-4.4c.11-1.15,2.86-28.52,17.55-62.74,13.59-31.66,40.42-75.27,91-103.23,28.46-15.72,46.33-7.41,54.45-1.06,16.12,12.62,21.78,38.41,15.27,68.21,31.71,9.71,51.3,26.25,54.08,45.88,1.44,10.18-.65,30-30.76,48.11C232.3,763.32,194,769.65,162.68,769.65ZM81.05,742.26a233.26,233.26,0,0,0,55.62,13.46c32.17,3.76,80.26,2.37,126.63-25.59,17.53-10.56,26.6-23.59,24.88-35.74C286,679,267,665,237.35,657.08l-6-1.6,1.61-6c7.33-27.39,3.7-50.82-9.5-61.14-9.85-7.71-24.34-7-40.8,2.14C135.28,616.66,110,657.61,97.2,687.36A232.92,232.92,0,0,0,81.05,742.26Z" transform="translate(-0.72 -0.53)"/><path class="cls-2" d="M285.33,704a33.51,33.51,0,0,1-4.31,6.45,69.58,69.58,0,0,1-4.89,5.36,85.06,85.06,0,0,1-11,9.06A94.06,94.06,0,0,1,253,732a97,97,0,0,1-13,5,95.62,95.62,0,0,0,12-6.69,90.21,90.21,0,0,0,10.72-8.38,79.24,79.24,0,0,0,9.1-9.88,60.17,60.17,0,0,0,3.74-5.42,26.93,26.93,0,0,0,2.68-5.43Z" transform="translate(-0.72 -0.53)"/><path class="cls-2" d="M276,698.05a65.54,65.54,0,0,1-13.5,15.4,61.49,61.49,0,0,1-17.16,10.22,60.14,60.14,0,0,0,15.12-12.33,61.21,61.21,0,0,0,10.32-16Z" transform="translate(-0.72 -0.53)"/><path class="cls-2" d="M272.47,687.25a50.7,50.7,0,0,1-5.78,8.63,71.58,71.58,0,0,1-6.81,7.31,54.23,54.23,0,0,1-16.3,10.72A52.15,52.15,0,0,0,256.8,700.5a65.93,65.93,0,0,0,4.75-8,43.32,43.32,0,0,0,3.28-8.22Z" transform="translate(-0.72 -0.53)"/><path class="cls-2" d="M216,593.25a27.72,27.72,0,0,0-6.11-.43,61.52,61.52,0,0,0-6.6.46,69.44,69.44,0,0,0-13.1,3,68.34,68.34,0,0,0-12.42,5.51A66.43,66.43,0,0,0,166.7,610a67.07,67.07,0,0,1,10-9.79,71.07,71.07,0,0,1,12.06-7.44,73.64,73.64,0,0,1,13.43-5,68.75,68.75,0,0,1,7.13-1.49,35.4,35.4,0,0,1,7.74-.47Z" transform="translate(-0.72 -0.53)"/><path class="cls-2" d="M217.29,602.69A66.25,66.25,0,0,0,208,602a41.65,41.65,0,0,0-9.2,1.13,48.77,48.77,0,0,0-17.13,8.11,50.15,50.15,0,0,1,16.23-10.91,45.16,45.16,0,0,1,9.7-2.71,69.8,69.8,0,0,1,10-.81Z" transform="translate(-0.72 -0.53)"/><path class="cls-2" d="M223.87,613.36a37.69,37.69,0,0,0-7-1.27,74.83,74.83,0,0,0-7.52-.38c-5,0-10.18.35-15,2.21,4.23-3.09,9.38-4.85,14.48-6.26,2.58-.69,5.19-1.26,7.86-1.7a44.27,44.27,0,0,1,8.44-.68Z" transform="translate(-0.72 -0.53)"/><line class="cls-3" x1="164" y1="693.42" x2="499.64" y2="499.64"/><path class="cls-1" d="M198.52,500.17C245.16,546.81,232.61,586,180.2,587,71.66,589.06,8.34,500.17,8.34,500.17s63.32-88.89,171.86-86.84C232.61,414.33,238.64,460.05,198.52,500.17Z" transform="translate(-0.72 -0.53)"/><path class="cls-2" d="M176.55,593.24c-56,0-99.7-23.74-126.7-43.91C20,527,4,504.71,3.29,503.77l-2.57-3.6,2.57-3.6C4,495.63,20,473.3,49.85,451c27.6-20.62,72.62-45,130.47-43.88,32.5.62,43.82,16.75,47.67,26.31,7.66,19-.33,44.15-20.87,66.7,22.6,24.27,31.3,48.38,23.89,66.78-3.85,9.53-15.54,25.62-50.69,26.28C179.06,593.23,177.8,593.24,176.55,593.24ZM16.18,500.17a233.08,233.08,0,0,0,41.44,39.47C83.6,559,126,581.8,180.08,580.8c20.46-.39,34.83-7.14,39.42-18.52,5.82-14.44-3.66-36-25.37-57.73l-4.38-4.38,4.38-4.39c20.05-20,28.62-42.16,22.35-57.7-4.68-11.6-17.6-18.19-36.4-18.54-54.14-1-96.48,21.81-122.46,41.16A232.72,232.72,0,0,0,16.18,500.17Z" transform="translate(-0.72 -0.53)"/><path class="cls-2" d="M212.21,569.19a33.23,33.23,0,0,1-7,3.44,70.85,70.85,0,0,1-6.91,2.19,84.52,84.52,0,0,1-14,2.35,94.16,94.16,0,0,1-14.05.06,96.75,96.75,0,0,1-13.74-2.12,94.31,94.31,0,0,0,13.75.22,89.1,89.1,0,0,0,13.48-1.9,78.81,78.81,0,0,0,12.82-4,58.93,58.93,0,0,0,5.94-2.83,26.11,26.11,0,0,0,5-3.36Z" transform="translate(-0.72 -0.53)"/><path class="cls-2" d="M207.11,559.36a65.37,65.37,0,0,1-19.38,6.58,61.51,61.51,0,0,1-20,.28A60.17,60.17,0,0,0,187,563.09,61,61,0,0,0,204,554.41Z" transform="translate(-0.72 -0.53)"/><path class="cls-2" d="M209.46,548.24a50.55,50.55,0,0,1-9.32,4.59,72.88,72.88,0,0,1-9.55,2.92,54.17,54.17,0,0,1-19.48,1.13,52,52,0,0,0,18.16-5,67.11,67.11,0,0,0,8.09-4.53,43.1,43.1,0,0,0,7-5.48Z" transform="translate(-0.72 -0.53)"/><path class="cls-2" d="M207.54,438.59a27.39,27.39,0,0,0-5.08-3.43,61.61,61.61,0,0,0-5.94-2.9,68.94,68.94,0,0,0-26.34-5.44,66.85,66.85,0,0,0-13.67,1.6,68,68,0,0,1,13.54-3.49,72,72,0,0,1,14.16-.41,73.56,73.56,0,0,1,14.14,2.37,65.84,65.84,0,0,1,6.92,2.28,34.24,34.24,0,0,1,6.94,3.46Z" transform="translate(-0.72 -0.53)"/><path class="cls-2" d="M204,447.42a64.73,64.73,0,0,0-7.74-5.25,41.3,41.3,0,0,0-8.53-3.63A48.8,48.8,0,0,0,168.79,437a50.26,50.26,0,0,1,19.51-1.33,45.16,45.16,0,0,1,9.76,2.5,69.1,69.1,0,0,1,9.05,4.3Z" transform="translate(-0.72 -0.53)"/><path class="cls-2" d="M204.32,460a38.24,38.24,0,0,0-5.4-4.58c-2-1.45-4.13-2.82-6.32-4.09-4.38-2.48-9-4.79-14.12-5.6,5.21-.56,10.55.49,15.67,1.82a79.27,79.27,0,0,1,7.66,2.46,44,44,0,0,1,7.65,3.63Z" transform="translate(-0.72 -0.53)"/><line class="cls-3" x1="112.08" y1="499.64" x2="499.64" y2="499.64"/><path class="cls-1" d="M239,349.25c17.07,63.71-13.4,91.38-59.29,66-95-52.5-105.41-161.13-105.41-161.13s99.28-45.33,192.25,10.72C311.4,292,293.76,334.56,239,349.25Z" transform="translate(-0.72 -0.53)"/><path class="cls-2" d="M210.47,430.87c-8.92,0-20.11-2.6-33.8-10.15-50.62-28-77.45-71.58-91-103.24-14.69-34.21-17.44-61.58-17.55-62.73l-.42-4.4,4-1.84c1-.48,26.13-11.78,63.11-16.17,34.21-4.06,85.39-2.63,134.92,27.23,27.84,16.78,29.58,36.41,28.13,46.62-2.86,20.27-22.36,38.07-51.42,47.33,7.44,32.32,2.91,57.56-12.7,69.78C229.22,426.81,221.61,430.87,210.47,430.87ZM81.05,258.07A233.09,233.09,0,0,0,97.2,313c12.83,29.74,38.08,70.69,85.47,96.87,17.92,9.9,33.73,11.24,43.4,3.67,12.26-9.59,14.84-33,6.9-62.67l-1.61-6,6-1.61c27.39-7.34,45.86-22.2,48.21-38.79,1.75-12.39-6.16-24.55-22.26-34.26-46.37-28-94.46-29.35-126.63-25.59A233.77,233.77,0,0,0,81.05,258.07Z" transform="translate(-0.72 -0.53)"/><path class="cls-2" d="M216.3,415.87a33.54,33.54,0,0,1-7.74-.51,65.47,65.47,0,0,1-7.08-1.56,83.93,83.93,0,0,1-13.34-5,93.81,93.81,0,0,1-12.19-7,96.43,96.43,0,0,1-10.85-8.71,96.47,96.47,0,0,0,11.8,7.08,92.48,92.48,0,0,0,12.62,5.09,81.26,81.26,0,0,0,13.11,2.94,61.18,61.18,0,0,0,6.56.52,26.72,26.72,0,0,0,6.05-.39Z" transform="translate(-0.72 -0.53)"/><path class="cls-2" d="M216.81,404.8a65.11,65.11,0,0,1-20.08-4,61.37,61.37,0,0,1-17.44-9.75A59.9,59.9,0,0,0,197.53,398a61,61,0,0,0,19,.95Z" transform="translate(-0.72 -0.53)"/><path class="cls-2" d="M224.4,396.35a50.5,50.5,0,0,1-10.37-.69,73.86,73.86,0,0,1-9.73-2.24,54,54,0,0,1-17.43-8.76,51.85,51.85,0,0,0,18.22,4.74,66.8,66.8,0,0,0,9.27.13,43.27,43.27,0,0,0,8.77-1.27Z" transform="translate(-0.72 -0.53)"/><path class="cls-2" d="M277.56,300.43a27.71,27.71,0,0,0-2.68-5.51,62.67,62.67,0,0,0-3.7-5.48,69.34,69.34,0,0,0-20.09-17.88,66.33,66.33,0,0,0-12.64-5.45,67.15,67.15,0,0,1,13.47,3.75,71.48,71.48,0,0,1,12.47,6.72,73.4,73.4,0,0,1,11.06,9.13,66.27,66.27,0,0,1,4.86,5.42,35.06,35.06,0,0,1,4.27,6.47Z" transform="translate(-0.72 -0.53)"/><path class="cls-2" d="M270,306.28a64.81,64.81,0,0,0-4.08-8.41,41.17,41.17,0,0,0-5.57-7.41,48.77,48.77,0,0,0-15.6-10.78,50.22,50.22,0,0,1,17.57,8.6,45.63,45.63,0,0,1,7.2,7,71,71,0,0,1,5.69,8.25Z" transform="translate(-0.72 -0.53)"/><path class="cls-2" d="M264.09,317.32a38,38,0,0,0-2.39-6.67,72.86,72.86,0,0,0-3.42-6.7c-2.56-4.34-5.4-8.64-9.43-11.91,4.79,2.12,8.89,5.7,12.66,9.41a76.75,76.75,0,0,1,5.4,6,44,44,0,0,1,4.81,7Z" transform="translate(-0.72 -0.53)"/><line class="cls-3" x1="164" y1="305.86" x2="499.64" y2="499.64"/><path class="cls-1" d="M349.44,238.76c-17.07,63.72-57.3,72.45-84.36,27.55-56-93-10.73-192.25-10.73-192.25S363,84.45,415.48,179.48C440.82,225.36,404.24,253.45,349.44,238.76Z" transform="translate(-0.72 -0.53)"/><path class="cls-2" d="M303.15,300.6c-10.88,0-27.74-5.13-43.38-31.08C229.9,220,228.47,168.81,232.53,134.59c4.39-37,15.7-62,16.18-63.1l1.83-4,4.4.42c1.15.11,28.52,2.86,62.74,17.54,31.66,13.6,75.27,40.42,103.23,91,15.72,28.45,7.41,46.32,1,54.44-12.61,16.13-38.4,21.79-68.2,15.28-9.71,31.71-26.25,51.3-45.88,54.07A33.64,33.64,0,0,1,303.15,300.6ZM258.27,80.85a233.4,233.4,0,0,0-13.46,55.62c-3.76,32.18-2.38,80.27,25.58,126.64C281,280.64,294,289.7,306.14,288c15.42-2.18,29.36-21.18,37.31-50.83l1.6-6,6,1.6c27.39,7.34,50.82,3.7,61.14-9.5,7.71-9.85,6.95-24.33-2.14-40.79-26.18-47.4-67.14-72.64-96.88-85.48A234.07,234.07,0,0,0,258.27,80.85Z" transform="translate(-0.72 -0.53)"/><path class="cls-2" d="M296.51,285.13a32.74,32.74,0,0,1-6.45-4.3,66,66,0,0,1-5.36-4.9,84.3,84.3,0,0,1-9.06-11,89.65,89.65,0,0,1-12.11-25.11,94.5,94.5,0,0,0,6.69,12,91,91,0,0,0,8.38,10.72,80.8,80.8,0,0,0,9.88,9.1,60.69,60.69,0,0,0,5.42,3.73,26.17,26.17,0,0,0,5.43,2.68Z" transform="translate(-0.72 -0.53)"/><path class="cls-2" d="M302.48,275.8a65.5,65.5,0,0,1-15.4-13.49,61.54,61.54,0,0,1-10.22-17.17,60,60,0,0,0,12.33,15.12,61.25,61.25,0,0,0,16,10.33Z" transform="translate(-0.72 -0.53)"/><path class="cls-2" d="M313.28,272.27a50.08,50.08,0,0,1-8.63-5.77,72.72,72.72,0,0,1-7.31-6.81,54,54,0,0,1-10.72-16.3A52,52,0,0,0,300,256.61a68.63,68.63,0,0,0,8,4.75,44,44,0,0,0,8.22,3.28Z" transform="translate(-0.72 -0.53)"/><path class="cls-2" d="M407.28,215.79a28.39,28.39,0,0,0,.43-6.11,61.52,61.52,0,0,0-.46-6.6,69.14,69.14,0,0,0-8.46-25.53,66.35,66.35,0,0,0-8.22-11,68,68,0,0,1,9.79,10A72.94,72.94,0,0,1,412.81,202a67.29,67.29,0,0,1,1.5,7.13,34.86,34.86,0,0,1,.46,7.74Z" transform="translate(-0.72 -0.53)"/><path class="cls-2" d="M397.84,217.09a64.62,64.62,0,0,0,.67-9.32,41,41,0,0,0-1.12-9.2,48.9,48.9,0,0,0-8.11-17.14,50.35,50.35,0,0,1,10.91,16.24,45.16,45.16,0,0,1,2.71,9.7,69.68,69.68,0,0,1,.81,10Z" transform="translate(-0.72 -0.53)"/><path class="cls-2" d="M387.17,223.68a38.5,38.5,0,0,0,1.27-7c.25-2.47.37-5,.38-7.51,0-5-.35-10.19-2.21-15,3.09,4.23,4.85,9.38,6.26,14.48q1,3.85,1.7,7.86a45.89,45.89,0,0,1,.68,8.44Z" transform="translate(-0.72 -0.53)"/><line class="cls-3" x1="305.86" y1="164" x2="499.64" y2="499.64"/><path class="cls-1" d="M500.36,198.33C453.72,245,414.52,232.41,413.53,180,411.47,71.46,500.36,8.15,500.36,8.15S589.25,71.46,587.19,180C586.2,232.41,540.48,238.44,500.36,198.33Z" transform="translate(-0.72 -0.53)"/><path class="cls-2" d="M447.38,233.4a36.46,36.46,0,0,1-13.77-2.59c-9.53-3.84-25.62-15.54-26.29-50.69-1.09-57.83,23.26-102.86,43.88-130.46,22.29-29.83,44.62-45.9,45.56-46.57l3.6-2.56L504,3.09c.94.67,23.27,16.74,45.56,46.57,20.62,27.6,45,72.63,43.88,130.46-.62,32.5-16.75,43.82-26.31,47.68-19,7.65-44.15-.34-66.7-20.87C481.8,224.24,463.29,233.4,447.38,233.4ZM500.36,16a233.83,233.83,0,0,0-39.47,41.44c-19.34,26-42.18,68.33-41.16,122.47.39,20.46,7.14,34.82,18.52,39.41,14.44,5.83,36-3.66,57.72-25.36l4.39-4.39,4.39,4.39c20,20.05,42.16,28.61,57.7,22.35,11.6-4.68,18.18-17.61,18.54-36.4,1-54.14-21.82-96.48-41.16-122.47A233.83,233.83,0,0,0,500.36,16Z" transform="translate(-0.72 -0.53)"/><path class="cls-2" d="M431.33,212a33.6,33.6,0,0,1-3.43-6.95,68.39,68.39,0,0,1-2.19-6.92,84.61,84.61,0,0,1-2.36-14,94.16,94.16,0,0,1-.05-14.05,95.47,95.47,0,0,1,2.12-13.75,94.48,94.48,0,0,0-.23,13.76,91.58,91.58,0,0,0,1.9,13.47,79.52,79.52,0,0,0,4,12.82,61.29,61.29,0,0,0,2.82,5.95,26.91,26.91,0,0,0,3.37,5Z" transform="translate(-0.72 -0.53)"/><path class="cls-2" d="M441.17,206.92a65.14,65.14,0,0,1-6.58-19.39,61.45,61.45,0,0,1-.28-20,60.25,60.25,0,0,0,3.12,19.26,61.08,61.08,0,0,0,8.69,16.93Z" transform="translate(-0.72 -0.53)"/><path class="cls-2" d="M452.29,209.26a50.24,50.24,0,0,1-4.59-9.32,72.75,72.75,0,0,1-2.92-9.54,54.18,54.18,0,0,1-1.14-19.48,52,52,0,0,0,5,18.15,67.17,67.17,0,0,0,4.52,8.1,43.68,43.68,0,0,0,5.48,7Z" transform="translate(-0.72 -0.53)"/><path class="cls-2" d="M561.94,207.35a28.61,28.61,0,0,0,3.43-5.08,61.79,61.79,0,0,0,2.9-6,68.37,68.37,0,0,0,4-12.82A69.15,69.15,0,0,0,573.71,170a66.86,66.86,0,0,0-1.6-13.68,67.39,67.39,0,0,1,3.48,13.55A71.17,71.17,0,0,1,576,184a74.34,74.34,0,0,1-2.37,14.14,68.25,68.25,0,0,1-2.28,6.92A34.18,34.18,0,0,1,567.9,212Z" transform="translate(-0.72 -0.53)"/><path class="cls-2" d="M553.11,203.75a65.44,65.44,0,0,0,5.25-7.73,41.53,41.53,0,0,0,3.63-8.53,49,49,0,0,0,1.54-18.9,50.31,50.31,0,0,1,1.33,19.52,45.51,45.51,0,0,1-2.5,9.75,68.63,68.63,0,0,1-4.3,9.06Z" transform="translate(-0.72 -0.53)"/><path class="cls-2" d="M540.58,204.12a38.12,38.12,0,0,0,4.58-5.39c1.45-2,2.82-4.14,4.09-6.32,2.48-4.39,4.79-9,5.6-14.12.56,5.21-.49,10.55-1.82,15.67a80,80,0,0,1-2.46,7.65,44.35,44.35,0,0,1-3.63,7.65Z" transform="translate(-0.72 -0.53)"/><line class="cls-3" x1="499.64" y1="112.08" x2="499.64" y2="499.64"/><path class="cls-1" d="M654.14,233.81c-29.66,7.95-42.55-6.24-30.75-27.6,24.44-44.25,75-49.09,75-49.09s21.1,46.23-5,89.52C680.82,267.54,661,259.33,654.14,233.81Z" transform="translate(-0.72 -0.53)"/><path class="cls-2" d="M676.58,264.71a21.12,21.12,0,0,1-2.85-.2c-10.19-1.44-18.81-10-23.76-23.37-20.14,3.89-29.21-3-32.92-7.73-5.87-7.51-5.54-18.52.91-30.2,25.73-46.58,77.67-52.05,79.87-52.26l4.4-.42,1.83,4c.92,2,22.15,49.72-5.32,95.29C693,259.42,685,264.71,676.58,264.71Zm-18.05-38.5,1.61,6c3,11.28,9,19.13,15.32,20,5.9.83,10.45-5.15,12.65-8.79,19.59-32.49,10.46-67.38,6.32-79.39-12.47,2.41-47.26,12-65.6,45.17-3.94,7.12-4.67,13.15-2,16.55,2.79,3.58,11,6,25.71,2.06Z" transform="translate(-0.72 -0.53)"/><path class="cls-2" d="M626.9,232.49a39.52,39.52,0,0,1,2.09-8.28,47.77,47.77,0,0,1,3.44-7.43A33.89,33.89,0,0,1,643,205a31.81,31.81,0,0,0-6.74,13.34,42,42,0,0,0-1.21,7.23,32.09,32.09,0,0,0,.13,7Z" transform="translate(-0.72 -0.53)"/><path class="cls-2" d="M663.35,249a38.91,38.91,0,0,0,11.7-8.23,32,32,0,0,0,8-12.62A33.88,33.88,0,0,1,678,243.09a47.34,47.34,0,0,1-4.76,6.6,39.14,39.14,0,0,1-6.12,5.83Z" transform="translate(-0.72 -0.53)"/><path class="cls-2" d="M688.11,175c-6.12,10.88-12,21.93-17.61,33.08s-11.06,22.45-16,34l-7.73-4.46c7.56-10.05,14.63-20.39,21.48-30.85S681.75,185.72,688.11,175Z" transform="translate(-0.72 -0.53)"/><path class="cls-1" d="M766.72,346.38c-29.67-7.94-33.73-26.67-12.83-39.27,43.29-26.1,89.52-5,89.52-5s-4.84,50.58-49.09,75C773,388.93,759.88,371.9,766.72,346.38Z" transform="translate(-0.72 -0.53)"/><path class="cls-2" d="M781.39,387.13a20.74,20.74,0,0,1-13.06-4.37c-8.1-6.33-11.27-18.09-8.89-32.11-19.39-6.71-23.8-17.19-24.64-23.15-1.34-9.45,4.45-18.82,15.89-25.71,45.56-27.47,93.28-6.24,95.29-5.32l4,1.83-.42,4.4c-.21,2.2-5.68,54.14-52.26,79.86A33.21,33.21,0,0,1,781.39,387.13ZM802,300.33a86,86,0,0,0-44.91,12.09c-7,4.2-10.62,9.06-10,13.34.64,4.49,6.55,10.69,21.25,14.63l6,1.61-1.61,6c-3,11.27-1.74,21.09,3.27,25,4.68,3.67,11.62.77,15.34-1.29,33.35-18.42,42.81-53.14,45.19-65.59A108.45,108.45,0,0,0,802,300.33Z" transform="translate(-0.72 -0.53)"/><path class="cls-2" d="M743.78,331.62a39.79,39.79,0,0,1,6-6.12,48,48,0,0,1,6.7-4.72,34,34,0,0,1,15-4.9A31.91,31.91,0,0,0,759,324.06a43.77,43.77,0,0,0-4.66,5.66,32,32,0,0,0-3.36,6.09Z" transform="translate(-0.72 -0.53)"/><path class="cls-2" d="M767.09,364.17a39.18,39.18,0,0,0,14.25-1.28A32.16,32.16,0,0,0,794.61,356a34,34,0,0,1-11.84,10.4,47.73,47.73,0,0,1-7.42,3.34,39.75,39.75,0,0,1-8.21,2Z" transform="translate(-0.72 -0.53)"/><path class="cls-2" d="M825.55,312.42c-10.74,6.36-21.32,13-31.79,19.84s-20.8,13.92-30.85,21.47L758.45,346c11.57-4.93,22.86-10.34,34-16S814.67,318.54,825.55,312.42Z" transform="translate(-0.72 -0.53)"/><path class="cls-1" d="M807.92,500.17c-21.71-21.72-15.87-40,8.54-40.43,50.53-1,80,40.43,80,40.43s-29.48,41.38-80,40.43C792.05,540.13,789.25,518.85,807.92,500.17Z" transform="translate(-0.72 -0.53)"/><path class="cls-2" d="M818.21,546.82l-1.87,0c-12.45-.24-21.64-5.46-25.21-14.32-3.85-9.54-.72-21.3,8.36-32.26-13.44-15.51-12-26.79-9.77-32.37,3.57-8.85,13.27-14.06,26.62-14.32,53.23-1,83.91,41.24,85.19,43l2.56,3.6-2.56,3.6C900.26,505.54,870.25,546.81,818.21,546.82Zm-.06-80.89h-1.58c-8.13.15-13.72,2.54-15.34,6.55-1.69,4.21.33,12.53,11.08,23.29l4.39,4.39-4.39,4.38c-8.25,8.26-12,17.39-9.67,23.29,2.22,5.51,9.68,6.47,13.93,6.55,37.92.72,63.59-24.63,71.92-34.22C880.29,490.71,855.22,465.93,818.15,465.93Z" transform="translate(-0.72 -0.53)"/><path class="cls-2" d="M795.45,475.91a40,40,0,0,1,8.21-2.33,47.85,47.85,0,0,1,8.15-.73,34,34,0,0,1,15.47,3.27,32,32,0,0,0-14.92.83,43,43,0,0,0-6.86,2.57,32.38,32.38,0,0,0-6,3.59Z" transform="translate(-0.72 -0.53)"/><path class="cls-2" d="M799.35,515.75a39.21,39.21,0,0,0,13,6,31.93,31.93,0,0,0,14.95.64,33.75,33.75,0,0,1-15.44,3.09,47.34,47.34,0,0,1-8.1-.82,39.6,39.6,0,0,1-8.11-2.38Z" transform="translate(-0.72 -0.53)"/><path class="cls-2" d="M875.86,500.17c-12.49.14-25,.61-37.46,1.29s-25,1.65-37.45,3.17v-8.92c12.48,1.52,25,2.47,37.45,3.17S863.37,500,875.86,500.17Z" transform="translate(-0.72 -0.53)"/><path class="cls-1" d="M766.72,654c-8-29.67,6.24-42.55,27.6-30.75,44.25,24.44,49.09,75,49.09,75s-46.23,21.11-89.52-5C733,680.63,741.2,660.79,766.72,654Z" transform="translate(-0.72 -0.53)"/><path class="cls-2" d="M802.1,712.56a98.35,98.35,0,0,1-51.41-14c-10.66-6.43-16-15.54-14.67-25,1.44-10.18,10-18.8,23.37-23.76-3.89-20.14,3-29.2,7.73-32.91,7.51-5.88,18.52-5.54,30.2.91,46.58,25.73,52,77.66,52.26,79.86L850,702l-4,1.84A114.49,114.49,0,0,1,802.1,712.56ZM780,625.05a8.3,8.3,0,0,0-5.2,1.58c-3.57,2.8-6,11-2,25.71l1.61,6-6,1.6c-11.28,3-19.14,9-20,15.33-.84,5.89,5.15,10.45,8.79,12.64,32.49,19.59,67.38,10.47,79.39,6.32-2.41-12.46-12-47.25-45.17-65.6C787,626.26,783.13,625.05,780,625.05Z" transform="translate(-0.72 -0.53)"/><path class="cls-2" d="M768,626.7a40.15,40.15,0,0,1,8.28,2.09,49.11,49.11,0,0,1,7.42,3.44A33.9,33.9,0,0,1,795.5,642.8a31.87,31.87,0,0,0-13.34-6.74,43.72,43.72,0,0,0-7.22-1.21,32.07,32.07,0,0,0-7,.14Z" transform="translate(-0.72 -0.53)"/><path class="cls-2" d="M751.5,663.16a39.13,39.13,0,0,0,8.24,11.7,31.94,31.94,0,0,0,12.62,8,33.88,33.88,0,0,1-14.92-5,48.1,48.1,0,0,1-6.6-4.75A39.58,39.58,0,0,1,745,667Z" transform="translate(-0.72 -0.53)"/><path class="cls-2" d="M825.55,687.91c-10.88-6.12-21.93-11.95-33.08-17.61s-22.45-11-34-16l4.46-7.72c10.05,7.56,20.38,14.63,30.85,21.47S814.81,681.55,825.55,687.91Z" transform="translate(-0.72 -0.53)"/><path class="cls-1" d="M654.14,766.52c8-29.66,26.68-33.72,39.28-12.82,26.1,43.29,5,89.51,5,89.51s-50.59-4.84-75-49.08C611.59,772.76,628.63,759.69,654.14,766.52Z" transform="translate(-0.72 -0.53)"/><path class="cls-2" d="M702.23,849.81l-4.4-.42c-2.2-.21-54.14-5.69-79.87-52.26-6-10.9-6.09-21.47-.2-29,6.34-8.1,18.1-11.27,32.12-8.89,6.71-19.39,17.19-23.79,23.15-24.64,9.45-1.34,18.81,4.46,25.71,15.89,27.47,45.57,6.24,93.29,5.32,95.3ZM641.14,770.9c-6.17,0-11.1,1.68-13.6,4.88-3.67,4.69-.77,11.63,1.29,15.35,18.42,33.35,53.14,42.8,65.59,45.18,4.14-12,13.29-46.9-6.31-79.41-4.2-7-9.07-10.61-13.34-10-4.49.63-10.7,6.55-14.63,21.24l-1.61,6-6-1.6A44.45,44.45,0,0,0,641.14,770.9Z" transform="translate(-0.72 -0.53)"/><path class="cls-2" d="M668.91,743.59a39.79,39.79,0,0,1,6.12,5.95,47.87,47.87,0,0,1,4.72,6.69,33.89,33.89,0,0,1,4.89,15,31.8,31.8,0,0,0-8.18-12.51,42.24,42.24,0,0,0-5.65-4.66,32.64,32.64,0,0,0-6.09-3.37Z" transform="translate(-0.72 -0.53)"/><path class="cls-2" d="M636.36,766.89a39.16,39.16,0,0,0,1.28,14.25,32,32,0,0,0,6.92,13.27,33.82,33.82,0,0,1-10.4-11.83,47.73,47.73,0,0,1-3.34-7.42,39.85,39.85,0,0,1-2-8.22Z" transform="translate(-0.72 -0.53)"/><path class="cls-2" d="M688.11,825.35c-6.36-10.74-13-21.31-19.84-31.79s-13.92-20.79-21.48-30.85l7.73-4.46c4.92,11.58,10.34,22.87,16,34S682,814.47,688.11,825.35Z" transform="translate(-0.72 -0.53)"/><path class="cls-1" d="M500.36,807.73c21.72-21.72,40-15.87,40.43,8.53,1,50.54-40.43,80-40.43,80s-41.39-29.48-40.43-80C460.39,791.86,481.68,789.05,500.36,807.73Z" transform="translate(-0.72 -0.53)"/><path class="cls-2" d="M500.36,903.9l-3.6-2.57c-1.8-1.28-44-32-43-85.19.23-12.44,5.45-21.63,14.32-25.21,9.54-3.84,21.3-.71,32.26,8.36,15.51-13.44,26.78-12,32.37-9.76,8.84,3.57,14.06,13.27,14.32,26.61,1,53.2-41.24,83.91-43,85.19ZM476.54,801.75a10.26,10.26,0,0,0-3.85.69c-5.52,2.23-6.48,9.69-6.56,13.94-.71,37.93,24.64,63.59,34.23,71.92,9.59-8.33,34.95-34,34.23-71.92-.16-8.13-2.54-13.73-6.55-15.34-4.21-1.69-12.54.32-23.29,11.08l-4.39,4.39L496,812.12C489.35,805.5,482.16,801.75,476.54,801.75Z" transform="translate(-0.72 -0.53)"/><path class="cls-2" d="M524.62,795.25a39.48,39.48,0,0,1,2.32,8.21,48,48,0,0,1,.74,8.16,34,34,0,0,1-3.27,15.47,31.94,31.94,0,0,0-.84-14.93A42.73,42.73,0,0,0,521,805.3a32.38,32.38,0,0,0-3.59-6Z" transform="translate(-0.72 -0.53)"/><path class="cls-2" d="M484.78,799.16a39,39,0,0,0-6,13,31.93,31.93,0,0,0-.64,15A33.76,33.76,0,0,1,475,811.64a47.22,47.22,0,0,1,.82-8.09,39,39,0,0,1,2.38-8.11Z" transform="translate(-0.72 -0.53)"/><path class="cls-2" d="M500.36,875.66c-.14-12.48-.62-25-1.29-37.45s-1.65-25-3.17-37.45h8.92c-1.52,12.48-2.48,25-3.17,37.45S500.5,863.18,500.36,875.66Z" transform="translate(-0.72 -0.53)"/><path class="cls-1" d="M346.58,766.52c29.67-7.94,42.55,6.24,30.75,27.61-24.44,44.24-75,49.08-75,49.08s-21.1-46.22,5-89.51C319.9,732.8,339.74,741,346.58,766.52Z" transform="translate(-0.72 -0.53)"/><path class="cls-2" d="M298.5,849.81l-1.84-4c-.92-2-22.15-49.73,5.33-95.3,6.42-10.66,15.54-16,25-14.67,10.18,1.44,18.8,10,23.75,23.37,20.15-3.88,29.21,3,32.92,7.73,5.88,7.51,5.54,18.52-.91,30.21-25.73,46.57-77.67,52-79.86,52.26ZM324.15,748c-5.35,0-9.48,5.46-11.54,8.87-19.67,32.63-10.49,67.43-6.33,79.4,12.45-2.41,47.26-11.94,65.62-45.17,3.93-7.12,4.66-13.16,2-16.56-2.8-3.57-11-6-25.71-2.05l-6,1.6-1.6-6c-3-11.27-9-19.13-15.33-20A8.53,8.53,0,0,0,324.15,748Z" transform="translate(-0.72 -0.53)"/><path class="cls-2" d="M373.83,767.85a39.28,39.28,0,0,1-2.1,8.27,47.79,47.79,0,0,1-3.43,7.43,34,34,0,0,1-10.58,11.76A31.89,31.89,0,0,0,364.47,782a43,43,0,0,0,1.2-7.22,32.07,32.07,0,0,0-.13-7Z" transform="translate(-0.72 -0.53)"/><path class="cls-2" d="M337.37,751.31a39.09,39.09,0,0,0-11.7,8.23,31.87,31.87,0,0,0-8,12.63,33.73,33.73,0,0,1,5-14.93,49,49,0,0,1,4.76-6.59,40.11,40.11,0,0,1,6.12-5.84Z" transform="translate(-0.72 -0.53)"/><path class="cls-2" d="M312.61,825.35c6.13-10.88,11.95-21.93,17.61-33.07s11.06-22.45,16-34l7.73,4.46c-7.56,10.06-14.63,20.39-21.47,30.85S319,814.61,312.61,825.35Z" transform="translate(-0.72 -0.53)"/><path class="cls-1" d="M234,654c29.67,7.95,33.73,26.68,12.83,39.28-43.29,26.1-89.51,5-89.51,5s4.83-50.58,49.08-75C227.76,611.4,240.84,628.43,234,654Z" transform="translate(-0.72 -0.53)"/><path class="cls-2" d="M198.63,712.56a114.35,114.35,0,0,1-43.89-8.69l-4-1.84.42-4.4c.21-2.2,5.68-54.13,52.26-79.86,10.9-6,21.47-6.09,29-.2,8.1,6.34,11.28,18.09,8.89,32.12,19.4,6.7,23.8,17.19,24.65,23.15,1.33,9.44-4.46,18.81-15.9,25.7A98.43,98.43,0,0,1,198.63,712.56Zm-34.41-18.33c12,4.14,46.9,13.29,79.41-6.32,7-4.2,10.61-9.06,10-13.34-.64-4.49-6.55-10.69-21.24-14.63l-6-1.6,1.61-6c3-11.27,1.74-21.08-3.26-25-4.69-3.66-11.63-.76-15.35,1.29C176.05,647.05,166.6,681.77,164.22,694.23Z" transform="translate(-0.72 -0.53)"/><path class="cls-2" d="M256.94,668.72a39.79,39.79,0,0,1-5.95,6.12,48.39,48.39,0,0,1-6.69,4.71,34.08,34.08,0,0,1-15,4.9,31.91,31.91,0,0,0,12.51-8.18,42.88,42.88,0,0,0,4.66-5.65,32.09,32.09,0,0,0,3.36-6.1Z" transform="translate(-0.72 -0.53)"/><path class="cls-2" d="M233.64,636.17a39,39,0,0,0-14.25,1.28,31.9,31.9,0,0,0-13.27,6.91A33.83,33.83,0,0,1,218,634a47.69,47.69,0,0,1,7.42-3.33,39.13,39.13,0,0,1,8.21-2Z" transform="translate(-0.72 -0.53)"/><path class="cls-2" d="M175.17,687.91c10.75-6.36,21.32-13,31.79-19.84s20.8-13.91,30.85-21.47l4.46,7.72c-11.57,4.93-22.86,10.34-34,16S186.05,681.79,175.17,687.91Z" transform="translate(-0.72 -0.53)"/><path class="cls-1" d="M192.8,500.17c21.71,21.71,15.87,40-8.53,40.43-50.54.95-80-40.43-80-40.43s29.48-41.39,80-40.43C208.67,460.2,211.48,481.49,192.8,500.17Z" transform="translate(-0.72 -0.53)"/><path class="cls-2" d="M182.51,546.82c-52,0-82-41.28-83.32-43.05l-2.56-3.6,2.56-3.6c1.29-1.8,32-44,85.19-43,12.45.24,21.64,5.46,25.21,14.33,3.85,9.53.72,21.3-8.36,32.26,13.44,15.5,12,26.78,9.77,32.37-3.57,8.84-13.27,14.06-26.62,14.31Zm-70.29-46.66c8.2,9.44,33.26,34.25,70.35,34.25l1.58,0c8.13-.15,13.72-2.54,15.34-6.54,1.7-4.21-.32-12.54-11.08-23.3L184,500.17l4.39-4.39c8.25-8.25,12.05-17.39,9.67-23.28-2.22-5.52-9.68-6.48-13.93-6.56C146,465.2,120.51,490.56,112.22,500.16Z" transform="translate(-0.72 -0.53)"/><path class="cls-2" d="M205.28,524.42a39.43,39.43,0,0,1-8.22,2.33,48.91,48.91,0,0,1-8.15.74,34,34,0,0,1-15.47-3.28,31.82,31.82,0,0,0,14.93-.83,42.31,42.31,0,0,0,6.85-2.57,31.92,31.92,0,0,0,6-3.59Z" transform="translate(-0.72 -0.53)"/><path class="cls-2" d="M201.37,484.58a39.2,39.2,0,0,0-13-6,32.06,32.06,0,0,0-14.95-.65,34,34,0,0,1,15.45-3.09,48.24,48.24,0,0,1,8.09.82,40.24,40.24,0,0,1,8.11,2.38Z" transform="translate(-0.72 -0.53)"/><path class="cls-2" d="M124.87,500.17c12.48-.14,25-.62,37.45-1.29s25-1.65,37.45-3.17v8.92c-12.48-1.52-25-2.48-37.45-3.17S137.35,500.31,124.87,500.17Z" transform="translate(-0.72 -0.53)"/><path class="cls-1" d="M234,346.38c7.95,29.67-6.24,42.55-27.6,30.75-44.25-24.44-49.08-75-49.08-75s46.22-21.1,89.51,5C267.73,319.71,259.52,339.55,234,346.38Z" transform="translate(-0.72 -0.53)"/><path class="cls-2" d="M220.84,387.66c-5.35,0-11.3-1.71-17.44-5.1-46.58-25.72-52.05-77.66-52.26-79.86l-.42-4.4,4-1.83c2-.92,49.73-22.15,95.29,5.32,10.66,6.43,16,15.54,14.67,25-1.43,10.18-10,18.81-23.36,23.76,3.88,20.15-3,29.2-7.73,32.91A20.33,20.33,0,0,1,220.84,387.66ZM164.23,306.1c2.41,12.47,12,47.25,45.17,65.6,7.12,3.93,13.16,4.66,16.56,2,3.57-2.79,6-11,2-25.71l-1.61-6,6-1.61c11.27-3,19.13-9,20-15.32.83-5.9-5.15-10.46-8.79-12.65C211.13,292.83,176.24,302,164.23,306.1Z" transform="translate(-0.72 -0.53)"/><path class="cls-2" d="M232.68,373.63a39.89,39.89,0,0,1-8.27-2.09A46.93,46.93,0,0,1,217,368.1a34,34,0,0,1-11.76-10.57,31.87,31.87,0,0,0,13.34,6.74,41.88,41.88,0,0,0,7.22,1.21,32.07,32.07,0,0,0,7-.13Z" transform="translate(-0.72 -0.53)"/><path class="cls-2" d="M249.22,337.18A39.26,39.26,0,0,0,241,325.47a32.16,32.16,0,0,0-12.63-8,33.88,33.88,0,0,1,14.92,5.05,46.76,46.76,0,0,1,6.6,4.76,39.21,39.21,0,0,1,5.84,6.12Z" transform="translate(-0.72 -0.53)"/><path class="cls-2" d="M175.17,312.42c10.88,6.12,21.94,11.95,33.08,17.61s22.45,11.05,34,16l-4.46,7.72c-10.05-7.55-20.38-14.62-30.85-21.47S185.92,318.78,175.17,312.42Z" transform="translate(-0.72 -0.53)"/><path class="cls-1" d="M346.58,233.81c-7.95,29.66-26.68,33.73-39.28,12.83-26.1-43.29-5-89.52-5-89.52s50.59,4.84,75,49.09C389.13,227.57,372.1,240.65,346.58,233.81Z" transform="translate(-0.72 -0.53)"/><path class="cls-2" d="M325,265.92c-8.52,0-16.79-5.73-23-16.08-27.48-45.57-6.25-93.29-5.33-95.29l1.84-4,4.4.42c2.19.21,54.13,5.68,79.86,52.25,6,10.9,6.09,21.47.2,29-6.34,8.1-18.09,11.27-32.12,8.89-6.71,19.39-17.19,23.8-23.15,24.64A18.44,18.44,0,0,1,325,265.92ZM306.3,164c-4.14,12-13.29,46.9,6.31,79.41,4.2,7,9.06,10.61,13.34,10,4.5-.63,10.7-6.54,14.64-21.24l1.6-6,6,1.61c11.28,3,21.09,1.73,25-3.27,3.67-4.68.77-11.62-1.28-15.34C353.47,175.85,318.75,166.4,306.3,164Z" transform="translate(-0.72 -0.53)"/><path class="cls-2" d="M331.81,256.74a39.33,39.33,0,0,1-6.12-6A47.8,47.8,0,0,1,321,244.1a33.87,33.87,0,0,1-4.9-15,32,32,0,0,0,8.18,12.51,42.94,42.94,0,0,0,5.65,4.65A31.83,31.83,0,0,0,336,249.6Z" transform="translate(-0.72 -0.53)"/><path class="cls-2" d="M364.36,233.44a39.16,39.16,0,0,0-1.28-14.25,32,32,0,0,0-6.91-13.27,33.88,33.88,0,0,1,10.39,11.83,47.64,47.64,0,0,1,3.34,7.42,39.37,39.37,0,0,1,2,8.22Z" transform="translate(-0.72 -0.53)"/><path class="cls-2" d="M312.61,175c6.37,10.74,13,21.31,19.85,31.79s13.91,20.8,21.47,30.85l-7.73,4.46c-4.92-11.57-10.34-22.86-16-34S318.74,185.86,312.61,175Z" transform="translate(-0.72 -0.53)"/><path class="cls-1" d="M500.36,192.6c-21.72,21.72-40,15.87-40.43-8.53-1-50.54,40.43-80,40.43-80s41.39,29.48,40.43,80C540.33,208.47,519,211.28,500.36,192.6Z" transform="translate(-0.72 -0.53)"/><path class="cls-2" d="M475.82,212.26A20.71,20.71,0,0,1,468,210.8c-8.84-3.56-14.06-13.26-14.31-26.61-1-53.2,41.23-83.91,43-85.19l3.6-2.56L504,99c1.8,1.28,44,32,43,85.19-.24,12.45-5.46,21.63-14.33,25.21-9.54,3.84-21.3.72-32.26-8.36C490.27,209.83,481.94,212.26,475.82,212.26ZM500.36,112c-9.59,8.32-34.94,34-34.23,71.91.16,8.14,2.54,13.73,6.55,15.34,4.21,1.7,12.54-.32,23.29-11.07l4.39-4.39,4.39,4.39c8.25,8.25,17.39,12,23.28,9.67,5.52-2.22,6.48-9.69,6.56-13.94C535.31,146,510,120.37,500.36,112Z" transform="translate(-0.72 -0.53)"/><path class="cls-2" d="M476.1,205.08a39.48,39.48,0,0,1-2.32-8.21,47.87,47.87,0,0,1-.74-8.15,33.84,33.84,0,0,1,3.28-15.47,31.77,31.77,0,0,0,.83,14.92,43,43,0,0,0,2.56,6.86,32.41,32.41,0,0,0,3.6,6Z" transform="translate(-0.72 -0.53)"/><path class="cls-2" d="M515.94,201.18a39,39,0,0,0,6-13,32.07,32.07,0,0,0,.65-14.95,34,34,0,0,1,3.09,15.44,48.36,48.36,0,0,1-.82,8.1,39.64,39.64,0,0,1-2.39,8.11Z" transform="translate(-0.72 -0.53)"/><path class="cls-2" d="M500.36,124.67c.14,12.49.62,25,1.29,37.45s1.65,25,3.17,37.46H495.9c1.52-12.49,2.48-25,3.17-37.46S500.22,137.16,500.36,124.67Z" transform="translate(-0.72 -0.53)"/><circle class="cls-1" cx="499.64" cy="499.64" r="297.84"/><path class="cls-2" d="M500.36,805.76a305.59,305.59,0,1,1,216.09-89.51A303.56,303.56,0,0,1,500.36,805.76Zm0-595.67a290.07,290.07,0,1,0,205.12,85A288.19,288.19,0,0,0,500.36,210.09Z" transform="translate(-0.72 -0.53)"/><rect class="cls-2" x="402.38" y="358.68" width="297.84" height="3.1" transform="translate(23.56 754.61) rotate(-70.01)"/><circle class="cls-2" cx="584.17" cy="267.38" r="19.65"/><rect class="cls-2" x="447.17" y="384.54" width="297.84" height="3.1" transform="matrix(0.64, -0.77, 0.77, 0.64, -83.55, 594.02)"/><circle class="cls-2" cx="658.51" cy="310.3" r="19.65"/><rect class="cls-2" x="480.41" y="424.16" width="297.83" height="3.1" transform="translate(-129.27 371.21) rotate(-30)"/><circle class="cls-2" cx="713.69" cy="376.06" r="19.65"/><rect class="cls-2" x="498.1" y="472.76" width="297.83" height="3.1" transform="translate(-73.25 119.01) rotate(-10)"/><circle class="cls-2" cx="743.05" cy="456.72" r="19.65"/><rect class="cls-2" x="645.47" y="377.11" width="3.1" height="297.83" transform="translate(15.91 1071.34) rotate(-80)"/><circle class="cls-2" cx="743.05" cy="542.56" r="19.65"/><rect class="cls-2" x="627.78" y="425.71" width="3.1" height="297.84" transform="translate(-183.7 831.79) rotate(-60)"/><circle class="cls-2" cx="713.69" cy="623.22" r="19.65"/><rect class="cls-2" x="594.53" y="465.33" width="3.1" height="297.84" transform="translate(-256.09 526.33) rotate(-40)"/><circle class="cls-2" cx="658.51" cy="688.98" r="19.65"/><rect class="cls-2" x="549.74" y="491.19" width="3.1" height="297.84" transform="translate(-186.4 226.63) rotate(-20)"/><circle class="cls-2" cx="584.17" cy="731.89" r="19.65"/><rect class="cls-2" x="498.09" y="499.64" width="3.1" height="297.84"/><circle class="cls-2" cx="499.64" cy="746.8" r="19.65"/><rect class="cls-2" x="300.51" y="638.55" width="297.84" height="3.1" transform="translate(-306.47 843.11) rotate(-70.01)"/><circle class="cls-2" cx="415.1" cy="731.89" r="19.65"/><rect class="cls-2" x="255.72" y="612.69" width="297.84" height="3.1" transform="translate(-326.71 528.77) rotate(-49.99)"/><circle class="cls-2" cx="340.77" cy="688.98" r="19.65"/><rect class="cls-2" x="222.48" y="573.07" width="297.84" height="3.1" transform="translate(-238.27 262.14) rotate(-30)"/><circle class="cls-2" cx="285.59" cy="623.22" r="19.65"/><rect class="cls-2" x="204.79" y="524.47" width="297.84" height="3.1" transform="translate(-86.76 68.95) rotate(-10.01)"/><circle class="cls-2" cx="256.23" cy="542.56" r="19.65"/><rect class="cls-2" x="352.15" y="325.39" width="3.1" height="297.84" transform="translate(-175.54 739.75) rotate(-80)"/><circle class="cls-2" cx="256.23" cy="456.72" r="19.65"/><rect class="cls-2" x="369.84" y="276.79" width="3.1" height="297.84" transform="translate(-183.7 533.96) rotate(-60)"/><circle class="cls-2" cx="285.59" cy="376.06" r="19.65"/><rect class="cls-2" x="403.09" y="237.17" width="3.1" height="297.84" transform="translate(-154.23 349.9) rotate(-40)"/><circle class="cls-2" cx="340.77" cy="310.3" r="19.65"/><rect class="cls-2" x="447.88" y="211.31" width="3.1" height="297.84" transform="matrix(0.94, -0.34, 0.34, 0.94, -96.82, 174.91)"/><circle class="cls-2" cx="415.1" cy="267.38" r="19.65"/><rect class="cls-2" x="498.09" y="201.8" width="3.1" height="297.84"/><circle class="cls-2" cx="499.64" cy="252.48" r="19.65"/><circle class="cls-1" cx="499.64" cy="499.64" r="201.66"/><path class="cls-2" d="M500.36,709.58C384.89,709.58,291,615.64,291,500.17s93.94-209.42,209.41-209.42,209.42,93.94,209.42,209.42S615.83,709.58,500.36,709.58Zm0-403.32c-106.92,0-193.9,87-193.9,193.91s87,193.9,193.9,193.9,193.9-87,193.9-193.9S607.28,306.26,500.36,306.26Z" transform="translate(-0.72 -0.53)"/><circle class="cls-2" cx="603.01" cy="396.26" r="30.25"/><circle class="cls-2" cx="645.83" cy="499.64" r="30.25"/><circle class="cls-2" cx="603.01" cy="603.01" r="30.25"/><circle class="cls-2" cx="499.64" cy="645.83" r="30.25"/><circle class="cls-2" cx="396.26" cy="603.01" r="30.25"/><circle class="cls-2" cx="353.44" cy="499.64" r="30.25"/><circle class="cls-2" cx="396.26" cy="396.26" r="30.25"/><circle class="cls-2" cx="499.64" cy="353.44" r="30.25"/><path class="cls-2" d="M500.36,580.06a79.89,79.89,0,1,1,79.89-79.89A80,80,0,0,1,500.36,580.06Zm0-150.47a70.58,70.58,0,1,0,70.58,70.58A70.66,70.66,0,0,0,500.36,429.59Z" transform="translate(-0.72 -0.53)"/><rect class="cls-2" x="462.15" y="461.96" width="76.41" height="76.41" transform="translate(499.5 -207.84) rotate(45)"/><path class="cls-2" d="M500.36,647.91c-81.47,0-147.75-66.28-147.75-147.74s66.28-147.75,147.75-147.75S648.11,418.7,648.11,500.17,581.83,647.91,500.36,647.91Zm0-292.39c-79.76,0-144.64,64.89-144.64,144.65S420.6,644.81,500.36,644.81,645,579.92,645,500.17,580.12,355.52,500.36,355.52Z" transform="translate(-0.72 -0.53)"/></svg>