<?xml version="1.0" encoding="utf-8"?>
<!-- Generator: Adobe Illustrator 25.2.1, SVG Export Plug-In . SVG Version: 6.00 Build 0)  -->
<svg version="1.1" id="Layer_1" xmlns="http://www.w3.org/2000/svg" xmlns:xlink="http://www.w3.org/1999/xlink" x="0px" y="0px"
	 viewBox="0 0 187.5 187.5" style="enable-background:new 0 0 187.5 187.5;" xml:space="preserve">
<style type="text/css">
	.st0{fill:none;}
	.st1{fill:url(#SVGID_1_);}
	.st2{fill:url(#SVGID_2_);}
	.st3{fill:url(#SVGID_3_);}
	.st4{fill:url(#SVGID_4_);}
	.st5{fill:url(#SVGID_5_);}
	.st6{fill:url(#SVGID_6_);}
	.st7{fill:url(#SVGID_7_);}
</style>
<g id="Layer_2_1_">
	<g id="Icons">
		<g id="Lett_Overskyet">
			<g id="Frame">
				<rect class="st0" width="187.5" height="187.5"/>
			</g>
			
				<linearGradient id="SVGID_1_" gradientUnits="userSpaceOnUse" x1="65.2445" y1="74.4943" x2="65.2445" y2="146.7276" gradientTransform="matrix(1 0 0 -1 0 190)">
				<stop  offset="0" style="stop-color:#FF931E"/>
				<stop  offset="1" style="stop-color:#FFC311"/>
			</linearGradient>
			<path class="st1" d="M50.5,113.6l4.1-5.4c-11.7-5.2-18.8-17.9-16.5-31C40.7,61.5,55.6,51,71.2,53.7c8.5,1.4,15.8,6.6,20.1,14.1
				c0.8,1.3,1.4,2.7,2,4.1l9.5-3c-0.5-1.5-1.2-3-1.9-4.4c-9.7-19.1-33-26.7-52.1-17s-26.7,33-17,52.1c2.7,5.2,6.5,9.8,11.2,13.3
				c1.2,0.9,2.5,1.8,3.9,2.6L50.5,113.6z"/>
			
				<linearGradient id="SVGID_2_" gradientUnits="userSpaceOnUse" x1="105.4724" y1="41.56" x2="105.4724" y2="172.37" gradientTransform="matrix(1 0 0 -1 0 190)">
				<stop  offset="0" style="stop-color:#FF931E"/>
				<stop  offset="1" style="stop-color:#FFC311"/>
			</linearGradient>
			<path class="st2" d="M97.7,50.7c-1.4-1.4-1.4-3.6,0-5l10.6-10.6c1.5-1.3,3.7-1.2,5,0.3c1.2,1.3,1.2,3.4,0,4.7l-10.6,10.6
				C101.3,52.1,99.1,52.1,97.7,50.7z"/>
			
				<linearGradient id="SVGID_3_" gradientUnits="userSpaceOnUse" x1="27.2181" y1="41.56" x2="27.2181" y2="172.37" gradientTransform="matrix(1 0 0 -1 0 190)">
				<stop  offset="0" style="stop-color:#FF931E"/>
				<stop  offset="1" style="stop-color:#FFC311"/>
			</linearGradient>
			<path class="st3" d="M35.1,113.3c1.4,1.4,1.4,3.6,0,5c0,0,0,0,0,0L24.5,129c-1.3,1.5-3.5,1.6-5,0.3c-1.5-1.3-1.6-3.5-0.3-5
				c0.1-0.1,0.2-0.2,0.3-0.3l10.6-10.6C31.5,112,33.7,112,35.1,113.3C35.1,113.3,35.1,113.3,35.1,113.3z"/>
			
				<linearGradient id="SVGID_4_" gradientUnits="userSpaceOnUse" x1="11.095" y1="41.56" x2="11.095" y2="172.37" gradientTransform="matrix(1 0 0 -1 0 190)">
				<stop  offset="0" style="stop-color:#FF931E"/>
				<stop  offset="1" style="stop-color:#FFC311"/>
			</linearGradient>
			<path class="st4" d="M22.1,82c0,2-1.6,3.5-3.5,3.5c0,0,0,0,0,0h-15C1.6,85.5,0,84,0,82s1.6-3.5,3.5-3.5h15
				C20.5,78.5,22.1,80,22.1,82z"/>
			
				<linearGradient id="SVGID_5_" gradientUnits="userSpaceOnUse" x1="27.3393" y1="41.56" x2="27.3393" y2="172.37" gradientTransform="matrix(1 0 0 -1 0 190)">
				<stop  offset="0" style="stop-color:#FF931E"/>
				<stop  offset="1" style="stop-color:#FFC311"/>
			</linearGradient>
			<path class="st5" d="M35.1,50.7c-1.4,1.4-3.6,1.4-5,0L19.5,40.1c-1.3-1.5-1.2-3.7,0.3-5c1.3-1.2,3.4-1.2,4.7,0l10.6,10.6
				C36.5,47.1,36.5,49.3,35.1,50.7C35.1,50.7,35.1,50.7,35.1,50.7z"/>
			
				<linearGradient id="SVGID_6_" gradientUnits="userSpaceOnUse" x1="66.405" y1="41.56" x2="66.405" y2="172.37" gradientTransform="matrix(1 0 0 -1 0 190)">
				<stop  offset="0" style="stop-color:#FF931E"/>
				<stop  offset="1" style="stop-color:#FFC311"/>
			</linearGradient>
			<path class="st6" d="M66.4,37.8c-2,0-3.5-1.6-3.5-3.5v-15c-0.1-2,1.4-3.6,3.4-3.7c2-0.1,3.6,1.4,3.7,3.4c0,0.1,0,0.3,0,0.4v15
				C69.9,36.2,68.4,37.8,66.4,37.8z"/>
			
				<linearGradient id="SVGID_7_" gradientUnits="userSpaceOnUse" x1="109.3434" y1="20.9" x2="109.3534" y2="126.05" gradientTransform="matrix(1 0 0 -1 0 190)">
				<stop  offset="0" style="stop-color:#333333"/>
				<stop  offset="1" style="stop-color:#4D4D4D"/>
			</linearGradient>
			<path class="st7" d="M187.5,141.7c0,10.9-4.3,21.3-12,29c-1.8,1.3-4.3,0.9-5.6-0.8c-1-1.4-1.1-3.3,0-4.8
				c12.9-12.9,12.9-33.9,0-46.8c-6.2-6.2-14.6-9.7-23.4-9.7h-4v-4c0-8.8-3.5-17.3-9.8-23.5c-0.9-0.9-1.9-1.8-2.9-2.6
				c-7.3-5.8-16.8-8.2-26-6.6c-3.3,0.6-6.5,1.6-9.5,3.2c-9.9,5.1-16.5,14.7-17.8,25.7c6.8,0.7,13.3,3.1,18.9,6.9
				c2,1.4,3.9,2.9,5.6,4.6c7.9,7.7,12.3,18.3,12.3,29.3c-0.3,2.2-2.4,3.7-4.6,3.4c-1.7-0.3-3.1-1.6-3.4-3.4
				c0-18.3-14.8-33.1-33.1-33.1c-18.3,0-33.1,14.8-33.1,33.1c0,8.8,3.5,17.2,9.7,23.4c1.8,1.3,2.1,3.8,0.8,5.6
				c-1.3,1.8-3.8,2.1-5.6,0.8c-0.3-0.2-0.6-0.5-0.8-0.8c-15.9-15.9-16-41.7-0.2-57.8c2.5-2.5,5.2-4.7,8.2-6.5
				c5.3-3.1,11.1-5.1,17.2-5.6c1.4-14.2,10-26.7,22.9-33c3-1.5,6.3-2.6,9.6-3.3c2.8-0.6,5.6-0.9,8.4-0.9c21.2,0,38.9,16.2,40.9,37.3
				C171.3,102.8,187.5,120.5,187.5,141.7z"/>
		</g>
	</g>
</g>
</svg>
