<?xml version="1.0" encoding="utf-8"?>
<!-- Generator: Adobe Illustrator 25.2.1, SVG Export Plug-In . SVG Version: 6.00 Build 0)  -->
<svg version="1.1" id="Layer_1" xmlns="http://www.w3.org/2000/svg" xmlns:xlink="http://www.w3.org/1999/xlink" x="0px" y="0px"
	 viewBox="0 0 187.5 187.5" style="enable-background:new 0 0 187.5 187.5;" xml:space="preserve">
<style type="text/css">
	.st0{fill:none;}
	.st1{fill:url(#SVGID_1_);}
	.st2{fill:url(#SVGID_2_);}
	.st3{fill:url(#SVGID_3_);}
	.st4{fill:url(#SVGID_4_);}
	.st5{fill:url(#SVGID_5_);}
	.st6{fill:url(#SVGID_6_);}
</style>
<g id="Layer_2_1_">
	<g id="Icons">
		<g id="Regn">
			<g id="Frame">
				<rect class="st0" width="187.5" height="187.5"/>
			</g>
			
				<linearGradient id="SVGID_1_" gradientUnits="userSpaceOnUse" x1="93.7469" y1="47.4343" x2="93.7469" y2="157.0903" gradientTransform="matrix(1 0 0 -1 0 190)">
				<stop  offset="0" style="stop-color:#333333"/>
				<stop  offset="1" style="stop-color:#4D4D4D"/>
			</linearGradient>
			<path class="st1" d="M136.4,71.4c-2.2-23.5-23-40.8-46.6-38.7C69.3,34.6,53,50.8,51.1,71.4c-23.5,2.2-40.9,23-38.7,46.6
				c0.9,9.9,5.3,19.3,12.4,26.3c1.6,1.7,4.2,1.7,5.8,0.2c1.7-1.6,1.7-4.2,0.2-5.8c-0.1-0.1-0.1-0.1-0.2-0.2
				c-13.5-13.5-13.5-35.4,0-48.9S66,76,79.5,89.5C86,96,89.6,104.8,89.6,114c0,2.3,1.8,4.1,4.1,4.1c2.3,0,4.1-1.8,4.1-4.1
				c0-21.9-16.6-40.3-38.4-42.6c2.2-19,19.3-32.6,38.3-30.4c17.4,2,30.6,16.7,30.6,34.3v4.1h4.1c19.1,0,34.6,15.5,34.6,34.6
				c0,9.2-3.6,18-10.1,24.4c-1.6,1.7-1.5,4.3,0.2,5.8c1.6,1.5,4.1,1.5,5.7,0c16.7-16.7,16.7-43.8,0-60.5
				C155.6,76.6,146.3,72.3,136.4,71.4z"/>
			
				<linearGradient id="SVGID_2_" gradientUnits="userSpaceOnUse" x1="50.5667" y1="14.5297" x2="50.5667" y2="59.0543" gradientTransform="matrix(1 0 0 -1 0 190)">
				<stop  offset="0" style="stop-color:#21A4C9"/>
				<stop  offset="1" style="stop-color:#4DB6D4"/>
			</linearGradient>
			<path class="st2" d="M43.8,177c-0.5,0-0.9-0.1-1.4-0.2c-2.3-0.8-3.5-3.2-2.7-5.5c0,0,0,0,0,0l13.6-40.7c0.8-2.3,3.2-3.5,5.5-2.8
				c2.3,0.8,3.5,3.2,2.8,5.5L47.9,174C47.3,175.8,45.6,177,43.8,177z"/>
			
				<linearGradient id="SVGID_3_" gradientUnits="userSpaceOnUse" x1="70.98" y1="14.5297" x2="70.98" y2="59.0543" gradientTransform="matrix(1 0 0 -1 0 190)">
				<stop  offset="0" style="stop-color:#21A4C9"/>
				<stop  offset="1" style="stop-color:#4DB6D4"/>
			</linearGradient>
			<path class="st3" d="M64.1,177c-0.5,0-0.9-0.1-1.4-0.2c-2.3-0.8-3.5-3.2-2.7-5.5l13.6-40.7c0.8-2.3,3.2-3.5,5.5-2.8
				c2.3,0.8,3.5,3.2,2.8,5.5L68.3,174C67.7,175.8,66,177,64.1,177z"/>
			
				<linearGradient id="SVGID_4_" gradientUnits="userSpaceOnUse" x1="91.2736" y1="14.5297" x2="91.2736" y2="59.0543" gradientTransform="matrix(1 0 0 -1 0 190)">
				<stop  offset="0" style="stop-color:#21A4C9"/>
				<stop  offset="1" style="stop-color:#4DB6D4"/>
			</linearGradient>
			<path class="st4" d="M84.5,177c-0.5,0-0.9-0.1-1.4-0.2c-2.3-0.8-3.5-3.2-2.8-5.5c0,0,0,0,0,0L94,130.5c0.8-2.2,3.4-3.4,5.6-2.5
				c2.1,0.8,3.3,3.1,2.6,5.3L88.6,174C88,175.8,86.4,177,84.5,177z"/>
			
				<linearGradient id="SVGID_5_" gradientUnits="userSpaceOnUse" x1="111.6495" y1="14.5297" x2="111.6495" y2="59.0543" gradientTransform="matrix(1 0 0 -1 0 190)">
				<stop  offset="0" style="stop-color:#21A4C9"/>
				<stop  offset="1" style="stop-color:#4DB6D4"/>
			</linearGradient>
			<path class="st5" d="M104.9,177c-0.5,0-0.9-0.1-1.4-0.2c-2.3-0.8-3.5-3.2-2.7-5.5c0,0,0,0,0,0l13.6-40.7c0.8-2.2,3.4-3.4,5.6-2.5
				c2.1,0.8,3.3,3.1,2.6,5.3L109,174C108.4,175.8,106.8,177,104.9,177z"/>
			
				<linearGradient id="SVGID_6_" gradientUnits="userSpaceOnUse" x1="132.0461" y1="14.5297" x2="132.0461" y2="59.0543" gradientTransform="matrix(1 0 0 -1 0 190)">
				<stop  offset="0" style="stop-color:#21A4C9"/>
				<stop  offset="1" style="stop-color:#4DB6D4"/>
			</linearGradient>
			<path class="st6" d="M125.3,177c-0.5,0-0.9-0.1-1.4-0.2c-2.3-0.8-3.5-3.2-2.7-5.5c0,0,0,0,0,0l13.6-40.7c0.8-2.3,3.2-3.5,5.5-2.8
				c2.3,0.8,3.5,3.2,2.8,5.5l0,0L129.4,174C128.8,175.8,127.1,177,125.3,177z"/>
		</g>
	</g>
</g>
</svg>
