<svg id="Layer_1" data-name="Layer 1" xmlns="http://www.w3.org/2000/svg" xmlns:xlink="http://www.w3.org/1999/xlink" width="600" height="225" viewBox="0 0 600 225">
  <defs>
    <style>
      .cls-1 {
        fill: url(#linear-gradient);
      }

      .cls-2, .cls-3 {
        opacity: 0.1;
      }

      .cls-2 {
        fill: url(#linear-gradient-2);
      }

      .cls-3, .cls-4 {
        fill: #fdbccc;
      }

      .cls-4, .cls-9 {
        opacity: 0.25;
      }

      .cls-11, .cls-12, .cls-5 {
        fill: #fff;
      }

      .cls-10, .cls-11, .cls-6, .cls-7 {
        opacity: 0.5;
      }

      .cls-6 {
        fill: url(#linear-gradient-4);
      }

      .cls-7 {
        fill: url(#linear-gradient-5);
      }

      .cls-8 {
        fill: url(#linear-gradient-6);
      }

      .cls-9 {
        fill: #f37c94;
      }

      .cls-12, .cls-17 {
        opacity: 0.75;
      }

      .cls-13 {
        fill: #fa5880;
      }

      .cls-14 {
        fill: #bb4260;
      }

      .cls-15 {
        fill: #7d2c40;
      }

      .cls-16 {
        fill: #3f1620;
      }

      .cls-18 {
        fill: url(#linear-gradient-7);
      }

      .cls-19 {
        fill: #5fedc8;
      }
    </style>
    <linearGradient id="linear-gradient" x1="300" y1="223.52" x2="300" y2="-391.88" gradientUnits="userSpaceOnUse">
      <stop offset="0" stop-color="#f3e972"/>
      <stop offset="0.5" stop-color="#f05980"/>
      <stop offset="1" stop-color="#337bbd"/>
    </linearGradient>
    <linearGradient id="linear-gradient-2" x1="300" y1="66.23" x2="300" y2="2.48" gradientUnits="userSpaceOnUse">
      <stop offset="0" stop-color="#fff"/>
      <stop offset="1" stop-color="#fff" stop-opacity="0"/>
    </linearGradient>
    <linearGradient id="linear-gradient-4" x1="282.71" y1="40.21" x2="362.74" y2="40.21" gradientUnits="userSpaceOnUse">
      <stop offset="0" stop-color="#fa5880"/>
      <stop offset="1" stop-color="#fb7999"/>
    </linearGradient>
    <linearGradient id="linear-gradient-5" x1="220.12" y1="54.45" x2="300.15" y2="54.45" xlink:href="#linear-gradient-4"/>
    <linearGradient id="linear-gradient-6" x1="300" y1="79.65" x2="300" y2="212.98" gradientUnits="userSpaceOnUse">
      <stop offset="0" stop-color="#f05980"/>
      <stop offset="1" stop-color="#712a3c"/>
    </linearGradient>
    <linearGradient id="linear-gradient-7" x1="301.98" y1="110.02" x2="330.29" y2="110.02" xlink:href="#linear-gradient-6"/>
  </defs>
  <rect class="cls-1" width="600" height="106.07"/>
  <path class="cls-2" d="M397,0l-7.79,12.35-27.39,43.4h0L346.75,79.65l-1.94,3.07-.07.11-1.23,1.94-.47.75-.74,1.18-.68,1.07L341,88.84s0,0,0,0l-.46.72-.09.14-1.32,2.09-.5.8L337.66,94l-.81,1.29L336,96.61l-2.63,4.18-1.16,1.83-.19.3-2,3.15-.69,1.09-.65,1-.83,1.31L327,111l-1.65,2.62-.49.78-3.7,5.85-.32.52,0,0L318.1,125l-.09.14-4.3,6.83-.47.74-3.69,5.83-1.81,2.88-4.1,6.5-.34.52-3.3,5.24-3.3-5.24-.56-.87-.44-.7-.62-1-2.82-4.46-1.81-2.88-.48-.76-3.21-5.07-.47-.74-4.3-6.83-.09-.14-2-3.16-.72-1.14-.32-.52-.8-1.26-1.66-2.63-1.24-2-.49-.78-2.57-4.07-.83-1.31-1.34-2.13-1.56-2.47-.62-1-1.16-1.83L264,96.61l-.64-1-1-1.55-.91-1.43-.5-.8-1.08-1.7-.33-.53-1.14-1.81-.68-1.07L257,85.52l-.47-.75-1.23-1.94-.07-.11-1.94-3.07-14.51-23-1.48-2.34-26.49-42L203,0Z"/>
  <path class="cls-2" d="M476.39,0l-1.67,1.46L472.27,3.6,452.84,20.53l-.14.12-8.83,7.69-1.63,1.42-2.32,2L429.31,41,427,43l-.7.61-5.51,4.79h0l-.46.4L402.94,64,391.33,74.13l-1,.91L385,79.65,371.71,91.22l-.67.59-1.78,1.55-.78.68-1.42,1.23L363,98.82,360,101.39l-2.64,2.31-.61.53-2.12,1.84L352.46,108l-2.81,2.45-3.6,3.13-1.74,1.52-5.71,5-1.17,1-.18.16L332.91,125l-.52.46-.35.3L330.7,127l-5.5,4.79h0l-1.73,1.53-6.23,5.44-2.12,1.84-8.41,7.33-.54.47L300,153.71l-4.13-3.6-2-1.74-1.09-1-.28-.24a0,0,0,0,0,0,0l-5.68-4.95-1.89-1.65-2.12-1.85-6.23-5.43-1.73-1.53h0l-2.25-2-3.07-2.67-1.87-1.63-.52-.46-2.81-2.45,0,0-1.48-1.29-.46-.4h0l-.88-.76L260.19,119l-4.5-3.92L254,113.58l-3.6-3.13L247.54,108l-2.21-1.93-2.12-1.84-.11-.1L240,101.39l-3-2.57L231.52,94l-.78-.68L229,91.81l-.67-.59L215,79.65l-5.18-4.52-1.16-1L197.08,64l-17.17-15-.28-.24L174.1,44l-.43-.37-2.53-2.2h0L160.22,31.9l-2.46-2.14-1.19-1L147.69,21l-.05,0L127.73,3.6l-1.52-1.33L124,.32,123.61,0Z"/>
  <path class="cls-3" d="M443.18,46.31q0,4-.22,7.94-.37,6.91-1.4,13.64l0,.26c-.13.82-.26,1.64-.41,2.46a.51.51,0,0,1,0,.17c-.07.46-.15.91-.24,1.37-.13.72-.26,1.44-.41,2.15-.19,1-.39,2-.61,2.93l-.24,1.07c-.06.27-.12.55-.19.83s-.08.35-.13.52a1.17,1.17,0,0,1,0,.2q-.11.5-.24,1c-.07.33-.16.66-.24,1s-.23.88-.35,1.32a140.9,140.9,0,0,1-8.25,22.93q-2.83,6.2-6.25,12.06c-.25.43-.5.86-.76,1.28-.89,1.5-1.81,3-2.76,4.45-.25.39-.5.78-.76,1.17-.51.79-1,1.57-1.58,2.34s-1.15,1.66-1.74,2.48q-3,4.18-6.31,8.14-2.82,3.38-5.84,6.58l-.06.06a143.22,143.22,0,0,1-57.73,37.19q-3,1-6.09,1.93a141.89,141.89,0,0,1-30.68,5.42c-1.73.12-3.47.2-5.22.25-.78,0-1.56.05-2.35.06h-3.34c-1.24,0-2.47,0-3.7-.08-1.64-.05-3.27-.14-4.89-.25-.79-.05-1.57-.11-2.36-.18s-1.73-.15-2.59-.24l-1.78-.2c-2.92-.34-5.82-.76-8.69-1.28h0c-4.57-.81-9.07-1.85-13.48-3.09q-4.8-1.35-9.46-3a143.2,143.2,0,0,1-55.79-36.51l-.84-.89q-2.61-2.81-5.06-5.75-3.3-3.94-6.31-8.14c-.59-.82-1.17-1.65-1.74-2.48s-1.07-1.55-1.58-2.34c-.26-.39-.51-.78-.76-1.17-.95-1.46-1.87-3-2.76-4.45-.26-.42-.51-.85-.76-1.28q-3.41-5.86-6.25-12.06a141.42,141.42,0,0,1-8-21.89l-.12-.45c-.26-1-.51-1.92-.74-2.89q-.14-.5-.24-1a.14.14,0,0,1,0-.07.31.31,0,0,1,0-.13c-.07-.25-.12-.49-.18-.74s-.1-.41-.14-.61c-.27-1.16-.52-2.32-.75-3.49q-.19-.93-.36-1.86c-.12-.62-.24-1.25-.34-1.88,0-.1,0-.2-.05-.29q-.18-1-.33-2l-.09-.58c-.17-1.08-.32-2.16-.46-3.24-.46-3.54-.8-7.12-1-10.74q-.22-3.94-.22-7.93,0-1.38,0-2.76c0-.53,0-1,0-1.57.08-3,.27-6,.55-9,.07-.79.15-1.57.23-2.36a.06.06,0,0,1,0,0c0-.27.06-.54.08-.81.09-.73.18-1.45.28-2.17A141.08,141.08,0,0,1,161.68,9.2q1.24-4.66,2.8-9.2h271c1,2.85,1.86,5.73,2.65,8.65A140.79,140.79,0,0,1,442,27.57c.1.73.19,1.46.28,2.19.11,1,.21,2,.3,3q.45,4.69.58,9.46c0,.48,0,1,0,1.43C443.17,44.54,443.18,45.42,443.18,46.31Z"/>
  <path class="cls-4" d="M395.45,46.31a95.65,95.65,0,0,1-2.55,22q-.69,2.94-1.57,5.81-.31,1-.66,2.07c-.37,1.16-.78,2.31-1.21,3.45a93.63,93.63,0,0,1-6.58,14c-.07.12-.13.24-.2.35q-1.8,3.12-3.84,6.09c-.38.57-.78,1.13-1.18,1.68-.86,1.22-1.76,2.41-2.68,3.58l-.55.68c-.47.59-.95,1.17-1.45,1.75-1,1.19-2,2.36-3.09,3.5-.71.77-1.44,1.52-2.18,2.26s-1.58,1.57-2.39,2.32c-1.42,1.35-2.89,2.64-4.39,3.88a.75.75,0,0,1-.14.12l-1,.77c-.52.43-1,.84-1.57,1.24C356.87,123,355.45,124,354,125c-.44.31-.89.61-1.34.9h0a93.57,93.57,0,0,1-9.29,5.44h0c-1.88,1-3.78,1.86-5.73,2.69h0c-2.21.95-4.45,1.82-6.74,2.6l-.75.25q-3.37,1.13-6.87,2h0c-2.68.67-5.39,1.23-8.15,1.66-2.42.39-4.86.68-7.34.88s-5.13.31-7.74.31-5.19-.1-7.74-.31c-1.43-.11-2.84-.26-4.25-.44-1-.13-2.06-.27-3.09-.44-2.77-.43-5.51-1-8.2-1.67-1.1-.27-2.2-.57-3.28-.89q-2.79-.8-5.49-1.77t-5.55-2.18h0c-1.95-.83-3.85-1.73-5.73-2.69h0a93.57,93.57,0,0,1-9.29-5.44h0c-.45-.29-.9-.59-1.34-.9-1.46-1-2.88-2-4.28-3.12-.81-.62-1.6-1.25-2.39-1.9l-.13-.11q-2.33-1.92-4.53-4c-.81-.75-1.61-1.52-2.39-2.32s-1.47-1.49-2.18-2.26c-1.06-1.14-2.1-2.31-3.09-3.5-.5-.58-1-1.16-1.45-1.75l-.55-.68c-.92-1.17-1.82-2.36-2.68-3.58-.4-.55-.8-1.11-1.18-1.68q-2-3-3.84-6.09c-.07-.11-.13-.23-.2-.35a93.63,93.63,0,0,1-6.58-14c-.41-1.09-.8-2.18-1.16-3.29h0c-.25-.74-.49-1.47-.71-2.22-.61-2-1.14-4-1.62-6a96.2,96.2,0,0,1-2.5-21.81,95.19,95.19,0,0,1,6.22-34A93.73,93.73,0,0,1,216.52,0h167a93.73,93.73,0,0,1,5.75,12.35A95.19,95.19,0,0,1,395.45,46.31Z"/>
  <path class="cls-4" d="M352.44,46.31a52.16,52.16,0,0,1-12,33.34c-.71.87-1.46,1.72-2.23,2.54-.2.22-.41.43-.61.64-.46.47-.92.94-1.4,1.4s-.93.87-1.41,1.29c-.33.29-.66.58-1,.86-.56.48-1.13.94-1.71,1.39s-1.14.87-1.72,1.28h0q-.4.3-.81.57h0c-1.13.78-2.28,1.51-3.47,2.19l-.42.24,0,0a3.59,3.59,0,0,1-.38.21q-.84.48-1.71.9c-.58.3-1.18.59-1.78.86-.88.4-1.77.79-2.68,1.14,0,0,0,0,0,0l-.09,0a52.28,52.28,0,0,1-19,3.55c-.89,0-1.78,0-2.66-.07a52,52,0,0,1-16.21-3.43s0,0,0,0l-.11-.05c-.94-.36-1.87-.75-2.78-1.17-1.19-.54-2.35-1.13-3.49-1.76l-.84-.47c-1-.59-2-1.22-3-1.89-.42-.28-.83-.57-1.25-.87h0c-.58-.41-1.15-.84-1.72-1.28s-1.15-.91-1.71-1.39c-.34-.28-.67-.57-1-.86-.48-.42-.95-.86-1.41-1.29s-.94-.93-1.4-1.4c-.2-.21-.41-.42-.61-.64-.77-.82-1.52-1.67-2.23-2.54a52.17,52.17,0,0,1-10.95-23.08c-.29-1.44-.52-2.91-.68-4.4a51.53,51.53,0,0,1-.33-5.86A52.44,52.44,0,0,1,275.38,0h49.24a52.5,52.5,0,0,1,27.21,38.29c.11.74.21,1.48.29,2.23A52.66,52.66,0,0,1,352.44,46.31Z"/>
  <circle class="cls-5" cx="300" cy="46.31" r="27.97"/>
  <path class="cls-4" d="M199.28,79.85c19.75,0,7.3-16,0-16-2.47,0-7.63,1.23-7.63,3.81,0-2.35-.45-6.84-4.83-6.4,0-6.39-9.32-6.17-9.32-.44-2,0-3.25,0-3.25-2.87s-8.9-10.69-16.05-3.53c-3.42-.4-5-.56-7.3-.17-.17-1.8-2.35-6.9-7-5.67S136,56,131.15,58.91,117.51,64,115.83,68.68,117,79.85,117,79.85Z"/>
  <path class="cls-4" d="M143.28,74.29c19.75,0,7.29-16.05,0-16.05-2.47,0-7.64,1.23-7.64,3.81,0-2.36-.45-6.84-4.82-6.4,0-6.39-9.32-6.17-9.32-.44-2,0-3.25,0-3.25-2.87s-8.9-10.69-16-3.53c-3.43-.4-5-.56-7.3-.17-.17-1.8-2.36-6.9-7-5.67S80,50.41,75.14,53.35s-13.63,5-15.32,9.77S61,74.29,61,74.29Z"/>
  <path class="cls-4" d="M400.86,79.85c-19.76,0-7.3-16,0-16,2.47,0,7.63,1.23,7.63,3.81,0-2.35.45-6.84,4.83-6.4,0-6.39,9.31-6.17,9.31-.44,2,0,3.26,0,3.26-2.87s8.89-10.69,16.05-3.53c3.42-.4,5-.56,7.3-.17.16-1.8,2.35-6.9,6.95-5.67S464.11,56,469,58.91s13.64,5.05,15.32,9.77-1.18,11.17-1.18,11.17Z"/>
  <path class="cls-4" d="M456.86,74.29c-19.75,0-7.29-16.05,0-16.05,2.47,0,7.64,1.23,7.64,3.81,0-2.36.44-6.84,4.82-6.4,0-6.39,9.32-6.17,9.32-.44,2,0,3.25,0,3.25-2.87s8.9-10.69,16.05-3.53c3.43-.4,5-.56,7.3-.17.17-1.8,2.36-6.9,7-5.67s7.91,7.44,12.79,10.38,13.64,5,15.33,9.77-1.18,11.17-1.18,11.17Z"/>
  <path class="cls-6" d="M282.71,44.34c12.26,2,50.48-8.43,31.1-1.12-7.88,3,48.26.18,29.18-1.49-4.49-.39,5.77-1.95,19.75-.79-16.08-6.21-68.19-6.21-57.83-3C313.31,40.53,290.34,39.28,282.71,44.34Z"/>
  <path class="cls-7" d="M220.12,59.27c18.2-3.32,25.11-3.25,33.37-2.21,11.93,1.49,40.3,1.33,26.91-.4-4.48-.58,10.62-1.39,19.75-.8-10.66-4.56-66.85,1.17-40-4S241.18,51.06,220.12,59.27Z"/>
  <rect class="cls-8" y="79.65" width="600" height="133.33"/>
  <path class="cls-9" d="M275,79.65l-12.57,1.19h15.94l-24.47,2H282.4l-35.92,2.69h42.88L229,87.77h65.1l-77,4h77L202.71,94h92.58l-104,8.54s104.84-2.69,106.63-2.24-106.63,7.18-106.63,7.18l106.18.9-119.87,5.16H295.65l-147.27,5.61,143.9,1.13L142.55,125H288.46l-163.2,3.59,171.28,3.59-176,9.55L300,148.6V79.65Z"/>
  <path class="cls-9" d="M325,79.65l12.57,1.19H321.64l24.47,2H317.6l35.92,2.69H310.64L371,87.77h-65.1l77,4h-77L397.29,94H304.71l104,8.54s-104.84-2.69-106.63-2.24,106.63,7.18,106.63,7.18l-106.18.9,119.87,5.16H304.35l147.27,5.61-143.9,1.13L457.45,125H311.54l163.2,3.59-171.28,3.59,176,9.55L300,148.6V79.65Z"/>
  <g class="cls-10">
    <path class="cls-5" d="M279.55,83.9c3.41-.06,6.81-.27,10.22-.48s6.8-.5,10.22-.47c6.82.18,13.64.29,20.46.55-6.82,0-13.64-.17-20.46-.25-3.4,0-6.81.2-10.21.38S283,84,279.55,83.9Z"/>
  </g>
  <g class="cls-10">
    <path class="cls-5" d="M270,86.34c2.5,0,5-.12,7.49-.22l7.48-.3c5-.21,10-.52,15-.49l15,.27c5,.07,10,.19,15,.33q-7.48,0-15-.06l-15-.13c-5,0-10,.19-15,.36l-7.49.23C275,86.36,272.54,86.37,270,86.34Z"/>
  </g>
  <g class="cls-10">
    <path class="cls-5" d="M255.17,90.13c3.74,0,7.47-.14,11.21-.25l11.2-.34c7.47-.23,14.94-.52,22.42-.48l22.41.29,11.21.15,11.21.23-11.21,0-11.21-.05L300,89.61c-7.47,0-14.94.21-22.41.36S262.64,90.24,255.17,90.13Z"/>
  </g>
  <g class="cls-10">
    <path class="cls-5" d="M237.59,95.87q7.8-.09,15.6-.29l15.6-.37c10.4-.24,20.8-.52,31.21-.5l31.2.29,15.61.2,15.6.27-15.6.07H331.2L300,95.43c-10.4-.05-20.8.21-31.2.35l-15.6.16Q245.39,96,237.59,95.87Z"/>
  </g>
  <g class="cls-10">
    <path class="cls-5" d="M228.84,104.26c5.93-.07,11.86-.22,17.79-.39l17.79-.49,35.57-.95c5.93-.1,11.87-.21,17.81-.16s11.87.21,17.79.44c11.86.45,23.71,1,35.57,1.15-5.93.07-11.86,0-17.8-.07l-17.79-.45c-5.93-.14-11.85-.31-17.78-.32s-11.85.11-17.78.24l-35.58.77-17.79.26C240.7,104.32,234.77,104.33,228.84,104.26Z"/>
  </g>
  <g class="cls-10">
    <path class="cls-5" d="M202.71,121c16.23-.1,32.42-1,48.62-2,8.11-.45,16.23-.66,24.36-.55s16.22.61,24.33,1c16.2.77,32.41,1.5,48.62,1.19s32.42-1.33,48.65-1.38c-8.11.12-16.21.66-24.31,1.09s-16.21.8-24.32,1q-6.09.16-12.18.15c-4.06,0-8.12-.09-12.18-.21-8.11-.2-16.22-.55-24.33-.91s-16.2-.85-24.3-1.06-16.2.08-24.3.43-16.21.82-24.32,1.06S210.82,121.08,202.71,121Z"/>
  </g>
  <path class="cls-11" d="M323.71,75.42c0,2.2-.13,4.43-2.77,4.43,2.64,0,2.77,1.92,2.77,4.42,0-2.5-.13-4.42,2.51-4.42C323.58,79.85,323.71,77.62,323.71,75.42Z"/>
  <path class="cls-12" d="M326.71,76.72c-1.56,1.55-3.22,3-5.08,1.17,1.86,1.87.59,3.32-1.18,5.09,1.77-1.77,3-3.22,4.9-1.36C323.49,79.76,325.15,78.27,326.71,76.72Z"/>
  <path class="cls-11" d="M262.29,120.25c0,2.2-.12,4.42-2.76,4.42,2.64,0,2.76,1.93,2.76,4.43,0-2.5-.12-4.43,2.51-4.43C262.17,124.67,262.29,122.45,262.29,120.25Z"/>
  <path class="cls-12" d="M265.3,121.54c-1.56,1.56-3.22,3-5.09,1.18,1.87,1.86.6,3.31-1.17,5.08,1.77-1.77,3-3.22,4.9-1.35C262.08,124.58,263.74,123.1,265.3,121.54Z"/>
  <path class="cls-11" d="M370,122c0,2.2-.12,4.43-2.76,4.43,2.64,0,2.76,1.92,2.76,4.42,0-2.5-.12-4.42,2.51-4.42C369.91,126.43,370,124.2,370,122Z"/>
  <path class="cls-12" d="M373,123.29c-1.56,1.56-3.22,3-5.09,1.18,1.87,1.87.6,3.32-1.17,5.09,1.77-1.77,3-3.22,4.9-1.36C369.82,126.34,371.48,124.85,373,123.29Z"/>
  <path class="cls-11" d="M325.67,87.3c0,1.41-.08,2.83-1.77,2.83,1.69,0,1.77,1.24,1.77,2.84,0-1.6-.08-2.84,1.6-2.84C325.59,90.13,325.67,88.71,325.67,87.3Z"/>
  <path class="cls-12" d="M327.59,88.13c-1,1-2.06,2-3.26.75,1.2,1.2.38,2.12-.75,3.26,1.13-1.14,1.95-2.06,3.14-.87C325.53,90.08,326.59,89.13,327.59,88.13Z"/>
  <path class="cls-11" d="M268.94,82.66c0,.8,0,1.61-1,1.61,1,0,1,.71,1,1.62,0-.91,0-1.62.92-1.62C268.9,84.27,268.94,83.46,268.94,82.66Z"/>
  <path class="cls-12" d="M270,83.13c-.57.57-1.18,1.11-1.86.43.68.68.22,1.21-.43,1.86.65-.65,1.11-1.18,1.79-.5C268.86,84.24,269.47,83.7,270,83.13Z"/>
  <path class="cls-11" d="M243.17,99.34c0,.81,0,1.62-1,1.62,1,0,1,.7,1,1.62,0-.92,0-1.62.92-1.62C243.12,101,243.17,100.15,243.17,99.34Z"/>
  <path class="cls-12" d="M244.27,99.82c-.57.57-1.18,1.11-1.86.43.68.68.22,1.21-.43,1.85.65-.64,1.11-1.17,1.79-.49C243.09,100.93,243.7,100.39,244.27,99.82Z"/>
  <path class="cls-11" d="M321.64,109.61c0,1.41-.08,2.84-1.77,2.84,1.69,0,1.77,1.23,1.77,2.83,0-1.6-.08-2.83,1.61-2.83C321.56,112.45,321.64,111,321.64,109.61Z"/>
  <path class="cls-12" d="M323.56,110.44c-1,1-2.06,2-3.25.75,1.19,1.2.38,2.13-.76,3.26,1.14-1.13,1.95-2.06,3.14-.87C321.5,112.39,322.57,111.44,323.56,110.44Z"/>
  <polygon class="cls-13" points="395.45 79.85 399.27 77.6 403.09 78.19 407.41 76.77 412.15 77.85 418.13 75.61 423.62 71.7 427.44 66.14 435.83 68.46 439.15 71.7 445.47 68.71 446.71 65.81 452.69 66.97 457.68 63.31 463.33 65.22 473.22 59.74 477.95 61.9 486.76 56.09 489.25 51.77 500.3 55.84 509.86 53.59 514.67 54.92 521.99 48.11 539.18 41.59 552.02 35.11 571.1 36.42 582.82 34.26 588.53 39.47 597.73 43.25 597.73 79.85 395.45 79.85"/>
  <path class="cls-14" d="M420.79,80.84l2.62-2.36,4,1.07,3.71-2.2,6.07-.56,2.49,1.56,4.92-2.06,4.3-3.92,4.61-.87,12.4-.75,5.86-4.3,8.29-.75L485.41,62s12.27.19,12.65,0,10.22-4.42,10.22-4.42l6,1.12,11.59-6,3.61-6.36,10-1.49L550,50.56l6-1.12,6.23,2.37,3.36-2.12,10.47-4.12,9.47,1.75L598.88,44,600,42.58V80.84Z"/>
  <polygon class="cls-15" points="446.09 81.84 458.43 70.25 474.38 75.48 486.09 69 494.69 74.11 503.92 65.64 509.77 68.13 515.01 65.64 524.98 58.16 532.7 62.4 541.92 57.16 556.88 69.5 568.1 61.03 575.7 52.8 587.54 51.56 595.76 63.65 600 67.88 600 81.84 446.09 81.84"/>
  <polygon class="cls-13" points="204.55 79.85 200.73 77.6 196.91 78.19 192.59 76.77 187.85 77.85 181.87 75.61 176.38 71.7 172.56 66.14 164.17 68.46 160.85 71.7 154.53 68.71 153.29 65.81 147.31 66.97 142.32 63.31 136.67 65.22 126.78 59.74 122.05 61.9 113.24 56.09 110.75 51.77 99.7 55.84 90.14 53.59 85.33 54.92 78.02 48.11 60.82 41.59 47.98 35.11 28.9 36.42 17.18 34.26 11.46 39.47 2.27 43.25 2.27 79.85 204.55 79.85"/>
  <path class="cls-14" d="M179.21,80.84l-2.62-2.36-4,1.07-3.71-2.2-6.07-.56-2.49,1.56-4.92-2.06-4.3-3.92-4.61-.87-12.4-.75-5.86-4.3L120,65.7,114.59,62s-12.27.19-12.65,0-10.22-4.42-10.22-4.42l-6,1.12-11.59-6-3.61-6.36-10-1.49L50,50.56l-6-1.12-6.23,2.37L34.4,49.69,23.93,45.57l-9.47,1.75L1.12,44,0,42.58V80.84Z"/>
  <polygon class="cls-15" points="153.91 81.84 141.57 70.25 125.62 75.48 113.91 69 105.31 74.11 96.08 65.64 90.23 68.13 84.99 65.64 75.02 58.16 67.3 62.4 58.08 57.16 43.12 69.5 31.9 61.03 24.3 52.8 12.46 51.56 4.24 63.65 0 67.88 0 81.84 153.91 81.84"/>
  <path class="cls-16" d="M364.09,109.31c-7.06,24.57-9.09,25.11-15.6,37.54-6,11.37-12.47,21.52-16.06,20.48s-3.62-13-2.62-25.85c1.12-14.33-.46-15.49,6.62-40.12s25.29-48.43,28.63-47.47S371.16,84.75,364.09,109.31Z"/>
  <path class="cls-16" d="M330,140.22c7.54-28.42-8.43-49.9-10.62-54.24l-25.27,8.27c3.76,1.11,4.12,7.07,1.57,8.27s-25.1,6.07-23.11,32.53C273.87,152,327.27,150.68,330,140.22Z"/>
  <g class="cls-17">
    <path class="cls-18" d="M302,102.55a32.77,32.77,0,0,1,8.85-.37,27.23,27.23,0,0,1,8.62,2.19,18.38,18.38,0,0,1,7,5.5,18.88,18.88,0,0,1,2.23,3.87A21.84,21.84,0,0,1,330,118a21.11,21.11,0,0,0-3.86-7.81,18.43,18.43,0,0,0-6.88-5.2,28.24,28.24,0,0,0-8.4-2.3A41.64,41.64,0,0,0,302,102.55Z"/>
  </g>
  <circle class="cls-16" cx="279.21" cy="133.45" r="11.6"/>
  <path class="cls-16" d="M319.42,86c-6.54-8,2.82-11.2-7.68-17.19-12.14-6.93-31.61,14.42-31.68,17.51s1.32,4.54,3.7,5.93c2.37,3.61,8.61,2.65,10.39,2L312,95.87Z"/>
  <path class="cls-16" d="M304.06,69c-.05-.44,3-1.22,2.89-2.92-.63-13.86,4-24.08,7.68-23.2,4.89,1.16,5.89,11.75-1.44,28.21Z"/>
  <path class="cls-16" d="M316.19,76.32c0-1.86,1.92-3.36,3-4.3,7.77-6.57,14.33-24.22,9.18-25.72-6.77-2-17.48,20-18.35,25.84Z"/>
  <path class="cls-16" d="M515.3,37.12a7.12,7.12,0,0,0-1.36-2.63c3,.85,4.18,1.64,7.33,4.62a37.34,37.34,0,0,0-7.46-6.8l-.33-.23a35,35,0,0,0-12.76-5.32l-1.22-.21c-3.78-.58-6.45-.27-6.93.12a8.11,8.11,0,0,1,2.19-2.4c-2,1.09-6.94,1.73-12.22,3a21.57,21.57,0,0,0-1.82-3.43c1.52-.26,2.25-.06,3.78,1a7.78,7.78,0,0,0-2.77-3.35c2.88-1,3.92,1.29,3.92,1.29.36-1.08-.26-2.59.41-3,.9.52,1.11,1.77.84,3.43,2.57-1.32,2.6-4.5,3.08-5.43,1.07,1.07.78,3.11.48,4.22.82-.78,1.22-1.81,1.33-3.7,2.08.7,2.71,1.78,4,2.85.16-1.29-.92-2.59-2.26-3.41,1-.66,2.63-.33,4.63.26a7.86,7.86,0,0,0-3.59-2.18c1.63-.82,5.74-1.37,6.37-2.22a19.27,19.27,0,0,0-7,1,4.42,4.42,0,0,1,2-2.33,7.11,7.11,0,0,0-4.85,1.22c.45-1,1.41-2.33,4.33-3.45-3.7.08-8.47,3.08-11,5.33.89-2,1-2.48,4.49-5.37a16.81,16.81,0,0,0-2.79,1.16l-.53.28c-4.16,2.23-9.16,6.24-13.5,10-1.23.33-2.18-.08-1.87-.78s2.44-.88,3.25-1.46c-1.17.19-3.22-.75-2.11-1.84s3.38-.86,4.55-.49c-.49-1.39-1.59-2-2.54-2.81,1.56-.65,3.43.25,5.08-.18a1.9,1.9,0,0,1-1.09-1.55,2.87,2.87,0,0,0,2.37-.56,2,2,0,0,1-1.38-1.68c.9-.47,2.56-.43,4.65-.11a29.4,29.4,0,0,0-4.15-3.35c1.35.71,4.86.36,5.36-.49a1.4,1.4,0,0,1-1.42-1.25,7.64,7.64,0,0,0,2.94,0,2,2,0,0,1-.82-1.74,5.29,5.29,0,0,0,4.21.37,4.5,4.5,0,0,1-2.43-2.06c1.08-.5,1.94-.47,3.89.16l.68.23a3,3,0,0,0-.42-.57,5.6,5.6,0,0,0-2-1.26H477.85a14.85,14.85,0,0,0-1.64,2.67c-.24-.57-.15-1.26.4-2.67h-.93a14.17,14.17,0,0,0-1,1.46c-.41.69-.79,1.42-1.17,2.19a7.7,7.7,0,0,0-1.28,0,18.14,18.14,0,0,0-3.8.61A31.92,31.92,0,0,1,472,1.07a8.9,8.9,0,0,0-6.37,2.16c.15-.88.35-1.32,1.82-3-3.14,0-5.79,2.3-7.42,3.87A7,7,0,0,1,461.36,0h-.85a6.75,6.75,0,0,0-2.76,4.16,7.83,7.83,0,0,0-.84-3.28,20,20,0,0,1-1,5.73,6.59,6.59,0,0,0-2-3.72c.58,4.45-.86,8.53-1.08,17.64,0,.21,0,.42,0,.63l-.12-.51C450.15,9.86,451.44,3.59,453.93,0H441.48c.11,4.22,1.38,7.1,2.43,9.88a8.46,8.46,0,0,1-2.78-4.45c-.17,1.39,1.91,6.88,3.07,9.49a53.88,53.88,0,0,0-6-6.27C429.45,1,422.53,1,419.34,1.85c3.3-.53,5.88,1.56,7.43,3.06-6.73-1.19-10.91,1.24-12.53,4a5.37,5.37,0,0,1,5.15-1.25c-4,.43-8.54,5.6-9.87,8.63a9.56,9.56,0,0,1,6.28-3.48c-.88.23-2.4,2-3.73,4,2.8-2.69,7.66-4.56,10.12-4.47-1,.17-2.15,1.16-3.76,3.31a9.2,9.2,0,0,1,7.75-2c-1.44.39-2.09,1.61-2.72,3.14,3.57-2.44,5.6-2.49,6.74-2-2.38-.14-3.85,2.32-5.07,4.32,5-4.66,10.13-4.21,11.2-3.47-3.53-.49-6.22,2.26-9.53,6.42,3-3.37,8.4-3.17,10.27-2.75-2.72.82-6.65,4.24-8.18,7.26a23.7,23.7,0,0,1,10.54-5.07c-1.86.51-4.17,3-5.43,5.46,2.18-2.35,5.69-2.52,6.57-2.06a5.43,5.43,0,0,0-2.78,3.38c.75-.59,2.61-.84,4.17-.76a6.52,6.52,0,0,1,1.76.25,2.38,2.38,0,0,1,.15.52c.11.63-.09,1.34-1.13,2.28,3.21-.59,8.1,3.6,8.62,6.89a33.44,33.44,0,0,0-8.82-4.74c-.85-.34-1.72-.67-2.62-1-8.95-3.17-19.85-5.23-23.87-3.66,1.9,0,3.78,2.28,3.93,3a11,11,0,0,0-7.19-.27,4.68,4.68,0,0,1,3.76,1.43c-2.16-.73-5.11.22-7.75,2.65a8.08,8.08,0,0,1,7-.37c-2.95,0-7.36,3.33-9,6.28a8.05,8.05,0,0,1,5.64-2.13c-3.06.56-5.24,4-7.29,7.17,3.58-3,5-3.06,6.66-3.46a11.84,11.84,0,0,0-4.08,8.19c1.12-3.33,2.85-4.88,4.21-5.31a5.3,5.3,0,0,0-.45,5.31,1.69,1.69,0,0,1,2.25-1.72c1,.42.95,2.45.53,4.41,1.78-3.19,1.62-7.65,2.73-8.25-.6,1.53-.18,2.86.87,5.54A16,16,0,0,1,419.15,46c-.15.84.14,1.59,1.21,2.84l.57.64a6.34,6.34,0,0,1-.11-1h0c-.11-2.53,1.06-4.33,1.44-6.19.42-2.1.88-.67,1.35,1a6.12,6.12,0,0,1,1.6-3.78c.9.89.91,2.31,1.12,4.18.05.44.11.9.19,1.38a6,6,0,0,1,.51-2,9.57,9.57,0,0,1,2.6-3.71,3.44,3.44,0,0,0-.32,1.72,8,8,0,0,0,.37,2.14,2.2,2.2,0,0,1,1.68-1.88,2.27,2.27,0,0,0-.24,2.44,5,5,0,0,1,3.06-3c.38.35.2.69.55,1.92a4.77,4.77,0,0,1,4.2-2.64,3,3,0,0,0,.46,2.73c.63-1.6,1.7-1.91,2.27-1.79-.18.45,0,1.13.91,1.68a4.91,4.91,0,0,1,.55-.38c2.3-1.41,5.23-.54,6.56.38a47.89,47.89,0,0,0-6.53,1A45.47,45.47,0,0,0,420,56.84a35.41,35.41,0,0,0-5.18,6.9c2.67-3.71,5.54-4.57,6.76-4.29-1.89.72-2.78,2.73-3.12,5.35a9.43,9.43,0,0,1,4.11-4.39,1.94,1.94,0,0,1,.8-.21c-.14.18-.27.37-.4.56a13.27,13.27,0,0,0-1.83,7,6.46,6.46,0,0,1,2.28-4.07c-.25,1-.28,1.29.39,3.49.39-3,.75-3.79,2.31-5.43-.86,1.72-.42,3.5.48,5.56a8.36,8.36,0,0,1,2.2-6.07A6.63,6.63,0,0,0,430.45,67a7.86,7.86,0,0,0,1.48,1.36c-.11-.35-.21-.7-.29-1-1-4.2.3-7,1.12-7.82A2.21,2.21,0,0,0,434.24,62c0-2.82,1.31-4.36,4.43-5.62a31.72,31.72,0,0,0-5.15,8.92c-.28.74-.58,1.49-.87,2.32a32.18,32.18,0,0,0-1.79,9.92c0,.67-.05,1.39-.05,2.15a1.27,1.27,0,0,0,0,.2c0,.32,0,.65,0,1,0,1.32,0,2.76.14,4.34a18,18,0,0,0,1.39-4.34c.07-.34.14-.67.19-1a1.18,1.18,0,0,1,0-.2,9.76,9.76,0,0,0,.19-2.3c.24.59.52,1.37.81,2.3l.06.2c.1.31.2.64.29,1a44.62,44.62,0,0,1,1.63,10.85,34,34,0,0,0,.56-10.85c0-.34-.09-.67-.14-1l0-.2A17.18,17.18,0,0,0,435.3,77c-.08-.23-.16-.45-.25-.65.15.22.29.43.42.64.65,1,1.18,1.89,1.6,2.7,0,.07.07.14.1.2a10.94,10.94,0,0,1,.47,1,13.12,13.12,0,0,1,1,4.12c.05-1.28.07-2.3.07-3.14,0-.36,0-.68,0-1s-.05-.7-.09-1c0-.07,0-.13,0-.2a5.07,5.07,0,0,0-.71-1.92,5.15,5.15,0,0,1,1.5,1.4,2.86,2.86,0,0,1,.27.52,1.18,1.18,0,0,1,.07.2,3.76,3.76,0,0,1,.13.4l0-.4a1.34,1.34,0,0,1,0-.2c0-.43,0-.9,0-1.4,0-.33,0-.67-.07-1a8.79,8.79,0,0,0-2.48-5.52,8.24,8.24,0,0,1,3.09,2.59,10.49,10.49,0,0,1,1.63,3c.08.22.15.44.21.67,0-.24,0-.49,0-.74a17.37,17.37,0,0,0-1.39-5.12c-.15-.35-.31-.7-.48-1a13.94,13.94,0,0,0-1.76-2.74,15.85,15.85,0,0,1,2.51,2.23l.1.11A8.79,8.79,0,0,1,443.1,74a16.57,16.57,0,0,0-.68-3.86,8.8,8.8,0,0,0-.89-2,5.08,5.08,0,0,0-.4-.59c.16.12.3.22.43.33a4.51,4.51,0,0,1,1.54,1.69,8.17,8.17,0,0,0-.66-4.6c1.62,1.46,1.53,3.19,2.86,3.81l0,0s0,0,0,0c-.76-1.71-2.12-6.27-1.25-7.74,1.09,1.58,1.94,2.41,3.22,2.82-.14.65-.27,1.3-.38,2a.06.06,0,0,0,0,0c-.23,1.32-.42,2.65-.54,4h0a37.19,37.19,0,0,0-.13,4.94h0a26.59,26.59,0,0,0,.66,4.86c0,.07,0,.13,0,.2.08.32.17.63.26.94h0s0,0,0,0c.1.34.2.67.32,1a17.13,17.13,0,0,0,1.12,2.51c-.11-1-.2-1.81-.27-2.51,0-.36-.07-.7-.09-1s-.05-.69-.06-1v-.2a8.57,8.57,0,0,1,.49-3.29,11.76,11.76,0,0,0,.77,2.27h0c.14.33.3.66.48,1a2,2,0,0,0,.11.2c.16.33.35.66.55,1s.41.67.64,1c1.3,1.83,3,3.38,5.11,3.38-2.14-1.51-2.76-2.49-2.72-3.38a1.09,1.09,0,0,1,0-.18l.23.18c1.79,1.31,7.17,4.17,10.23,4.14-1.95-.73-4.63-2.32-4.55-3.83,1.74.32,2.81.81,3.38,1.7a6.13,6.13,0,0,0-1-2,10.4,10.4,0,0,0-.72-1q-.41-.51-.87-1l-.18-.2a9.79,9.79,0,0,0-3.5-2.49,3.25,3.25,0,0,1,2.73.88,13.11,13.11,0,0,0-2.07-3.75,4.72,4.72,0,0,0-1.73-1.35,4.29,4.29,0,0,1,3.1.7,12.78,12.78,0,0,0-1.71-2.11l-.23-.23c-.91-.89-1.55-1.44-1.47-2.34a10.72,10.72,0,0,1,3.16,1.32,0,0,0,0,1,0,0l.59.35a.6.6,0,0,0-.08-.19,21.2,21.2,0,0,0-3.92-5.27,6,6,0,0,0-1.82-1.27c.5-.3,1.29.2,2.29.93,1.62,1.19,3.78,3,6.12,3a17.48,17.48,0,0,1-4.67-4.07,6.82,6.82,0,0,1-1.52-3c2.69,0,5.38,3.2,7.91,3.2-2.55-1.85-5.36-4.11-6.21-5.71a1.81,1.81,0,0,1-.27-.87,10.71,10.71,0,0,0,1.59,1,6.41,6.41,0,0,0,3.14.83l.39,0c-1.9-1.41-6-6-.83-4.06-.27-1.47-1.09-3-1.62-4.72a10,10,0,0,1-.47-3.6,11.18,11.18,0,0,1,1.42-4.63,33.58,33.58,0,0,0,2.36,4.35h0a9.74,9.74,0,0,0,.94,1.22c1.87,2,2.29,6,2.15,6.89a6.57,6.57,0,0,0,1.25-2.26,10.07,10.07,0,0,1,1,3.26,8.45,8.45,0,0,1,0,2.83h0a1.37,1.37,0,0,1-.17.45,2.05,2.05,0,0,0,.55-.2c.32-.19.52-.56.84-1.64a6.79,6.79,0,0,1,.59,2.46,13.22,13.22,0,0,1,0,1.88,11.29,11.29,0,0,1-.2,2A6.47,6.47,0,0,0,472,61.47a5.66,5.66,0,0,1-.13,3.74c.53-.23.78-.39,1.25-1.7a5.66,5.66,0,0,1,.34,2.78,31.62,31.62,0,0,1-.37,3.88c.87-.19,1.54-.53,2.32-2.09a12.43,12.43,0,0,1,.18,6.21,3.15,3.15,0,0,1-.09.42h0a.57.57,0,0,1,0,.14h0a9.85,9.85,0,0,1-1.56,3.61,4.35,4.35,0,0,0,2.68-2,12.08,12.08,0,0,0,1.1-2.15c.12-.28.23-.56.33-.83h0c.27-.72.51-1.4.74-2a3.36,3.36,0,0,1,.45,1.32,10.74,10.74,0,0,1,.13,1.49,21.51,21.51,0,0,1-.35,4.36,9.2,9.2,0,0,0,1.76-4.36c.07-.41.12-.84.16-1.28a5,5,0,0,1,.32,1.28,21.44,21.44,0,0,1-.08,5.36,1,1,0,0,1,0,.17,1.41,1.41,0,0,0,.18-.17,7.67,7.67,0,0,0,1.44-2.43,9,9,0,0,1,.45,2.41v0c0,.06,0,.13,0,.2,0,.33.05.66.07,1,0,.15,0,.29,0,.43.06-.14.11-.28.16-.43a6.55,6.55,0,0,0,.23-1l0-.2a12.9,12.9,0,0,0,.14-1.91v0a26.26,26.26,0,0,0-.19-3.43,13.75,13.75,0,0,0-.37-2A5.11,5.11,0,0,1,484.71,74l.14.26a26.76,26.76,0,0,1,1.49,3.49c.39,1.13-.14-1.33-.71-3.49a22.55,22.55,0,0,0-.74-2.45,5.94,5.94,0,0,1,2.22,2.45c.61,1,1.36,2.52,2.42,4.81a45.7,45.7,0,0,0-1.21-4.81,49.64,49.64,0,0,0-1.84-5.06,55.81,55.81,0,0,0-3-5.94c-.72-1.24-1.47-2.44-2.24-3.58a69.52,69.52,0,0,0-7.07-8.82,91.76,91.76,0,0,0-8.88-8.27c6,1.29,6.19,4.44,7.22,5a5,5,0,0,1-.2-2.56c1.15.35,2.13,2.51,2.25,3.88a5.43,5.43,0,0,0,.63,2c.19.39.39.76.56,1.18,0-.38,0-.7,0-1a5.75,5.75,0,0,1,.33-1.46,6.83,6.83,0,0,1,1.27,2.43,12.26,12.26,0,0,0,1.23,2.7c.07.12.15.24.23.36l.31.41a1.47,1.47,0,0,1,0-.42,1.34,1.34,0,0,1,.65-1,5.57,5.57,0,0,0,.18,1,4.19,4.19,0,0,0,1.72,2.37c-.48-1.19-.17-2.52.72-2.86a6,6,0,0,0,.62,3.86,31.89,31.89,0,0,0,2,3.7l.08.13a.94.94,0,0,1,0-.16c-.84-3-.05-3.6.42-3.78a6.44,6.44,0,0,0,1,3.4c0-1,.17-2.72,1.37-3.2a8,8,0,0,0,0,3.37,12.56,12.56,0,0,0,1.68,4.29,6.77,6.77,0,0,1-.17-4.28,9,9,0,0,1,.59-1.37,3.75,3.75,0,0,0-.1,1.38,5.25,5.25,0,0,0,1.29,3,2.34,2.34,0,0,1,.52-3,.9.9,0,0,1,.36-.17,1.16,1.16,0,0,0,0,.18,9,9,0,0,0,1.07,5.37A5.64,5.64,0,0,1,494,63a10.7,10.7,0,0,0,2,5.55,15.68,15.68,0,0,1,0-5.34,16.42,16.42,0,0,1,2.28,4.35,12.33,12.33,0,0,0-1.1-5.55c-.32-.72-.67-1.33-1-2a10.35,10.35,0,0,1,2.31,1.71,24.14,24.14,0,0,1,4.05,5.11c.28.49.55,1,.79,1.48a7.41,7.41,0,0,0-.25-2,12.26,12.26,0,0,0-3.32-5.17c-.38-.4-.79-.82-1.23-1.25a10.56,10.56,0,0,0,2.51.7,27.18,27.18,0,0,0,3.51.4,11.13,11.13,0,0,1-2.23-1,25.73,25.73,0,0,1-3.79-3.1,10.51,10.51,0,0,0,5.17-.55c-.82-.25-1.66-.53-2.49-.82a136.23,136.23,0,0,1-16.52-7.27c-6.46-3.27-11.63-6.25-13.55-7,6-1.22,10.36,4,12.18,5.13a1.67,1.67,0,0,1,.43-1.48,3.91,3.91,0,0,0,1.86,2.65c.19.15.39.29.6.43a2.05,2.05,0,0,1-.22-.66c-.22-1.22.17-3.08.76-3.08s1.08,1,1.44,2a5.86,5.86,0,0,0,1.08,2.4,4,4,0,0,1,.56-2.82c.28-.42.62-.62.94-.33a1.29,1.29,0,0,1,.19.21c1,1.21,1.23,4.24,2,4.82a1.78,1.78,0,0,1,.49-1.7c0,1.29.75,1.37,1.42,2.6a2.66,2.66,0,0,1,1.29-2.55c-.13,1,.59,2.71,1.88,4.31a20.89,20.89,0,0,1,.9-4.67l.18-.52c0,.17,0,.34,0,.5A5.26,5.26,0,0,0,501.58,53c-.24-1,.51-1.84,1.26-1.24-.33.82.18,2,1,3a1.57,1.57,0,0,1,1.27-1.85,2.77,2.77,0,0,0,.08,1.83,9.52,9.52,0,0,0,.92,2.11A5.86,5.86,0,0,1,506,54.5a3,3,0,0,1,.63-1.56,4.3,4.3,0,0,0,.22,1.36,16.25,16.25,0,0,0,1.36,3.27c.08.16.16.32.25.48q.07-.19.15-.45a7.89,7.89,0,0,0,.1-3.74,2.27,2.27,0,0,0-.2-.5,2.65,2.65,0,0,1,.76.37,18.26,18.26,0,0,1,4,4.74c.62,1,1.17,1.86,1.57,2.49a12.5,12.5,0,0,0-.53-2.32,15.1,15.1,0,0,0-2.42-4.49c-.28-.37-.53-.66-.71-.87.64-.08.62,0,1.39.21-.75-2.4-3.43-4.41-4.59-5.08.8-.31,1.06-.47,3,1-.88-1.4-2.84-2.64-4.72-3.55h0a20.39,20.39,0,0,0-3.92-1.47c1.1-.47,1.91-.59,4.12-.32-3.8-2.8-12.2-1.75-15.89-3.21s-14-2.69-16.14-2.26c1-1,1.66-1.77,4.72-1.77S482.35,38,483.35,38c-.93-.33-.53-1.74.42-1.74,1.27,0,1.61,1.8,3.06,1.8-.56-.66-.56-1.32,0-1.79,0,.94,1.21,1.66,2.3,1.78-.71-1.07-.59-1.47-.18-2.21.37.47,1.07,1.06,3,1.58a4.11,4.11,0,0,1-1.71-4.55c2.23-.72,5,1.82,6.83,2-1.32-.77-2-2.93-2.11-4.69,1.49,1.61,5.8,2.66,6.35,2.56a3.75,3.75,0,0,1-1.09-1.45,3.33,3.33,0,0,1-.25-.7,1.63,1.63,0,0,1,.31,0c2.08.3,3.94,3.54,5.23,4.43a2.38,2.38,0,0,1,.28-1.66A7,7,0,0,1,510.52,36a3.61,3.61,0,0,0-1.4-2.55C511.55,33.45,514.4,36,515.3,37.12ZM473.18,4.42c-.2.44-.41.89-.61,1.34-.72,0-1.41.14-1.7.12C470.81,5.13,472,4.76,473.18,4.42Zm-11,12c2.21-1.28,4-.86,5.06-1.06-.73,1-1.51,2.1-2.33,3.4A5.77,5.77,0,0,0,462.2,16.46Zm2.43,2.82c-.18.3-.37.6-.55.92a4.3,4.3,0,0,0-2.45.17A3.25,3.25,0,0,1,464.63,19.28Zm-2.08-6.11c2.09-1,4.68-.63,7-1.2-.61,1-1.28,2-2,3C465.61,14.8,463.09,14.13,462.55,13.17Zm.21,9.5c-.53,1.07-1.06,2.26-1.61,3.6C460,23.33,461.57,22.72,462.76,22.67ZM454.1,46.62a21.81,21.81,0,0,0-1.38,2.24c-.59,1.09-1.23,2.41-1.86,3.89a12.9,12.9,0,0,1,.3-2.65C451.57,48.29,452.45,46.72,454.1,46.62Zm-4.87,5.45.46.44a4.68,4.68,0,0,1,.83,1c-.34.81-.67,1.67-1,2.57a5.59,5.59,0,0,1-.49-1.95A6.14,6.14,0,0,1,449.23,52.07ZM449,57.65c-.28.84-.55,1.72-.81,2.61-.47-1.28-1.12-2.59-.83-3.48A5.8,5.8,0,0,1,449,57.65Zm-3.39,1.48a5.4,5.4,0,0,1,2.44,1.64c-.23.84-.44,1.7-.64,2.56C446.15,62,445.34,60.23,445.62,59.13ZM463.08,22a9.07,9.07,0,0,1-1.6-.75,2.6,2.6,0,0,0,2.07-.14C463.39,21.43,463.24,21.73,463.08,22Zm.64,7c.2-3.91,4.23-5.6,6.87-6.29C467.75,25.26,465.3,27.57,463.72,29Zm2,8.43a1.25,1.25,0,0,0-1.17,0c.51-3.81,2.16-3,3.12-2.34C467,35.87,466.37,36.64,465.69,37.46Zm2-2.37a3.42,3.42,0,0,1-.91-3,3.09,3.09,0,0,1,2.47,1.42C468.71,34,468.2,34.52,467.69,35.09Zm2.55-2.5a2.53,2.53,0,0,1-.95-1.45,2.94,2.94,0,0,1,2.28.48A14.63,14.63,0,0,0,470.24,32.59ZM472.6,31a2.28,2.28,0,0,1-.54-1.31c.64-.12,1.46,0,1.67.69C473.33,30.56,473,30.76,472.6,31Zm3-1.46c-.75-.5-1.56-1.45-.81-1.77,1.11-.46,2.15.38,3,1C477.05,28.94,476.32,29.21,475.61,29.51Zm2.77-1c-.56-.54-.81-1.23-.51-1.53s1.16.49,2.14,1C479.47,28.14,478.92,28.31,478.38,28.49Zm1.95-.6c-.75-.61-1.39-1.53-2.27-2.33a5.68,5.68,0,0,1,4.14,1.83C481.58,27.55,481,27.71,480.33,27.89Z"/>
  <path class="cls-16" d="M491.78,0H498c-.53,1.5-.78,3.26-1.24,4.11a2.34,2.34,0,0,0-1-1.35,7,7,0,0,0-3,4.47,3.55,3.55,0,0,1,.09-2.9C490.68,5.43,489.3,9,489,10.4a7.34,7.34,0,0,1,0-3,12.34,12.34,0,0,0-2.93,3.72,35.19,35.19,0,0,0-1.5,3.72c.28-1.2.6-2.34,1-3.44a36,36,0,0,1,5-9.84l.26-.34C491.12.83,491.45.41,491.78,0Z"/>
  <path class="cls-16" d="M499.46.15l.08-.15h.19A1.32,1.32,0,0,1,499.46.15Z"/>
  <path class="cls-16" d="M504.2.12a.67.67,0,0,0,.06-.12h.1A.83.83,0,0,1,504.2.12Z"/>
  <path class="cls-16" d="M509.92.07,510,0h0A.46.46,0,0,1,509.92.07Z"/>
  <path class="cls-16" d="M506.74,17.8c.68.58.76,1.87.5,3.07a1.57,1.57,0,0,0-2-1.08c.53.42,1,1.8.89,4a4.83,4.83,0,0,0-2.26-3.19c.55,1,.75,2.95.69,5.38a7.17,7.17,0,0,1-2.18-4.16c-.86.78-1.37,2.86-1.69,5-.2,1.37-.33,2.77-.42,3.84,0,.24,0,.47-.06.67s0,.11,0,.17a13.07,13.07,0,0,1-.73-4.89,17.83,17.83,0,0,1,.51-3.62c-.61.22-.55.28-1.15.81-.42-2.47,1.06-5.48,1.79-6.6-.85.08-1.15.06-2.22,2.22.29-3,4-7.21,5.42-8.39-1.19.08-2,.34-3.81,1.57,2.11-4.21,10.07-7.08,12.71-10.06A24,24,0,0,1,515.48,0h8.27c-1,1.81-1.52,3.51-2,4.29a1.65,1.65,0,0,0-1-1.12c.42.94.1,2.31-.8,3.86.07-1.18-1.55-3.41-2.17-3.09-1.2.61.29,4-.24,5.1-.15-1.14-2.34-3.24-2.76-2.13-.54,1.44.78,4.55.32,5.48,0-.45-.45-1-1.2-1.3.58,1.15-.05,1.56-.09,3a2.63,2.63,0,0,0-2.3-1.69c.54.79.69,2.68.27,4.69a20.25,20.25,0,0,0-3.31-4.13,5.36,5.36,0,0,1,0,5.4C508.18,17.33,507.14,16.93,506.74,17.8Z"/>
  <path class="cls-16" d="M528.37,9.5a4.34,4.34,0,0,1-.18,3.86c-.11-1.28-1-2.32-1.93-2.22,1.3,1.36,1.37,4.42,1.09,8.07-.61-3.23-1.61-3.4-2.12-3.35a6.55,6.55,0,0,1,.63,3.5c-.42-.91-1.38-2.35-2.67-2.23,1.66,1.91,2.22,4.94,2,7.58a6.49,6.49,0,0,0-2.93-4.85,5,5,0,0,1,.91,4.42A2.22,2.22,0,0,0,521,21.89c1.15,1.29,1.59,3.58,1.61,5.41a5.66,5.66,0,0,0-2.81-3.5,10.68,10.68,0,0,1,.72,5.86A15.52,15.52,0,0,0,518,24.91a16.45,16.45,0,0,0-.06,4.92c-1.9-3.73-1.5-5.65-1.56-7.65-1.45,2-2.58,6.34-2.6,10.13,0,.17,0,.34,0,.51a6,6,0,0,1-.33-.74c-1-2.57-.46-5.14.79-8.92a18.56,18.56,0,0,1-4.87,3.71c2.46-2.38,2.68-4.43,3.53-6.35a10.64,10.64,0,0,1-4.86,1.86C515.1,15.56,521.71,6.15,526,0h4.28a6.4,6.4,0,0,0,.39,2.51,9.9,9.9,0,0,1,.39,3.41,6,6,0,0,0-1.43-2c-.54,2.07.55,3.64,0,6.64A1.34,1.34,0,0,0,528.37,9.5Z"/>
  <path class="cls-16" d="M531.9.4c0-.13,0-.27,0-.4h.2A1.11,1.11,0,0,1,531.9.4Z"/>
  <path class="cls-16" d="M544.63,28.51c-2.85.79-5.64-2.42-7.5-4-.2,1.2,1.26,4.14,3,6.49a10.22,10.22,0,0,1-4.27-4.15c.1,1.54,1.62,4.34,2.89,6.16a7.24,7.24,0,0,1-2.62-1.57,14.43,14.43,0,0,0,1.34,3.85c-2-1.67-3.8-6.54-4.06-8-.74,1.32-.44,4.48-.21,6.24s-1.29-4.44-1.4-5.95c-.79,1.28-1.07,2.33-.85,8.57C527.09,22.36,530.06,9,533.17,0h6.42a11.38,11.38,0,0,0,1.26,3.68,6.62,6.62,0,0,1-2.14-1.44c-.1,2.14,1.27,5.7,2.2,6.23-.71.14-.93.19-2.08-1,0,2,1.76,4.93,2.49,5.81a6.59,6.59,0,0,1-2.71-.78,5.59,5.59,0,0,0,1.81,3.26c-.57.05-.87,0-1.89-.94-.19,1,1.94,4.42,3.05,5.92-.86.22-1.61.23-3-.81C539,23.2,542,27.24,544.63,28.51Z"/>
  <path class="cls-16" d="M566.13,15.19c.53,1.8,1.11,9.38-2.81,11.37,1.31-2.47,1.34-3.63.8-4.4-.79,1.77-4.5,7.16-7.37,8.59,1.41-1.53,3.08-4.16,2.33-5.47-1.41,1.07-2.14,2-2.25,3-.57-1.93.71-7,2.51-8.78a3.27,3.27,0,0,0-2,2c-.15-1.27-.37-4.58,1.07-6.27a4.21,4.21,0,0,0-2.44,2c.31-3.17,1.7-4.46.91-5.72a13.11,13.11,0,0,0-2.59,3.22c-.16-1.59.63-7,2.14-8.66-1.54-.09-2.35,5.61-5.71,7.32,1.38-2.11,3.13-6.56,2.31-9.12-2.4,1.22-3.35,5.3-5.6,6.44,1.71-3.35,3.5-7.41,2.79-8.81-.64,1.32-2,3.3-3.76,3.93,1.06-2.1,2.61-8-1-4l0,.05A10,10,0,0,1,545,.22L545,0h13.76l.55.59a5.61,5.61,0,0,1-.06-.59H560a4.64,4.64,0,0,0-.34,1c.59.64,1.17,1.31,1.73,2a7.86,7.86,0,0,0,.29-3h1.56a5.63,5.63,0,0,1-1.5,3.4C566.29,9,570,15.74,569.81,22.28,568,17.54,567.7,16.8,566.13,15.19Z"/>
  <path class="cls-16" d="M577.47.42c0-.14-.05-.28-.08-.42h.28C577.61.14,577.54.28,577.47.42Z"/>
  <path class="cls-16" d="M580.81,8.83a43.32,43.32,0,0,0,4,14.05c-3.43-4.09-6.26-10.26-6.54-13.93-.53,4.5-.34,6.8.71,9.34-2.18-3.92-2.73-5.12-2.6-6.78a4,4,0,0,0-.61,3.13c-1.16-1.92-2.83-5.44-1.63-8.75a9.72,9.72,0,0,0-1.53,7.84,17.67,17.67,0,0,1-1.1-10.24c-1.5,3-1.78,5.08-1.45,7.06-1.19-2.83-1.47-5-1.17-6.65a5.28,5.28,0,0,0-.84,2.7,8.07,8.07,0,0,1-1.49-4.4c-.8,2.06.09,3.57-.85,4.73-.08-1.61-.73-5.35-1.84-6.93h12.5C578.94,2.4,582,5.91,586,15A21.17,21.17,0,0,1,580.81,8.83Z"/>
  <path class="cls-16" d="M574.4,143c-9.62-.19-15.66-1.39-19.24-2.48h0a15.76,15.76,0,0,1-4.5-2,57.74,57.74,0,0,0,2.94-11.72,146.17,146.17,0,0,0,1.46-20.78c.07-7.85-.29-16.13-.9-24.23,0-.34,0-.67-.08-1s-.05-.66-.08-1a1.34,1.34,0,0,0,0-.2c-.38-4.66-.83-9.25-1.33-13.64-.64-5.57-1.35-10.83-2.07-15.55,0-.12,0-.24-.05-.36-.63-4.15-1.35-8.61-2.1-13.18-2.09-12.77-4.49-26.44-6.3-36.92H545c0,.07,0,.14,0,.22.12.54.24,1.1.36,1.66.8,3.7,1.59,7.75,2.38,12.07.88,4.81,2.29,12.59,3.85,21.37.82,4.64,1.68,9.56,2.53,14.47,1.17,6.69,2.3,13.37,3.28,19.3.64,3.91,1.21,7.5,1.68,10.56l0,.2q.07.51.15,1c0,.34.09.67.14,1,.11.77.22,1.5.31,2.18.86,6.27,1.78,13.86,3.27,22a162.2,162.2,0,0,0,6.29,24.61c1,2.8,2.05,5.59,3.26,8.35C573.14,140.36,573.75,141.69,574.4,143Z"/>
  <path class="cls-16" d="M533.45,142.23C531,119.79,473.93,120,453.75,26.37c.53,1.07,4.95,2.71,5.17,3.89,16.14,83.86,83,96.17,141.08,106.22L563.09,152.9Z"/>
  <path class="cls-16" d="M188.61,42.43c1.63.4,3.08.5,6.66,3.46-2.05-3.21-4.23-6.61-7.29-7.17a8.05,8.05,0,0,1,5.64,2.13c-1.63-3-6-6.31-9-6.28a8.08,8.08,0,0,1,7,.37c-2.63-2.43-5.59-3.38-7.75-2.65a4.68,4.68,0,0,1,3.76-1.43,11,11,0,0,0-7.19.27c.15-.72,2-3,3.94-3-4.07-1.59-15.19.54-24.21,3.77-.95.35-1.89.7-2.78,1.07a32.32,32.32,0,0,0-8.33,4.54c.52-3.27,5.35-7.43,8.56-6.9h.06s0,0,0-.05a2.75,2.75,0,0,1-1.11-1.84,2.18,2.18,0,0,1,.18-.91,6.11,6.11,0,0,1,1.29-.23c1.64-.14,3.82.1,4.64.74A5.43,5.43,0,0,0,159.9,25c.88-.46,4.39-.29,6.57,2.06-1.25-2.48-3.57-5-5.43-5.46a23.7,23.7,0,0,1,10.54,5.07c-1.53-3-5.46-6.44-8.18-7.26,1.87-.42,7.27-.62,10.27,2.75-3.31-4.16-6-6.91-9.53-6.42,1.07-.74,6.16-1.19,11.2,3.47-1.22-2-2.69-4.46-5.07-4.32,1.14-.51,3.17-.46,6.74,2-.63-1.53-1.28-2.75-2.72-3.14a9.2,9.2,0,0,1,7.75,2c-1.61-2.15-2.74-3.14-3.76-3.31,2.46-.09,7.32,1.78,10.12,4.47-1.33-2-2.85-3.76-3.73-4A9.56,9.56,0,0,1,191,16.31c-1.33-3-5.88-8.2-9.87-8.63a5.37,5.37,0,0,1,5.15,1.25c-1.62-2.78-5.8-5.21-12.53-4,1.55-1.5,4.13-3.59,7.44-3.06C177.86,1,170.69,1,161.68,9.2a55.27,55.27,0,0,0-5.41,5.72c1.16-2.61,3.24-8.1,3.07-9.49a8.46,8.46,0,0,1-2.78,4.45C157.61,7.1,158.88,4.22,159,0H146.54c2.52,3.63,3.81,10,1.15,21,0,.05,0,.11,0,.17a1.48,1.48,0,0,0,0-.21c-.18-9.4-1.68-13.54-1.09-18.06a6.59,6.59,0,0,0-2,3.72,20,20,0,0,1-1-5.73,7.63,7.63,0,0,0-.83,3.28A6.82,6.82,0,0,0,140,0h-.86a7,7,0,0,1,1.38,4.11c-1.63-1.57-4.28-3.87-7.41-3.87,1.46,1.67,1.66,2.11,1.81,3a8.89,8.89,0,0,0-6.37-2.16A31.92,31.92,0,0,1,132,4.21a16.1,16.1,0,0,0-4.27-.61,7.19,7.19,0,0,0-.81,0c-.24-.47-.47-.94-.71-1.38A17.59,17.59,0,0,0,124.8,0h-.94l.12.32a3.18,3.18,0,0,1,.28,2.35A16.15,16.15,0,0,0,122.62,0H111.69a5.6,5.6,0,0,0-2,1.26,3,3,0,0,0-.42.57l.68-.23c2-.63,2.81-.66,3.89-.16a4.5,4.5,0,0,1-2.43,2.06,5.29,5.29,0,0,0,4.21-.37,2,2,0,0,1-.82,1.74,7.64,7.64,0,0,0,2.94,0,1.4,1.4,0,0,1-1.42,1.25c.5.85,4,1.2,5.36.49A29.4,29.4,0,0,0,117.5,10c2.09-.32,3.75-.36,4.65.11a2,2,0,0,1-1.37,1.68,2.84,2.84,0,0,0,2.36.56,1.9,1.9,0,0,1-1.09,1.55c1.66.43,3.52-.47,5.08.18-.95.86-2,1.42-2.54,2.81,1.17-.37,3.43-.6,4.55.49s-.94,2-2.11,1.84c.81.58,2.94.76,3.25,1.46s-.64,1.11-1.86.78h0c-4.34-3.78-9.34-7.79-13.5-10l-.53-.28A16.81,16.81,0,0,0,111.59,10c3.45,2.89,3.6,3.41,4.49,5.37-2.55-2.25-7.33-5.25-11-5.33,2.92,1.12,3.89,2.48,4.33,3.45a7.11,7.11,0,0,0-4.85-1.22,4.37,4.37,0,0,1,2,2.33,19.27,19.27,0,0,0-7-1c.63.85,4.74,1.4,6.37,2.22A7.86,7.86,0,0,0,102.31,18c2-.59,3.66-.92,4.63-.26-1.34.82-2.42,2.12-2.26,3.41,1.29-1.07,1.92-2.15,4-2.85.11,1.89.51,2.92,1.33,3.7-.3-1.11-.59-3.15.48-4.22.48.93.51,4.11,3.08,5.43-.27-1.66,0-2.91.84-3.43.67.44,0,1.95.41,3a3,3,0,0,1,3.92-1.29A7.78,7.78,0,0,0,116,24.87c1.53-1.05,2.26-1.25,3.78-1a21.57,21.57,0,0,0-1.82,3.43c-5.28-1.31-10.21-1.95-12.22-3a8.11,8.11,0,0,1,2.19,2.4c-.48-.39-3.15-.7-6.93-.12-.4.06-.81.13-1.23.22A34.88,34.88,0,0,0,87,32.08l-.33.23a37.34,37.34,0,0,0-7.46,6.8c3.16-3,4.36-3.77,7.33-4.62a7.12,7.12,0,0,0-1.36,2.63c.9-1.12,3.75-3.67,6.18-3.67A3.61,3.61,0,0,0,90,36a7.06,7.06,0,0,1,4.71-2.63A2.38,2.38,0,0,1,94.94,35c1.29-.89,3.15-4.13,5.23-4.43a1.63,1.63,0,0,1,.31,0,3.33,3.33,0,0,1-.25.7,3.75,3.75,0,0,1-1.09,1.45c.55.1,4.86-.95,6.35-2.56-.1,1.76-.79,3.92-2.11,4.69,1.85-.18,4.6-2.72,6.83-2a4.11,4.11,0,0,1-1.71,4.55c1.93-.52,2.63-1.11,3-1.58.41.74.53,1.14-.18,2.21,1.09-.12,2.3-.84,2.3-1.78.58.47.58,1.13,0,1.79,1.45,0,1.79-1.8,3.06-1.8,1,0,1.35,1.41.42,1.74,1,0,1.16-1.18,4.22-1.18s3.71.76,4.72,1.77c-2.16-.43-12.44.81-16.14,2.26S97.83,41.24,94,44c2.21-.27,3-.15,4.12.32A20.25,20.25,0,0,0,94,46a11.41,11.41,0,0,0-4.46,3.42c1.93-1.45,2.19-1.29,3-1-1.16.67-3.84,2.68-4.59,5.08.77-.21.75-.29,1.39-.21-.15.18-.35.41-.58.7a15.41,15.41,0,0,0-2.53,4.6A11.51,11.51,0,0,0,85.64,61c.4-.65,1-1.59,1.64-2.59a19,19,0,0,1,3.8-4.56,2.83,2.83,0,0,1,.88-.45,2.78,2.78,0,0,0-.23.6,8,8,0,0,0,.13,3.64q.08.26.15.45l.17-.31A17.31,17.31,0,0,0,93.6,54.4a4.75,4.75,0,0,0,.24-1.46,3.08,3.08,0,0,1,.65,1.67,5.91,5.91,0,0,1-.08,2.2,9.74,9.74,0,0,0,.89-2h0a2.86,2.86,0,0,0,.11-1.93,1.57,1.57,0,0,1,1.27,1.85c.77-.95,1.29-2.14.95-3,.75-.6,1.5.23,1.26,1.24a5.27,5.27,0,0,0,2.41-4.3c0-.17,0-.35,0-.53.06.18.13.37.19.56a20.66,20.66,0,0,1,.89,4.63c1.29-1.6,2-3.36,1.88-4.31a2.66,2.66,0,0,1,1.29,2.55c.67-1.23,1.42-1.31,1.42-2.6a1.78,1.78,0,0,1,.49,1.7c.77-.58,1-3.57,2-4.8a2.4,2.4,0,0,1,.21-.23c.34-.31.7-.07,1,.4a4,4,0,0,1,.52,2.75,5.44,5.44,0,0,0,1.06-2.28c.35-1.1.74-2.16,1.46-2.16s1,2,.72,3.25a1.66,1.66,0,0,1-.18.49c.16-.1.31-.21.45-.31a4.05,4.05,0,0,0,2-2.77,1.67,1.67,0,0,1,.43,1.48c1.82-1.1,6.21-6.35,12.18-5.13-1.94.71-7.19,3.75-13.75,7.07A136.42,136.42,0,0,1,99,55.68h0c-.77.27-1.53.52-2.29.76a10.51,10.51,0,0,0,5.17.55,23,23,0,0,1-4,3.21h0a11,11,0,0,1-2,.85,24.81,24.81,0,0,0,3.16-.35h0a11.29,11.29,0,0,0,2.85-.75c-.49.48-.94.95-1.36,1.39-1.76,1.88-2.88,3.49-3.27,5.39a7.66,7.66,0,0,0-.17,1.62c.19-.4.4-.79.63-1.19a24.21,24.21,0,0,1,4.07-5.26,10.86,10.86,0,0,1,2.45-1.85c-.3.64-.65,1.25-1,2a12.49,12.49,0,0,0-1.09,5.55,16.42,16.42,0,0,1,2.28-4.35,15.68,15.68,0,0,1,0,5.34,10.61,10.61,0,0,0,2-5.55,5.64,5.64,0,0,1,.92,4.39A9.09,9.09,0,0,0,108.49,62a1.16,1.16,0,0,0,0-.18.78.78,0,0,1,.35.18h0a2.34,2.34,0,0,1,.51,3,5.25,5.25,0,0,0,1.29-3,3.75,3.75,0,0,0-.1-1.38,9.11,9.11,0,0,1,.6,1.38,6.82,6.82,0,0,1-.18,4.27A12.56,12.56,0,0,0,112.62,62a8,8,0,0,0,0-3.37c1.2.48,1.41,2.2,1.37,3.2a6.44,6.44,0,0,0,1-3.4c.48.18,1.29.78.38,3.94a35.57,35.57,0,0,0,2-3.59,6.24,6.24,0,0,0,.73-4.1c.89.34,1.2,1.67.72,2.86a4.16,4.16,0,0,0,1.71-2.34,5.18,5.18,0,0,0,.2-1,1.31,1.31,0,0,1,.64,1.05,1.4,1.4,0,0,1,0,.41,12.45,12.45,0,0,0,1.91-3.86h0a6,6,0,0,1,1.13-2,5.38,5.38,0,0,1,.32,1.36h0c0,.34,0,.69,0,1.11.18-.44.4-.85.6-1.26a5.24,5.24,0,0,0,.59-2c.12-1.37,1.1-3.53,2.25-3.88a5,5,0,0,1-.2,2.56c1-.6,1.23-3.75,7.22-5a91.76,91.76,0,0,0-8.88,8.27,69,69,0,0,0-7.21,9c-.78,1.15-1.52,2.35-2.24,3.6a54.16,54.16,0,0,0-2.77,5.55h0a49.25,49.25,0,0,0-1.91,5.2,45.7,45.7,0,0,0-1.21,4.81c1.07-2.29,1.82-3.79,2.42-4.81A6.17,6.17,0,0,1,115.3,72l.28-.18c-.08.18-.17.38-.27.66v.11c-.14.47-.31,1.06-.47,1.68-.57,2.16-1.1,4.62-.71,3.49a27.87,27.87,0,0,1,1.37-3.26l.12-.23a5.75,5.75,0,0,1,1.52-2,13.75,13.75,0,0,0-.37,2,23.91,23.91,0,0,0-.14,4.6c0,.26.05.51.09.76l0,.2a6.55,6.55,0,0,0,.23,1c0,.15.1.29.16.43,0-.14,0-.28,0-.43,0-.33,0-.66.07-1a1.5,1.5,0,0,0,0-.2,9.1,9.1,0,0,1,.45-2.43,7.86,7.86,0,0,0,1.44,2.43,1.41,1.41,0,0,0,.18.17,1,1,0,0,1,0-.17,21.44,21.44,0,0,1-.08-5.36,5,5,0,0,1,.32-1.28c0,.44.09.87.16,1.28a9.2,9.2,0,0,0,1.76,4.36,22.25,22.25,0,0,1-.35-4.36A11.64,11.64,0,0,1,121.2,73h0a3.61,3.61,0,0,1,.49-1.55c.26.65.54,1.46.87,2.3h0c.06.17.13.33.2.5a12.08,12.08,0,0,0,1.1,2.15,4.35,4.35,0,0,0,2.68,2,9.75,9.75,0,0,1-1.49-3.31h0c0-.14-.08-.29-.11-.44h0a3.15,3.15,0,0,1-.09-.42,12.43,12.43,0,0,1,.18-6.21c.78,1.56,1.45,1.9,2.32,2.09a30.91,30.91,0,0,1-.37-3.83,5.75,5.75,0,0,1,.34-2.83c.47,1.31.73,1.47,1.25,1.7a5.66,5.66,0,0,1-.13-3.74,6.47,6.47,0,0,0,2.06,1.93,10.63,10.63,0,0,1-.19-1.7h0a13.93,13.93,0,0,1,0-2.32,6.52,6.52,0,0,1,.58-2.28,3.37,3.37,0,0,0,.69,1.52,1.38,1.38,0,0,0,.7.32,1.78,1.78,0,0,1-.2-.65,8.89,8.89,0,0,1,.07-2.59,9.83,9.83,0,0,1,1-3.31,6.57,6.57,0,0,0,1.25,2.26c-.14-.92.28-4.85,2.15-6.89a10,10,0,0,0,.95-1.24,33.51,33.51,0,0,0,2.36-4.34,11.22,11.22,0,0,1,1.42,4.64,10,10,0,0,1-.37,3.26h0c-.53,1.9-1.43,3.48-1.72,5,5.17-2,1.07,2.65-.83,4.06h.11a6.29,6.29,0,0,0,3.52-.86h0a8.9,8.9,0,0,0,1.47-.94,1.9,1.9,0,0,1-.26.86c-.85,1.6-3.67,3.87-6.22,5.72,2.53,0,5.23-3.2,7.91-3.2A7.23,7.23,0,0,1,143.25,64a17.72,17.72,0,0,1-4.5,3.85c2.23,0,4.3-1.65,5.89-2.83,1.1-.82,2-1.42,2.52-1.1a6.35,6.35,0,0,0-2,1.47,21.28,21.28,0,0,0-3.63,4.89,2.52,2.52,0,0,0-.18.38l.41-.24A11.33,11.33,0,0,1,145.1,69c.08.91-.57,1.45-1.49,2.36l-.43.44a12.32,12.32,0,0,0-1.49,1.88,3.92,3.92,0,0,1,2.73-.71h.37a1.27,1.27,0,0,0-.23.12,4.7,4.7,0,0,0-1.5,1.23A13.11,13.11,0,0,0,141,78a3.25,3.25,0,0,1,2.73-.88,9.79,9.79,0,0,0-3.5,2.49l-.18.2q-.47.48-.87,1c-.26.33-.51.67-.72,1a5.93,5.93,0,0,0-.95,2c.57-.89,1.64-1.38,3.38-1.7.08,1.51-2.6,3.1-4.55,3.83,3.06,0,8.44-2.83,10.23-4.14l.23-.18a1.09,1.09,0,0,1,0,.18c0,.89-.56,1.87-2.71,3.38,2.06,0,3.8-1.55,5.1-3.38.23-.33.45-.66.64-1s.39-.66.56-1a1.86,1.86,0,0,0,.1-.2c.13-.24.24-.47.34-.7a12.92,12.92,0,0,0,.91-2.59,8.57,8.57,0,0,1,.49,3.29v.2c0,.13,0,.26,0,.39s0,.39,0,.6,0,.64-.09,1c-.07.7-.16,1.53-.27,2.51a17.13,17.13,0,0,0,1.12-2.51l.24-.7c0-.1.06-.2.08-.3.1-.33.19-.66.28-1,0-.07,0-.13,0-.2a25,25,0,0,0,.63-4.46,38.21,38.21,0,0,0-.48-8.37h0c-.15-1-.34-2-.56-3,1.28-.4,2.14-1.23,3.23-2.81.87,1.48-.5,6.08-1.26,7.77,1.37-.6,1.26-2.35,2.9-3.83a8.17,8.17,0,0,0-.66,4.6,4,4,0,0,1,1.12-1.36c.22-.19.5-.4.85-.66a7.05,7.05,0,0,0-.76,1.24,10.25,10.25,0,0,0-.59,1.55,16.53,16.53,0,0,0-.62,3.66A8.68,8.68,0,0,1,159,71.07l.15-.19a15.34,15.34,0,0,1,2.75-2.5A14.57,14.57,0,0,0,160,71.3,17.43,17.43,0,0,0,159.3,73a15.83,15.83,0,0,0-1.08,4.51h0a5,5,0,0,0,0,.54c.05-.17.09-.33.15-.49a10.51,10.51,0,0,1,1.32-2.71,8.61,8.61,0,0,1,3.46-3.1,9.36,9.36,0,0,0-2.55,6.49c0,.25,0,.48,0,.71s0,.51,0,.74a1.34,1.34,0,0,1,0,.2l0,.4a3.76,3.76,0,0,1,.13-.4s0,0,0-.07a.69.69,0,0,1,.05-.13,4.16,4.16,0,0,1,1.76-1.92,5.07,5.07,0,0,0-.71,1.92,1.5,1.5,0,0,1,0,.2q-.06.44-.09,1c0,.76,0,1.69,0,2.89,0,.38,0,.79,0,1.23,0-.27,0-.53.08-.78a12.29,12.29,0,0,1,1-3.34,10.94,10.94,0,0,1,.47-1l.1-.2A29.07,29.07,0,0,1,165,77c.14-.22.28-.45.44-.68-.09.22-.18.45-.26.7a16.54,16.54,0,0,0-.63,2.64l0,.2c-.05.32-.1.65-.14,1a34,34,0,0,0,.56,10.85,44.62,44.62,0,0,1,1.63-10.85c.09-.35.19-.68.29-1l.06-.2c.29-.93.57-1.71.81-2.3a9.76,9.76,0,0,0,.19,2.3,1.18,1.18,0,0,1,0,.2c.05.32.12.65.19,1a18,18,0,0,0,1.39,4.34c.1-1.58.14-3,.14-4.34,0-.34,0-.67,0-1a1.27,1.27,0,0,0,0-.2c0-.66,0-1.28,0-1.87a32.58,32.58,0,0,0-1.84-10.32c-.28-.78-.57-1.5-.83-2.2a31.72,31.72,0,0,0-5.15-8.92c3.12,1.26,4.43,2.8,4.43,5.62a2.21,2.21,0,0,0,1.48-2.48c.81.79,2.12,3.56,1.16,7.68q-.13.57-.33,1.17a7.77,7.77,0,0,0,1.62-1.53,6.57,6.57,0,0,0,1.47-5.6,8.32,8.32,0,0,1,2.2,6.07c.9-2.06,1.34-3.84.48-5.56,1.56,1.64,1.92,2.39,2.31,5.43.67-2.2.64-2.51.39-3.49a6.46,6.46,0,0,1,2.28,4.07,13.11,13.11,0,0,0-1.84-6.95,5.72,5.72,0,0,0-.39-.57,1.84,1.84,0,0,1,.47.08c1.07.32,2.91,1.63,4.44,4.52-.34-2.62-1.23-4.63-3.12-5.35,1.22-.28,4.09.58,6.76,4.29a34.79,34.79,0,0,0-5.26-7,45.51,45.51,0,0,0-23.5-13.19,50.56,50.56,0,0,0-6.06-.94,6.59,6.59,0,0,1,6.1-.63,4.71,4.71,0,0,1,1,.63c.95-.55,1.09-1.23.91-1.68.57-.12,1.64.19,2.28,1.79a3.06,3.06,0,0,0,.45-2.73,4.77,4.77,0,0,1,4.2,2.64c.35-1.23.17-1.57.56-1.92a5.05,5.05,0,0,1,3,3,2.27,2.27,0,0,0-.24-2.44,2.2,2.2,0,0,1,1.68,1.88,8.66,8.66,0,0,0,.35-1.74h0a3.83,3.83,0,0,0-.3-2.11,10,10,0,0,1,2.83,4.32A4.64,4.64,0,0,1,174,45c.06-.35.11-.69.15-1,.26-2,.2-3.6,1.16-4.55a6.12,6.12,0,0,1,1.6,3.78c.48-1.67.93-3.1,1.35-1s1.68,3.85,1.42,6.59c0,.22,0,.43-.09.65l.37-.41c1.23-1.39,1.57-2.18,1.41-3.07a16,16,0,0,1,1.23,4.61c1-2.68,1.47-4,.87-5.54,1.11.6,1,5.06,2.73,8.25-.42-2-.52-4,.53-4.41a1.69,1.69,0,0,1,2.25,1.72,5.3,5.3,0,0,0-.45-5.31c1.36.43,3.09,2,4.21,5.31A11.84,11.84,0,0,0,188.61,42.43Zm-70.34-15a5.68,5.68,0,0,1,4.14-1.83c-.88.8-1.52,1.72-2.27,2.33C119.51,27.71,118.89,27.55,118.27,27.39Zm2.19.59c1-.53,1.83-1.32,2.14-1s.06,1-.51,1.53C121.55,28.31,121,28.14,120.46,28Zm4.4,1.53c-.71-.3-1.43-.57-2.17-.81.83-.58,1.87-1.42,3-1C126.42,28.06,125.61,29,124.86,29.51Zm3,1.46c-.35-.21-.73-.41-1.13-.62.21-.65,1-.81,1.67-.69A2.28,2.28,0,0,1,127.87,31Zm21.55,19.68h0a13.63,13.63,0,0,1,.19,2.08c-.57-1.34-1.15-2.55-1.7-3.58a22.36,22.36,0,0,0-1.54-2.54C148.19,46.73,149.06,48.62,149.42,50.65Zm3.68,6.13c.29.89-.36,2.2-.83,3.48-.25-.89-.52-1.76-.81-2.6A5.7,5.7,0,0,1,153.1,56.78ZM139.32,26.27c-.55-1.34-1.08-2.53-1.61-3.6C138.9,22.72,140.46,23.33,139.32,26.27Zm-1-9.81a5.82,5.82,0,0,0-2.73,2.34c-.82-1.3-1.6-2.39-2.33-3.4C134.24,15.6,136.06,15.18,138.27,16.46ZM132.89,15a34.32,34.32,0,0,1-2-3c2.34.57,4.93.16,7,1.2C137.38,14.13,134.86,14.8,132.89,15Zm6,5.42a4.3,4.3,0,0,0-2.45-.17c-.18-.32-.37-.62-.55-.92A3.25,3.25,0,0,1,138.84,20.37ZM127.9,5.76c-.2-.45-.41-.9-.61-1.34,1.17.34,2.38.71,2.31,1.46C129.31,5.9,128.62,5.81,127.9,5.76Zm2.32,26.83a15,15,0,0,0-1.32-1,3,3,0,0,1,2.29-.48A2.59,2.59,0,0,1,130.22,32.59Zm1,.88a3.09,3.09,0,0,1,2.47-1.42,3.4,3.4,0,0,1-.92,3C132.27,34.52,131.76,34,131.22,33.47Zm3.56,4c-.68-.82-1.31-1.59-1.95-2.31,1-.63,2.61-1.47,3.12,2.34A1.25,1.25,0,0,0,134.78,37.46Zm-4.9-14.72c2.63.69,6.67,2.38,6.87,6.29C135.17,27.57,132.72,25.26,129.88,22.74Zm7.51-.7c-.16-.31-.31-.61-.47-.89a2.6,2.6,0,0,0,2.07.14A8.75,8.75,0,0,1,137.39,22Zm15.66,41.28c-.2-.87-.41-1.72-.64-2.55a5.43,5.43,0,0,1,2.45-1.64C155.13,60.23,154.33,62,153.05,63.32Zm-1.81-11.25a5.84,5.84,0,0,1,.18,2,5.4,5.4,0,0,1-.49,2c-.31-.9-.64-1.76-1-2.57a4.17,4.17,0,0,1,.59-.79C150.74,52.55,151,52.33,151.24,52.07Z"/>
  <path class="cls-16" d="M23,.42c-.07-.14-.14-.28-.2-.42h.28C23.06.14,23,.28,23,.42Z"/>
  <path class="cls-16" d="M30.39,10.55c.33-2,.05-4.09-1.45-7.06a17.67,17.67,0,0,1-1.1,10.24,9.72,9.72,0,0,0-1.53-7.84c1.2,3.31-.47,6.83-1.63,8.75a4,4,0,0,0-.61-3.13c.13,1.66-.41,2.86-2.6,6.78,1.05-2.54,1.24-4.84.71-9.34-.27,3.67-3.11,9.84-6.54,13.93a43.32,43.32,0,0,0,4-14A21.17,21.17,0,0,1,14.5,15c4-9.08,7-12.59,9.58-15H36.59c-1.12,1.58-1.77,5.32-1.85,6.93-.94-1.16-.05-2.67-.84-4.73a8.17,8.17,0,0,1-1.5,4.4,5.17,5.17,0,0,0-.84-2.7C31.87,5.59,31.58,7.72,30.39,10.55Z"/>
  <path class="cls-16" d="M55.48,0a2.91,2.91,0,0,1,0,.31.09.09,0,0,0,0,0,9.5,9.5,0,0,1-.29,1.57l0-.05c-3.67-4-2.12,2-1.06,4.05C52.23,5.3,50.92,3.32,50.28,2c-.71,1.4,1.08,5.46,2.79,8.81-2.25-1.14-3.2-5.22-5.6-6.44-.82,2.56.93,7,2.31,9.12-3.36-1.71-4.17-7.41-5.71-7.32,1.51,1.66,2.3,7.07,2.14,8.66a13.11,13.11,0,0,0-2.59-3.22c-.79,1.26.6,2.55.91,5.72a4.21,4.21,0,0,0-2.44-2c1.44,1.69,1.22,5,1.07,6.27a3.27,3.27,0,0,0-2-2c1.8,1.79,3.08,6.85,2.51,8.78-.11-1.05-.84-2-2.25-3-.75,1.31.92,3.94,2.33,5.47-2.87-1.43-6.58-6.82-7.37-8.59-.54.77-.51,1.93.8,4.4-3.92-2-3.34-9.57-2.81-11.37-1.57,1.61-1.91,2.35-3.68,7.09C30.47,15.74,34.18,9,38.73,3.4A5.63,5.63,0,0,1,37.23,0h1.56a7.86,7.86,0,0,0,.29,3c.56-.68,1.14-1.35,1.73-2a4.64,4.64,0,0,0-.34-1h.76a5.61,5.61,0,0,1-.06.59L41.72,0Z"/>
  <path class="cls-16" d="M68.57.4a1.11,1.11,0,0,1-.15-.4h.2C68.6.13,68.58.27,68.57.4Z"/>
  <path class="cls-16" d="M67.3,0c3.11,9,6.08,22.36,2.17,36.13.22-6.24-.06-7.29-.85-8.57-.11,1.51-1.64,7.71-1.4,5.95s.53-4.92-.21-6.24c-.26,1.44-2.05,6.31-4.06,8a14.43,14.43,0,0,0,1.34-3.85A7.24,7.24,0,0,1,61.67,33c1.28-1.82,2.79-4.62,2.89-6.16A10.22,10.22,0,0,1,60.29,31c1.79-2.35,3.25-5.29,3.05-6.49-1.86,1.62-4.65,4.83-7.5,4,2.62-1.27,5.61-5.31,6.06-8.59-1.4,1-2.15,1-3,.81,1.11-1.5,3.24-4.92,3-5.92-1,.95-1.32,1-1.89.94a5.59,5.59,0,0,0,1.81-3.26,6.59,6.59,0,0,1-2.71.78c.73-.88,2.5-3.86,2.49-5.81-1.15,1.2-1.37,1.15-2.08,1,.93-.53,2.3-4.09,2.2-6.23a6.62,6.62,0,0,1-2.14,1.44A11.38,11.38,0,0,0,60.88,0Z"/>
  <path class="cls-16" d="M92.4,22.38a10.64,10.64,0,0,1-4.86-1.86c.85,1.92,1.07,4,3.53,6.35a18.56,18.56,0,0,1-4.87-3.71c1.25,3.78,1.8,6.35.79,8.92a6,6,0,0,1-.33.74c0-.17,0-.34,0-.51,0-3.79-1.15-8.11-2.6-10.13-.06,2,.34,3.92-1.56,7.65a16.45,16.45,0,0,0-.06-4.92A15.52,15.52,0,0,0,80,29.66a10.68,10.68,0,0,1,.72-5.86,5.66,5.66,0,0,0-2.81,3.5c0-1.83.46-4.12,1.61-5.41a2.22,2.22,0,0,0-2.21,2.39,5,5,0,0,1,.91-4.42,6.49,6.49,0,0,0-2.93,4.85c-.22-2.64.34-5.67,2-7.58C76,17,75,18.45,74.61,19.36a6.55,6.55,0,0,1,.63-3.5c-.5,0-1.51.12-2.12,3.35-.28-3.65-.21-6.71,1.09-8.07-.94-.1-1.82.94-1.93,2.22A4.34,4.34,0,0,1,72.1,9.5a1.34,1.34,0,0,0-1.23,1c-.59-3,.5-4.57,0-6.64A5.94,5.94,0,0,0,69.4,5.92a9.9,9.9,0,0,1,.39-3.41A6.4,6.4,0,0,0,70.18,0h4.29C78.76,6.15,85.37,15.56,92.4,22.38Z"/>
  <path class="cls-16" d="M90.47,0h0l0,.07Z"/>
  <path class="cls-16" d="M96.11,0h.1a.67.67,0,0,0,.06.12A.83.83,0,0,1,96.11,0Z"/>
  <path class="cls-16" d="M100.74,0h.2a1,1,0,0,0,.07.15A1.32,1.32,0,0,1,100.74,0Z"/>
  <path class="cls-16" d="M99.82,17.14c.73,1.12,2.21,4.13,1.79,6.6-.6-.53-.54-.59-1.15-.81a17.83,17.83,0,0,1,.51,3.62,13.07,13.07,0,0,1-.73,4.89c0-.06,0-.11,0-.17s0-.43-.06-.67c-.09-1.07-.22-2.46-.43-3.83-.31-2.12-.82-4.19-1.68-5A7.12,7.12,0,0,1,95.88,26c-.06-2.43.14-4.36.69-5.38a4.83,4.83,0,0,0-2.26,3.19c-.11-2.17.36-3.55.89-4a1.57,1.57,0,0,0-2,1.08c-.25-1.2-.18-2.49.5-3.07-.4-.87-1.44-.47-1.69.53a5.36,5.36,0,0,1,0-5.4,20.25,20.25,0,0,0-3.31,4.13c-.42-2-.27-3.9.27-4.69a2.63,2.63,0,0,0-2.3,1.69c0-1.41-.67-1.82-.09-3-.75.34-1.18.85-1.2,1.3-.46-.93.86-4,.32-5.48C85.33,5.8,83.14,7.9,83,9c-.53-1.11,1-4.49-.24-5.1-.62-.32-2.24,1.91-2.17,3.09-.9-1.55-1.22-2.92-.8-3.86a1.65,1.65,0,0,0-1,1.12c-.49-.78-1.06-2.48-2-4.29H85a24,24,0,0,1,2.73,2.48c2.64,3,10.6,5.85,12.71,10.06-1.84-1.23-2.62-1.49-3.81-1.57,1.42,1.18,5.13,5.38,5.42,8.39C101,17.2,100.67,17.22,99.82,17.14Z"/>
  <path class="cls-16" d="M115.88,14.88a31.34,31.34,0,0,0-1.5-3.72,12.34,12.34,0,0,0-2.93-3.72,7.34,7.34,0,0,1,0,3c-.3-1.41-1.68-5-3.85-6.07a3.55,3.55,0,0,1,.09,2.9,7,7,0,0,0-3-4.47,2.34,2.34,0,0,0-1,1.35c-.46-.85-.71-2.61-1.24-4.11h6.22c.33.41.66.83,1,1.26l.26.34a36,36,0,0,1,5,9.84C115.28,12.54,115.6,13.68,115.88,14.88Z"/>
  <path class="cls-16" d="M55.51,0h2.83C56.52,10.54,54.11,24.31,52,37.14c-.74,4.5-1.44,8.87-2.06,13,0,.14,0,.29-.07.44-.69,4.58-1.38,9.66-2,15-.52,4.53-1,9.26-1.38,14.07,0,.07,0,.13,0,.2,0,.33,0,.66-.07,1s-.06.66-.08,1c-.61,8.1-1,16.38-.9,24.23a146.38,146.38,0,0,0,1.46,20.78,58.41,58.41,0,0,0,2.94,11.72,14.08,14.08,0,0,1-3.68,1.67h0c-3.45,1.17-9.66,2.55-20.06,2.76.75-1.52,1.45-3.05,2.12-4.59,1.1-2.56,2.09-5.14,3-7.73a162.2,162.2,0,0,0,6.29-24.61c1.49-8.19,2.41-15.78,3.27-22,.09-.68.2-1.41.31-2.18.05-.33.1-.66.14-1s.1-.65.15-1l0-.2c.45-3,1-6.45,1.63-10.24,1-6,2.13-12.75,3.31-19.53h0c.84-4.87,1.7-9.73,2.51-14.33h0c1.58-8.87,3-16.73,3.89-21.58.79-4.32,1.58-8.37,2.39-12.07.1-.52.22-1,.33-1.52a.09.09,0,0,1,0,0C55.46.2,55.49.1,55.51,0Z"/>
  <path class="cls-16" d="M67,143.14c2.42-22.44,59.52-23.17,79.7-116.77-.53,1.07-4.95,2.71-5.17,3.89-16.14,83.86-83,96.17-141.08,106.22L37.38,152.9Z"/>
  <path class="cls-16" d="M600,136.48V225H0V136.48c72,3.87,62.45,9.83,116.51,9.83,78.12,0,125.26-7.81,183.49-7.81s96.82,7.81,149.19,7.81S600,136.48,600,136.48Z"/>
  <g>
    <path class="cls-19" d="M295.82,147.57a4.5,4.5,0,0,0-.11-.64s0,0,0,0a1.53,1.53,0,0,0-.62-1l-.07,0c-.34-.18-.82,0-1.44.56q-.33.39-.66.81l-.13.19c-.21.28-.42.58-.61.88a21.2,21.2,0,0,0-2.17,4.34q-1.35,3.62-2.74,6.86-2.77,6.41-5.66,13t-6.08,13c-.28.57-.57,1.14-.86,1.71h0q-2.81,5.58-5.95,11a122.77,122.77,0,0,1-8,12.11,16.88,16.88,0,0,1-1.11-5.8,66,66,0,0,1,.14-8.21q.31-4.54,1-9.51c.13-.9.26-1.8.4-2.68.36-2.35.77-4.64,1.22-6.84q.93-4.55,1.95-8.3a39.72,39.72,0,0,1,2-6,2.57,2.57,0,0,0-.55-2.88,8.65,8.65,0,0,0-3.07-2.22,8.93,8.93,0,0,0-3.71-.84,2.36,2.36,0,0,0-2.41,1.21,135.09,135.09,0,0,0-4.83,22c0,.27-.07.53-.1.8a87.44,87.44,0,0,0,.19,22.26,34.72,34.72,0,0,0,1.95,5.29,26.72,26.72,0,0,0,2.48,4.29c.09.15.2.29.31.44q2.69,3.44,5.8,3.21c1.91-.15,3.85-1.36,5.78-3.65l.48-.58q2.88-3.61,5.45-7.5a0,0,0,0,0,0,0l.1-.15.09-.14c.59-.9,1.17-1.81,1.73-2.73q2.73-4.44,5.13-9.08h0l0,0h0c.39-.75.78-1.49,1.15-2.24s.65-1.31,1-2q2.4-4.89,4.52-9.91,2.55-6,5-12.16a32.69,32.69,0,0,0,1.95-8.07c.3-2.72.67-5.49,1.09-8.28a1,1,0,0,1,0-.17v-1.5A8.06,8.06,0,0,0,295.82,147.57Z"/>
    <path class="cls-19" d="M311.33,185.44a5.21,5.21,0,0,0-.72-1.83,5,5,0,0,0-1.32-1.46,1.12,1.12,0,0,0-1.42-.09c-.89.62-2,1.46-3.38,2.52s-2.79,2.25-4.27,3.53l-1.55,1.37c-.95.86-1.89,1.74-2.81,2.65a38.16,38.16,0,0,0-3.58,3.94c.22-.56.51-1.3.89-2.23s.75-1.88,1.16-2.87l.64-1.57c.17-.44.34-.87.52-1.29.37-.91.67-1.66.92-2.25a3,3,0,0,0,.1-1.65,4.07,4.07,0,0,0-.65-1.48,2.37,2.37,0,0,0-1.19-.86,1.88,1.88,0,0,0-1.5.19,36.77,36.77,0,0,0-6.22,4.87c-.61.59-1.22,1.19-1.82,1.8-1.31,1.3-2.6,2.65-3.89,4.05v0h0l0,0h0c-.55.76-6.89,11.67-7,12.1l.1-.15.09-.14c1.29-2,3-4.11,4.32-5.9a64.37,64.37,0,0,1,4.15-5,48.59,48.59,0,0,1,4.29-4.22c.2-.18.41-.35.61-.51a32.83,32.83,0,0,1,3.77-2.74l-1.41,2.92-.16.33c-.56,1.15-1.11,2.32-1.65,3.53s-1,2.42-1.53,3.64a34.42,34.42,0,0,0-1.19,3.55,2.62,2.62,0,0,0,.31,1.62,3.47,3.47,0,0,0,1,1.16,3.56,3.56,0,0,0,1.3.63,1.86,1.86,0,0,0,1.13,0q1.44-2,3.51-4.5c1.37-1.67,2.83-3.31,4.36-4.92s3.08-3.12,4.64-4.53l.19-.16a28.74,28.74,0,0,1,4.24-3.2c-.46.68-1.1,1.72-1.89,3.14a0,0,0,0,0,0,0c-.81,1.43-1.63,3-2.48,4.85s-1.65,3.72-2.39,5.73a41.25,41.25,0,0,0-1.7,5.76,16.43,16.43,0,0,0-.37,5,5.23,5.23,0,0,0,.67,2.25,3.62,3.62,0,0,0,.93,1.09,3.49,3.49,0,0,0,.95.52,5.15,5.15,0,0,0,1.33.23,1.76,1.76,0,0,0,.37-.07.3.3,0,0,0,.23-.3c0-.5,0-1,0-1.47a43.54,43.54,0,0,1,.56-6.1,38.19,38.19,0,0,1,1.76-6.68,54.25,54.25,0,0,1,2.88-6.5q1.13-2.14,2.47-4.53l1.45-2.52C311.34,186.46,311.44,186.06,311.33,185.44Z"/>
    <g>
      <path class="cls-19" d="M305.42,169.11c0-.06-.06-.11-.15-.15s-.12,0-.21,0l-.2.18a6.46,6.46,0,0,0-.72.74L304,170c-.33.39-.69.79-1.07,1.22s-.76.82-1.15,1.2a3.62,3.62,0,0,1-1.1.79c-.44.16-.75.17-.91,0s-.23-.47-.17-.95a3.67,3.67,0,0,1,.4-1.07c.21-.41.38-.76.51-1.06a1,1,0,0,0,.07-.7,1.14,1.14,0,0,0-.36-.58.94.94,0,0,0-.62-.26,1,1,0,0,0-.72.24l-.37.49-.82,1.05c-.31.4-.65.8-1,1.2a7.86,7.86,0,0,1-.94,1c-.27.23-.48.33-.6.3s-.14-.28,0-.76a7.19,7.19,0,0,1,.55-1.31,17.23,17.23,0,0,1,1.05-1.75,11.6,11.6,0,0,1,1.27-1.52,1.88,1.88,0,0,1,1.19-.65.61.61,0,0,1,.41.13.83.83,0,0,1,.23.27,1.1,1.1,0,0,1,.12.31c0,.1.06.18.07.23s.12.16.17.16a.34.34,0,0,0,.18-.13,1.22,1.22,0,0,0,.17-.28l.12-.33a1.13,1.13,0,0,0-.08-.81,1.77,1.77,0,0,0-.56-.63,1.93,1.93,0,0,0-.84-.31,2.23,2.23,0,0,0-.93,0,4.21,4.21,0,0,0-2.26,1.27,8.53,8.53,0,0,0-1.55,2.27,11.57,11.57,0,0,0-.61,1.57,13.25,13.25,0,0,0-.39,1.53,3.29,3.29,0,0,0,0,.74,1.2,1.2,0,0,0,.3.72,3,3,0,0,0,.53.43,1.62,1.62,0,0,0,.61.24,2,2,0,0,0,.84,0,3.27,3.27,0,0,0,.76-.27,4.19,4.19,0,0,0,.67-.42l.55-.43a2.43,2.43,0,0,0,.3.83,2,2,0,0,0,.58.64,2.06,2.06,0,0,0,.81.32,2.12,2.12,0,0,0,1-.13,6.62,6.62,0,0,0,1.65-.9,8.07,8.07,0,0,0,1.38-1.3,4.3,4.3,0,0,0,.38-.49h0a8.71,8.71,0,0,0,.74-1.09,14,14,0,0,0,.86-1.74A1.49,1.49,0,0,0,305.42,169.11Z"/>
      <path class="cls-19" d="M313.2,169.42c-.05-.11-.17-.11-.38,0l-.64.5a19.48,19.48,0,0,1-2,1.29c-.9.52-1.84,1-2.82,1.48a3.56,3.56,0,0,1-.66.25,1.29,1.29,0,0,1-.58,0,.61.61,0,0,1-.42-.33,1.65,1.65,0,0,1-.16-.83,3.25,3.25,0,0,1,.16-.95,5.36,5.36,0,0,1,.42-1,3.85,3.85,0,0,1,.51-.79c.17-.21.32-.32.43-.32,0,.26.1.53.15.82a2.57,2.57,0,0,0,.37.9q.09.13.18.12c.07,0,.12-.07.16-.18.05-.31.12-.62.19-.91s.14-.57.21-.82.11-.47.15-.68a1.06,1.06,0,0,0-.43-1.09.77.77,0,0,0-.62-.18,2.81,2.81,0,0,0-1.77.79,5.63,5.63,0,0,0-1.55,2.44,5.81,5.81,0,0,0-.31,1.49,4.52,4.52,0,0,0,0,.74h0a3.34,3.34,0,0,0,.38,1.23,2,2,0,0,0,1.23,1,3,3,0,0,0,1.68,0,5.55,5.55,0,0,0,1.17-.52l1.26-.75.36-.25.48-.36a8.31,8.31,0,0,0,.72-.59c.18-.15.37-.33.6-.54l.47-.42a4.55,4.55,0,0,0,.55-.52,2.76,2.76,0,0,0,.42-.61A.46.46,0,0,0,313.2,169.42Z"/>
      <path class="cls-19" d="M323.49,169.11q0-.09-.15-.15c-.06,0-.12,0-.2,0h0l-.21.18a7.83,7.83,0,0,0-.83.86c-.33.39-.69.79-1.06,1.22s-.76.82-1.15,1.2a3.77,3.77,0,0,1-1.11.79c-.44.16-.74.17-.91,0s-.22-.47-.17-.95a4,4,0,0,1,.4-1.07c.22-.41.39-.76.52-1.06a1,1,0,0,0,.07-.7,1.3,1.3,0,0,0-.36-.58,1,1,0,0,0-.63-.26,1,1,0,0,0-.72.24l-.37.49-.82,1.05q-.46.6-1,1.2a8.67,8.67,0,0,1-.94,1c-.28.23-.48.33-.61.3s-.14-.28,0-.76a7.42,7.42,0,0,1,.56-1.31,14.21,14.21,0,0,1,1.05-1.75,10.87,10.87,0,0,1,1.27-1.52,1.85,1.85,0,0,1,1.19-.65.58.58,0,0,1,.4.13.83.83,0,0,1,.23.27,1.58,1.58,0,0,1,.13.31c0,.1,0,.18.07.23s.11.16.16.16a.34.34,0,0,0,.18-.13,1,1,0,0,0,.17-.28,2.19,2.19,0,0,0,.12-.33,1.08,1.08,0,0,0-.08-.81,1.75,1.75,0,0,0-.55-.63,1.93,1.93,0,0,0-.85-.31,2.18,2.18,0,0,0-.92,0,4.23,4.23,0,0,0-2.27,1.27,8.77,8.77,0,0,0-1.55,2.27c-.12.26-.24.53-.34.8s-.19.51-.27.77-.13.45-.19.67-.14.58-.2.86a5.18,5.18,0,0,0,0,.74,1.15,1.15,0,0,0,.31.72,3,3,0,0,0,.52.43,1.69,1.69,0,0,0,.61.24,2,2,0,0,0,.84,0,3.11,3.11,0,0,0,.76-.27,3.79,3.79,0,0,0,.67-.42l.55-.43a2.68,2.68,0,0,0,.31.83,1.87,1.87,0,0,0,.58.64,2,2,0,0,0,.8.32,2.16,2.16,0,0,0,1-.13,6.56,6.56,0,0,0,1.64-.9,7.71,7.71,0,0,0,1.38-1.3,9.64,9.64,0,0,0,.92-1.28,2.7,2.7,0,0,0,.2-.31,12.76,12.76,0,0,0,.86-1.74A1.48,1.48,0,0,0,323.49,169.11Z"/>
      <path class="cls-19" d="M335.16,160a2.71,2.71,0,0,0-.59-.07l-.78,0-2.45,0-1.83,0h-1.17a10.42,10.42,0,0,1,.53-1.58,5.11,5.11,0,0,0,.39-1.41.77.77,0,0,0-.25-.54,2.61,2.61,0,0,0-.65-.48,2.18,2.18,0,0,0-.72-.24c-.23,0-.39,0-.46.21l-.32.8-.37,1-.39,1.08-.36,1.05s0,.06-.08.08a2.63,2.63,0,0,1-.84.1c-.44,0-.91,0-1.41,0s-1,0-1.46-.08-.79-.05-1-.05a1.31,1.31,0,0,0-.76.18.55.55,0,0,0-.28.42.69.69,0,0,0,.19.5,1.17,1.17,0,0,0,.65.36,7,7,0,0,0,1.07.2c.38,0,.76.06,1.15.07l1.16,0,1.13,0c-.24.71-.47,1.49-.7,2.37s-.49,1.73-.76,2.56-.45,1.59-.67,2.38l-.12.43c-.19.64-.38,1.29-.58,2l-.27.88q-.14.45-.36,1.26a14.86,14.86,0,0,0-.34,1.69,7.7,7.7,0,0,0-.07,1.64,1.78,1.78,0,0,0,.47,1.19,1.35,1.35,0,0,0,1,.43,6.34,6.34,0,0,0,1.28-.18,4,4,0,0,0,1.53-.74,11.69,11.69,0,0,0,1.49-1.36,14.85,14.85,0,0,0,1.37-1.67c.4-.55.76-1.09,1.08-1.61l.09-.14c.35-.56.64-1.07.88-1.52s.42-.79.53-1a1.77,1.77,0,0,0,.2-.55q0-.17-.09-.18a.45.45,0,0,0-.27.08l-.26.18a4.78,4.78,0,0,0-.45.42,2.51,2.51,0,0,0-.32.41l0,0-.63.89c-.33.48-.72,1-1.17,1.61s-.93,1.19-1.43,1.8a17.11,17.11,0,0,1-1.42,1.54,3.8,3.8,0,0,1-1.19.83.46.46,0,0,1-.68-.33,1.73,1.73,0,0,1,0-1q.15-.84.48-2.1c.22-.84.49-1.77.8-2.81s.65-2.08,1-3.15.7-2.11,1.05-3.13.67-1.92,1-2.73a.14.14,0,0,1,0-.06.09.09,0,0,0,0-.05c.06-.1.08-.15.07-.17s0,0,.13-.06c.57-.05,1.15-.11,1.74-.19s1-.14,1.46-.23a27.41,27.41,0,0,0,3.38-.85,2.71,2.71,0,0,0,.72-.26C335.33,160.08,335.3,160,335.16,160Z"/>
      <path class="cls-19" d="M336.78,168.71l-.33.33-.34.37-.19.21-.25.27-1.24,1.35c-.68.73-1.4,1.48-2.16,2.26a5.82,5.82,0,0,1-.75.66c-.18.13-.25.06-.22-.22s.07-.36.14-.64l.25-.87c.09-.3.18-.59.26-.87a6.37,6.37,0,0,0,.18-.64c.09-.31.18-.61.25-.9s.16-.58.25-.89a1.8,1.8,0,0,0,0-1,2.17,2.17,0,0,0-.39-.84l0,0h0a1.2,1.2,0,0,0-.56-.43l-.11,0h0a.48.48,0,0,0-.46.16,3.92,3.92,0,0,0-.39.8,23,23,0,0,0-.81,2.87v0a11.61,11.61,0,0,0-.27,2.24,8.42,8.42,0,0,0,0,.87,1.71,1.71,0,0,0,.27.93,2.21,2.21,0,0,0,.73.73.69.69,0,0,0,.37.14,1.62,1.62,0,0,0,.49,0,2.85,2.85,0,0,0,.48-.13,1.16,1.16,0,0,0,.37-.19,6.12,6.12,0,0,0,.72-.72,7.55,7.55,0,0,0,.75-.82c.31-.37.64-.79,1-1.24l.61-.82.37-.51c.32-.43.57-.79.75-1.06a2.61,2.61,0,0,1,.17-.35,1.86,1.86,0,0,0,.11-.95v-.06Zm-3.07-5.64a.57.57,0,0,0-.25-.29,1.21,1.21,0,0,0-.36-.18.82.82,0,0,0-.68.15,1,1,0,0,0-.48.59,2.23,2.23,0,0,0-.11,1.22,3.06,3.06,0,0,0,.47,1.16c.05.13.15.13.28,0a5.93,5.93,0,0,0,.92-1.21A1.83,1.83,0,0,0,333.71,163.07Z"/>
      <path class="cls-19" d="M345,168.54l-.28.07-.53.17c-.29.1-.56.19-.82.26s-.46.13-.72.22a2.66,2.66,0,0,1-.72.17l.09-.5a3.46,3.46,0,0,0,0-.73,3.68,3.68,0,0,0-.16-.83,2.45,2.45,0,0,0-1.37-1.43,2.33,2.33,0,0,0-1.12-.05,2.76,2.76,0,0,0-1.7.82,7,7,0,0,0-1.21,1.53,2.37,2.37,0,0,0-.25.61c0,.19-.1.38-.14.56,0,0,0,.05,0,.08a.33.33,0,0,1-.13.11l0,0s-.05,0-.08,0a.33.33,0,0,0-.11.1.23.23,0,0,0-.06.14.5.5,0,0,0,0,.12,8,8,0,0,0-.2,1.07c0,.18,0,.37,0,.56a4.82,4.82,0,0,0,0,.76,4.47,4.47,0,0,0,.25,1.26,1.68,1.68,0,0,0,.62.86,2,2,0,0,0,1.33.44,1.79,1.79,0,0,0,1.15-.5,8,8,0,0,0,1.13-1.18,14.52,14.52,0,0,0,1-1.43c.3-.49.53-.88.7-1.18a6,6,0,0,1,1.23-.47,7.13,7.13,0,0,0,1.31-.47,1.4,1.4,0,0,0,.24-.16l.16-.11a4.9,4.9,0,0,0,.47-.4,1.19,1.19,0,0,0,.27-.36C345.28,168.6,345.21,168.54,345,168.54Zm-5.27,3.34a7.25,7.25,0,0,1-.55.9,6.57,6.57,0,0,1-.66.79,1.34,1.34,0,0,1-.63.4,2.13,2.13,0,0,1-.22-.61,6.77,6.77,0,0,1-.11-.82,5.75,5.75,0,0,1,0-.83,3.23,3.23,0,0,1,.11-.65,5.66,5.66,0,0,0,1.19.11c.43,0,.82,0,1.19,0A3.81,3.81,0,0,1,339.75,171.88Zm.79-2.34a.18.18,0,0,1-.05.11.17.17,0,0,1-.11.06l-.52,0a6.12,6.12,0,0,1-.77.07,5.59,5.59,0,0,1-.72,0c-.21,0-.32-.08-.32-.17a.62.62,0,0,0-.25-.55.32.32,0,0,1-.05-.2c.2-.31.41-.61.63-.91a3.22,3.22,0,0,1,.89-.77,1,1,0,0,1,.58-.11.69.69,0,0,1,.5.25,1.39,1.39,0,0,1,.4,1A2.76,2.76,0,0,1,340.54,169.54Z"/>
      <path class="cls-19" d="M354.69,170.19a5.15,5.15,0,0,0-1,.9c-.65.65-1.3,1.32-2,2a17.84,17.84,0,0,1-2.13,1.95l-.37.28a2.18,2.18,0,0,1-.51.28.41.41,0,0,1-.41-.06c-.1-.09-.09-.33,0-.72a5.34,5.34,0,0,1,.55-1.45c.26-.47.54-.94.85-1.4l.9-1.39a7.19,7.19,0,0,0,.69-1.46,2.08,2.08,0,0,0-.24-1.62,2.36,2.36,0,0,0-.59-.63,1.34,1.34,0,0,0-.83-.26,1.48,1.48,0,0,0-.72.18,5.12,5.12,0,0,0-.65.42c-.22.17-.42.35-.62.53s-.41.35-.61.5l.11-.18.16-.32c.06-.11.11-.21.17-.3a.68.68,0,0,1,.11-.17,1,1,0,0,0-.08-.69,1.2,1.2,0,0,0-.45-.47.89.89,0,0,0-.56-.14.59.59,0,0,0-.46.28,8.56,8.56,0,0,0-.71,1.14c-.19.37-.38.77-.57,1.19-.05.1-.09.21-.14.32s-.18.43-.25.64-.25.65-.35,1a8,8,0,0,0-.33,1.51c0,.4,0,.81,0,1.22a2.73,2.73,0,0,0,0,.41,3.83,3.83,0,0,0,.08.42c.11.31.31.36.61.16a1.63,1.63,0,0,0,.16-.28,8.93,8.93,0,0,0,.61-1.18c.22-.5.47-1,.74-1.51a9.85,9.85,0,0,1,.87-1.41,2.5,2.5,0,0,1,1-.9c.44-.21.71-.23.8-.09s0,.42-.16.81a22,22,0,0,0-1.21,2.43,7,7,0,0,0-.56,2.71,2.64,2.64,0,0,0,.12.78,2.19,2.19,0,0,0,.37.69,2.33,2.33,0,0,0,.61.51,1.63,1.63,0,0,0,.83.21,2.51,2.51,0,0,0,1.39-.51,10.27,10.27,0,0,0,1.45-1.25,15.26,15.26,0,0,0,1.29-1.52c.38-.53.69-1,.91-1.34l.62-1a8.42,8.42,0,0,0,.5-.92C354.85,170.24,354.83,170.15,354.69,170.19Z"/>
    </g>
    <g>
      <path class="cls-19" d="M322.76,203.08l-.27.06c-.35.09-.72.2-1.1.33s-.93.32-1.37.44-.77.22-1.2.37a4.64,4.64,0,0,1-1.21.28c0-.18.08-.46.14-.83a5.43,5.43,0,0,0,.05-1.23,6.09,6.09,0,0,0-.28-1.4,3.69,3.69,0,0,0-.79-1.32,3.32,3.32,0,0,0-1.51-1.07,3.92,3.92,0,0,0-1.88-.09,4.84,4.84,0,0,0-2.85,1.37,11.43,11.43,0,0,0-2,2.58,3.54,3.54,0,0,0-.42,1c-.09.37-.18.72-.28,1.06a.42.42,0,0,1-.21.19l-.2.09a.5.5,0,0,0-.19.17.93.93,0,0,0-.14.44,14.29,14.29,0,0,0-.32,1.78,11,11,0,0,0-.07,2.23,7.46,7.46,0,0,0,.41,2.11A2.82,2.82,0,0,0,308,213a.79.79,0,0,0,.15.12,3.43,3.43,0,0,0,2.23.74,3.07,3.07,0,0,0,1.92-.83l0,0a12.19,12.19,0,0,0,1.87-2,22.13,22.13,0,0,0,1.65-2.39c.5-.82.88-1.47,1.16-2a9.73,9.73,0,0,1,2.07-.79,12.68,12.68,0,0,0,2.2-.79l.15-.1c.14-.08.31-.21.52-.36a6.76,6.76,0,0,0,.79-.67,1.92,1.92,0,0,0,.44-.61C323.19,203.16,323.07,203.08,322.76,203.08Zm-8.84,5.59a11.61,11.61,0,0,1-.93,1.51,10.45,10.45,0,0,1-1.11,1.32,2.18,2.18,0,0,1-1,.67,3.31,3.31,0,0,1-.38-1,9.65,9.65,0,0,1-.18-1.37,10.74,10.74,0,0,1,0-1.39,4.64,4.64,0,0,1,.18-1.09,10.55,10.55,0,0,0,2,.18c.71,0,1.38,0,2-.09A7.81,7.81,0,0,1,313.92,208.67Zm1.32-3.92a.26.26,0,0,1-.09.18.24.24,0,0,1-.18.1,7.25,7.25,0,0,0-.86.09,10.85,10.85,0,0,1-1.3.11,9.46,9.46,0,0,1-1.21,0c-.35,0-.53-.12-.53-.28a1.1,1.1,0,0,0-.42-.93.44.44,0,0,1-.09-.32c.34-.53.69-1,1.06-1.53a5.14,5.14,0,0,1,1.49-1.3,1.73,1.73,0,0,1,1-.19,1.22,1.22,0,0,1,.84.42,2.39,2.39,0,0,1,.67,1.72A4.61,4.61,0,0,1,315.24,204.75Z"/>
      <path class="cls-19" d="M346.33,181.22a6.4,6.4,0,0,0-.34-1.93,1.35,1.35,0,0,0-.93-.95q-.63-.14-1.65,1c-1.1,1.43-2.16,2.89-3.15,4.39l-.26.39q-1.61,2.46-3.06,5.11t-2.88,5.5q-1.41,2.85-2.85,5.91a0,0,0,0,0,0,.05.2.2,0,0,0-.05.14l-.18-.19a2,2,0,0,0-.91-.58,10.44,10.44,0,0,0-1-.25,6.25,6.25,0,0,0-3.39.67,9,9,0,0,0-2.74,2.18,5.19,5.19,0,0,0-.36.46,9.91,9.91,0,0,0-1.11,1.83q-.19.41-.36.84a9.71,9.71,0,0,0-.67,3.48,2,2,0,0,0,.49,1.42,4.57,4.57,0,0,0,1.13.91,3.1,3.1,0,0,0,2.28-.05,7.69,7.69,0,0,0,2.11-1.35,15.84,15.84,0,0,0,1.83-1.92c.56-.7,1.05-1.29,1.49-1.79a2.11,2.11,0,0,0,.16-.3A.82.82,0,0,1,330,206q-.13.84-.3,2.25a19.71,19.71,0,0,0-.12,2.88,8.89,8.89,0,0,0,.26,1.9,7.15,7.15,0,0,0,.23.79,3.1,3.1,0,0,0,1.51,1.79,3.32,3.32,0,0,0,2.78,0,15.18,15.18,0,0,0,3.32-1.84c.33-.23.66-.47,1-.72.78-.6,1.53-1.23,2.27-1.9l.77-.7,1.85-1.64a.89.89,0,0,0,.35-.58,1.18,1.18,0,0,0-.09-.54.79.79,0,0,0-.31-.34q-.18-.12-.27,0c-.46.48-1,1-1.58,1.5l-.54.45a26.3,26.3,0,0,1-2.43,1.81,11.67,11.67,0,0,1-2.28,1.19,2.09,2.09,0,0,1-1.62.11,1.15,1.15,0,0,1-.51-.88,7.36,7.36,0,0,1-.12-1.53,15.88,15.88,0,0,1,.14-1.6c.08-.51.15-.91.21-1.19a5.29,5.29,0,0,1,.21-.67,2.09,2.09,0,0,1,.35-.58c1.17-1.89,2.33-3.77,3.48-5.66s2.21-3.78,3.2-5.68,1.88-3.82,2.67-5.74a39.75,39.75,0,0,0,1.88-5.75,8.47,8.47,0,0,0,.06-1.21C346.35,181.63,346.34,181.43,346.33,181.22ZM327.1,205.51q-1.61,1.23-3.18,2.49l-.09-.14a3.53,3.53,0,0,1,.67-1.88,8,8,0,0,1,1.67-1.86,6.32,6.32,0,0,1,2.14-1.16,2.83,2.83,0,0,1,2.11.12C329.27,203.88,328.17,204.69,327.1,205.51ZM343.32,189c-.71,1.65-1.53,3.36-2.46,5.1S339,197.6,338,199.27s-1.82,3.16-2.53,4.46a85,85,0,0,1,4-9.79,82.68,82.68,0,0,1,5.19-9.24A17.9,17.9,0,0,1,343.32,189Z"/>
      <path class="cls-19" d="M356.94,204.1a1.35,1.35,0,0,0-.58,0,2.89,2.89,0,0,0-.72.56c-.2.22-.43.45-.67.7l-1.16,1.06-1.44,1.35c-.5.46-1,.9-1.49,1.32s-.94.77-1.34,1.05-.79.4-1.35.65a5.48,5.48,0,0,1-1.65.44,2,2,0,0,1-1.32-.28c-.34-.23-.46-.75-.37-1.56a2.06,2.06,0,0,1,.51-1.13,10.48,10.48,0,0,1,1.21-1.33c.46-.43.94-.85,1.43-1.25s.89-.72,1.16-1a5.39,5.39,0,0,0,1.19-1.51,6.75,6.75,0,0,0,.53-1.74,2.14,2.14,0,0,0-.3-1.81,2.52,2.52,0,0,0-1.51-1,5.86,5.86,0,0,0-3.32,1.07,8.45,8.45,0,0,0-2.34,2.62,13.19,13.19,0,0,0-1.39,3.51,12.44,12.44,0,0,0-.37,2.84,7.48,7.48,0,0,0,0,.82,7,7,0,0,0,.05.81,3.48,3.48,0,0,0,1.32,2.53l.1.07a5.09,5.09,0,0,0,3.4.82,7.19,7.19,0,0,0,2.34-.82A13.51,13.51,0,0,0,351,211.5a19.63,19.63,0,0,0,2-1.88l1.79-2c.4-.46.78-.93,1.13-1.39a8.14,8.14,0,0,0,.91-1.49C357.05,204.36,357.08,204.13,356.94,204.1Zm-9.84-2a5.21,5.21,0,0,1,2-1.21,4.53,4.53,0,0,1-1.18,1.88,19.38,19.38,0,0,1-1.83,1.51A4.4,4.4,0,0,1,347.1,202.06Z"/>
    </g>
  </g>
</svg>
