<svg id="Layer_1" data-name="Layer 1" xmlns="http://www.w3.org/2000/svg" xmlns:xlink="http://www.w3.org/1999/xlink" viewBox="0 0 1000 1003.09"><defs><style>.cls-1{fill:url(#linear-gradient);}.cls-2,.cls-3{opacity:0.1;}.cls-2{fill:url(#linear-gradient-2);}.cls-3,.cls-4{fill:#fdbccc;}.cls-4,.cls-48,.cls-8{opacity:0.25;}.cls-46,.cls-5,.cls-50{fill:#fff;}.cls-46,.cls-49,.cls-6,.cls-7{opacity:0.5;}.cls-6{fill:url(#linear-gradient-4);}.cls-7{fill:url(#linear-gradient-5);}.cls-9{fill:url(#linear-gradient-6);}.cls-10{fill:url(#linear-gradient-7);}.cls-11{fill:url(#linear-gradient-8);}.cls-12{fill:url(#linear-gradient-9);}.cls-13{fill:url(#linear-gradient-10);}.cls-14{fill:url(#linear-gradient-11);}.cls-15{fill:url(#linear-gradient-12);}.cls-16{fill:url(#linear-gradient-13);}.cls-17{fill:url(#linear-gradient-14);}.cls-18{fill:url(#linear-gradient-15);}.cls-19{fill:url(#linear-gradient-16);}.cls-20{fill:url(#linear-gradient-17);}.cls-21{fill:url(#linear-gradient-18);}.cls-22{fill:url(#linear-gradient-19);}.cls-23{fill:url(#linear-gradient-20);}.cls-24{fill:url(#linear-gradient-21);}.cls-25{fill:url(#linear-gradient-22);}.cls-26{fill:url(#linear-gradient-23);}.cls-27{fill:url(#linear-gradient-24);}.cls-28{fill:url(#linear-gradient-25);}.cls-29{fill:url(#linear-gradient-26);}.cls-30{fill:url(#linear-gradient-27);}.cls-31{fill:url(#linear-gradient-28);}.cls-32{fill:url(#linear-gradient-29);}.cls-33{fill:url(#linear-gradient-30);}.cls-34{fill:url(#linear-gradient-31);}.cls-35{fill:url(#linear-gradient-32);}.cls-36{fill:url(#linear-gradient-33);}.cls-37{fill:url(#linear-gradient-34);}.cls-38{fill:url(#linear-gradient-35);}.cls-39{fill:url(#linear-gradient-36);}.cls-40{fill:url(#linear-gradient-37);}.cls-41{fill:url(#linear-gradient-38);}.cls-42{fill:url(#linear-gradient-39);}.cls-43{fill:url(#linear-gradient-40);}.cls-44{fill:url(#linear-gradient-41);}.cls-45{fill:#fffce8;}.cls-47{fill:url(#linear-gradient-42);}.cls-48{fill:#f37c94;}.cls-50,.cls-55{opacity:0.75;}.cls-51{fill:#fa5880;}.cls-52{fill:#bb4260;}.cls-53{fill:#7d2c40;}.cls-54{fill:#3f1620;}.cls-56{fill:url(#linear-gradient-43);}.cls-57{fill:#5fedc8;}</style><linearGradient id="linear-gradient" x1="500" y1="999.81" x2="500" y2="-133.85" gradientUnits="userSpaceOnUse"><stop offset="0" stop-color="#f3e972"/><stop offset="0.5" stop-color="#f05980"/><stop offset="1" stop-color="#337bbd"/></linearGradient><linearGradient id="linear-gradient-2" x1="500" y1="612.3" x2="500" y2="431.59" gradientUnits="userSpaceOnUse"><stop offset="0" stop-color="#fff"/><stop offset="1" stop-color="#fff" stop-opacity="0"/></linearGradient><linearGradient id="linear-gradient-4" x1="471.22" y1="668" x2="604.6" y2="668" gradientUnits="userSpaceOnUse"><stop offset="0" stop-color="#fa5880"/><stop offset="1" stop-color="#fb7999"/></linearGradient><linearGradient id="linear-gradient-5" x1="366.9" y1="691.74" x2="500.28" y2="691.74" xlink:href="#linear-gradient-4"/><linearGradient id="linear-gradient-6" x1="500.03" y1="471.97" x2="500.03" y2="0.05" gradientTransform="translate(89.53 -76.56) rotate(10)" gradientUnits="userSpaceOnUse"><stop offset="0" stop-color="#fff" stop-opacity="0.25"/><stop offset="1" stop-color="#fff" stop-opacity="0"/></linearGradient><linearGradient id="linear-gradient-7" x1="500.03" y1="471.97" x2="500.03" y2="0.05" gradientTransform="translate(191.55 -139.46) rotate(20)" xlink:href="#linear-gradient-6"/><linearGradient id="linear-gradient-8" x1="500.03" y1="471.97" x2="500.03" y2="0.05" gradientTransform="translate(302.95 -183.69) rotate(30)" xlink:href="#linear-gradient-6"/><linearGradient id="linear-gradient-9" x1="500.03" y1="471.97" x2="500.03" y2="0.05" gradientTransform="matrix(0.77, 0.64, -0.64, 0.77, 420.33, -207.9)" xlink:href="#linear-gradient-6"/><linearGradient id="linear-gradient-10" x1="500.03" y1="471.97" x2="500.03" y2="0.05" gradientTransform="matrix(0.64, 0.77, -0.77, 0.64, 540.14, -211.36)" xlink:href="#linear-gradient-6"/><linearGradient id="linear-gradient-11" x1="500.03" y1="471.97" x2="500.03" y2="0.05" gradientTransform="matrix(0.5, 0.87, -0.87, 0.5, 658.72, -193.96)" xlink:href="#linear-gradient-6"/><linearGradient id="linear-gradient-12" x1="500.03" y1="471.97" x2="500.03" y2="0.05" gradientTransform="translate(772.49 -156.23) rotate(70)" xlink:href="#linear-gradient-6"/><linearGradient id="linear-gradient-13" x1="500.03" y1="471.97" x2="500.03" y2="0.05" gradientTransform="translate(877.97 -99.33) rotate(80)" xlink:href="#linear-gradient-6"/><linearGradient id="linear-gradient-14" x1="500.03" y1="471.97" x2="500.03" y2="0.05" gradientTransform="translate(971.97 -24.97) rotate(90)" xlink:href="#linear-gradient-6"/><linearGradient id="linear-gradient-15" x1="500.03" y1="471.97" x2="500.03" y2="0.05" gradientTransform="translate(1051.63 64.58) rotate(100)" xlink:href="#linear-gradient-6"/><linearGradient id="linear-gradient-16" x1="500.03" y1="471.97" x2="500.03" y2="0.05" gradientTransform="matrix(-0.34, 0.94, -0.94, -0.34, 1114.53, 166.61)" xlink:href="#linear-gradient-6"/><linearGradient id="linear-gradient-17" x1="500.03" y1="471.97" x2="500.03" y2="0.05" gradientTransform="matrix(-0.5, 0.87, -0.87, -0.5, 1158.75, 278.01)" xlink:href="#linear-gradient-6"/><linearGradient id="linear-gradient-18" x1="500.03" y1="471.97" x2="500.03" y2="0.05" gradientTransform="translate(1182.96 395.39) rotate(130)" xlink:href="#linear-gradient-6"/><linearGradient id="linear-gradient-19" x1="500.03" y1="471.97" x2="500.03" y2="0.05" gradientTransform="matrix(-0.77, 0.64, -0.64, -0.77, 1186.42, 515.2)" xlink:href="#linear-gradient-6"/><linearGradient id="linear-gradient-20" x1="500.03" y1="471.97" x2="500.03" y2="0.05" gradientTransform="translate(1169.02 633.78) rotate(150)" xlink:href="#linear-gradient-6"/><linearGradient id="linear-gradient-21" x1="500.03" y1="471.97" x2="500.03" y2="0.05" gradientTransform="translate(1131.3 747.55) rotate(160)" xlink:href="#linear-gradient-6"/><linearGradient id="linear-gradient-22" x1="500.03" y1="471.97" x2="500.03" y2="0.05" gradientTransform="translate(1074.39 853.03) rotate(170)" xlink:href="#linear-gradient-6"/><linearGradient id="linear-gradient-23" x1="500.03" y1="471.97" x2="500.03" y2="0.05" gradientTransform="translate(1000.03 947.03) rotate(180)" xlink:href="#linear-gradient-6"/><linearGradient id="linear-gradient-24" x1="500.03" y1="471.97" x2="500.03" y2="0.05" gradientTransform="translate(910.48 1026.69) rotate(-170)" xlink:href="#linear-gradient-6"/><linearGradient id="linear-gradient-25" x1="500.03" y1="471.97" x2="500.03" y2="0.05" gradientTransform="translate(808.45 1089.59) rotate(-160)" xlink:href="#linear-gradient-6"/><linearGradient id="linear-gradient-26" x1="500.03" y1="471.97" x2="500.03" y2="0.05" gradientTransform="translate(697.06 1133.81) rotate(-150)" xlink:href="#linear-gradient-6"/><linearGradient id="linear-gradient-27" x1="500.03" y1="471.97" x2="500.03" y2="0.05" gradientTransform="matrix(-0.77, -0.64, 0.64, -0.77, 579.67, 1158.02)" xlink:href="#linear-gradient-6"/><linearGradient id="linear-gradient-28" x1="500.03" y1="471.97" x2="500.03" y2="0.05" gradientTransform="matrix(-0.64, -0.77, 0.77, -0.64, 459.87, 1161.48)" xlink:href="#linear-gradient-6"/><linearGradient id="linear-gradient-29" x1="500.03" y1="471.97" x2="500.03" y2="0.05" gradientTransform="matrix(-0.5, -0.87, 0.87, -0.5, 341.28, 1144.08)" xlink:href="#linear-gradient-6"/><linearGradient id="linear-gradient-30" x1="500.03" y1="471.97" x2="500.03" y2="0.05" gradientTransform="translate(227.52 1106.36) rotate(-110)" xlink:href="#linear-gradient-6"/><linearGradient id="linear-gradient-31" x1="500.03" y1="471.97" x2="500.03" y2="0.05" gradientTransform="translate(122.03 1049.45) rotate(-100)" xlink:href="#linear-gradient-6"/><linearGradient id="linear-gradient-32" x1="500.03" y1="471.97" x2="500.03" y2="0.05" gradientTransform="translate(28.04 975.09) rotate(-90)" xlink:href="#linear-gradient-6"/><linearGradient id="linear-gradient-33" x1="500.03" y1="471.97" x2="500.03" y2="0.05" gradientTransform="translate(-51.62 885.54) rotate(-80)" xlink:href="#linear-gradient-6"/><linearGradient id="linear-gradient-34" x1="500.03" y1="471.97" x2="500.03" y2="0.05" gradientTransform="matrix(0.34, -0.94, 0.94, 0.34, -114.52, 783.51)" xlink:href="#linear-gradient-6"/><linearGradient id="linear-gradient-35" x1="500.03" y1="471.97" x2="500.03" y2="0.05" gradientTransform="matrix(0.5, -0.87, 0.87, 0.5, -158.75, 672.12)" xlink:href="#linear-gradient-6"/><linearGradient id="linear-gradient-36" x1="500.03" y1="471.97" x2="500.03" y2="0.05" gradientTransform="translate(-182.96 554.73) rotate(-50)" xlink:href="#linear-gradient-6"/><linearGradient id="linear-gradient-37" x1="500.03" y1="471.97" x2="500.03" y2="0.05" gradientTransform="matrix(0.77, -0.64, 0.64, 0.77, -186.42, 434.93)" xlink:href="#linear-gradient-6"/><linearGradient id="linear-gradient-38" x1="500.03" y1="471.97" x2="500.03" y2="0.05" gradientTransform="translate(-169.02 316.34) rotate(-30)" xlink:href="#linear-gradient-6"/><linearGradient id="linear-gradient-39" x1="500.03" y1="471.97" x2="500.03" y2="0.05" gradientTransform="translate(-131.29 202.58) rotate(-20)" xlink:href="#linear-gradient-6"/><linearGradient id="linear-gradient-40" x1="500.03" y1="471.97" x2="500.03" y2="0.05" gradientTransform="translate(-74.39 97.09) rotate(-10)" xlink:href="#linear-gradient-6"/><linearGradient id="linear-gradient-41" x1="500" y1="475.06" x2="500" y2="3.14" gradientTransform="matrix(1, 0, 0, 1, 0, 0)" xlink:href="#linear-gradient-6"/><linearGradient id="linear-gradient-42" x1="500" y1="736.83" x2="500" y2="959.05" gradientUnits="userSpaceOnUse"><stop offset="0" stop-color="#f05980"/><stop offset="1" stop-color="#712a3c"/></linearGradient><linearGradient id="linear-gradient-43" x1="503.33" y1="784.37" x2="550.45" y2="784.37" xlink:href="#linear-gradient-42"/></defs><rect class="cls-1" y="3.09" width="1000" height="777.78"/><polygon class="cls-2" points="224.98 424.57 775.02 424.57 500 860.26 224.98 424.57"/><polygon class="cls-2" points="0 424.57 1000 424.57 500 860.26 0 424.57"/><circle class="cls-3" cx="500" cy="681.28" r="238.63"/><circle class="cls-4" cx="500" cy="681.28" r="159.08"/><circle class="cls-4" cx="500" cy="681.28" r="87.41"/><circle class="cls-5" cx="500" cy="681.28" r="46.62"/><path class="cls-4" d="M332.16,734.07c32.92,0,12.16-26.75,0-26.75-4.12,0-12.72,2.06-12.72,6.36,0-3.93-.75-11.41-8.05-10.67,0-10.66-15.52-10.28-15.52-.74-3.37,0-5.43,0-5.43-4.77s-14.82-17.82-26.75-5.9c-5.7-.65-8.32-.93-12.16-.28-.28-3-3.93-11.5-11.6-9.44s-13.18,12.39-21.32,17.3-22.73,8.42-25.54,16.28,2,18.61,2,18.61Z" transform="translate(-0.03 3.09)"/><path class="cls-4" d="M238.82,724.8c32.92,0,12.16-26.75,0-26.75-4.12,0-12.72,2.06-12.72,6.36,0-3.93-.75-11.41-8-10.66,0-10.67-15.53-10.29-15.53-.75-3.37,0-5.43,0-5.43-4.77s-14.82-17.82-26.75-5.89c-5.7-.66-8.32-.94-12.16-.28-.28-3-3.93-11.51-11.6-9.45s-13.18,12.39-21.32,17.3-22.73,8.42-25.54,16.28,2,18.61,2,18.61Z" transform="translate(-0.03 3.09)"/><path class="cls-4" d="M668.13,734.07c-32.93,0-12.16-26.75,0-26.75,4.11,0,12.72,2.06,12.72,6.36,0-3.93.75-11.41,8-10.67,0-10.66,15.53-10.28,15.53-.74,3.37,0,5.42,0,5.42-4.77s14.83-17.82,26.75-5.9c5.71-.65,8.33-.93,12.16-.28.28-3,3.93-11.5,11.6-9.44s13.19,12.39,21.33,17.3,22.73,8.42,25.53,16.28-2,18.61-2,18.61Z" transform="translate(-0.03 3.09)"/><path class="cls-4" d="M761.47,724.8c-32.93,0-12.16-26.75,0-26.75,4.11,0,12.72,2.06,12.72,6.36,0-3.93.75-11.41,8-10.66,0-10.67,15.53-10.29,15.53-.75,3.36,0,5.42,0,5.42-4.77s14.83-17.82,26.75-5.89c5.71-.66,8.33-.94,12.16-.28.28-3,3.93-11.51,11.6-9.45S866.88,685,875,689.91s22.73,8.42,25.53,16.28-2,18.61-2,18.61Z" transform="translate(-0.03 3.09)"/><path class="cls-4" d="M316.88,537.56c18.81,0,13.08-23.25-1.66-23.25a19.31,19.31,0,0,0-14.85,6.76c2-7.58-5.83-12.82-11.17-11,2.77-8.49-8.72-19.81-17.52-12.18-3.33-.74-6.6-.24-8.76,1.85-3.33-1.48-11.63-1.9-18.9,7.88-2.85-6-11.37-6.71-14.1-3.75.34-3.75-2.16-10.23-8.64-9.44,8.07-2.95,15.62-8,8.91-18.61,1.12-10.62-7.82-19.85-15.37-18.73-2-8.11-9.79-9.78-13.14-7-2.52-3.91-7.92-5.94-11.57-4.34,3.21-2.62,9.93-12.72,4.5-14.12.93-5.27-1.86-26.35-20-18.29,3.56-7.6.93-29.3-20-24-2.17-7-8.57-6.88-11.32-5.5,4.91-6.48-3.3-18.47-11-12-7.26-3.34-24.52-4.12-32.57,9.22A23.39,23.39,0,0,0,81.3,394.61C78,384.8,68.94,375,53.05,375s-9.81,19-20.41,12.16-33,1.57-9,16.88c-1,9.81-9.81,11.18-12.75,9.41S5.68,403.54,0,403.93V545.61c68.56-13.1,150.12,1.75,188.22,1.75S277,537.56,316.88,537.56Z" transform="translate(-0.03 3.09)"/><path class="cls-4" d="M683.17,537.56c-18.8,0-13.07-23.25,1.67-23.25a19.29,19.29,0,0,1,14.84,6.76c-2-7.58,5.84-12.82,11.17-11-2.77-8.49,8.73-19.81,17.53-12.18,3.32-.74,6.59-.24,8.75,1.85,3.33-1.48,11.63-1.9,18.91,7.88,2.84-6,11.36-6.71,14.09-3.75-.34-3.75,2.16-10.23,8.64-9.44-8.07-2.95-15.62-8-8.91-18.61-1.12-10.62,7.83-19.85,15.38-18.73,2-8.11,9.78-9.78,13.14-7,2.51-3.91,7.91-5.94,11.56-4.34-3.21-2.62-9.92-12.72-4.5-14.12-.93-5.27,1.86-26.35,20-18.29-3.57-7.6-.93-29.3,20-24,2.17-7,8.58-6.88,11.32-5.5-4.9-6.48,3.3-18.47,11-12,7.26-3.34,24.53-4.12,32.57,9.22a23.39,23.39,0,0,1,18.44,13.54C922.09,384.8,931.11,375,947,375s9.81,19,20.4,12.16,33,1.57,9,16.88c1,9.81,9.81,11.18,12.75,9.41s5.19-9.9,10.84-9.51V545.61c-68.57-13.1-150.12,1.75-188.22,1.75S723,537.56,683.17,537.56Z" transform="translate(-0.03 3.09)"/><path class="cls-6" d="M471.22,674.9c20.43,3.28,84.13-14.06,51.82-1.87-13.12,5,80.43.3,48.64-2.48-7.49-.66,9.62-3.26,32.92-1.32-26.81-10.35-113.65-10.35-96.4-5C522.21,668.54,483.93,666.45,471.22,674.9Z" transform="translate(-0.03 3.09)"/><path class="cls-7" d="M366.9,699.77c30.32-5.54,41.84-5.42,55.61-3.69,19.89,2.5,67.17,2.22,44.84-.66-7.45-1,17.7-2.31,32.93-1.32-17.77-7.61-111.43,1.94-66.69-6.68S402,686.1,366.9,699.77Z" transform="translate(-0.03 3.09)"/><g class="cls-8"><polygon class="cls-9" points="523.47 0.04 497.75 474.67 502.25 475.46 640.43 20.62 523.47 0.04"/><polygon class="cls-10" points="605.6 11.33 497.86 474.28 502.14 475.84 717.21 51.91 605.6 11.33"/><polygon class="cls-11" points="684.52 36.71 498.02 473.92 501.98 476.2 787.39 96.06 684.52 36.71"/><polygon class="cls-12" points="757.84 75.41 498.25 473.59 501.75 476.53 848.83 151.72 757.84 75.41"/><polygon class="cls-13" points="823.32 126.26 498.53 473.31 501.47 476.81 899.68 217.2 823.32 126.26"/><polygon class="cls-14" points="878.97 187.7 498.86 473.08 501.14 477.04 938.39 290.52 878.97 187.7"/><polygon class="cls-15" points="923.12 257.87 499.22 472.92 500.78 477.2 963.77 369.45 923.12 257.87"/><polygon class="cls-16" points="954.4 334.64 499.61 472.81 500.4 477.31 975.06 451.59 954.4 334.64"/><polygon class="cls-17" points="971.88 415.68 500 472.78 500 477.34 971.92 534.44 971.88 415.68"/><polygon class="cls-18" points="975.02 498.53 500.4 472.81 499.61 477.31 954.44 615.49 975.02 498.53"/><polygon class="cls-19" points="963.73 580.66 500.78 472.92 499.22 477.2 923.15 692.26 963.73 580.66"/><polygon class="cls-20" points="938.35 659.58 501.14 473.08 498.86 477.04 879.01 762.45 938.35 659.58"/><polygon class="cls-21" points="899.65 732.89 501.47 473.31 498.54 476.81 823.35 823.89 899.65 732.89"/><polygon class="cls-22" points="848.81 798.38 501.75 473.59 498.26 476.53 757.86 874.74 848.81 798.38"/><polygon class="cls-23" points="787.37 854.03 501.98 473.92 498.03 476.2 684.54 913.45 787.37 854.03"/><polygon class="cls-24" points="717.19 898.17 502.15 474.28 497.86 475.84 605.61 938.83 717.19 898.17"/><polygon class="cls-25" points="640.42 929.46 502.25 474.67 497.76 475.46 523.47 950.12 640.42 929.46"/><polygon class="cls-26" points="559.38 946.94 502.29 475.06 497.72 475.06 440.62 946.98 559.38 946.94"/><polygon class="cls-27" points="476.54 950.08 502.25 475.46 497.76 474.67 359.58 929.5 476.54 950.08"/><polygon class="cls-28" points="394.41 938.79 502.15 475.84 497.86 474.28 282.8 898.21 394.41 938.79"/><polygon class="cls-29" points="315.49 913.41 501.98 476.2 498.03 473.92 212.62 854.07 315.49 913.41"/><polygon class="cls-30" points="242.17 874.71 501.75 476.53 498.26 473.6 151.17 798.4 242.17 874.71"/><polygon class="cls-31" points="176.69 823.87 501.47 476.81 498.54 473.31 100.32 732.92 176.69 823.87"/><polygon class="cls-32" points="121.03 762.42 501.14 477.04 498.86 473.09 61.62 659.6 121.03 762.42"/><polygon class="cls-33" points="76.89 692.25 500.78 477.21 499.22 472.92 36.23 580.67 76.89 692.25"/><polygon class="cls-34" points="45.6 615.48 500.4 477.31 499.61 472.82 24.94 498.53 45.6 615.48"/><polygon class="cls-35" points="28.12 534.44 500 477.35 500 472.78 28.08 415.68 28.12 534.44"/><polygon class="cls-36" points="24.98 451.6 499.61 477.31 500.4 472.82 45.56 334.64 24.98 451.6"/><polygon class="cls-37" points="36.27 369.47 499.22 477.21 500.78 472.92 76.85 257.86 36.27 369.47"/><polygon class="cls-38" points="61.65 290.55 498.86 477.04 501.14 473.09 121 187.68 61.65 290.55"/><polygon class="cls-39" points="100.35 217.23 498.53 476.81 501.47 473.31 176.66 126.23 100.35 217.23"/><polygon class="cls-40" points="151.2 151.75 498.25 476.53 501.75 473.6 242.15 75.38 151.2 151.75"/><polygon class="cls-41" points="212.64 96.09 498.02 476.2 501.98 473.92 315.47 36.68 212.64 96.09"/><polygon class="cls-42" points="282.81 51.95 497.86 475.84 502.14 474.28 394.39 11.29 282.81 51.95"/><polygon class="cls-43" points="359.58 20.66 497.75 475.46 502.25 474.67 476.53 0 359.58 20.66"/><polygon class="cls-44" points="440.62 3.18 497.72 475.06 502.28 475.06 559.38 3.14 440.62 3.18"/></g><polygon class="cls-45" points="403.11 424.57 596.89 424.57 500 578.07 403.11 424.57"/><polygon class="cls-46" points="365.86 62.06 364.26 64.75 365.86 68.84 366.75 64.87 365.86 62.06"/><polygon class="cls-46" points="422.33 62.64 419.94 64.89 422.33 68.4 424.15 65.52 422.33 62.64"/><polygon class="cls-46" points="452.07 119.05 450.25 121.99 452.07 125.08 454.46 122.06 452.07 119.05"/><polygon class="cls-46" points="480.23 43.37 478.26 47.29 481.21 49.96 483.45 46.66 480.23 43.37"/><polygon class="cls-46" points="264.2 137.56 262.24 140.23 264.2 142.48 265.75 139.11 264.2 137.56"/><polygon class="cls-46" points="154.07 107.25 152.6 110.19 155.05 112.58 156.17 108.37 154.07 107.25"/><polygon class="cls-46" points="144.11 47.77 142.56 50.16 144.81 52.12 146.63 49.95 144.11 47.77"/><polygon class="cls-46" points="121.94 124.38 120.11 126.9 120.11 130.41 122.78 128.03 121.94 124.38"/><polygon class="cls-46" points="94.44 161.56 93.04 164.64 94.44 167.17 96.68 164.36 94.44 161.56"/><polygon class="cls-46" points="52.63 122.83 50.52 125.64 52.63 128.59 54.73 125.71 52.63 122.83"/><polygon class="cls-46" points="270.73 363.66 269.61 365.49 270.73 366.75 272.41 365.2 270.73 363.66"/><polygon class="cls-46" points="362.14 247.07 360.45 250.02 363.12 253.67 365.08 250.37 362.14 247.07"/><polygon class="cls-46" points="236.92 314.77 235.24 318.13 236.92 320.8 239.02 318.98 236.92 314.77"/><polygon class="cls-46" points="257.64 219.43 256.52 222.1 257.08 225.47 259.88 223.22 257.64 219.43"/><polygon class="cls-46" points="96.68 253.1 94.72 255.63 96.68 259.42 98.65 256.26 96.68 253.1"/><polygon class="cls-46" points="26.86 256.26 25.25 259.49 27.61 262.44 28.79 257.67 26.86 256.26"/><polygon class="cls-46" points="15.31 329.92 13.76 332.31 16.57 336.37 17.69 333.15 15.31 329.92"/><polygon class="cls-46" points="146.7 319.54 145.02 322.48 146.7 325.71 148.25 322.63 146.7 319.54"/><polygon class="cls-46" points="43.37 193.83 41.26 196.77 43.37 200.28 45.61 197.05 43.37 193.83"/><polygon class="cls-46" points="32.42 147.39 30.88 151.31 32.42 155.1 34.25 151.25 32.42 147.39"/><polygon class="cls-46" points="41.4 62.36 40.14 65.03 41.4 68.54 42.39 65.45 41.4 62.36"/><polygon class="cls-46" points="250.88 46.09 249.19 48.89 250.88 52.4 252.7 49.24 250.88 46.09"/><polygon class="cls-46" points="375.56 177.88 373.78 182.46 375.56 187.42 377.06 182.65 375.56 177.88"/><polygon class="cls-46" points="306.44 306.58 304.95 310.04 306.44 314.53 307.85 310.14 306.44 306.58"/><polygon class="cls-46" points="508.71 151.22 507.21 154.12 508.71 157.77 510.11 154.5 508.71 151.22"/><polygon class="cls-46" points="514.05 80.33 512.65 82.58 514.05 87.44 514.89 82.11 514.05 80.33"/><polygon class="cls-46" points="508.99 30.93 507.49 33.74 508.99 37.86 509.83 34.4 508.99 30.93"/><polygon class="cls-46" points="329.31 114.18 330.8 117.55 332.3 114.18 330.8 110.35 329.31 114.18"/><polygon class="cls-46" points="167.96 207.86 166.41 211.93 168.94 216.28 170.76 212.07 167.96 207.86"/><polygon class="cls-46" points="348.99 399.75 347.16 403.68 349.97 408.45 351.4 404.1 348.99 399.75"/><polygon class="cls-46" points="852.07 282.01 850.39 285.8 853.62 290.57 855.02 285.23 852.07 282.01"/><polygon class="cls-46" points="914.33 222.45 912.36 227.64 915.45 232.13 916.71 227.29 914.33 222.45"/><polygon class="cls-46" points="987.34 65.45 985.58 68.4 987.34 72.89 988.32 68.54 987.34 65.45"/><polygon class="cls-46" points="887.02 137.56 885.05 140.23 887.02 142.48 888.56 139.11 887.02 137.56"/><polygon class="cls-46" points="806.97 93.16 805.5 96.11 807.95 98.49 809.07 94.28 806.97 93.16"/><polygon class="cls-46" points="766.92 47.77 765.38 50.16 767.62 52.12 769.45 49.95 766.92 47.77"/><polygon class="cls-46" points="744.75 87.13 742.93 89.65 742.93 93.16 745.59 90.77 744.75 87.13"/><polygon class="cls-46" points="717.25 161.56 715.85 164.64 717.25 167.17 719.5 164.36 717.25 161.56"/><polygon class="cls-46" points="643.42 109.7 641.32 112.5 643.42 115.45 645.53 112.58 643.42 109.7"/><polygon class="cls-46" points="695.65 232.13 694.52 233.95 695.65 235.22 697.33 233.67 695.65 232.13"/><polygon class="cls-46" points="889.31 296.52 887.63 299.47 890.3 303.12 892.26 299.82 889.31 296.52"/><polygon class="cls-46" points="826.85 346.39 825.16 349.76 826.85 352.43 828.95 350.6 826.85 346.39"/><polygon class="cls-46" points="755.06 304.53 753.94 307.19 754.5 310.56 757.31 308.31 755.06 304.53"/><polygon class="cls-46" points="675.44 336.92 673.48 339.45 675.44 343.24 677.41 340.08 675.44 336.92"/><polygon class="cls-46" points="683.98 256.05 681.88 259.28 684.96 262.22 686.51 257.45 683.98 256.05"/><polygon class="cls-46" points="630.29 413.24 628.75 415.63 631.56 419.7 632.68 416.47 630.29 413.24"/><polygon class="cls-46" points="946.5 343.31 944.81 346.25 946.5 349.48 948.04 346.39 946.5 343.31"/><polygon class="cls-46" points="666.18 193.83 664.08 196.77 666.18 200.28 668.43 197.05 666.18 193.83"/><polygon class="cls-46" points="731.14 178.67 729.6 182.6 731.14 186.39 732.97 182.53 731.14 178.67"/><polygon class="cls-46" points="664.22 62.36 662.96 65.03 664.22 68.54 665.2 65.45 664.22 62.36"/><polygon class="cls-46" points="873.69 46.09 872.01 48.89 873.69 52.4 875.51 49.24 873.69 46.09"/><polygon class="cls-46" points="952.12 114.18 953.62 117.55 955.11 114.18 953.62 110.35 952.12 114.18"/><polygon class="cls-46" points="790.77 207.86 789.23 211.93 791.75 216.28 793.58 212.07 790.77 207.86"/><rect class="cls-47" y="736.83" width="1000" height="222.22"/><path class="cls-48" d="M458.35,733.74l-21,2H464L423.18,739H470.7l-59.87,4.49h71.46l-100.64,3.74h108.5L361.82,754H490.15l-152.27,3.72H492.17L318.8,772s174.72-4.49,177.71-3.74-177.71,12-177.71,12l177,1.5L296,790.29h196.8l-245.44,9.36,239.83,1.87-249.55,7.85H480.8l-272,6,285.47,6L200.94,837.27,500,848.66V733.74" transform="translate(-0.03 3.09)"/><path class="cls-48" d="M541.7,733.74l21,2H536.09L576.87,739H529.36l59.86,4.49H517.76l100.64,3.74H509.9L638.23,754H509.9l152.28,3.72H507.88L681.26,772s-174.72-4.49-177.72-3.74,177.72,12,177.72,12l-177,1.5,199.79,8.6H507.28l245.44,9.36L512.9,801.52l249.55,7.85H519.26l272,6-285.47,6,293.32,15.92L500,848.66V733.74" transform="translate(-0.03 3.09)"/><g class="cls-49"><path class="cls-5" d="M465.94,740.83c2.85,0,5.69-.16,8.52-.31s5.68-.3,8.51-.48c5.67-.34,11.35-.82,17-.79s11.36.27,17.05.44l8.52.25c2.84.09,5.68.18,8.52.22-11.37.15-22.74-.44-34.1-.46-5.67-.05-11.34.35-17,.65-2.84.15-5.68.3-8.52.4S468.79,740.86,465.94,740.83Z" transform="translate(-0.03 3.09)"/></g><g class="cls-49"><path class="cls-5" d="M450.09,744.89q6.26-.09,12.48-.35t12.48-.53c8.31-.36,16.63-.81,25-.78s16.65.24,25,.44,16.65.43,25,.55c-8.32.09-16.65,0-25-.09s-16.65-.27-25-.29-16.63.38-24.95.66c-4.16.13-8.33.26-12.49.35S454.26,744.94,450.09,744.89Z" transform="translate(-0.03 3.09)"/></g><g class="cls-49"><path class="cls-5" d="M425.31,751.21q9.35-.11,18.68-.4l18.67-.55,18.67-.55c6.23-.15,12.46-.3,18.69-.24l37.36.43,18.68.28,18.68.36-18.68,0-18.68-.05L500,750.29c-12.45-.09-24.89.36-37.34.62l-18.69.32Q434.66,751.31,425.31,751.21Z" transform="translate(-0.03 3.09)"/></g><g class="cls-49"><path class="cls-5" d="M396,760.78c8.67-.09,17.34-.26,26-.46l26-.6,26-.56c8.67-.15,17.34-.31,26-.25l52,.46,26,.32,26,.42-26,.09-26,0-52-.2c-17.33-.09-34.66.35-52,.59l-26,.29C413.35,760.88,404.68,760.87,396,760.78Z" transform="translate(-0.03 3.09)"/></g><g class="cls-49"><path class="cls-5" d="M381.43,774.77c9.88-.11,19.76-.36,29.65-.63l29.64-.79c19.76-.55,39.53-1.12,59.3-1.56,9.88-.18,19.77-.36,29.67-.29s19.78.35,29.66.73L589,773.36c9.88.36,19.76.63,29.65.74-9.89.09-19.78,0-29.66-.15s-19.77-.52-29.65-.79-19.76-.51-29.64-.54-19.76.18-29.64.4l-59.3,1.3-29.65.45C401.2,774.83,391.31,774.86,381.43,774.77Z" transform="translate(-0.03 3.09)"/></g><g class="cls-49"><path class="cls-5" d="M337.88,802.66q20.28-.17,40.54-1.07c13.5-.53,27-1.46,40.5-2.2s27-1.09,40.59-.9,27,1,40.54,1.65,27,1.27,40.52,1.66q10.13.32,20.26.41c6.75,0,13.51,0,20.27-.1,13.51-.2,27-.73,40.53-1.26s27-1.15,40.55-1.11c-13.52.18-27,1.08-40.52,1.78s-27,1.32-40.54,1.65q-10.14.27-20.3.25c-6.76,0-13.53-.15-20.29-.35-13.52-.35-27-.93-40.54-1.54s-27-1.41-40.51-1.75c-6.74-.15-13.5-.06-20.25,0s-13.51.39-20.26.68c-13.5.6-27,1.4-40.53,1.8S351.4,802.78,337.88,802.66Z" transform="translate(-0.03 3.09)"/></g><path class="cls-46" d="M539.54,726.69c0,3.67-.21,7.38-4.61,7.38,4.4,0,4.61,3.21,4.61,7.38,0-4.17-.21-7.38,4.18-7.38C539.33,734.07,539.54,730.36,539.54,726.69Z" transform="translate(-0.03 3.09)"/><path class="cls-50" d="M544.55,728.85c-2.6,2.6-5.37,5.07-8.48,2,3.11,3.11,1,5.53-2,8.48,2.95-2.95,5.07-5.37,8.17-2.26C539.18,733.92,542,731.45,544.55,728.85Z" transform="translate(-0.03 3.09)"/><path class="cls-46" d="M437.19,801.4c0,3.67-.22,7.38-4.61,7.38,4.39,0,4.61,3.21,4.61,7.38,0-4.17-.22-7.38,4.18-7.38C437,808.78,437.19,805.07,437.19,801.4Z" transform="translate(-0.03 3.09)"/><path class="cls-50" d="M442.19,803.56c-2.6,2.6-5.37,5.07-8.48,2,3.11,3.11,1,5.53-2,8.48,2.95-3,5.07-5.37,8.18-2.26C436.82,808.63,439.59,806.16,442.19,803.56Z" transform="translate(-0.03 3.09)"/><path class="cls-46" d="M616.75,804.32c0,3.67-.21,7.38-4.61,7.38,4.4,0,4.61,3.21,4.61,7.38,0-4.17-.21-7.38,4.18-7.38C616.54,811.7,616.75,808,616.75,804.32Z" transform="translate(-0.03 3.09)"/><path class="cls-50" d="M621.76,806.48c-2.6,2.6-5.37,5.07-8.48,2,3.11,3.11,1,5.53-2,8.48,2.95-2.95,5.07-5.37,8.17-2.26C616.39,811.55,619.16,809.08,621.76,806.48Z" transform="translate(-0.03 3.09)"/><path class="cls-46" d="M542.81,746.49c0,2.35-.14,4.72-2.95,4.72,2.81,0,2.95,2.06,2.95,4.73,0-2.67-.14-4.73,2.67-4.73C542.67,751.21,542.81,748.84,542.81,746.49Z" transform="translate(-0.03 3.09)"/><path class="cls-50" d="M546,747.87c-1.66,1.66-3.44,3.25-5.43,1.26,2,2,.64,3.54-1.25,5.42,1.89-1.88,3.24-3.43,5.23-1.44C542.57,751.12,544.35,749.53,546,747.87Z" transform="translate(-0.03 3.09)"/><path class="cls-46" d="M448.27,738.76c0,1.34-.08,2.69-1.69,2.69,1.61,0,1.69,1.17,1.69,2.69,0-1.52-.08-2.69,1.52-2.69C448.19,741.45,448.27,740.1,448.27,738.76Z" transform="translate(-0.03 3.09)"/><path class="cls-50" d="M450.09,739.54c-.94,1-2,1.85-3.09.72,1.13,1.13.36,2-.72,3.09,1.08-1.07,1.85-2,3-.82C448.13,741.39,449.15,740.49,450.09,739.54Z" transform="translate(-0.03 3.09)"/><path class="cls-46" d="M405.31,766.57c0,1.33-.08,2.69-1.68,2.69,1.6,0,1.68,1.17,1.68,2.69,0-1.52-.08-2.69,1.53-2.69C405.23,769.26,405.31,767.9,405.31,766.57Z" transform="translate(-0.03 3.09)"/><path class="cls-50" d="M407.14,767.35c-.95.95-2,1.85-3.1.72,1.14,1.13.36,2-.71,3.09,1.07-1.07,1.85-2,3-.82C405.18,769.2,406.19,768.3,407.14,767.35Z" transform="translate(-0.03 3.09)"/><path class="cls-46" d="M536.09,783.68c0,2.35-.13,4.72-3,4.72,2.82,0,3,2.06,3,4.73,0-2.67-.13-4.73,2.68-4.73C536,788.4,536.09,786,536.09,783.68Z" transform="translate(-0.03 3.09)"/><path class="cls-50" d="M539.3,785.06c-1.66,1.66-3.44,3.25-5.43,1.26,2,2,.63,3.53-1.26,5.42,1.89-1.89,3.25-3.43,5.24-1.44C535.86,788.31,537.64,786.72,539.3,785.06Z" transform="translate(-0.03 3.09)"/><polygon class="cls-51" points="659.08 737.16 665.45 733.42 671.82 734.39 679.02 732.04 686.92 733.84 696.89 730.1 706.02 723.59 712.39 714.32 726.38 718.19 731.92 723.59 742.44 718.61 744.52 713.76 754.49 715.7 762.8 709.61 772.22 712.79 788.69 703.65 796.59 707.25 811.26 697.56 815.42 690.36 833.83 697.14 849.76 693.41 857.79 695.62 869.98 684.27 898.64 673.4 920.03 662.6 951.83 664.79 971.36 661.19 980.89 669.87 996.21 676.17 996.21 737.16 659.08 737.16"/><path class="cls-52" d="M701.34,735.73l4.37-4,6.64,1.8,6.2-3.67,10.11-.93,4.15,2.6,8.21-3.43,7.16-6.54,7.69-1.46,20.66-1.24,9.77-7.17,13.81-1.25,8.93-6.23s20.46.31,21.08,0,17-7.37,17-7.37l10,1.87,19.32-10,6-10.59,16.62-2.5,17.66,9.56,10-1.87,10.38,3.94,5.61-3.53L960.15,677l15.78,2.91,22.23-5.61L1000,672v63.77Z" transform="translate(-0.03 3.09)"/><polygon class="cls-53" points="743.48 740.49 764.04 721.17 790.63 729.89 810.16 719.09 824.49 727.61 839.86 713.48 849.62 717.64 858.34 713.48 874.96 701.02 887.84 708.08 903.21 699.36 928.13 719.92 946.83 705.8 959.5 692.09 979.23 690.01 992.94 710.16 1000 717.22 1000 740.49 743.48 740.49"/><polygon class="cls-51" points="340.92 737.16 334.55 733.42 328.18 734.39 320.98 732.04 313.08 733.84 303.11 730.1 293.98 723.59 287.61 714.32 273.62 718.19 268.08 723.59 257.56 718.61 255.48 713.76 245.51 715.7 237.2 709.61 227.78 712.79 211.31 703.65 203.41 707.25 188.74 697.56 184.58 690.36 166.17 697.14 150.24 693.41 142.21 695.62 130.03 684.27 101.36 673.4 79.97 662.6 48.17 664.79 28.64 661.19 19.11 669.87 3.79 676.17 3.79 737.16 340.92 737.16"/><path class="cls-52" d="M298.71,735.73l-4.36-4-6.65,1.8-6.2-3.67L271.4,729l-4.16,2.6-8.2-3.43-7.17-6.54-7.68-1.46-20.67-1.24-9.76-7.17L200,710.49,191,704.26s-20.46.31-21.08,0-17-7.37-17-7.37l-10,1.87-19.32-10-6-10.59L101,675.7l-17.65,9.56-10-1.87L63,687.33l-5.61-3.53L39.91,677l-15.79,2.91L1.9,674.25,0,672v63.77Z" transform="translate(-0.03 3.09)"/><polygon class="cls-53" points="256.52 740.49 235.96 721.17 209.37 729.89 189.84 719.09 175.51 727.61 160.14 713.48 150.38 717.64 141.66 713.48 125.04 701.02 112.16 708.08 96.79 699.36 71.87 719.92 53.17 705.8 40.5 692.09 20.77 690.01 7.06 710.16 0 717.22 0 740.49 256.52 740.49"/><path class="cls-54" d="M606.85,783.18c-11.78,41-15.15,41.85-26,62.57-9.94,18.94-20.78,35.85-26.76,34.13s-6-21.72-4.37-43.08c1.87-23.89-.77-25.83,11-66.88s42.15-80.72,47.71-79.12S618.63,742.23,606.85,783.18Z" transform="translate(-0.03 3.09)"/><path class="cls-54" d="M550.09,834.69c12.56-47.37-14-83.16-17.7-90.4l-42.12,13.79c6.27,1.85,6.87,11.78,2.62,13.77S451.06,782,454.37,826.08C456.48,854.25,545.47,852.12,550.09,834.69Z" transform="translate(-0.03 3.09)"/><g class="cls-55"><path class="cls-56" d="M503.4,771.91a54.77,54.77,0,0,1,14.75-.57A45.69,45.69,0,0,1,532.51,775a30.79,30.79,0,0,1,11.65,9.13,31.78,31.78,0,0,1,3.73,6.43,37.08,37.08,0,0,1,2.07,7.09,41.74,41.74,0,0,0-2.52-6.89,31.42,31.42,0,0,0-3.88-6.15,30.88,30.88,0,0,0-11.47-8.7,46.8,46.8,0,0,0-14-3.81,63.64,63.64,0,0,0-7.31-.49A62.3,62.3,0,0,0,503.4,771.91Z" transform="translate(-0.03 3.09)"/></g><circle class="cls-54" cx="465.35" cy="826.49" r="19.34"/><path class="cls-54" d="M532.39,744.29c-10.9-13.28,4.7-18.67-12.8-28.66-20.22-11.53-52.67,24-52.8,29.19s2.2,7.57,6.17,9.88c4,6,14.36,4.43,17.31,3.38l29.83,2.7Z" transform="translate(-0.03 3.09)"/><path class="cls-54" d="M506.79,716c-.08-.73,5-2,4.83-4.85-1.06-23.12,6.61-40.14,12.79-38.68,8.16,1.93,9.81,19.58-2.39,47" transform="translate(-0.03 3.09)"/><path class="cls-54" d="M527,728.19c.06-3.09,3.2-5.6,5-7.16,13-10.95,23.87-40.37,15.3-42.86-11.3-3.29-29.14,33.25-30.6,43.06" transform="translate(-0.03 3.09)"/><path class="cls-54" d="M474.56,755.13l-.08,1.26-5.67,1.16-.22.05-15.13,4.8a2.06,2.06,0,0,1-1.23,0h0a2.09,2.09,0,0,1-1.3-2.9l.21-.46a2.09,2.09,0,0,1,1.66-1.19L468.63,756Z" transform="translate(-0.03 3.09)"/><path class="cls-54" d="M451.67,760.36s0-12.6,1.11-16.56c.81-2.78,4.82-7.13,5.47-9.95s-.11-8.46-.45-11.24c-.63-5.07-4.14-19.9-4.14-19.9s.84,14.75.54,19.67a87.46,87.46,0,0,1-1.58,10.55c-.63,2.7-3.1,7.76-3.33,10.53C448.94,747.73,451.67,760.36,451.67,760.36Z" transform="translate(-0.03 3.09)"/><path class="cls-54" d="M767.65,671.27c-5.51,10.3.09,16.07,1.13,21.58-8.62-3.28-1.78,4.42,1.39,6.77-3.17.43-6.59-1.52-8.55-3,0,2.61,5.73,7.29,10.8,11-4.2,0-8.7-5.34-13.18-5.34.71,4.43,6.68,9.72,10.32,11.8-6.29,0-11.8-7.85-14-6.55,3.5,1.32,8.76,8.76,9.72,11.23,0,0-3.86-2.47-6.29-2.82-.22,2.48,2.82,3.34,5.68,7.81-1.48-1.13-2.86-1.26-5.16-1.17,3.42,1.43,5.59,6.51,6.33,8.5a5.43,5.43,0,0,0-4.55-1.47c4,1.3,9.76,7.85,10.36,11.14-.95-1.47-2.73-2.3-5.64-2.82-.13,2.52,4.34,5.17,7.59,6.38-5.33,0-14.92-5.16-17.43-7.2-.22,1.56.69,3.25,4.51,5.94-7.33,0-12.19-11.71-12.77-14.77-1.12,3.58-1.06,4.93-.11,13.32-10.85-19.92,2.63-53.94,9.07-62.89-5.11.31-5.75,9.09-5.29,13.1a8.27,8.27,0,0,0-2.83-4c-.64,2-.37,6.2,1.18,7.75s.73,7.11.64,5.1-2-4-4.92-5c-.64,2,1.54,5.26,2,7.93a8.64,8.64,0,0,0-4.92-4c-.55,2.19,1.46,5.84,4.29,8.24-3-.51-4.66-1.86-6.84-5-1.46,2.46.82,10.13,2.09,12.95-2.28-1-2.09-3.92-4.83-6.38a13.49,13.49,0,0,1,1.09,7.66c-.54-1-.91-1.64-3.28-3.38,1.73,2.28,2.92,5.66,3.28,10.77-1-3.2-3-6.11-7.47-9.4,3,3.56,6,10.58,6.11,16-1.46-5.38-5.11-9.12-8.21-10.48,4.28,4,4.47,10.48,4.19,14.22-.45-1.64-1.09-2.73-3.28-4.19,1.46,2.37,1.55,4.56,1.28,12-.37-4.56-1.83-8.12-6-14.41,2.37,5.65,2.82,17,.82,25.62a72.18,72.18,0,0,0-4.65-23.89c.27,1.73-1.19,9.76-3,13-1.19-20.43,2-27.09,4.28-33.2s4.84-9.94,8.58-14.86c-5.2,2.1-7.38,4.67-7.38,9.36-2-1.11-2.51-1.86-2.46-4.13-1.49,1.44-3.95,6.82-1.4,14.76-3.38-2.37-6.31-7.15-5.15-11.88-2.36,2.87-3.48,4.87-3.66,10.11-1.49-3.43-2.23-6.4-.79-9.28-2.6,2.74-3.2,4-3.85,9-1.12-3.66-1.07-4.17-.65-5.8-1.72,1.72-3.11,3-3.81,6.78.19-5.57,1.44-9.56,3.71-12.53-1.53,0-5.19,2-8.16,7.65.55-4.36,2-7.7,5.19-8.91-2-.46-6.82,1-11.27,7.15,4.78-8.82,23.09-32,58-35.21-2.4-1.66-7.91-3.23-11.85,0-1.59-.93-1.81-2-1.51-2.81-1-.2-2.74.32-3.79,3-1.13-1.83-1.23-3.52-.76-4.55-1.35-.29-5.09.89-7,4.41-.59-2.06-.29-2.62-.93-3.21-1.47.3-3.84,2.08-5.09,5-.61-1.69-.53-3,.4-4.06a3.63,3.63,0,0,0-2.79,3.13c-.69-2.27-1-4.84-.1-6.43-2,1.36-5.06,6.29-5.18,9.5-.75-4.26-.33-7.43-2.17-9.27-1.55,1.3-2.55,4.26-2.67,6.31-.8-2.8-1.55-5.18-2.26-1.67s-3.13,6.89-2.21,12.06c-2.55-2.75-3.26-4.17-3-5.8-1,2.67-2,5.51-2,7.68-1.76-4.46-2.47-6.68-1.46-9.22-1.84,1-1.59,8.43-4.56,13.73.71-3.25.88-6.64-.87-7.35a2.84,2.84,0,0,0-3.76,2.89,8.91,8.91,0,0,1,.75-8.86c-2.25.71-5.13,3.3-7,8.86,0-4.93,3.29-10.94,6.8-13.66-2.71.67-5.13.84-11.1,5.76,3.42-5.34,7-11,12.15-11.94-4.26.17-7.06,1.34-9.4,3.55,2.72-4.93,10.06-10.52,15-10.48-1.75-1-7.43-2-11.73.63,4.38-4.05,9.31-5.64,12.9-4.43-2.25-1.92-4.26-2.67-6.26-2.38a18.28,18.28,0,0,1,12,.46c-.25-1.21-3.38-5-6.55-5,10.32-4,47.93,6.31,58.85,15.63-.87-5.47-9-12.46-14.36-11.48,2.21-2,2.15-3.38,1.63-4.66-2.49-.8-8.1-.56-9.88.86.22-1.94,2.76-4.94,4.63-5.65-1.47-.76-7.31-.49-10.94,3.44,2.08-4.14,6-8.25,9-9.11a39.76,39.76,0,0,0-17.57,8.46c2.56-5,9.11-10.73,13.64-12.1-3.12-.71-12.12-1-17.12,4.57,5.52-6.93,10-11.5,15.89-10.7-1.79-1.22-10.28-2-18.67,5.8,2-3.35,4.48-7.45,8.44-7.21-1.89-.85-5.28-.76-11.22,3.3,1-2.55,2.12-4.57,4.53-5.23a15.33,15.33,0,0,0-12.92,3.3c2.69-3.59,4.57-5.24,6.27-5.52-4.1-.14-12.21,3-16.88,7.45,2.22-3.25,4.77-6.27,6.23-6.65-2.41.24-7.73,1.89-10.47,5.8,2.22-5,9.81-13.67,16.45-14.38-1.22-.7-5.65-.7-8.58,2.08,2.69-4.62,9.67-8.68,20.89-6.7-2.6-2.5-6.89-6-12.4-5.09,6.5-1.69,22.25-1.36,41.44,21.77-1.93-4.34-5.4-13.49-5.11-15.81a14.07,14.07,0,0,0,4.62,7.43c-2.89-7.72-6.84-15.91-1.25-33.94-.29,6.56-.29,9.83,1,11.67,0-4.44,3-16.1,7.91-18.8-3.28,7.52-3.18,10.5-2.6,13.3,1.15-6.94,7.71-17.35,13-19.38-3.76,5.79-4,8.29-3.57,9.84,1.26-3.86,5-9.45,9.55-9.84-3.09,2.7-4.53,5.3-4.63,7,2.7-2.51,4.72-2.8,7.14-2-4,2.6-5.69,4.72-6.46,7.61,2.7-2.12,6.74-2.89,11.28-1-6.08,1.35-8.87,3.08-10.13,6.46,2.61-1.26,3.57-1.45,4.92-1.06-2.12,1.35-2.89,1.92-3.28,3.47,3-.68,5.88.48,8.58,2.41-7.13,0-25.83,5.12-16.58,43,.3-15.93,2.83-22.87,1.85-30.47,2.2,2.45,3.1,4.49,3.26,6.21.74-2.37,1.88-6.86,1.72-9.55,1.06,2.61,1.47,4.08,1.39,5.47.81-3.43,3.34-7.19,6.45-7.6-2,3.11-2.93,5.64-2.73,7.51,2.73-2.61,7.13-6.45,12.36-6.45-2.45,2.78-2.78,3.51-3,5,2.2-2,6.53-4.08,10.61-3.59-3,2-4.08,3.84-5.79,5.23,5.14-1.23,7.26-1.31,10.45-.57-2,1.06-6.62,1.47-6.45,3.34,1.22.08,7-1,6.45.82C787.1,625,777.55,619.68,770.94,623c1,1.71,5.71,2.86,9.06,3-1.14,1.71-4.82-.33-9.64,2.45,2.21,1.06,4.82,3,4.82,5.06-1.64-1.17-5,.15-5.76,1.46,1.8-.43,3.51-.92,4.78.09a4.71,4.71,0,0,1-5.05,1.45c1.71,1.18,3.12.88,3.82,2.41-1.18-.26-7-.79-4.36,5.88,6.11-15,11.53-18.38,15.38-26.3,3.84-7.53,6.7-16.65,11.67-20.49-2,4.52-2.48,6.18-1.95,7.46,1.13-2.26,5-9.72,13.48-11.6-2.3,1.71-3.67,2.89-3.48,4.78,1.66-1.76,7.7-7,23.8-3.42-4,1.07-5.08,2-5.34,4.64-2.07-3.35-5.78-3.5-8.27.85,2.35.86,4,1.85,4.85,3.35-4.08-1.42-5.62-1.57-7.63-.64a7.61,7.61,0,0,0,4.06,3.42c-2.44.84-5.8.39-7-.61a3.21,3.21,0,0,0,1.36,2.9,12.8,12.8,0,0,1-4.9.07,2.34,2.34,0,0,0,2.36,2.08c-.83,1.42-6.68,2-8.93.81a49.69,49.69,0,0,1,6.91,5.58c-3.48-.52-6.24-.59-7.75.2,0,1.18,1.4,2.76,2.3,2.8a4.84,4.84,0,0,1-3.95.93,3.19,3.19,0,0,0,1.83,2.58c-2.76.71-5.88-.78-8.47.29,1.59,1.44,3.41,2.37,4.23,4.69-1.95-.61-5.72-1-7.58.82s1.56,3.37,3.51,3.07c-1.34,1-4.89,1.26-5.41,2.43s1.06,1.85,3.11,1.29,1.3,1.43,1.3,1.43-14.7,1.48-15.2,11.19c8-7.42,29.61-28,41.94-31.72-5.76,4.83-6,5.7-7.48,9,4.25-3.77,12.21-8.76,18.38-8.89-4.87,1.85-6.48,4.14-7.22,5.74a12,12,0,0,1,8.08-2,7.37,7.37,0,0,0-3.33,3.89c1.85-.49,6.48-2.1,11.66-1.67-1,1.42-7.89,2.35-10.61,3.71a12.93,12.93,0,0,1,6,3.64c-3.33-1-6.1-1.55-7.71-.44,2.22,1.36,4,3.53,3.77,5.68-2.16-1.79-3.21-3.58-6.67-4.75-.18,3.15-.86,4.87-2.22,6.17.5-1.85,1-5.25-.8-7-.8,1.54-.85,6.84-5.13,9,.45-2.76.09-4.85-1.41-5.71-1.11.72-.08,3.24-.68,5.06,0,0-1.74-3.81-6.54-2.16a12.88,12.88,0,0,1,4.63,5.57c-2.56-1.74-3.76-2.07-6.3-1.64a39.45,39.45,0,0,1,3.23,6.17c-1.17.14-2.51-3.36-7.67-3.36,2,1.79,3.23,3.95,5.16,4.71-2.33-.32-4.78-3.07-5.47-2.38s.36,2.62,2.15,3.44c-1.39,1.41-4.14-3.45-7.27-2.14-1.7.72,1.44,3.41,2.56,3.46-1.52,2.15-4.17,2.82-4.26,1.34s-1.66-1.84-2.87-1.61c.18,1.12.54,2.46,2,2.82s-1.12,2.25-2,1.17-3.54-2.06-4.66-1.53a4.14,4.14,0,0,0,2.91,3c1.53.32-1.74,3.23-2.55,1.57a5.35,5.35,0,0,0-4.53-3.09c-.76,1.93,1.12,5.34,2.51,5.78-.76,0-5.16-5.06-6.28,3.28a2.08,2.08,0,0,1,1.94-.05c4.09-4.94,7.15-8.75,13.6-11.92,12.64-6.22,29.66-7.25,34.86-10.06-2.14,1.85-3.17,2.93-3.65,4,2-1.66,28.32-2.47,47.82,20.74-5.25-5-7.25-6.28-12.21-7.69a11.91,11.91,0,0,1,2.27,4.37c-1.5-1.87-6.24-6.1-10.3-6.1a6,6,0,0,1,2.33,4.23c-1.24-1.48-4.15-4.19-7.84-4.37a3.86,3.86,0,0,0-.46,2.76c-2.26-1.54-5.59-7.43-9.24-7.43a7.09,7.09,0,0,0,2.23,3.59c-.91.16-8.11-1.58-10.58-4.27.16,2.93,1.32,6.53,3.52,7.82-3.09-.3-7.68-4.54-11.39-3.33-.37,2.36-.62,4.83,2.85,7.57-3.22-.86-4.38-1.85-5-2.63-.69,1.23-.88,1.9.3,3.68-1.83-.19-3.84-1.4-3.84-3-1,.78-1,1.88,0,3-2.41,0-3-3-5.1-3-1.58,0-2.25,2.36-.7,2.9-1.66,0-1.93-2-7-2s-6.18,1.26-7.87,2.95c3.6-.73,20.73,1.34,26.89,3.76s20.16.68,26.49,5.34c-3.67-.43-5-.24-6.85.54,3,.69,11.68,4.13,14.39,8.38-3.22-2.41-3.65-2.15-5-1.63,1.93,1.11,6.4,4.47,7.65,8.46-1.29-.34-1.25-.47-2.32-.34,1.41,1.67,5.28,6.27,6.1,12.81-2.15-3.44-7.09-11.74-10.53-12.68,1,1.85.69,5.84-.09,7.82-1.93-3.57-3.09-6.58-3.05-8.51-.73.64-1.63,3.48-.94,6.45-1.81-3.14-2.15-5.55-1.68-6.58a2.62,2.62,0,0,0-2.11,3.1c-1.28-1.59-2.14-3.57-1.59-5-1.24-1-2.49.39-2.1,2.07-1.72-1.08-4-3.44-4-8a33.86,33.86,0,0,0-1.81,8.64c-2.14-2.67-3.35-5.59-3.13-7.18-1.42.65-2.15,2.32-2.15,4.26-1.12-2.07-2.37-2.2-2.37-4.34a3,3,0,0,0-.81,2.83c-1.38-1-1.77-6.66-3.65-8.38-1.47-1.33-3.14,3.44-2.5,5.24-1.63-1.24-2-7.39-4.21-7.39-1.17,0-1.89,4.53-.89,6.24-2.51-1.63-4-3.43-4.1-5.14a2.79,2.79,0,0,0-.72,2.47c-3-1.83-10.36-10.59-20.3-8.56,6.05,2.24,31.58,18.07,54.27,25.09A17.44,17.44,0,0,1,831,696c2.72,2.21,4.59,5.09,10,6.77-4.37-.19-8.62-1.1-10-1.84,5.17,5.12,8,8.72,8,14-2.83-5.89-8.06-11.86-11.92-13.85,1.42,3,3.47,5.56,3.47,12.54-1.82-4.2-2.44-5.62-3.81-7.26a26.12,26.12,0,0,0-.05,8.91c-1.93-2.22-3.35-6.92-3.35-9.25-1.53,2.61-2.15,4.93-1.53,7.32-1.36-2.73-2.44-6.47-1.7-9.25-1.14.15-3,3-1.48,5.22a8.32,8.32,0,0,1-2-7.26c-1.14,2.21-2.18,4.71-.69,9.42-2.32-3.75-3.78-8.68-2.76-12.77-2,.8-2.35,3.67-2.28,5.33a10.73,10.73,0,0,1-1.7-5.67c-.8.3-2.16,1.31-.63,6.58-3.17-5.22-5.39-9.81-4.48-12.82-1.47.57-2,2.78-1.19,4.77a7.29,7.29,0,0,1-3.18-5.62,2.27,2.27,0,0,0-1.07,2.43c-3.14-4-2.71-7.16-5.07-9.83A10.15,10.15,0,0,0,793,688c-.74-1.79-1.8-3.16-2-5.37s-1.82-5.88-3.74-6.48a8.25,8.25,0,0,0,.33,4.27c-1.72-1-2.06-6.25-12-8.4,10.54,8.71,34.25,29.61,40.38,60.8-4.4-9.44-5.61-10.79-7.75-12.09,1,2.32,3.4,12.69,2.42,9.9s-2.93-7.72-5-9.11c.7,2.32,1.72,10.92,0,14.92-.09-2.84-.56-6.23-.93-6.74-.37.93-1.44,3.34-2.69,4.32.51-3.67.65-9-.37-11.34-.33,4.09-1.54,7.39-3.21,9.39.88-4.83.84-10.32-.37-11.94-1.54,3.81-3.26,10.68-8.09,11.66,2.93-3.86,4.32-12.13,2.51-17.33-1.3,2.6-2.42,3.16-3.86,3.48.52-3.07,1.1-9.77.05-11.1-.79,2.18-1.21,2.46-2.09,2.83.32-1.16,1.25-3.9.23-6.23-1.62,1.91-2.28,2.65-3.44,3.21.42-1.86.79-7.62-.69-10.5-.79,2.65-1.17,2.74-2.33,3.06,1-1.48.33-7.8-1.44-10.92-.56,1.21-1.07,2.88-2.09,3.77.23-1.54-.46-8.09-3.58-11.48C771,678.25,768.87,673.91,767.65,671.27Z" transform="translate(-0.03 3.09)"/><path class="cls-54" d="M900.14,584.47c9.58,6.68,7.21,14.36,8.78,19.74,6.19-6.83,3.59,3.14,1.83,6.66,3-1,5.19-4.34,6.26-6.54,1.18,2.32-1.8,9.09-4.65,14.68,3.75-1.91,5.34-8.7,9.33-10.73,1.38,4.26-1.55,11.68-3.85,15.19,5.6-2.85,6.95-12.34,9.52-12.19-2.52,2.77-3.84,11.78-3.57,14.42,0,0,2.32-4,4.33-5.36,1.31,2.1-1,4.25-1.53,9.53.81-1.67,2-2.42,4.07-3.38-2.4,2.83-2,8.33-1.79,10.44a5.53,5.53,0,0,1,3.39-3.38c-3,3-5.14,11.43-4.18,14.64.18-1.75,1.39-3.29,3.74-5.07,1.26,2.18-1.52,6.57-3.87,9.12,4.77-2.38,11-11.36,12.28-14.32.9,1.3.85,3.22-1.33,7.34,6.53-3.32,5.55-16,4.68-19,2.62,2.68,3.18,3.91,6.14,11.82.64-22.68-26.8-46.89-36.59-52,4.69-2,9.24,5.5,10.65,9.28a8.33,8.33,0,0,1,.7-4.86c1.48,1.5,3.14,5.37,2.46,7.45s2.57,6.67,1.75,4.84,0-4.49,2.11-6.7c1.48,1.5,1,5.39,1.81,8a8.67,8.67,0,0,1,2.57-5.81c1.48,1.7,1.35,5.86-.08,9.29,2.45-1.82,3.3-3.77,3.8-7.6,2.42,1.53,3.86,9.39,4,12.49,1.57-1.93.09-4.45,1.41-7.88a13.49,13.49,0,0,0,2.5,7.32c0-1.14.07-1.87,1.39-4.49-.51,2.81,0,6.36,2,11.08-.56-3.3-.09-6.81,2.4-11.77-1.07,4.54-.57,12.16,1.83,17.08-1.13-5.46.42-10.44,2.56-13.07-2,5.52.78,11.38,2.72,14.58-.34-1.67-.27-2.93,1-5.22-.23,2.77.69,4.76,4.32,11.31-1.74-4.23-2-8.07-1.17-15.58.45,6.12,5.17,16.4,10.89,23.22a72.2,72.2,0,0,1-6.69-23.41c.54,1.67,5.48,8.16,8.6,10.26-8.21-18.75-14.07-23.23-18.87-27.64S949,591.66,943.39,589c5.59-.48,8.7.82,10.83,5,1.31-1.92,1.39-2.79.32-4.8,2,.61,6.61,4.3,7.93,12.53,1.95-3.65,2.38-9.24-.8-12.93,3.42,1.49,5.32,2.77,7.86,7.36-.23-3.74-.92-6.72-3.51-8.63,3.56,1.26,4.67,2.1,7.54,6.32-.67-3.78-.94-4.21-2-5.47,2.31.75,4.12,1.24,6.46,4.31-2.69-4.87-5.61-7.86-9-9.48,1.37-.69,5.56-.54,10.75,3.12-2.47-3.63-5.31-5.94-8.67-5.58,1.61-1.34,6.52-2.23,13.29,1.25-8.25-5.69-35.07-18-67.68-5.06,1.38-2.58,5.58-6.47,10.55-5.38,1-1.55.68-2.65.08-3.19.76-.61,2.59-1,4.73.94a5.08,5.08,0,0,0-1.39-4.4c1.07-.87,4.94-1.52,8.24.75-.41-2.09-.93-2.46-.63-3.27,1.44-.41,4.37.11,6.82,2.18-.22-1.78-.87-2.9-2.19-3.44a3.65,3.65,0,0,1,3.91,1.52c-.42-2.33-1.35-4.74-2.83-5.77,2.37.32,7.35,3.31,8.92,6.12-1.26-4.14-3.07-6.78-2.27-9.25,2,.45,4.21,2.64,5.25,4.41-.57-2.85-1-5.32,1.25-2.51s5.91,4.72,7.44,9.75c1-3.61,1-5.2,0-6.52,2.11,1.93,4.29,4,5.31,5.92-.46-4.77-.83-7.07-2.88-8.88,2.09.06,5.24,6.79,10.28,10.18-2.11-2.58-3.79-5.52-2.55-6.95a2.84,2.84,0,0,1,4.66.86,8.9,8.9,0,0,0-4.68-7.55c2.33-.39,6.07.62,10.26,4.71-2.27-4.37-7.9-8.25-12.26-9.08,2.73-.64,5-1.59,12.52.1-5.48-3.21-11.29-6.63-16.25-5.14,3.87-1.78,6.9-2,10-1.09-4.66-3.16-13.74-4.82-18.12-2.55,1.09-1.72,5.74-5.12,10.74-4.76-5.74-1.62-10.85-.8-13.5,1.91,1.14-2.74,2.58-4.32,4.5-5a18.24,18.24,0,0,0-10.47,5.84c-.33-1.19.74-6,3.57-7.44-11,1.09-39.86,27.36-45.37,40.62-1.71-5.28,2.39-15.2,7.59-16.75-2.87-.77-3.44-2-3.56-3.42,1.85-1.83,7-4.16,9.19-3.71-1.07-1.62-4.7-3.15-6.69-2.93,1-1.35,6.3-3.75,11.32-1.9-3.74-2.74-9-4.65-12.19-4a39.62,39.62,0,0,1,19.49-.43c-4.56-3.32-13-5.44-17.63-4.6,2.45-2,10.32-6.42,17.32-3.69-8.06-3.67-14.12-5.72-19-2.33,1-1.91,8.26-6.42,19.27-3.3-3.33-2.06-7.37-4.6-10.79-2.6,1.29-1.61,4.36-3.07,11.49-2.14-2.08-1.8-4-3.12-6.4-2.62a15.33,15.33,0,0,1,13-2.91c-4-2-6.44-2.59-8.08-2.08,3.59-2,12.22-2.88,18.41-1-3.45-1.89-7.08-3.43-8.56-3.1,2.25-.88,7.75-1.83,12,.42-4.26-3.49-14.94-7.74-21.18-5.35.77-1.19,4.72-3.2,8.59-2-4.49-2.9-12.55-3.35-21.65,3.5,1.18-3.41,3.42-8.46,8.74-10.16-6.57,1.44-20.45,8.87-27.06,38.19-.25-4.74-1.31-14.48-2.62-16.41a14,14,0,0,1-.76,8.72c-.91-8.19-1.11-17.29-14.26-30.82,3.23,5.71,4.71,8.63,4.43,10.83-2-3.95-10-13-15.57-13.17,6.33,5.22,7.6,7.93,8.35,10.68-4.18-5.66-14.74-12-20.39-11.37,6,3.45,7.37,5.55,7.64,7.15-2.87-2.87-8.75-6.15-13-4.44,4,1,6.45,2.67,7.32,4.18-3.54-1-5.48-.35-7.28,1.43,4.71.52,7.21,1.63,9.21,3.86-3.36-.67-7.32.48-10.49,4.25,6-1.55,9.31-1.27,12,1.17-2.89.06-3.83.33-4.86,1.28,2.5.24,3.45.41,4.5,1.61-3,.75-5,3.09-6.56,6,6.36-3.24,25.34-7.15,34.28,30.8-7.49-14.06-12.89-19.1-15.46-26.31-.86,3.18-.73,5.41-.1,7-1.73-1.78-4.78-5.26-5.86-7.74.24,2.81.54,4.31,1.24,5.51-2.28-2.69-6.24-4.89-9.19-3.84,3.23,1.84,5.16,3.69,5.84,5.45-3.62-1.09-9.29-2.51-13.94-.14,3.44,1.36,4.06,1.87,4.95,3.07-2.86-.75-7.68-.68-11.09,1.61,3.62.45,5.38,1.57,7.53,2-5.14,1.24-7.06,2.13-9.57,4.23,2.3,0,6.56-1.69,7.27.06-1.06.62-6.71,2.29-5.38,3.65,9.78,10,15.89,1,23.26.9-.09,2-3.8,5.13-6.7,6.8,1.79,1,4.14-2.48,9.69-2.19-1.48,2-2.92,4.88-2,6.7.94-1.79,4.51-2.13,5.81-1.31-1.81.42-3.55.77-4.23,2.25a4.74,4.74,0,0,0,5.16-1c-1,1.83-2.38,2.19-2.31,3.88.94-.77,5.84-3.86,6.55,3.26-12.24-10.59-18.61-11.16-25.63-16.47-6.84-5-13.52-11.8-19.7-13,3.87,3.11,5,4.38,5.13,5.76-2-1.5-8.84-6.41-17.28-4.22,2.83.48,4.58.91,5.27,2.68-2.28-.81-10.06-2.79-22.76,7.75,4-.86,5.44-.49,6.86,1.7.32-3.92,3.56-5.73,7.76-3-1.71,1.83-2.72,3.46-2.8,5.18,3-3.12,4.29-4,6.5-4a7.52,7.52,0,0,1-2.07,4.89c2.56-.36,5.35-2.28,6-3.72a3.24,3.24,0,0,1,.1,3.2,12.81,12.81,0,0,0,4.4-2.16,2.36,2.36,0,0,1-1.16,2.93c1.38.88,6.86-1.26,8.32-3.33a50.11,50.11,0,0,0-3.63,8.11c2.87-2.05,5.3-3.36,7-3.34.51,1.07,0,3.1-.78,3.53a4.82,4.82,0,0,0,4-.95,3.16,3.16,0,0,1-.47,3.12c2.79-.61,4.89-3.36,7.69-3.57-.77,2-2,3.65-1.65,6.09,1.46-1.43,4.64-3.48,7.13-2.71s.14,3.72-1.73,4.33c1.62.24,4.92-1.1,5.92-.29s-.11,2.14-2.19,2.56-.51,1.87-.51,1.87,13.77-5.34,18.62,3.09c-10.53-3-39.09-11.56-51.76-9.26,7.32,1.69,7.93,2.35,10.73,4.59-5.5-1.42-14.85-2.27-20.41.42,5.18-.56,7.65.75,9,1.84a11.92,11.92,0,0,0-8.13,1.85,7.37,7.37,0,0,1,4.73,2c-1.87.4-6.72,1.07-11.15,3.81,1.58.79,8.1-1.49,11.14-1.52a13.06,13.06,0,0,0-3.68,6c2.52-2.39,4.74-4.14,6.67-3.88-1.36,2.22-2,5-.78,6.77,1.12-2.58,1.24-4.65,3.79-7.26,1.59,2.72,3,3.95,4.77,4.49-1.28-1.42-3.25-4.22-2.47-6.63,1.41,1,3.86,5.71,8.67,5.74-1.64-2.26-2.28-4.29-1.33-5.73,1.32.14,1.54,2.85,2.9,4.2,0,0-.18-4.18,4.85-4.89a12.88,12.88,0,0,0-1.6,7.07c1.49-2.71,2.41-3.56,4.87-4.32a39,39,0,0,0-.08,7c1.1-.41.71-4.14,5.31-6.47-.94,2.49-1.09,5-2.46,6.53,1.94-1.34,2.86-4.9,3.8-4.6s.87,2.5-.36,4c1.88.62,2.13-5,5.51-5.21,1.84-.13.26,3.69-.72,4.24,2.34,1.23,5,.63,4.41-.73s.65-2.39,1.83-2.74c.35,1.08.64,2.44-.52,3.43s2,1.49,2.29.15,2.22-3.45,3.46-3.48a4.14,4.14,0,0,1-1.21,4c-1.22,1,3,2.09,3,.24a5.36,5.36,0,0,1,2.63-4.81c1.56,1.37,1.42,5.26.39,6.3.68-.35,2.3-6.86,7.08.07a2.06,2.06,0,0,0-1.75.83c-5.89-2.54-10.34-4.56-17.53-4.46-14.09.19-29.72,7-35.63,6.84,2.75.68,4.15,1.18,5.06,1.91-2.58-.56-26.36,10.63-33.22,40.17,2.43-6.81,3.62-8.89,7.39-12.4a12.14,12.14,0,0,0,0,4.93c.49-2.35,2.79-8.27,6.41-10.11a6,6,0,0,0-.15,4.83c.42-1.89,1.79-5.62,5-7.45a3.91,3.91,0,0,1,1.67,2.25c1.31-2.4,1.6-9.16,4.86-10.81a7.07,7.07,0,0,1-.36,4.21c.89-.27,6.51-5.09,7.49-8.6,1.19,2.68,1.79,6.41.41,8.55,2.62-1.66,4.79-7.52,8.64-8.12,1.41,1.93,2.74,4,.9,8,2.48-2.22,3.06-3.63,3.25-4.61,1.19.79,1.66,1.3,1.41,3.42,1.54-1,2.79-3,2.08-4.38,1.22.26,1.72,1.24,1.38,2.65,2.15-1.1,1.29-4,3.18-5,1.41-.71,3.08,1.09,1.94,2.27,1.48-.75.83-2.62,5.38-4.93s6.08-1.68,8.35-.94c-3.53,1-17.87,10.6-22.26,15.55S837,614.87,833.42,621.9c3.08-2.06,4.37-2.5,6.35-2.63-2.37,2-8.54,9-9,14,1.78-3.61,2.28-3.58,3.71-3.72-1.22,1.87-3.69,6.89-3,11,1-.89.89-1,1.91-1.36a24.74,24.74,0,0,0,.37,14.19c.35-4,1-13.68,3.63-16.08,0,2.1,2,5.52,3.62,6.94.11-4.06-.22-7.27-1.13-9,.94.24,3,2.36,3.76,5.31.19-3.61-.6-5.91-1.49-6.62a2.62,2.62,0,0,1,3.28,1.81c.43-2,.3-4.16-.82-5.13.66-1.44,2.4-.78,2.81.89,1.05-1.74,2-4.9,0-9a33.49,33.49,0,0,1,5.52,6.88c.71-3.35.46-6.5-.45-7.82,1.55-.07,3,1.1,3.84,2.82.06-2.34,1.12-3,.15-4.94,1.24.57,2,1.41,2,2.16.76-1.54-1.44-6.74-.54-9.13.7-1.85,4.35,1.64,4.6,3.55.89-1.86-1.59-7.49.4-8.5,1.05-.53,3.74,3.17,3.62,5.15,1.5-2.59,2-4.88,1.33-6.44a2.8,2.8,0,0,1,1.76,1.88c1.87-3,4.43-14.14,14.21-16.84-4.38,4.75-19.95,30.43-37,47a17.26,17.26,0,0,0,8.1-3.1c-1.42,3.21-1.78,6.63-5.88,10.59,3.81-2.15,7.19-4.89,8.12-6.19-2.28,6.91-3.18,11.4-.78,16.12-.14-6.53,1.81-14.22,4.35-17.74.09,3.32-.57,6.52,2.6,12.74-.29-4.56-.38-6.11.09-8.19a26,26,0,0,1,4.09,7.91c.72-2.85-.16-7.69-1.21-9.76,2.55,1.63,4.16,3.42,4.68,5.83,0-3-.75-6.87-2.67-9,1.08-.38,4,1.34,3.68,4a8.35,8.35,0,0,0-1.52-7.37c2,1.45,4.07,3.21,4.88,8.08.37-4.39-.57-9.45-3.32-12.63,2.13-.2,3.75,2.21,4.44,3.72a10.79,10.79,0,0,0-1.05-5.83c.84-.09,2.51.19,3.54,5.58.46-6.09.35-11.19-1.82-13.46,1.57-.16,3,1.58,3.22,3.71a7.26,7.26,0,0,0,.29-6.44,2.25,2.25,0,0,1,2.05,1.68c1-5-.83-7.62.06-11.07a10,10,0,0,1,2.4,3.43c-.16-1.93.17-3.63-.66-5.69s-1-6.07.4-7.47a8.38,8.38,0,0,1,1.64,4c1.08-1.67-1-6.5,6.92-12.95-5.44,12.54-17.11,41.92-8.42,72.5-.36-10.41.1-12.16,1.42-14.29.18,2.52,2.72,12.85,2.33,9.92s-.89-8.2.34-10.39c.44,2.39,3.42,10.51,6.77,13.29-1.21-2.56-2.33-5.8-2.23-6.42.75.66,2.8,2.33,4.36,2.63-2.12-3-4.64-7.7-4.81-10.28,2.15,3.5,4.72,5.89,7.12,6.91-3-3.9-5.43-8.81-5.09-10.81,3.1,2.7,7.75,8.05,12.5,6.73-4.36-2.11-9.35-8.85-10.1-14.31,2.34,1.73,3.59,1.72,5,1.36-1.84-2.5-5.4-8.21-5.08-9.88,1.7,1.59,2.2,1.65,3.15,1.58-.81-.89-2.88-2.91-3-5.45,2.32,1,3.23,1.33,4.52,1.3-1.21-1.47-4.16-6.43-4.14-9.68,1.91,2,2.28,1.92,3.46,1.69-1.54-.89-3.83-6.82-3.66-10.39,1,.82,2.25,2.08,3.57,2.41-.91-1.27-3.26-7.42-2-11.86C900.28,592.22,900.25,587.37,900.14,584.47Z" transform="translate(-0.03 3.09)"/><path class="cls-54" d="M917.78,831.94c12.71-32.85,6.43-104.08-.2-147.44C911,641.31,899.31,578.42,898.83,572c5.5,9.51,9.77,28.44,14.14,52.26S929.41,715.52,932.91,741s7.61,64,24.45,98.31C926.56,838.7,917.78,831.94,917.78,831.94Z" transform="translate(-0.03 3.09)"/><path class="cls-54" d="M889.11,838c-4-37.41-99.2-37.1-132.82-193.1.87,1.79,8.23,4.52,8.61,6.49C791.8,791.2,903.3,811.7,1000,828.46l-61.51,27.36Z" transform="translate(-0.03 3.09)"/><path class="cls-54" d="M233.18,671.27c5.51,10.3-.08,16.07-1.12,21.58,8.61-3.28,1.78,4.42-1.39,6.77,3.17.43,6.59-1.52,8.54-3,0,2.61-5.72,7.29-10.8,11,4.21,0,8.71-5.34,13.19-5.34-.71,4.43-6.68,9.72-10.32,11.8,6.29,0,11.79-7.85,14-6.55-3.5,1.32-8.76,8.76-9.72,11.23,0,0,3.86-2.47,6.29-2.82.22,2.48-2.82,3.34-5.68,7.81,1.47-1.13,2.86-1.26,5.16-1.17-3.43,1.43-5.6,6.51-6.33,8.5a5.43,5.43,0,0,1,4.55-1.47c-4,1.3-9.76,7.85-10.36,11.14,1-1.47,2.73-2.3,5.63-2.82.13,2.52-4.33,5.17-7.59,6.38,5.34,0,14.92-5.16,17.44-7.2.22,1.56-.69,3.25-4.51,5.94,7.33,0,12.19-11.71,12.76-14.77,1.12,3.58,1.07,4.93.12,13.32,10.85-19.92-2.63-53.94-9.07-62.89,5.11.31,5.75,9.09,5.29,13.1a8.27,8.27,0,0,1,2.83-4c.64,2,.36,6.2-1.19,7.75s-.72,7.11-.63,5.1,2.05-4,4.92-5c.64,2-1.54,5.26-2,7.93a8.7,8.7,0,0,1,4.93-4c.55,2.19-1.46,5.84-4.29,8.24,3-.51,4.65-1.86,6.84-5,1.46,2.46-.82,10.13-2.09,12.95,2.28-1,2.09-3.92,4.83-6.38a13.58,13.58,0,0,0-1.1,7.66c.55-1,.92-1.64,3.29-3.38-1.74,2.28-2.92,5.66-3.29,10.77,1-3.2,3-6.11,7.48-9.4-3,3.56-6,10.58-6.11,16,1.46-5.38,5.11-9.12,8.21-10.48-4.29,4-4.47,10.48-4.19,14.22.45-1.64,1.09-2.73,3.28-4.19-1.46,2.37-1.55,4.56-1.28,12,.37-4.56,1.83-8.12,6-14.41-2.37,5.65-2.83,17-.82,25.62a72.18,72.18,0,0,1,4.65-23.89c-.27,1.73,1.19,9.76,3,13,1.19-20.43-2-27.09-4.29-33.2s-4.83-9.94-8.57-14.86c5.2,2.1,7.38,4.67,7.38,9.36,2-1.11,2.51-1.86,2.46-4.13,1.49,1.44,3.95,6.82,1.39,14.76,3.39-2.37,6.32-7.15,5.16-11.88,2.36,2.87,3.48,4.87,3.66,10.11,1.49-3.43,2.23-6.4.79-9.28,2.6,2.74,3.2,4,3.85,9,1.12-3.66,1.07-4.17.65-5.8,1.72,1.72,3.11,3,3.81,6.78-.19-5.57-1.44-9.56-3.72-12.53,1.54,0,5.2,2,8.17,7.65-.55-4.36-2-7.7-5.19-8.91,2-.46,6.82,1,11.27,7.15-4.78-8.82-23.09-32-58-35.21,2.4-1.66,7.91-3.23,11.84,0,1.59-.93,1.81-2,1.52-2.81,1-.2,2.74.32,3.79,3,1.13-1.83,1.23-3.52.76-4.55,1.35-.29,5.09.89,7,4.41.58-2.06.29-2.62.93-3.21,1.46.3,3.84,2.08,5.08,5,.61-1.69.54-3-.39-4.06a3.65,3.65,0,0,1,2.79,3.13c.69-2.27.95-4.84.1-6.43,2,1.36,5.05,6.29,5.18,9.5.75-4.26.33-7.43,2.17-9.27,1.54,1.3,2.55,4.26,2.67,6.31.8-2.8,1.55-5.18,2.26-1.67s3.13,6.89,2.21,12.06c2.55-2.75,3.26-4.17,3-5.8,1,2.67,2,5.51,2,7.68,1.75-4.46,2.46-6.68,1.46-9.22,1.84,1,1.59,8.43,4.55,13.73-.71-3.25-.87-6.64.88-7.35a2.85,2.85,0,0,1,3.76,2.89,8.91,8.91,0,0,0-.75-8.86c2.25.71,5.13,3.3,7,8.86,0-4.93-3.3-10.94-6.8-13.66,2.71.67,5.13.84,11.1,5.76-3.42-5.34-7.05-11-12.15-11.94,4.26.17,7.06,1.34,9.4,3.55-2.72-4.93-10.07-10.52-15-10.48,1.75-1,7.43-2,11.73.63-4.38-4.05-9.31-5.64-12.9-4.43,2.25-1.92,4.26-2.67,6.26-2.38a18.28,18.28,0,0,0-12,.46c.25-1.21,3.38-5,6.55-5-10.32-4-47.93,6.31-58.85,15.63.87-5.47,9-12.46,14.36-11.48-2.21-2-2.15-3.38-1.63-4.66,2.49-.8,8.1-.56,9.87.86-.21-1.94-2.75-4.94-4.63-5.65,1.48-.76,7.32-.49,11,3.44-2.08-4.14-6-8.25-9-9.11A39.81,39.81,0,0,1,286,645.36c-2.56-5-9.11-10.73-13.64-12.1,3.11-.71,12.12-1,17.11,4.57-5.51-6.93-10-11.5-15.88-10.7,1.79-1.22,10.28-2,18.67,5.8-2-3.35-4.48-7.45-8.44-7.21,1.88-.85,5.28-.76,11.22,3.3-1-2.55-2.12-4.57-4.53-5.23a15.33,15.33,0,0,1,12.92,3.3c-2.69-3.59-4.57-5.24-6.27-5.52,4.1-.14,12.21,3,16.87,7.45-2.21-3.25-4.76-6.27-6.22-6.65,2.41.24,7.73,1.89,10.47,5.8-2.22-5-9.81-13.67-16.45-14.38,1.22-.7,5.65-.7,8.57,2.08-2.68-4.62-9.66-8.68-20.88-6.7,2.59-2.5,6.88-6,12.4-5.09-6.51-1.69-22.25-1.36-41.44,21.77,1.93-4.34,5.4-13.49,5.11-15.81a14.13,14.13,0,0,1-4.62,7.43c2.89-7.72,6.84-15.91,1.25-33.94.29,6.56.29,9.83-1,11.67,0-4.44-3-16.1-7.9-18.8,3.28,7.52,3.18,10.5,2.6,13.3-1.15-6.94-7.71-17.35-13-19.38,3.76,5.79,4.05,8.29,3.56,9.84-1.25-3.86-5-9.45-9.54-9.84,3.08,2.7,4.53,5.3,4.63,7-2.7-2.51-4.73-2.8-7.14-2,4,2.6,5.69,4.72,6.46,7.61-2.7-2.12-6.75-2.89-11.28-1,6.08,1.35,8.87,3.08,10.13,6.46-2.61-1.26-3.57-1.45-4.92-1.06,2.12,1.35,2.89,1.92,3.28,3.47-3-.68-5.88.48-8.58,2.41,7.13,0,25.82,5.12,16.58,43-.3-15.93-2.83-22.87-1.85-30.47-2.2,2.45-3.1,4.49-3.26,6.21-.74-2.37-1.88-6.86-1.72-9.55-1.06,2.61-1.47,4.08-1.39,5.47-.81-3.43-3.34-7.19-6.45-7.6,2,3.11,2.93,5.64,2.73,7.51-2.73-2.61-7.14-6.45-12.36-6.45,2.45,2.78,2.78,3.51,3,5-2.2-2-6.53-4.08-10.61-3.59,3,2,4.08,3.84,5.79,5.23-5.14-1.23-7.26-1.31-10.45-.57,2,1.06,6.62,1.47,6.45,3.34-1.22.08-7-1-6.45.82,4.17,13.39,13.72,8.08,20.33,11.35-1,1.71-5.71,2.86-9.06,3,1.14,1.71,4.82-.33,9.63,2.45-2.2,1.06-4.81,3-4.81,5.06,1.64-1.17,5,.15,5.76,1.46-1.8-.43-3.51-.92-4.78.09a4.69,4.69,0,0,0,5,1.45c-1.71,1.18-3.11.88-3.81,2.41,1.18-.26,6.95-.79,4.35,5.88-6.1-15-11.52-18.38-15.37-26.3-3.84-7.53-6.7-16.65-11.68-20.49,2,4.52,2.49,6.18,2,7.46-1.13-2.26-5-9.72-13.48-11.6,2.3,1.71,3.67,2.89,3.48,4.78-1.67-1.76-7.7-7-23.8-3.42,4,1.07,5.07,2,5.34,4.64,2.07-3.35,5.77-3.5,8.27.85-2.35.86-4,1.85-4.85,3.35,4.08-1.42,5.62-1.57,7.63-.64a7.61,7.61,0,0,1-4.06,3.42c2.43.84,5.8.39,7-.61a3.23,3.23,0,0,1-1.36,2.9,12.8,12.8,0,0,0,4.9.07,2.35,2.35,0,0,1-2.36,2.08c.83,1.42,6.68,2,8.92.81a50.93,50.93,0,0,0-6.91,5.58c3.48-.52,6.25-.59,7.76.2,0,1.18-1.4,2.76-2.3,2.8a4.83,4.83,0,0,0,4,.93,3.19,3.19,0,0,1-1.83,2.58c2.76.71,5.88-.78,8.47.29-1.59,1.44-3.41,2.37-4.23,4.69,1.95-.61,5.71-1,7.58.82s-1.56,3.37-3.51,3.07c1.34,1,4.89,1.26,5.41,2.43s-1.06,1.85-3.11,1.29-1.3,1.43-1.3,1.43,14.69,1.48,15.2,11.19c-8-7.42-29.61-28-41.94-31.72,5.75,4.83,6,5.7,7.48,9-4.25-3.77-12.21-8.76-18.38-8.89,4.87,1.85,6.48,4.14,7.22,5.74a12,12,0,0,0-8.09-2,7.35,7.35,0,0,1,3.34,3.89c-1.85-.49-6.48-2.1-11.66-1.67,1.05,1.42,7.89,2.35,10.61,3.71a13,13,0,0,0-6,3.64c3.33-1,6.11-1.55,7.71-.44-2.22,1.36-4,3.53-3.76,5.68,2.16-1.79,3.21-3.58,6.66-4.75.19,3.15.87,4.87,2.23,6.17-.5-1.85-1-5.25.8-7,.8,1.54.85,6.84,5.13,9-.45-2.76-.09-4.85,1.41-5.71,1.1.72.08,3.24.67,5.06,0,0,1.75-3.81,6.54-2.16a13,13,0,0,0-4.63,5.57c2.56-1.74,3.77-2.07,6.31-1.64a38.62,38.62,0,0,0-3.23,6.17c1.16.14,2.51-3.36,7.67-3.36-2,1.79-3.23,3.95-5.16,4.71,2.33-.32,4.78-3.07,5.47-2.38s-.36,2.62-2.15,3.44c1.39,1.41,4.14-3.45,7.26-2.14,1.71.72-1.43,3.41-2.55,3.46,1.52,2.15,4.17,2.82,4.26,1.34s1.66-1.84,2.87-1.61c-.18,1.12-.54,2.46-2,2.82s1.12,2.25,2,1.17,3.55-2.06,4.67-1.53a4.15,4.15,0,0,1-2.92,3c-1.52.32,1.75,3.23,2.56,1.57a5.35,5.35,0,0,1,4.53-3.09c.76,1.93-1.12,5.34-2.51,5.78.76,0,5.16-5.06,6.28,3.28a2.08,2.08,0,0,0-1.94-.05c-4.09-4.94-7.15-8.75-13.6-11.92-12.65-6.22-29.66-7.25-34.86-10.06,2.14,1.85,3.16,2.93,3.65,4-2.05-1.66-28.33-2.47-47.83,20.74,5.26-5,7.26-6.28,12.21-7.69a12,12,0,0,0-2.26,4.37c1.5-1.87,6.24-6.1,10.29-6.1A6,6,0,0,0,150,661c1.24-1.48,4.15-4.19,7.84-4.37a3.86,3.86,0,0,1,.46,2.76c2.26-1.54,5.58-7.43,9.24-7.43a7.09,7.09,0,0,1-2.23,3.59c.91.16,8.11-1.58,10.58-4.27-.16,2.93-1.32,6.53-3.52,7.82,3.09-.3,7.68-4.54,11.39-3.33.37,2.36.61,4.83-2.85,7.57,3.22-.86,4.38-1.85,5-2.63.7,1.23.89,1.9-.29,3.68,1.82-.19,3.84-1.4,3.84-3,1,.78,1,1.88,0,3,2.42,0,3-3,5.11-3,1.58,0,2.25,2.36.69,2.9,1.67,0,1.94-2,7-2s6.18,1.26,7.87,2.95c-3.6-.73-20.73,1.34-26.9,3.76s-20.15.68-26.48,5.34c3.67-.43,5-.24,6.85.54-3,.69-11.69,4.13-14.39,8.38,3.22-2.41,3.65-2.15,5-1.63-1.93,1.11-6.4,4.47-7.65,8.46,1.29-.34,1.25-.47,2.32-.34a24.78,24.78,0,0,0-6.1,12.81c2.15-3.44,7.09-11.74,10.53-12.68-1,1.85-.69,5.84.09,7.82,1.93-3.57,3.09-6.58,3.05-8.51.73.64,1.63,3.48.94,6.45,1.81-3.14,2.15-5.55,1.68-6.58a2.62,2.62,0,0,1,2.1,3.1c1.29-1.59,2.15-3.57,1.59-5,1.25-1,2.5.39,2.11,2.07,1.72-1.08,4-3.44,4-8a33.48,33.48,0,0,1,1.8,8.64c2.15-2.67,3.36-5.59,3.14-7.18,1.42.65,2.15,2.32,2.15,4.26,1.12-2.07,2.37-2.2,2.37-4.34a3,3,0,0,1,.81,2.83c1.38-1,1.77-6.66,3.65-8.38,1.46-1.33,3.14,3.44,2.5,5.24,1.63-1.24,2-7.39,4.21-7.39,1.17,0,1.89,4.53.89,6.24,2.51-1.63,4-3.43,4.1-5.14a2.79,2.79,0,0,1,.72,2.47c3-1.83,10.35-10.59,20.3-8.56-6.06,2.24-31.58,18.07-54.27,25.09a17.43,17.43,0,0,0,8.62.91c-2.72,2.21-4.6,5.09-10,6.77,4.37-.19,8.62-1.1,10-1.84-5.17,5.12-8,8.72-8,14,2.83-5.89,8.06-11.86,11.91-13.85-1.41,3-3.46,5.56-3.46,12.54,1.82-4.2,2.44-5.62,3.8-7.26a26.11,26.11,0,0,1,.06,8.91c1.93-2.22,3.35-6.92,3.35-9.25,1.53,2.61,2.15,4.93,1.53,7.32,1.36-2.73,2.44-6.47,1.7-9.25,1.14.15,2.95,3,1.48,5.22a8.35,8.35,0,0,0,2-7.26c1.14,2.21,2.18,4.71.69,9.42,2.32-3.75,3.78-8.68,2.76-12.77,2,.8,2.35,3.67,2.28,5.33a10.73,10.73,0,0,0,1.7-5.67c.8.3,2.16,1.31.63,6.58,3.17-5.22,5.39-9.81,4.48-12.82,1.47.57,2,2.78,1.19,4.77a7.29,7.29,0,0,0,3.18-5.62,2.25,2.25,0,0,1,1.06,2.43c3.14-4,2.72-7.16,5.08-9.83a10.15,10.15,0,0,1,.58,4.14c.74-1.79,1.8-3.16,2-5.37s1.82-5.88,3.74-6.48a8.25,8.25,0,0,1-.33,4.27c1.72-1,2.06-6.25,12-8.4-10.54,8.71-34.25,29.61-40.38,60.8,4.4-9.44,5.61-10.79,7.74-12.09-1,2.32-3.39,12.69-2.41,9.9s2.92-7.72,5-9.11c-.7,2.32-1.72,10.92,0,14.92.09-2.84.55-6.23.93-6.74.37.93,1.44,3.34,2.69,4.32-.51-3.67-.65-9,.37-11.34.33,4.09,1.54,7.39,3.21,9.39-.88-4.83-.84-10.32.37-11.94,1.53,3.81,3.25,10.68,8.09,11.66-2.93-3.86-4.33-12.13-2.51-17.33,1.3,2.6,2.41,3.16,3.85,3.48-.51-3.07-1.09-9.77,0-11.1.79,2.18,1.21,2.46,2.09,2.83-.33-1.16-1.26-3.9-.23-6.23,1.62,1.91,2.27,2.65,3.44,3.21-.42-1.86-.79-7.62.69-10.5.79,2.65,1.16,2.74,2.33,3.06-1-1.48-.33-7.8,1.44-10.92.55,1.21,1.07,2.88,2.09,3.77-.23-1.54.46-8.09,3.58-11.48C229.8,678.25,232,673.91,233.18,671.27Z" transform="translate(-0.03 3.09)"/><path class="cls-54" d="M100.7,584.47c-9.58,6.68-7.21,14.36-8.78,19.74-6.19-6.83-3.59,3.14-1.83,6.66-3-1-5.19-4.34-6.26-6.54-1.18,2.32,1.8,9.09,4.65,14.68-3.75-1.91-5.34-8.7-9.33-10.73C77.77,612.54,80.7,620,83,623.47c-5.61-2.85-7-12.34-9.52-12.19,2.52,2.77,3.84,11.78,3.57,14.42,0,0-2.32-4-4.33-5.36-1.31,2.1,1,4.25,1.53,9.53-.81-1.67-2-2.42-4.07-3.38,2.4,2.83,2,8.33,1.79,10.44a5.53,5.53,0,0,0-3.39-3.38c3,3,5.13,11.43,4.18,14.64-.18-1.75-1.39-3.29-3.75-5.07-1.25,2.18,1.53,6.57,3.88,9.12-4.78-2.38-11-11.36-12.28-14.32-.9,1.3-.85,3.22,1.33,7.34-6.53-3.32-5.56-16-4.68-19-2.62,2.68-3.18,3.91-6.14,11.82-.64-22.68,26.8-46.89,36.59-52-4.69-2-9.24,5.5-10.65,9.28a8.33,8.33,0,0,0-.7-4.86c-1.48,1.5-3.14,5.37-2.46,7.45s-2.58,6.67-1.75,4.84,0-4.49-2.11-6.7c-1.48,1.5-1,5.39-1.81,8a8.67,8.67,0,0,0-2.57-5.81c-1.48,1.7-1.35,5.86.08,9.29-2.45-1.82-3.3-3.77-3.81-7.6-2.41,1.53-3.85,9.39-4,12.49-1.57-1.93-.09-4.45-1.41-7.88A13.49,13.49,0,0,1,54,612c0-1.14-.07-1.87-1.4-4.49.52,2.81,0,6.36-1.95,11.08.55-3.3.09-6.81-2.4-11.77,1.07,4.54.56,12.16-1.84,17.08,1.14-5.46-.41-10.44-2.56-13.07,2,5.52-.77,11.38-2.71,14.58.34-1.67.27-2.93-1-5.22.22,2.77-.69,4.76-4.32,11.31,1.74-4.23,2-8.07,1.17-15.58-.45,6.12-5.17,16.4-10.89,23.22a72.2,72.2,0,0,0,6.69-23.41c-.55,1.67-5.48,8.16-8.6,10.26,8.21-18.75,14.07-23.23,18.87-27.64s8.82-6.67,14.38-9.37c-5.58-.48-8.69.82-10.82,5-1.31-1.92-1.39-2.79-.32-4.8-2,.61-6.61,4.3-7.93,12.53-1.95-3.65-2.39-9.24.79-12.93-3.41,1.49-5.31,2.77-7.85,7.36.23-3.74.92-6.72,3.5-8.63-3.55,1.26-4.66,2.1-7.53,6.32.67-3.78.94-4.21,2-5.47-2.31.75-4.12,1.24-6.47,4.31,2.7-4.87,5.62-7.86,9-9.48-1.37-.69-5.56-.54-10.76,3.12,2.48-3.63,5.32-5.94,8.68-5.58-1.61-1.34-6.53-2.23-13.3,1.25,8.26-5.69,35.08-18,67.69-5.06-1.38-2.58-5.58-6.47-10.56-5.38-1-1.55-.68-2.65-.07-3.19-.76-.61-2.59-1-4.73.94-.17-2.15.5-3.69,1.38-4.4-1.06-.87-4.93-1.52-8.23.75.41-2.09.93-2.46.63-3.27-1.44-.41-4.37.11-6.82,2.18.22-1.78.87-2.9,2.19-3.44a3.65,3.65,0,0,0-3.91,1.52c.42-2.33,1.35-4.74,2.83-5.77-2.37.32-7.35,3.31-8.92,6.12,1.26-4.14,3.07-6.78,2.26-9.25-2,.45-4.2,2.64-5.24,4.41.56-2.85,1-5.32-1.25-2.51s-5.92,4.72-7.44,9.75c-1-3.61-1-5.2,0-6.52-2.11,1.93-4.29,4-5.31,5.92.46-4.77.83-7.07,2.88-8.88-2.09.06-5.24,6.79-10.29,10.18,2.11-2.58,3.8-5.52,2.55-6.95a2.83,2.83,0,0,0-4.65.86,8.9,8.9,0,0,1,4.68-7.55c-2.33-.39-6.07.62-10.26,4.71,2.27-4.37,7.9-8.25,12.25-9.08-2.72-.64-4.95-1.59-12.51.1,5.48-3.21,11.29-6.63,16.25-5.14-3.88-1.78-6.9-2-10-1.09,4.66-3.16,13.74-4.82,18.12-2.55-1.09-1.72-5.74-5.12-10.75-4.76,5.75-1.62,10.86-.8,13.51,1.91-1.14-2.74-2.58-4.32-4.5-5a18.24,18.24,0,0,1,10.47,5.84c.33-1.19-.74-6-3.57-7.44,11,1.09,39.86,27.36,45.37,40.62,1.71-5.28-2.39-15.2-7.59-16.75,2.87-.77,3.44-2,3.56-3.42-1.85-1.83-7-4.16-9.19-3.71,1.07-1.62,4.7-3.15,6.68-2.93-1-1.35-6.29-3.75-11.31-1.9,3.74-2.74,9-4.65,12.19-4a39.63,39.63,0,0,0-19.49-.43c4.55-3.32,13-5.44,17.63-4.6-2.45-2-10.32-6.42-17.32-3.69,8.06-3.67,14.12-5.72,19-2.33-1-1.91-8.26-6.42-19.27-3.3,3.33-2.06,7.37-4.6,10.79-2.6-1.29-1.61-4.36-3.07-11.49-2.14,2.08-1.8,4-3.12,6.4-2.62a15.35,15.35,0,0,0-13-2.91c4-2,6.45-2.59,8.09-2.08-3.59-2-12.23-2.88-18.42-1,3.45-1.89,7.09-3.43,8.56-3.1-2.25-.88-7.74-1.83-12,.42,4.26-3.49,14.94-7.74,21.18-5.35-.77-1.19-4.72-3.2-8.59-2,4.49-2.9,12.55-3.35,21.65,3.5-1.18-3.41-3.42-8.46-8.74-10.16,6.57,1.44,20.45,8.87,27.06,38.19.25-4.74,1.31-14.48,2.61-16.41a14.19,14.19,0,0,0,.76,8.72c.92-8.19,1.12-17.29,14.27-30.82-3.23,5.71-4.71,8.63-4.43,10.83,2-3.95,10-13,15.57-13.17-6.33,5.22-7.6,7.93-8.35,10.68,4.18-5.66,14.74-12,20.39-11.37-6,3.45-7.37,5.55-7.64,7.15,2.86-2.87,8.75-6.15,13-4.44-4,1-6.44,2.67-7.31,4.18,3.54-1,5.48-.35,7.28,1.43-4.71.52-7.22,1.63-9.21,3.86,3.36-.67,7.32.48,10.49,4.25-6-1.55-9.31-1.27-12,1.17,2.89.06,3.84.33,4.87,1.28-2.5.24-3.45.41-4.5,1.61,3,.75,5,3.09,6.56,6C133,513.36,114,509.45,105,547.4c7.49-14.06,12.89-19.1,15.46-26.31.86,3.18.73,5.41.1,7,1.73-1.78,4.78-5.26,5.86-7.74-.24,2.81-.54,4.31-1.25,5.51,2.29-2.69,6.25-4.89,9.2-3.84-3.23,1.84-5.17,3.69-5.84,5.45,3.61-1.09,9.28-2.51,13.94-.14-3.44,1.36-4.06,1.87-4.95,3.07,2.85-.75,7.67-.68,11.09,1.61-3.62.45-5.38,1.57-7.54,2,5.14,1.24,7.07,2.13,9.58,4.23-2.3,0-6.56-1.69-7.27.06,1.06.62,6.7,2.29,5.38,3.65-9.78,10-15.89,1-23.26.9.09,2,3.79,5.13,6.7,6.8-1.79,1-4.14-2.48-9.69-2.19,1.48,2,2.92,4.88,2,6.7-.93-1.79-4.5-2.13-5.8-1.31,1.8.42,3.55.77,4.22,2.25a4.73,4.73,0,0,1-5.15-1c1,1.83,2.38,2.19,2.31,3.88-.94-.77-5.84-3.86-6.55,3.26,12.24-10.59,18.61-11.16,25.62-16.47,6.85-5,13.53-11.8,19.71-13-3.87,3.11-5,4.38-5.13,5.76,2-1.5,8.84-6.41,17.28-4.22-2.83.48-4.58.91-5.27,2.68,2.28-.81,10.05-2.79,22.76,7.75-4-.86-5.45-.49-6.86,1.7-.33-3.92-3.57-5.73-7.76-3,1.71,1.83,2.72,3.46,2.8,5.18-3-3.12-4.29-4-6.5-4a7.52,7.52,0,0,0,2.07,4.89c-2.56-.36-5.36-2.28-6-3.72a3.22,3.22,0,0,0-.11,3.2,12.85,12.85,0,0,1-4.39-2.16,2.35,2.35,0,0,0,1.16,2.93c-1.39.88-6.86-1.26-8.32-3.33a49.93,49.93,0,0,1,3.62,8.11c-2.86-2.05-5.29-3.36-7-3.34-.51,1.07,0,3.1.77,3.53a4.8,4.8,0,0,1-3.94-.95,3.18,3.18,0,0,0,.46,3.12c-2.79-.61-4.88-3.36-7.68-3.57.77,2,2,3.65,1.65,6.09-1.47-1.43-4.65-3.48-7.13-2.71s-.14,3.72,1.73,4.33c-1.63.24-4.93-1.1-5.92-.29s.11,2.14,2.18,2.56.52,1.87.52,1.87-13.77-5.34-18.63,3.09c10.54-3,39.1-11.56,51.77-9.26-7.32,1.69-7.93,2.35-10.74,4.59,5.5-1.42,14.86-2.27,20.42.42-5.19-.56-7.65.75-9,1.84a11.92,11.92,0,0,1,8.13,1.85,7.37,7.37,0,0,0-4.73,2c1.87.4,6.72,1.07,11.15,3.81-1.58.79-8.11-1.49-11.14-1.52a13.06,13.06,0,0,1,3.68,6c-2.52-2.39-4.74-4.14-6.67-3.88,1.36,2.22,2,5,.78,6.77-1.12-2.58-1.24-4.65-3.79-7.26-1.59,2.72-3,3.95-4.77,4.49,1.27-1.42,3.25-4.22,2.47-6.63-1.42,1-3.87,5.71-8.68,5.74,1.65-2.26,2.28-4.29,1.34-5.73-1.32.14-1.55,2.85-2.9,4.2,0,0,.17-4.18-4.85-4.89a12.88,12.88,0,0,1,1.6,7.07c-1.49-2.71-2.42-3.56-4.87-4.32a39,39,0,0,1,.08,7c-1.1-.41-.72-4.14-5.31-6.47.94,2.49,1.09,5,2.46,6.53-1.94-1.34-2.87-4.9-3.8-4.6s-.87,2.5.36,4c-1.88.62-2.13-5-5.51-5.21-1.84-.13-.26,3.69.71,4.24-2.33,1.23-5,.63-4.4-.73s-.65-2.39-1.83-2.74c-.35,1.08-.64,2.44.52,3.43s-2,1.49-2.29.15-2.22-3.45-3.47-3.48a4.17,4.17,0,0,0,1.22,4c1.22,1-3,2.09-3,.24a5.36,5.36,0,0,0-2.64-4.81c-1.55,1.37-1.42,5.26-.38,6.3-.68-.35-2.3-6.86-7.08.07a2.06,2.06,0,0,1,1.75.83c5.88-2.54,10.34-4.56,17.52-4.46,14.09.19,29.73,7,35.64,6.84-2.75.68-4.15,1.18-5.07,1.91,2.59-.56,26.37,10.63,33.23,40.17-2.43-6.81-3.62-8.89-7.4-12.4a12,12,0,0,1,0,4.93c-.49-2.35-2.8-8.27-6.41-10.11a6,6,0,0,1,.15,4.83c-.43-1.89-1.79-5.62-5-7.45a3.91,3.91,0,0,0-1.67,2.25c-1.31-2.4-1.6-9.16-4.86-10.81a7.07,7.07,0,0,0,.36,4.21c-.89-.27-6.51-5.09-7.5-8.6-1.18,2.68-1.78,6.41-.4,8.55-2.62-1.66-4.79-7.52-8.64-8.12-1.41,1.93-2.74,4-.9,8-2.48-2.22-3.06-3.63-3.26-4.61-1.18.79-1.65,1.3-1.4,3.42-1.54-1-2.79-3-2.08-4.38-1.22.26-1.72,1.24-1.38,2.65-2.15-1.1-1.29-4-3.18-5-1.41-.71-3.08,1.09-1.94,2.27-1.48-.75-.83-2.62-5.38-4.93s-6.08-1.68-8.35-.94c3.53,1,17.87,10.6,22.26,15.55s17.66,9.74,21.19,16.77c-3.08-2.06-4.38-2.5-6.36-2.63,2.37,2,8.55,9,9,14-1.79-3.61-2.29-3.58-3.71-3.72,1.22,1.87,3.68,6.89,3,11-1-.89-.89-1-1.91-1.36.5,2.14,1.87,8-.37,14.19-.35-4-1-13.68-3.63-16.08,0,2.1-2,5.52-3.63,6.94-.1-4.06.23-7.27,1.14-9-.94.24-3,2.36-3.76,5.31-.19-3.61.6-5.91,1.48-6.62a2.62,2.62,0,0,0-3.28,1.81c-.42-2-.29-4.16.83-5.13-.66-1.44-2.4-.78-2.81.89-1.05-1.74-2.05-4.9,0-9a33.49,33.49,0,0,0-5.53,6.88c-.7-3.35-.45-6.5.46-7.82-1.56-.07-3,1.1-3.84,2.82-.06-2.34-1.12-3-.15-4.94-1.24.57-2,1.41-2,2.16-.75-1.54,1.45-6.74.55-9.13-.7-1.85-4.36,1.64-4.6,3.55-.89-1.86,1.59-7.49-.4-8.5-1-.53-3.74,3.17-3.63,5.15-1.49-2.59-2-4.88-1.32-6.44a2.8,2.8,0,0,0-1.76,1.88c-1.87-3-4.43-14.14-14.21-16.84,4.38,4.75,19.95,30.43,37,47a17.26,17.26,0,0,1-8.09-3.1c1.42,3.21,1.78,6.63,5.88,10.59-3.81-2.15-7.19-4.89-8.12-6.19,2.28,6.91,3.18,11.4.78,16.12.14-6.53-1.81-14.22-4.35-17.74-.1,3.32.57,6.52-2.6,12.74.29-4.56.38-6.11-.09-8.19a26,26,0,0,0-4.09,7.91c-.72-2.85.15-7.69,1.21-9.76-2.55,1.63-4.16,3.42-4.68,5.83,0-3,.75-6.87,2.67-9-1.08-.38-4,1.34-3.68,4a8.32,8.32,0,0,1,1.52-7.37c-2,1.45-4.07,3.21-4.88,8.08-.37-4.39.57-9.45,3.32-12.63-2.13-.2-3.75,2.21-4.44,3.72a10.79,10.79,0,0,1,1.05-5.83c-.84-.09-2.51.19-3.54,5.58-.46-6.09-.35-11.19,1.82-13.46-1.57-.16-3,1.58-3.22,3.71a7.26,7.26,0,0,1-.29-6.44,2.24,2.24,0,0,0-2,1.68c-1-5,.83-7.62-.06-11.07a10,10,0,0,0-2.4,3.43c.15-1.93-.17-3.63.66-5.69s1-6.07-.4-7.47a8.38,8.38,0,0,0-1.64,4c-1.08-1.67,1-6.5-6.93-12.95,5.45,12.54,17.11,41.92,8.43,72.5.36-10.41-.1-12.16-1.42-14.29-.18,2.52-2.73,12.85-2.33,9.92s.89-8.2-.35-10.39c-.43,2.39-3.41,10.51-6.76,13.29,1.2-2.56,2.33-5.8,2.23-6.42-.76.66-2.8,2.33-4.36,2.63,2.12-3,4.64-7.7,4.81-10.28-2.15,3.5-4.72,5.89-7.12,6.91,3-3.9,5.42-8.81,5.08-10.81-3.09,2.7-7.74,8.05-12.49,6.73,4.36-2.11,9.35-8.85,10.09-14.31-2.33,1.73-3.58,1.72-5,1.36,1.84-2.5,5.4-8.21,5.07-9.88-1.69,1.59-2.19,1.65-3.15,1.58.82-.89,2.89-2.91,3-5.45-2.32,1-3.24,1.33-4.52,1.3,1.21-1.47,4.16-6.43,4.14-9.68-1.91,2-2.28,1.92-3.46,1.69,1.54-.89,3.82-6.82,3.66-10.39-1,.82-2.26,2.08-3.57,2.41.9-1.27,3.25-7.42,2-11.86C100.56,592.22,100.59,587.37,100.7,584.47Z" transform="translate(-0.03 3.09)"/><path class="cls-54" d="M83.06,831.94c-12.71-32.85-6.43-104.08.2-147.44C89.86,641.31,101.53,578.42,102,572c-5.5,9.51-9.77,28.44-14.14,52.26S71.43,715.52,67.92,741s-7.61,64-24.44,98.31C74.28,838.7,83.06,831.94,83.06,831.94Z" transform="translate(-0.03 3.09)"/><path class="cls-54" d="M111.72,839.56c4-37.4,99.21-38.62,132.83-194.62-.87,1.79-8.23,4.52-8.61,6.49C209,791.2,97.54,811.7.81,828.46l61.51,27.36Z" transform="translate(-0.03 3.09)"/><path class="cls-54" d="M1000,828.46S836,844.85,748.68,844.85s-151.6-13-248.65-13-175.62,13-305.82,13c-90.09,0-74.21-10-194.18-16.39V1000H1000Z" transform="translate(-0.03 3.09)"/><path class="cls-57" d="M427.76,956.7a44.77,44.77,0,0,1-4.65-7.89,56,56,0,0,1-3.24-8.82,145.11,145.11,0,0,1-.16-38.43,224.81,224.81,0,0,1,8.05-36.74q.92-2,4-2A15,15,0,0,1,438,864.2a14.62,14.62,0,0,1,5.1,3.71,4.28,4.28,0,0,1,.93,4.8,66.5,66.5,0,0,0-3.41,10q-1.69,6.27-3.24,13.85t-2.71,15.85q-1.15,8.28-1.7,15.86a112.65,112.65,0,0,0-.23,13.69,28.25,28.25,0,0,0,1.85,9.66,204.77,204.77,0,0,0,13.3-20.18q6-10.44,11.37-21.19t10.13-21.73q4.8-11,9.44-21.66,2.32-5.42,4.56-11.45a33.93,33.93,0,0,1,6-10.36q1.55-1.39,2.4-.93a2.6,2.6,0,0,1,1.16,1.78,12.56,12.56,0,0,1,.3,2.79v2.24Q492.1,858,491.33,865a54.79,54.79,0,0,1-3.25,13.46q-4,10.22-8.27,20.26t-9.13,19.8q-4.87,9.75-10.52,19A173.49,173.49,0,0,1,447.86,955q-5.25,6.64-10.44,7C434,962.29,430.74,960.51,427.76,956.7Z" transform="translate(-0.03 3.09)"/><path class="cls-57" d="M476,934.66a57.77,57.77,0,0,1,2-5.92q1.2-3.06,2.56-6.07t2.74-5.88q1.39-2.87,2.63-5.41a57.4,57.4,0,0,0-7.31,5.41,80.16,80.16,0,0,0-7.15,7c-2.32,2.58-4.76,5.4-6.91,8.33s-5.19,6.69-7.36,10.06c-1.95,3,12.21-21.33,11.64-19.94q4.71-5.1,9.51-9.74a62,62,0,0,1,10.37-8.12,3.11,3.11,0,0,1,2.51-.31,3.85,3.85,0,0,1,2,1.43A6.17,6.17,0,0,1,494.2,908a4.93,4.93,0,0,1-.15,2.75c-.41,1-.93,2.23-1.55,3.75l-1.93,4.76c-.67,1.65-1.32,3.24-1.93,4.79s-1.11,2.79-1.47,3.71a64.72,64.72,0,0,1,5.95-6.57q3.56-3.48,7.27-6.69t7.12-5.88c2.26-1.78,4.15-3.18,5.64-4.21a1.86,1.86,0,0,1,2.36.15,8.26,8.26,0,0,1,2.2,2.44,8.59,8.59,0,0,1,1.2,3c.18,1,0,1.7-.5,2q-3.7,6.34-6.53,11.76a88.3,88.3,0,0,0-4.8,10.83,64.22,64.22,0,0,0-2.94,11.13,76.47,76.47,0,0,0-1,12.61.47.47,0,0,1-.38.5,2.27,2.27,0,0,1-.62.12,8,8,0,0,1-2.2-.39,5.27,5.27,0,0,1-1.59-.85,7.66,7.66,0,0,1-2.67-5.57,27.85,27.85,0,0,1,.62-8.27,71,71,0,0,1,2.82-9.59q1.86-5,4-9.55t4.13-8.09q2-3.56,3.17-5.25a48.6,48.6,0,0,0-7.38,5.6q-3.9,3.53-7.73,7.54t-7.27,8.2c-2.3,2.78-4.25,5.29-5.84,7.5a3.1,3.1,0,0,1-1.9,0,6,6,0,0,1-2.16-1,6.14,6.14,0,0,1-1.71-1.94A4.45,4.45,0,0,1,476,934.66Z" transform="translate(-0.03 3.09)"/><path class="cls-57" d="M496.27,889.64l-.92.72a7.28,7.28,0,0,1-1.1.69,6.21,6.21,0,0,1-1.27.46,3.19,3.19,0,0,1-1.41,0,2.54,2.54,0,0,1-1-.39,5.83,5.83,0,0,1-.88-.71,2,2,0,0,1-.51-1.2,6.1,6.1,0,0,1,0-1.24,24.23,24.23,0,0,1,.64-2.54,21.63,21.63,0,0,1,1-2.63,14.55,14.55,0,0,1,2.58-3.78,7,7,0,0,1,3.78-2.12,4,4,0,0,1,1.55-.07,3.25,3.25,0,0,1,1.4.53,2.78,2.78,0,0,1,.92,1,1.86,1.86,0,0,1,.14,1.36c-.06.18-.13.37-.21.55a1.55,1.55,0,0,1-.27.46.57.57,0,0,1-.3.21c-.09,0-.19-.07-.28-.25s-.07-.23-.11-.4a3,3,0,0,0-.21-.5,1.54,1.54,0,0,0-.39-.46,1,1,0,0,0-.67-.21,3.08,3.08,0,0,0-2,1.08,18.39,18.39,0,0,0-2.12,2.54,24.83,24.83,0,0,0-1.75,2.9,11.73,11.73,0,0,0-.92,2.19c-.18.8-.17,1.22.05,1.27s.55-.12,1-.51a14,14,0,0,0,1.57-1.59c.58-.67,1.13-1.34,1.66-2s1-1.25,1.36-1.76l.62-.8a1.67,1.67,0,0,1,2.24,0,2,2,0,0,1,.6,1,1.69,1.69,0,0,1-.12,1.18c-.22.49-.5,1.07-.85,1.75a6,6,0,0,0-.67,1.8c-.09.8,0,1.32.28,1.56s.78.23,1.52,0a6.25,6.25,0,0,0,1.84-1.32c.65-.63,1.28-1.3,1.92-2s1.22-1.39,1.77-2a12.13,12.13,0,0,1,1.38-1.43l.35-.3c.14-.11.25-.13.34-.07a.36.36,0,0,1,.26.25c0,.11,0,.23,0,.35a22.26,22.26,0,0,1-1.43,2.9,17.38,17.38,0,0,1-1.87,2.66,14.23,14.23,0,0,1-2.3,2.16,11.25,11.25,0,0,1-2.74,1.5,3.35,3.35,0,0,1-1.66.21,3.15,3.15,0,0,1-1.34-.53,3.29,3.29,0,0,1-1-1.06A4.73,4.73,0,0,1,496.27,889.64Z" transform="translate(-0.03 3.09)"/><path class="cls-57" d="M521.4,883.33c.34-.16.55-.15.62,0a.7.7,0,0,1-.06.62,4.74,4.74,0,0,1-.7,1,6.94,6.94,0,0,1-.92.87l-1.77,1.6q-.72.62-1.2,1l-.81.6-.6.41c-.71.43-1.4.85-2.1,1.24a8.5,8.5,0,0,1-2,.88,4.82,4.82,0,0,1-2.79,0,3.31,3.31,0,0,1-2.05-1.63,5.77,5.77,0,0,1-.64-3.3,10.21,10.21,0,0,1,.94-3.6,9.24,9.24,0,0,1,2.15-3,4.69,4.69,0,0,1,3-1.31,1.34,1.34,0,0,1,1,.3,1.66,1.66,0,0,1,.66.9,1.76,1.76,0,0,1,.05.92c-.06.34-.15.72-.25,1.13s-.23.87-.35,1.36-.23,1-.32,1.52c-.06.19-.15.29-.26.3s-.2,0-.3-.21a4.12,4.12,0,0,1-.62-1.49c-.08-.48-.16-.93-.25-1.36-.19,0-.42.17-.72.53a8,8,0,0,0-.85,1.31,9,9,0,0,0-.69,1.68,5.33,5.33,0,0,0-.28,1.59,2.7,2.7,0,0,0,.28,1.39,1.08,1.08,0,0,0,.69.55,2,2,0,0,0,1-.05,5.54,5.54,0,0,0,1.11-.41q2.43-1.15,4.7-2.47A35.73,35.73,0,0,0,521.4,883.33Z" transform="translate(-0.03 3.09)"/><path class="cls-57" d="M526.38,889.64l-.92.72a6.91,6.91,0,0,1-1.11.69,6,6,0,0,1-1.27.46,3.14,3.14,0,0,1-1.4,0,2.64,2.64,0,0,1-1-.39,5.75,5.75,0,0,1-.87-.71,2,2,0,0,1-.51-1.2,6.23,6.23,0,0,1,0-1.24,24.38,24.38,0,0,1,.65-2.54,23.34,23.34,0,0,1,1-2.63,14.83,14.83,0,0,1,2.59-3.78,7,7,0,0,1,3.78-2.12,4,4,0,0,1,1.54-.07,3.24,3.24,0,0,1,1.41.53,2.87,2.87,0,0,1,.92,1,1.91,1.91,0,0,1,.14,1.36c-.06.18-.13.37-.21.55a1.56,1.56,0,0,1-.28.46.51.51,0,0,1-.3.21c-.09,0-.18-.07-.27-.25l-.12-.4a1.91,1.91,0,0,0-.21-.5,1.41,1.41,0,0,0-.39-.46,1,1,0,0,0-.67-.21,3.08,3.08,0,0,0-2,1.08,17.71,17.71,0,0,0-2.12,2.54,24.83,24.83,0,0,0-1.75,2.9,11.73,11.73,0,0,0-.92,2.19c-.19.8-.17,1.22,0,1.27s.56-.12,1-.51a14,14,0,0,0,1.57-1.59c.58-.67,1.13-1.34,1.66-2s1-1.25,1.35-1.76l.63-.8a1.73,1.73,0,0,1,1.2-.42,1.69,1.69,0,0,1,1,.44,2,2,0,0,1,.6,1,1.68,1.68,0,0,1-.11,1.18c-.22.49-.5,1.07-.86,1.75a6.24,6.24,0,0,0-.66,1.8c-.1.8,0,1.32.27,1.56s.79.23,1.52,0a6.27,6.27,0,0,0,1.85-1.32c.64-.63,1.28-1.3,1.91-2l1.78-2a12.13,12.13,0,0,1,1.38-1.43,4.06,4.06,0,0,1,.35-.3c.13-.11.25-.13.34-.07s.24.15.25.25a2,2,0,0,1,0,.35,23.6,23.6,0,0,1-1.43,2.9,18.1,18.1,0,0,1-1.87,2.66,14.23,14.23,0,0,1-2.3,2.16,11.13,11.13,0,0,1-2.75,1.5,3.34,3.34,0,0,1-1.66.21,3.21,3.21,0,0,1-2.3-1.59A4.22,4.22,0,0,1,526.38,889.64Z" transform="translate(-0.03 3.09)"/><path class="cls-57" d="M539,896a.76.76,0,0,0,1.13.55,6.26,6.26,0,0,0,2-1.38,27,27,0,0,0,2.38-2.58c.83-1,1.62-2,2.37-3s1.41-1.87,2-2.67.92-1.32,1.11-1.57a4.37,4.37,0,0,1,.53-.69,5.92,5.92,0,0,1,.76-.69l.44-.3a.65.65,0,0,1,.44-.14c.12,0,.17.11.16.3a3.14,3.14,0,0,1-.35.92c-.18.37-.48.93-.87,1.68s-.9,1.6-1.48,2.54-1.23,1.91-1.94,2.9a23.87,23.87,0,0,1-2.28,2.79,19.88,19.88,0,0,1-2.49,2.26,6.47,6.47,0,0,1-2.56,1.25,10.79,10.79,0,0,1-2.12.3,2.29,2.29,0,0,1-1.7-.72,3,3,0,0,1-.79-2,12.88,12.88,0,0,1,.12-2.74,25.12,25.12,0,0,1,.57-2.82c.25-.9.45-1.6.6-2.09.5-1.6,1-3.18,1.41-4.73s.88-3.11,1.31-4.68c.47-1.38.89-2.8,1.27-4.26s.78-2.78,1.18-3.95q-.93,0-1.89-.06l-1.94,0c-.65,0-1.28-.05-1.91-.12a9.86,9.86,0,0,1-1.78-.32,2,2,0,0,1-1.08-.6,1.15,1.15,0,0,1-.32-.83.92.92,0,0,1,.46-.71,2.23,2.23,0,0,1,1.27-.3c.33,0,.89,0,1.65.09s1.58.11,2.43.14,1.62,0,2.35,0a4.51,4.51,0,0,0,1.4-.16c.09,0,.14-.08.14-.14l.6-1.75c.22-.61.43-1.21.65-1.8s.42-1.14.62-1.66.37-1,.53-1.34a.64.64,0,0,1,.76-.34,3.57,3.57,0,0,1,1.2.39,4.13,4.13,0,0,1,1.08.81,1.16,1.16,0,0,1,.42.9,8.32,8.32,0,0,1-.65,2.35,15.59,15.59,0,0,0-.87,2.63l5-.07,4.08,0,1.29,0a4.52,4.52,0,0,1,1,.11c.23.06.28.15.16.26a4.29,4.29,0,0,1-1.2.43,42.77,42.77,0,0,1-5.62,1.41q-2.73.48-5.35.71c-.15,0-.22.07-.21.1s0,.12-.11.27a.16.16,0,0,1,0,.1.14.14,0,0,0,0,.09q-.74,2-1.61,4.56c-.58,1.69-1.17,3.43-1.75,5.21s-1.14,3.54-1.66,5.26-1,3.28-1.34,4.68-.64,2.56-.8,3.5A3,3,0,0,0,539,896Z" transform="translate(-0.03 3.09)"/><path class="cls-57" d="M560.77,882.73l.56-.55h0v.09a3,3,0,0,1-.18,1.59,5.34,5.34,0,0,0-.28.57c-.31.47-.72,1.06-1.24,1.78s-1.07,1.46-1.64,2.21-1.11,1.45-1.64,2.08a13.65,13.65,0,0,1-1.24,1.36,11.33,11.33,0,0,1-1.2,1.2,2.1,2.1,0,0,1-.62.32,5.34,5.34,0,0,1-.81.21,3.15,3.15,0,0,1-.81,0,1.24,1.24,0,0,1-.62-.23,3.94,3.94,0,0,1-1.22-1.22,2.93,2.93,0,0,1-.44-1.55,19.56,19.56,0,0,1,.44-5.18,37.24,37.24,0,0,1,1.36-4.82,7.12,7.12,0,0,1,.65-1.34.87.87,0,0,1,1-.23,2.08,2.08,0,0,1,1,.76,3.75,3.75,0,0,1,.65,1.41,2.86,2.86,0,0,1-.07,1.66c-.15.52-.29,1-.41,1.5s-.27,1-.42,1.49c-.06.25-.16.6-.3,1.06s-.28,1-.44,1.46-.29,1-.41,1.45a8.82,8.82,0,0,0-.23,1.06c-.06.46.06.58.37.37a11.71,11.71,0,0,0,1.24-1.11q1.89-1.93,3.6-3.76T560.77,882.73Zm-6.45-5.53c-.22.21-.37.21-.46,0a5.41,5.41,0,0,1-.79-1.94,3.83,3.83,0,0,1,.19-2,1.76,1.76,0,0,1,.81-1,1.38,1.38,0,0,1,1.13-.25,2.79,2.79,0,0,1,.6.3.93.93,0,0,1,.41.48,3,3,0,0,1-.35,2.4A9.86,9.86,0,0,1,554.32,877.2Z" transform="translate(-0.03 3.09)"/><path class="cls-57" d="M570,883.37a4.86,4.86,0,0,0,1.2-.27,10.67,10.67,0,0,1,1.2-.37c.43-.12.88-.27,1.36-.44a10.13,10.13,0,0,1,1.36-.39c.3,0,.43.08.37.25a2,2,0,0,1-.44.6,6.62,6.62,0,0,1-.79.67,7.86,7.86,0,0,1-.66.46,13.47,13.47,0,0,1-2.19.79,9.12,9.12,0,0,0-2.06.78c-.27.49-.66,1.14-1.15,2a23.31,23.31,0,0,1-1.64,2.37,13.37,13.37,0,0,1-1.89,2,3,3,0,0,1-1.91.83,3.43,3.43,0,0,1-2.21-.74,2.8,2.8,0,0,1-1-1.43,7.83,7.83,0,0,1-.42-2.1,12.47,12.47,0,0,1,.07-2.21,14.07,14.07,0,0,1,.33-1.78,1,1,0,0,1,.13-.44.85.85,0,0,1,.19-.16l.21-.09a.48.48,0,0,0,.2-.18c.1-.34.19-.7.28-1.06a3.54,3.54,0,0,1,.42-1,11.46,11.46,0,0,1,2-2.56,4.83,4.83,0,0,1,2.84-1.36,3.84,3.84,0,0,1,1.86.09,3.22,3.22,0,0,1,1.5,1.07,3.57,3.57,0,0,1,.79,1.31,6,6,0,0,1,.27,1.38,5.35,5.35,0,0,1,0,1.22C570,882.91,570,883.19,570,883.37Zm-6.73,7.57a2.32,2.32,0,0,0,1-.67,9.79,9.79,0,0,0,1.11-1.32,12.5,12.5,0,0,0,.92-1.49,6.82,6.82,0,0,0,.53-1.27q-.91.09-2,.09a9.51,9.51,0,0,1-2-.19,4.59,4.59,0,0,0-.19,1.09,10.59,10.59,0,0,0,0,1.38,9.48,9.48,0,0,0,.19,1.36A3.08,3.08,0,0,0,563.22,890.94Zm4.1-7.1a.32.32,0,0,0,.19-.1.26.26,0,0,0,.09-.18,4.69,4.69,0,0,0,.34-1.94,2.36,2.36,0,0,0-.67-1.7,1.18,1.18,0,0,0-.83-.42,1.7,1.7,0,0,0-1,.19A4.94,4.94,0,0,0,564,881c-.37.49-.72,1-1.06,1.52a.45.45,0,0,0,.09.32,1.09,1.09,0,0,1,.42.92c0,.16.17.25.53.28a9.27,9.27,0,0,0,1.2,0,10.85,10.85,0,0,0,1.29-.11A7.14,7.14,0,0,1,567.32,883.84Z" transform="translate(-0.03 3.09)"/><path class="cls-57" d="M574.28,891a2,2,0,0,1-.27.46q-.74.51-1-.27c-.06-.25-.1-.48-.14-.7a4.93,4.93,0,0,1,0-.69c0-.67,0-1.35,0-2a15.3,15.3,0,0,1,.55-2.51,28.34,28.34,0,0,1,1-2.7c.39-.89.79-1.72,1.2-2.51a15.18,15.18,0,0,1,1.18-1.91,1,1,0,0,1,.76-.46,1.47,1.47,0,0,1,.94.23,1.92,1.92,0,0,1,.74.78,1.6,1.6,0,0,1,.14,1.15l-.18.28a4,4,0,0,0-.28.51l-.28.53a1.78,1.78,0,0,1-.18.3,12.29,12.29,0,0,0,1-.83c.34-.31.68-.6,1-.88a8,8,0,0,1,1.08-.71,2.48,2.48,0,0,1,1.2-.3,2.23,2.23,0,0,1,1.38.44,3.89,3.89,0,0,1,1,1.06,3.24,3.24,0,0,1,.48,1.33,3.42,3.42,0,0,1-.09,1.36,11.37,11.37,0,0,1-1.15,2.42c-.5.79-1,1.56-1.5,2.33s-1,1.55-1.41,2.33a8.93,8.93,0,0,0-.92,2.42c-.19.65-.19,1.05,0,1.2a.63.63,0,0,0,.66.09,3,3,0,0,0,.86-.46l.62-.46a31.08,31.08,0,0,0,3.55-3.25q1.67-1.77,3.27-3.39a8.43,8.43,0,0,1,1.73-1.5c.23-.07.26.08.09.46a14.19,14.19,0,0,1-.83,1.55c-.38.64-.73,1.21-1,1.7s-.88,1.36-1.52,2.24a26.77,26.77,0,0,1-2.15,2.54,15.76,15.76,0,0,1-2.42,2.07,4.15,4.15,0,0,1-2.3.85,2.73,2.73,0,0,1-1.39-.34,3.52,3.52,0,0,1-1-.86,3.2,3.2,0,0,1-.62-1.15,4.15,4.15,0,0,1-.21-1.29,11.41,11.41,0,0,1,.94-4.52,38.21,38.21,0,0,1,2-4c.34-.65.43-1.1.28-1.34s-.6-.2-1.34.14a4.29,4.29,0,0,0-1.71,1.49,20.9,20.9,0,0,0-1.45,2.36c-.45.84-.85,1.68-1.22,2.51A16,16,0,0,1,574.28,891Z" transform="translate(-0.03 3.09)"/><path class="cls-57" d="M529.38,941.93a7.83,7.83,0,0,0,2-.47c.72-.25,1.39-.46,2-.62s1.48-.45,2.28-.73a20.18,20.18,0,0,1,2.28-.66c.52,0,.73.14.62.43a3,3,0,0,1-.73,1,11.42,11.42,0,0,1-1.32,1.12c-.49.37-.86.62-1.12.78a21.59,21.59,0,0,1-3.67,1.31,15.7,15.7,0,0,0-3.44,1.32c-.47.82-1.11,1.92-1.94,3.28a40.36,40.36,0,0,1-2.74,4,22.43,22.43,0,0,1-3.17,3.32,5.08,5.08,0,0,1-3.21,1.39,5.79,5.79,0,0,1-3.72-1.23,4.71,4.71,0,0,1-1.74-2.4,12.64,12.64,0,0,1-.69-3.52,19.89,19.89,0,0,1,.11-3.71,25.68,25.68,0,0,1,.54-3,1.61,1.61,0,0,1,.24-.73.85.85,0,0,1,.31-.27,2.68,2.68,0,0,1,.34-.16.73.73,0,0,0,.35-.31c.16-.56.31-1.16.47-1.78a6.07,6.07,0,0,1,.69-1.7,18.69,18.69,0,0,1,3.37-4.29,7.93,7.93,0,0,1,4.75-2.28,6.33,6.33,0,0,1,3.14.15,5.38,5.38,0,0,1,2.51,1.78,6,6,0,0,1,1.31,2.2,9.73,9.73,0,0,1,.47,2.33,9,9,0,0,1-.08,2C529.51,941.15,529.43,941.62,529.38,941.93Zm-11.29,12.68a3.76,3.76,0,0,0,1.74-1.12,17.89,17.89,0,0,0,1.85-2.2,19.9,19.9,0,0,0,1.55-2.52,11.21,11.21,0,0,0,.89-2.12q-1.54.15-3.33.15a16.64,16.64,0,0,1-3.32-.31,7.18,7.18,0,0,0-.31,1.82,18,18,0,0,0,0,2.32,14.75,14.75,0,0,0,.31,2.28A5.19,5.19,0,0,0,518.09,954.61ZM525,942.7a.45.45,0,0,0,.31-.15.47.47,0,0,0,.15-.31A7.68,7.68,0,0,0,526,939a4,4,0,0,0-1.12-2.86,2,2,0,0,0-1.39-.7,2.93,2.93,0,0,0-1.62.31,8.4,8.4,0,0,0-2.48,2.17c-.62.82-1.21,1.67-1.78,2.55a.71.71,0,0,0,.16.54,1.82,1.82,0,0,1,.69,1.55c0,.25.3.41.89.46a18.48,18.48,0,0,0,2,0,21.36,21.36,0,0,0,2.17-.19A10.81,10.81,0,0,1,525,942.7Z" transform="translate(-0.03 3.09)"/><path class="cls-57" d="M551.88,935.74a.32.32,0,0,1,.08-.23.07.07,0,0,1,.08-.08q2.4-5.1,4.76-9.86t4.79-9.17q2.45-4.39,5.11-8.5t5.68-8c1.13-1.29,2-1.86,2.74-1.7a2.2,2.2,0,0,1,1.55,1.59,10.27,10.27,0,0,1,.58,3.2,17.45,17.45,0,0,1-.08,3,65,65,0,0,1-3.13,9.59q-2,4.8-4.44,9.55c-1.66,3.17-3.43,6.33-5.34,9.48s-3.84,6.29-5.8,9.43a3.37,3.37,0,0,0-.58,1,9.27,9.27,0,0,0-.35,1.12c-.1.47-.22,1.12-.35,2a22.49,22.49,0,0,0-.23,2.67,11.4,11.4,0,0,0,.19,2.55,1.94,1.94,0,0,0,.85,1.47,3.51,3.51,0,0,0,2.71-.19,19.46,19.46,0,0,0,3.79-2,44.76,44.76,0,0,0,4.06-3,40,40,0,0,0,3.52-3.25c.1-.1.26-.09.46,0a1.39,1.39,0,0,1,.51.58,1.63,1.63,0,0,1,.15.89,1.43,1.43,0,0,1-.58,1c-1.19,1-2.64,2.33-4.37,3.9a57.43,57.43,0,0,1-5.41,4.37,25.83,25.83,0,0,1-5.53,3.06,5.51,5.51,0,0,1-4.64,0,5.2,5.2,0,0,1-2.52-3,14.56,14.56,0,0,1-.81-4.49,31.72,31.72,0,0,1,.2-4.79c.17-1.57.34-2.82.5-3.75a1.09,1.09,0,0,0-.27.42,4.11,4.11,0,0,1-.27.51c-.73.82-1.55,1.81-2.48,3a26.48,26.48,0,0,1-3,3.21,12.94,12.94,0,0,1-3.52,2.25,5.07,5.07,0,0,1-3.79.07,7.58,7.58,0,0,1-1.9-1.51,3.34,3.34,0,0,1-.81-2.35,16.35,16.35,0,0,1,1.12-5.8,18,18,0,0,1,3.06-5.23,14.82,14.82,0,0,1,4.56-3.63,10.35,10.35,0,0,1,5.65-1.12,15.62,15.62,0,0,1,1.74.42,3.34,3.34,0,0,1,1.5,1Zm-12.14,11.68.16.23q2.63-2.08,5.29-4.14c1.78-1.36,3.63-2.72,5.53-4.06a4.72,4.72,0,0,0-3.52-.19,10.57,10.57,0,0,0-3.55,1.93,13.41,13.41,0,0,0-2.79,3.1A6,6,0,0,0,539.74,947.42Zm34.73-38.59a136.25,136.25,0,0,0-8.66,15.39,146.61,146.61,0,0,0-6.66,16.31c1.19-2.16,2.6-4.64,4.22-7.42s3.21-5.63,4.76-8.55,2.91-5.74,4.09-8.5A30.09,30.09,0,0,0,574.47,908.83Z" transform="translate(-0.03 3.09)"/><path class="cls-57" d="M569.44,950.28a21,21,0,0,1,.62-6.11,21.86,21.86,0,0,1,2.32-5.84,14,14,0,0,1,3.9-4.37,9.67,9.67,0,0,1,5.53-1.78,4.17,4.17,0,0,1,2.52,1.63,3.62,3.62,0,0,1,.5,3,11.28,11.28,0,0,1-.89,2.9,9.06,9.06,0,0,1-2,2.52c-.47.41-1.11,1-1.93,1.62s-1.63,1.37-2.4,2.09a16.84,16.84,0,0,0-2,2.2,3.38,3.38,0,0,0-.85,1.9c-.16,1.34.05,2.2.61,2.59a3.3,3.3,0,0,0,2.21.46,8.34,8.34,0,0,0,2.74-.73c.93-.41,1.68-.78,2.25-1.08.67-.47,1.41-1,2.24-1.74s1.65-1.44,2.48-2.21l2.39-2.24c.78-.72,1.42-1.32,1.94-1.78s.78-.8,1.12-1.16a4.69,4.69,0,0,1,1.2-.93,2.27,2.27,0,0,1,1-.08c.24.06.2.44-.11,1.16a13.92,13.92,0,0,1-1.51,2.48c-.59.77-1.23,1.55-1.9,2.32-.92,1-1.92,2.11-3,3.25a34.91,34.91,0,0,1-3.33,3.13,23.74,23.74,0,0,1-3.63,2.47,11.85,11.85,0,0,1-3.91,1.36,8.58,8.58,0,0,1-5.84-1.47C570.2,954.71,569.44,952.86,569.44,950.28Zm12.37-14.54a8.81,8.81,0,0,0-3.28,2,7.52,7.52,0,0,0-1.74,3.64,32.22,32.22,0,0,0,3.05-2.52A7.44,7.44,0,0,0,581.81,935.74Z" transform="translate(-0.03 3.09)"/></svg>