<svg xmlns="http://www.w3.org/2000/svg" xmlns:xlink="http://www.w3.org/1999/xlink" viewBox="0 0 1171.11 1269.3"><defs><style>.cls-1{opacity:0.5;}.cls-2{fill:url(#linear-gradient);}.cls-3{fill:url(#linear-gradient-2);}.cls-4{fill:url(#linear-gradient-3);}.cls-5{fill:url(#linear-gradient-4);}.cls-6{fill:url(#linear-gradient-5);}.cls-7{fill:url(#linear-gradient-6);}.cls-8{fill:url(#linear-gradient-7);}.cls-9{fill:url(#linear-gradient-8);}.cls-10{fill:url(#linear-gradient-9);}.cls-11{fill:url(#linear-gradient-10);}.cls-12{fill:url(#linear-gradient-11);}.cls-13{fill:url(#linear-gradient-12);}.cls-14{fill:url(#linear-gradient-13);}.cls-15{fill:url(#linear-gradient-14);}.cls-16{fill:url(#linear-gradient-15);}.cls-17{fill:url(#linear-gradient-16);}.cls-18{fill:url(#linear-gradient-17);}.cls-19{fill:url(#linear-gradient-18);}.cls-20{fill:url(#linear-gradient-19);}.cls-21{fill:url(#linear-gradient-20);}.cls-22{fill:url(#linear-gradient-21);}.cls-23{fill:url(#linear-gradient-22);}.cls-24{fill:url(#linear-gradient-23);}.cls-25{fill:url(#linear-gradient-24);}.cls-26{fill:url(#linear-gradient-25);}.cls-27{fill:url(#linear-gradient-26);}.cls-28{fill:url(#linear-gradient-27);}.cls-29{fill:url(#linear-gradient-28);}.cls-30{fill:url(#linear-gradient-29);}.cls-31{fill:url(#linear-gradient-30);}.cls-32{fill:url(#linear-gradient-31);}.cls-33{fill:url(#linear-gradient-32);}.cls-34{fill:url(#linear-gradient-33);}.cls-35{fill:url(#linear-gradient-34);}.cls-36{fill:url(#linear-gradient-35);}.cls-37{fill:url(#linear-gradient-36);}.cls-38{fill:url(#linear-gradient-37);}.cls-39{fill:url(#linear-gradient-38);}.cls-40{fill:url(#linear-gradient-39);}.cls-41{fill:url(#linear-gradient-40);}.cls-42{fill:url(#linear-gradient-41);}.cls-43{fill:url(#linear-gradient-42);}.cls-44{fill:url(#linear-gradient-43);}.cls-45{fill:url(#linear-gradient-44);}.cls-46{fill:url(#linear-gradient-45);}.cls-47{fill:url(#linear-gradient-46);}.cls-48{fill:url(#linear-gradient-47);}.cls-49{fill:url(#linear-gradient-48);}.cls-50{fill:url(#linear-gradient-49);}.cls-51{fill:url(#linear-gradient-50);}.cls-52{fill:url(#linear-gradient-51);}.cls-53{fill:url(#linear-gradient-52);}.cls-54{fill:url(#linear-gradient-53);}.cls-55{fill:url(#linear-gradient-54);}.cls-56{fill:url(#linear-gradient-55);}.cls-57{fill:url(#linear-gradient-56);}.cls-58{fill:url(#linear-gradient-57);}.cls-59{fill:url(#linear-gradient-58);}.cls-60{fill:url(#linear-gradient-59);}.cls-61{fill:url(#linear-gradient-60);}.cls-62{fill:url(#linear-gradient-61);}.cls-63{fill:url(#linear-gradient-62);}.cls-64{fill:url(#linear-gradient-63);}.cls-65{fill:url(#linear-gradient-64);}.cls-66{fill:url(#linear-gradient-65);}.cls-67{fill:url(#linear-gradient-66);}.cls-68{fill:url(#linear-gradient-67);}.cls-69{fill:url(#linear-gradient-68);}.cls-70{fill:url(#linear-gradient-69);}.cls-71{fill:url(#linear-gradient-70);}.cls-72{fill:url(#linear-gradient-71);}.cls-73{fill:url(#linear-gradient-72);}.cls-74{fill:url(#linear-gradient-73);}.cls-75{fill:url(#linear-gradient-74);}.cls-76{fill:url(#linear-gradient-75);}.cls-77{fill:url(#linear-gradient-76);}.cls-78{fill:url(#linear-gradient-77);}.cls-79{fill:url(#linear-gradient-78);}.cls-80{fill:url(#linear-gradient-79);}.cls-81{fill:url(#linear-gradient-80);}</style><linearGradient id="linear-gradient" x1="1066.76" y1="-219.63" x2="-45.32" y2="1332.28" gradientUnits="userSpaceOnUse"><stop offset="0" stop-color="#feff5f"/><stop offset="0.4" stop-color="#ff6356"/><stop offset="1" stop-color="#9b5151"/></linearGradient><linearGradient id="linear-gradient-2" x1="1150.94" y1="-159.31" x2="38.85" y2="1392.6" xlink:href="#linear-gradient"/><linearGradient id="linear-gradient-3" x1="1082.03" y1="-208.69" x2="-30.05" y2="1343.22" xlink:href="#linear-gradient"/><linearGradient id="linear-gradient-4" x1="983.71" y1="-279.14" x2="-128.37" y2="1272.76" xlink:href="#linear-gradient"/><linearGradient id="linear-gradient-5" x1="1116.45" y1="-184.02" x2="4.37" y2="1367.89" xlink:href="#linear-gradient"/><linearGradient id="linear-gradient-6" x1="1115.32" y1="-184.83" x2="3.24" y2="1367.08" xlink:href="#linear-gradient"/><linearGradient id="linear-gradient-7" x1="970.57" y1="-288.56" x2="-141.52" y2="1263.34" xlink:href="#linear-gradient"/><linearGradient id="linear-gradient-8" x1="1002.7" y1="-265.53" x2="-109.38" y2="1286.38" xlink:href="#linear-gradient"/><linearGradient id="linear-gradient-9" x1="1114.42" y1="-185.48" x2="2.34" y2="1366.43" xlink:href="#linear-gradient"/><linearGradient id="linear-gradient-10" x1="1035.74" y1="-241.86" x2="-76.34" y2="1310.05" xlink:href="#linear-gradient"/><linearGradient id="linear-gradient-11" x1="1107.16" y1="-190.68" x2="-4.92" y2="1361.23" xlink:href="#linear-gradient"/><linearGradient id="linear-gradient-12" x1="1194.79" y1="-127.88" x2="82.71" y2="1424.02" xlink:href="#linear-gradient"/><linearGradient id="linear-gradient-13" x1="1224.99" y1="-106.25" x2="112.91" y2="1445.66" xlink:href="#linear-gradient"/><linearGradient id="linear-gradient-14" x1="1181.66" y1="-137.3" x2="69.57" y2="1414.61" xlink:href="#linear-gradient"/><linearGradient id="linear-gradient-15" x1="984.58" y1="-278.52" x2="-127.5" y2="1273.39" xlink:href="#linear-gradient"/><linearGradient id="linear-gradient-16" x1="1181.62" y1="-137.33" x2="69.54" y2="1414.58" xlink:href="#linear-gradient"/><linearGradient id="linear-gradient-17" x1="1174.09" y1="-142.72" x2="62.01" y2="1409.19" xlink:href="#linear-gradient"/><linearGradient id="linear-gradient-18" x1="963.59" y1="-293.56" x2="-148.49" y2="1258.35" xlink:href="#linear-gradient"/><linearGradient id="linear-gradient-19" x1="1000.3" y1="-267.26" x2="-111.78" y2="1284.65" xlink:href="#linear-gradient"/><linearGradient id="linear-gradient-20" x1="973.47" y1="-286.48" x2="-138.61" y2="1265.43" xlink:href="#linear-gradient"/><linearGradient id="linear-gradient-21" x1="990.41" y1="-274.34" x2="-121.67" y2="1277.56" xlink:href="#linear-gradient"/><linearGradient id="linear-gradient-22" x1="961.73" y1="-294.9" x2="-150.35" y2="1257.01" xlink:href="#linear-gradient"/><linearGradient id="linear-gradient-23" x1="911.76" y1="-330.7" x2="-200.32" y2="1221.21" xlink:href="#linear-gradient"/><linearGradient id="linear-gradient-24" x1="987.69" y1="-276.29" x2="-124.39" y2="1275.62" xlink:href="#linear-gradient"/><linearGradient id="linear-gradient-25" x1="1012.31" y1="-258.65" x2="-99.77" y2="1293.26" xlink:href="#linear-gradient"/><linearGradient id="linear-gradient-26" x1="928.11" y1="-318.98" x2="-183.97" y2="1232.92" xlink:href="#linear-gradient"/><linearGradient id="linear-gradient-27" x1="984.32" y1="-278.71" x2="-127.77" y2="1273.2" xlink:href="#linear-gradient"/><linearGradient id="linear-gradient-28" x1="1024.28" y1="-250.07" x2="-87.8" y2="1301.84" xlink:href="#linear-gradient"/><linearGradient id="linear-gradient-29" x1="1002.32" y1="-265.81" x2="-109.76" y2="1286.1" xlink:href="#linear-gradient"/><linearGradient id="linear-gradient-30" x1="922.28" y1="-323.16" x2="-189.8" y2="1228.74" xlink:href="#linear-gradient"/><linearGradient id="linear-gradient-31" x1="947.58" y1="-305.04" x2="-164.51" y2="1246.87" xlink:href="#linear-gradient"/><linearGradient id="linear-gradient-32" x1="1029.67" y1="-246.21" x2="-82.41" y2="1305.7" xlink:href="#linear-gradient"/><linearGradient id="linear-gradient-33" x1="973.22" y1="-286.66" x2="-138.86" y2="1265.25" xlink:href="#linear-gradient"/><linearGradient id="linear-gradient-34" x1="1030.71" y1="-245.46" x2="-81.37" y2="1306.45" xlink:href="#linear-gradient"/><linearGradient id="linear-gradient-35" x1="931.07" y1="-316.86" x2="-181.01" y2="1235.05" xlink:href="#linear-gradient"/><linearGradient id="linear-gradient-36" x1="969.74" y1="-289.16" x2="-142.34" y2="1262.75" xlink:href="#linear-gradient"/><linearGradient id="linear-gradient-37" x1="954.44" y1="-300.12" x2="-157.64" y2="1251.79" xlink:href="#linear-gradient"/><linearGradient id="linear-gradient-38" x1="983.03" y1="-279.63" x2="-129.05" y2="1272.28" xlink:href="#linear-gradient"/><linearGradient id="linear-gradient-39" x1="944.75" y1="-307.07" x2="-167.34" y2="1244.84" xlink:href="#linear-gradient"/><linearGradient id="linear-gradient-40" x1="983.61" y1="-279.22" x2="-128.47" y2="1272.69" xlink:href="#linear-gradient"/><linearGradient id="linear-gradient-41" x1="934.44" y1="-314.45" x2="-177.64" y2="1237.46" xlink:href="#linear-gradient"/><linearGradient id="linear-gradient-42" x1="963.24" y1="-293.81" x2="-148.84" y2="1258.1" xlink:href="#linear-gradient"/><linearGradient id="linear-gradient-43" x1="958.13" y1="-297.48" x2="-153.95" y2="1254.43" xlink:href="#linear-gradient"/><linearGradient id="linear-gradient-44" x1="1185.09" y1="-134.84" x2="73" y2="1417.07" xlink:href="#linear-gradient"/><linearGradient id="linear-gradient-45" x1="1049.97" y1="-231.66" x2="-62.11" y2="1320.24" xlink:href="#linear-gradient"/><linearGradient id="linear-gradient-46" x1="1078.45" y1="-211.26" x2="-33.64" y2="1340.65" xlink:href="#linear-gradient"/><linearGradient id="linear-gradient-47" x1="1008.53" y1="-261.36" x2="-103.56" y2="1290.55" xlink:href="#linear-gradient"/><linearGradient id="linear-gradient-48" x1="995.74" y1="-270.53" x2="-116.34" y2="1281.38" xlink:href="#linear-gradient"/><linearGradient id="linear-gradient-49" x1="998.7" y1="-268.41" x2="-113.39" y2="1283.5" xlink:href="#linear-gradient"/><linearGradient id="linear-gradient-50" x1="968.66" y1="-289.93" x2="-143.42" y2="1261.98" xlink:href="#linear-gradient"/><linearGradient id="linear-gradient-51" x1="1067.44" y1="-219.15" x2="-44.65" y2="1332.76" xlink:href="#linear-gradient"/><linearGradient id="linear-gradient-52" x1="1021.13" y1="-252.33" x2="-90.95" y2="1299.58" xlink:href="#linear-gradient"/><linearGradient id="linear-gradient-53" x1="1092.2" y1="-201.4" x2="-19.88" y2="1350.51" xlink:href="#linear-gradient"/><linearGradient id="linear-gradient-54" x1="1018.69" y1="-254.08" x2="-93.39" y2="1297.83" xlink:href="#linear-gradient"/><linearGradient id="linear-gradient-55" x1="974.38" y1="-285.83" x2="-137.7" y2="1266.08" xlink:href="#linear-gradient"/><linearGradient id="linear-gradient-56" x1="977.46" y1="-283.62" x2="-134.62" y2="1268.29" xlink:href="#linear-gradient"/><linearGradient id="linear-gradient-57" x1="958.45" y1="-297.24" x2="-153.63" y2="1254.67" xlink:href="#linear-gradient"/><linearGradient id="linear-gradient-58" x1="1095.86" y1="-198.78" x2="-16.22" y2="1353.13" xlink:href="#linear-gradient"/><linearGradient id="linear-gradient-59" x1="1046.85" y1="-233.9" x2="-65.24" y2="1318.01" xlink:href="#linear-gradient"/><linearGradient id="linear-gradient-60" x1="1026.29" y1="-248.64" x2="-85.8" y2="1303.27" xlink:href="#linear-gradient"/><linearGradient id="linear-gradient-61" x1="1025.63" y1="-249.11" x2="-86.46" y2="1302.8" xlink:href="#linear-gradient"/><linearGradient id="linear-gradient-62" x1="1012.46" y1="-258.54" x2="-99.62" y2="1293.37" xlink:href="#linear-gradient"/><linearGradient id="linear-gradient-63" x1="1086.51" y1="-205.48" x2="-25.57" y2="1346.43" xlink:href="#linear-gradient"/><linearGradient id="linear-gradient-64" x1="1020.83" y1="-252.54" x2="-91.25" y2="1299.37" xlink:href="#linear-gradient"/><linearGradient id="linear-gradient-65" x1="947.87" y1="-304.83" x2="-164.21" y2="1247.08" xlink:href="#linear-gradient"/><linearGradient id="linear-gradient-66" x1="1035.68" y1="-241.9" x2="-76.4" y2="1310.01" xlink:href="#linear-gradient"/><linearGradient id="linear-gradient-67" x1="1015.84" y1="-256.12" x2="-96.24" y2="1295.79" xlink:href="#linear-gradient"/><linearGradient id="linear-gradient-68" x1="1014.08" y1="-257.38" x2="-98.01" y2="1294.52" xlink:href="#linear-gradient"/><linearGradient id="linear-gradient-69" x1="998.67" y1="-268.43" x2="-113.42" y2="1283.48" xlink:href="#linear-gradient"/><linearGradient id="linear-gradient-70" x1="1018.74" y1="-254.05" x2="-93.35" y2="1297.86" xlink:href="#linear-gradient"/><linearGradient id="linear-gradient-71" x1="1014.13" y1="-257.34" x2="-97.95" y2="1294.56" xlink:href="#linear-gradient"/><linearGradient id="linear-gradient-72" x1="1060.15" y1="-224.37" x2="-51.93" y2="1327.54" xlink:href="#linear-gradient"/><linearGradient id="linear-gradient-73" x1="1034.3" y1="-242.89" x2="-77.78" y2="1309.02" xlink:href="#linear-gradient"/><linearGradient id="linear-gradient-74" x1="1023.11" y1="-250.91" x2="-88.97" y2="1301" xlink:href="#linear-gradient"/><linearGradient id="linear-gradient-75" x1="1006.79" y1="-262.61" x2="-105.29" y2="1289.3" xlink:href="#linear-gradient"/><linearGradient id="linear-gradient-76" x1="1006.66" y1="-262.7" x2="-105.42" y2="1289.21" xlink:href="#linear-gradient"/><linearGradient id="linear-gradient-77" x1="951.67" y1="-302.1" x2="-160.41" y2="1249.81" xlink:href="#linear-gradient"/><linearGradient id="linear-gradient-78" x1="1083" y1="-207.99" x2="-29.08" y2="1343.91" xlink:href="#linear-gradient"/><linearGradient id="linear-gradient-79" x1="1018.84" y1="-253.97" x2="-93.25" y2="1297.94" xlink:href="#linear-gradient"/><linearGradient id="linear-gradient-80" x1="1006.49" y1="-262.82" x2="-105.6" y2="1289.08" xlink:href="#linear-gradient"/></defs><g id="Layer_2" data-name="Layer 2"><g id="elements"><g id="NorgeVectorSafe_copy_4" data-name="NorgeVectorSafe copy 4"><g id="SørNorge" class="cls-1"><path class="cls-2" d="M280.68,748.83c-.91-2.16-1.7-4-2.49-5.88,2.11-.84,4.16-2.24,6.32-2.41,4.29-.34,8.69.49,10.75-5,.42-1.13,3.29-2.23,4.64-1.87a5.46,5.46,0,0,1,3.25,3.92c.44,5.41,2.16,9.9,6.19,13.7.89.85.59,3.46.18,5.09-.72,2.85-1.95,5.56-3.15,8.84a37.94,37.94,0,0,0,5.88,1.26c2.85.14,4.59-.77,3-4.2-1.79-3.91.12-6.17,3.95-6.72a18.57,18.57,0,0,1,12.12,2.37c4.74,2.56,11,2.46,16.66,2.95.55.05,2.37-4,2-5.76-.62-2.8,0-4.17,2.17-5.79,3.46-2.57,3.14-3.55-2-5.66,4.23-3.44,6.31-7.78,13.37-7.88,5.65-.07,11.3-5,16.77-8.11.63-.36.75-3.26.06-3.94a17.09,17.09,0,0,0-5.55-3.29,20.26,20.26,0,0,0-4.67-.77c1-1.34,1.82-3,3.13-4,4.25-3,8.7-5.82,12.5-8.31L379,697.54l-28.2,21.61,12.37-2.88c.46,4.37.59,8.36-3.18,10.93-4.2,2.86-8.69,5.32-13.13,7.82-2.3,1.29-5,2-7.14,3.48-5.12,3.64-10.28,6.63-17,6.08-1.77-.14-3.8,1.08-5.48,2.07-3.4,2-5.46.79-6.42-2.55a42.86,42.86,0,0,1-1.9-9.77c-.08-1.66,1.08-3.7,2.28-5,1.83-2,4.18-3.62,5.92-6.28-4.3,1-8.6,1.94-12.92,2.82-3.59.73-4.65.41-4.1-4.28.73-6.29,4.15-8.34,9.11-10.08,4.39-1.54,8.67-3.45,12.92-5.36,2.95-1.32,5.21-2.87,1.21-5.91-2.15-1.64-.64-10.74,2.51-11.79,9.34-3.09,13.6-12,20.93-17.27,2.91-2.11,5.05-5.25,8.2-8.62a34,34,0,0,0,3.79,1.57,20.82,20.82,0,0,0,3.72.5,33.07,33.07,0,0,0,.07-4.1,17.64,17.64,0,0,0-.83-3c3.2-.88,6.72-1,8.84-2.71s2.65-5.14,4.15-8.4l10.87,19.73c8.92-1.49,12.2-9.18,17.22-15.73-3.87-1-9.48-.25-7.95-7.24l9.5-1.51a44.68,44.68,0,0,1-3.66-2.75c-.91-.9-1.68-1.94-2.51-2.92a26.08,26.08,0,0,1,3.93-2c2.38-.79,4.87-1.25,7.27-2,.56-.17,1.42-1,1.35-1.36-1.2-5.87,4.38-7.83,7.41-12.71-3.81.9-6.69,1.75-9.63,2.2-1.31.2-3.54,0-3.95-.71a5.74,5.74,0,0,1,0-4.56c.41-.87,2.3-1,3.5-1.53,3.53-1.54,7.35-2.65,10.5-4.76,3.57-2.4,6.05-3,8.27,1.34s6.11,6.81,11.12,7.35a23.34,23.34,0,0,1,5.36,1.18c9.34,3.41,16.93,1.12,22.9-6.78,3-3.94,6.57-5,11.71-4.35,12.37,1.6,24.85,2.29,37.29,3.38,1.27.11,2.52.47,4.61.87-1.16,2-1.91,3.57-2.88,5q-13.1,19.18-26.25,38.33c-4,5.86-3.78,7.3,1.73,11.4,4,3,8.23,5.74,11.94,9a8.49,8.49,0,0,1,2.5,5.8c-.08,5.64-1.09,11.27-1.21,16.91-.19,8.91-6.84,14.11-11.39,20.48-.52.73-3.11.47-4.51,0-7.71-2.67-15.27-5.79-23-8.28s-15.27-2.53-21.27,3.83c-9,9.55-17.7,19.38-26.51,29.11-1.79,2-3.86,3.83-5.12,6.11-1.87,3.36-4.22,7-4.43,10.61-.42,7.35-5,12.24-8.84,17.5-3.43,4.7-4.65,9.2-3,14.85,1.47,5.1,1.86,10.51,3.32,15.62,1.38,4.86.46,8.88-2.86,12.42-3.73,4-4.69,8.3-3.2,13.71a16.5,16.5,0,0,1-.4,9.69c-3.38,8.8-2.91,17.58-1.41,26.54.46,2.75.59,5.55,1,9.53-3.2-1.1-6.07-1.34-7.87-2.85-4.5-3.78-9.72-4.91-15.22-5.47-3.39-.34-5.5-1.84-6.35-5.27-.39-1.56-1-3.53-2.22-4.36-6.53-4.56-8.24-11.82-11-18.52-2.27-5.49-10.79-8.42-16.25-6-1.4.62-3.39.13-5.06-.14-7.33-1.23-14.72-3.79-21.93-3.33-3.35.21-6.37,6.17-9.45,9.6a2.73,2.73,0,0,0-.32,1.93c1,9.61-5.05,14.33-12.22,19-8.52,5.53-9.36,7.12-20.12-.82-1.34-1-2.66-2-4-3-8.25-6.17-8.72-6.49-3.1-14.82,3.68-5.45,2.65-9.47-.39-14.41-6.31-10.25-6.37-11.36,5.14-13.91,12-2.65,15.93-12,21.07-20.75.55-.94.62-3,0-3.65-3.71-3.87-3.23-8.58-3-13.2q.29-5.51-4.48-7.58c-3.27-1.42-5.82.13-7.78,2.76-2.86,3.84-6.26,1.55-8.94.24-1.45-.7-1.89-3.59-2.63-5.55a3.93,3.93,0,0,1,.24-2c.76-3.24,2.1-6.46,2.17-9.71.06-3-1.23-6-2.08-9.66,4.64,2.49,8.24,1.52,10.92-3.15l1.48.95c.13,2.6.11,5.21.45,7.78a25.79,25.79,0,0,0,1.48,4.56c1.65-1.08,3.7-1.85,4.86-3.32C278.93,753.13,279.76,750.64,280.68,748.83Z"/><path class="cls-3" d="M299.13,1007.77c-1.19-2.18-2.39-4.36-3.58-6.55-2.1-3.83-1.16-5.18,3-6a20.65,20.65,0,0,0,7.12-3.53c1.45-1,2.18-3,3.59-4.11,8.54-6.71,8.56-15.47,6.93-25.11-1.38-8.18-1.81-16.52-2.54-24.8-.6-6.68-3-8.13-9.4-5.87-1.43.51-3.41,0-5-.57-1.19-.4-2-1.82-3.17-2.37-5.39-2.52-5.73-6.31-3.79-11.46.84-2.22.22-5.12-.17-7.65s-1.67-3.89-4.9-3c-4.18,1.14-5.89-1-4.82-5.21a1.84,1.84,0,0,1,.15-.47c3.91-7.16,2.72-13.14-3.79-18.26-3.48-2.75-3.77-6.44-.4-9.39a165.66,165.66,0,0,1,16-12.6c3.7-2.52,5.65-5.27,5.32-9.8a22.48,22.48,0,0,1,.77-6.91c1.44-5.7,6.15-9.35,11.82-8.55,6.35.9,12.59,2.55,18.89,3.83,1.09.22,2.34.64,3.31.32,9.16-3,13.19-1.17,16.68,7.61,2.19,5.51,3.59,11.5,9.42,14.8a5.2,5.2,0,0,1,2,3.31c1,5.31,4.42,6.61,9.3,7.84,7.27,1.83,14.16,5.21,21.15,8.07a3.33,3.33,0,0,1,1.66,2.27c.88,6,2.76,11.87.48,18.15-3.86,10.63-7,21.5-10.74,32.19-1.13,3.27-1.16,6,.85,8.89,2.64,3.84,4.61,8.15,7.41,11.84,1.52,2,4.16,3.15,6.3,4.68,1,.73,2.11,1.41,3.09,2.21a4,4,0,0,1,.74,1.29c3.12,6.06,8.51,12,8.71,18.2s-4.83,12.4-7.57,18.61a3.68,3.68,0,0,0-.21.45c-2.27,8.75-7.75,12.34-16.92,12.19-7.13-.12-8.59,2.7-6.88,9.62,2,8.24,4.28,16.43,6.07,24.72.91,4.18,1,8.52,1.47,12.79.1,1-.31,2.22.14,2.95,3.38,5.5.16,10.07-1.65,15a204.7,204.7,0,0,0-7,21.8,27.37,27.37,0,0,1-7.88,14.09,60.39,60.39,0,0,0-6,6.7c-2.1,2.69-4.42,3.15-7.84,2.57-4.15-.69-8.51-.16-13.65-.16.35-4.29,1-8.49.91-12.67-.07-2.8-1.12-5.61-2-8.35a11.52,11.52,0,0,0-2.09-3.38c-7.88-10-11.41-21.57-13-34-.27-2.13-2.18-4.08-3.41-6.06-1-1.54-2.16-2.92-3-4.5-5-9.14-8.71-19-16.8-26.35-1.62-1.47-1.14-5.21-1.73-7.88-.68-3.09-1.47-6.16-2.21-9.24Z"/><path class="cls-4" d="M299.13,1007.77l1.27,2.18c1.54,12.41,3.2,15.78,9.59,25.77,3.25,5.07,5.12,11,7.62,16.56l.05,0c-1.81.79-3.56,1.92-5.46,2.31-2.95.59-6,.58-9,1-1.85.26-4,.42-5.33,1.5-.6.5,0,3.5,1,4.64,3,3.63,2.93,7,.68,11-2,3.45-3.35,7.25-5.1,10.84-2.54,5.23-6.47,5-10.32.62-9.65-11.06-11.53-24.64-13.46-38.29-.07-.5-.09-1-.18-1.49-.65-3.41-.95-8.52-4.83-8.13-3.47.35-7.57,3.67-9.62,6.83-3.54,5.46-3.09,5.84-7.55.86-1-1.11-1.95-2.54-3.24-3.07-7.3-3-9.24-9.24-9.54-16.11-.52-12-9-19.7-17.26-24.89-10.51-6.61-17.75-16.4-27.6-23.48-4.12-3-5.82-9.77-7.72-15.15-1.09-3.06.62-6.33,4.12-7.61,4.81-1.75,7.3-4.4,4.54-9.65-.26-.5,0-1.25,0-1.68a4.21,4.21,0,0,1,.64-.52c3-1,7.59.82,7.93-4.67.21-3.33-4.32-10.07-7.75-11.43-7.09-2.83-8.73-5.53-8-13.22.58-6.36-4.1-11.62-10.34-10.72-4.5.65-6-1.55-6.22-5a192.79,192.79,0,0,1-.44-22.92c.09-1.7,3.94-4.73,5.63-4.46A8,8,0,0,0,180.7,867c3.57-3.4,7.28-5.51,12.54-3.12,1.44.65,3.9-.7,5.79-1.41a6.29,6.29,0,0,0,2.17-2c5-5.87,10.81-9.59,18.92-9.35,3.78.11,7.58-1,11.39-1.42,8.42-.92,15,3.77,21.69,7.63,7.72,4.47,15,9.76,23.12,15.17-.18-.83.06-.37-.07-.22-4.47,5.21-2.13,9.17,2.26,12.82,4.7,3.89,5.37,8.26,3,14.06-3.15,7.7-2.05,8.59,6.41,9.73,1.38.19,2.58,2.83,3.51,4.54.39.7-.14,1.92-.32,2.89-.58,3-2.72,7.18-1.49,8.87,2.64,3.6,6.9,6.12,10.78,8.64,1,.64,3.17-.09,4.62-.65,4.73-1.84,6.62-.89,7.23,4.57.94,8.43.71,17.08,2.51,25.3,2.38,10.86-1,18.93-8.68,26.18-2.5,2.36-4.47,4.56-8.38,4.32-4.22-.27-6.38,3.16-4.37,6.9C294.79,1003.12,297.17,1005.33,299.13,1007.77Z"/><path class="cls-5" d="M129.09,965.65l15.3-6.42c-2.28-3.73-4.69-4.42-7.6-2.56-3.07,2-4.92.87-6.2-2.12-1.62-3.77-4.18-5.46-8.55-5.3-2.22.09-4.64-1.58-6.72-2.86-2.38-1.48-3.93-1.65-5.79.92-3.89,5.36-6.15,5.33-11.37,1.23-1.63-1.29-4-1.63-6-2.37-.29-.11-.86.13-1,0-3.22-4.64-8.52-3.76-13-4.83a16.29,16.29,0,0,0-6.84-.5,58.29,58.29,0,0,0-10.39,3.51c-4.21,1.79-7.5,1-10.74-2.23-2-2-3.19-3.2-1.55-6.24.73-1.36-.49-4.21-1.53-6-1.2-2-3.18-3.56-5.18-5.68,4.65-2.48,8.11-7.06,13-.83l5-6-13.77-1.92c.91-7.07,3.75-9.73,10-9.23,1.33.1,2.64,1.73,3.77,2.85,4,4,7.64,4.17,10.77,1.17-4-2.58-8.33-5-12.21-8s-3.13-4.94,1.18-6.62c1.68-.66,3-2.33,4.43-3.54-2-.85-4.12-2.62-6-2.37-4.62.62-6.42-2.45-8-5.42-1.79-3.46.65-6.23,4.63-5.74a40.68,40.68,0,0,1,4.1,1c1.94-9,10.36-9.42,16.54-12.51,4-2,11.22,3.23,12.52,7.73.27.94,2,2.34,2.67,2.14,4.35-1.33,5,1.75,5.56,3.59l9.57,3.82c1.79-2.78,3.81-6.25,8.89-2.85l0-1.79c-2.72-1.1-5.5-2.05-8.12-3.34-5-2.45-11.8-2.08-14.17-8.81-.12-.34-.78-.63-1.24-.72-6-1.22-12.08-2.4-18.12-3.6l-7.85-1.56c4-6.11,9.14-7,14.26-3.16a10.88,10.88,0,0,0,4.49,2c9,1.56,17.46,7,27.18,4.27a2.81,2.81,0,0,1,2.26.82c3.85,4.06,7.63,3,11.29-.12,4.37-3.7,8.23-3.21,11,1.62,4.85,8.38,12.63,7.55,20.52,7.3,10.19-.32,9.39-.94,9.59,9.24a132.36,132.36,0,0,0,1.21,16.29c.45,3.08,2.45,4.47,6.19,3.77,6.22-1.17,9.92,2.6,9.56,8.91-.47,8.09,1.78,10.94,9.07,14.91,2.87,1.56,4.67,5.27,6.53,8.27.29.47-1.49,3-2.74,3.46-1.88.71-4.13.44-6.23.58-.06,1.1-.28,1.68-.08,2,3.11,5.65,1.26,8.84-4.56,11.25-3.87,1.61-3.94,5.81-3.3,9.54a24.23,24.23,0,0,0,1.77,4.66c4.62,11.4-1.53,21.28-13.89,22.06-4.52.28-7.4,2.51-9.37,6.36-1.73,3.36-3.7,6.37-8.28,5.85a3.45,3.45,0,0,0-2.65,1.11c-3.55,4.73-7.2,2.89-11.28.73-7.94-4.19-16.58-7.45-20.62-16.41a19.78,19.78,0,0,1-2-7.43c-.09-3.85-1.4-5.27-5.35-6.17-5.46-1.25-10.62-3.08-16.34-1.45-.81.23-2.43-1.47-3.29-2.58-2.24-2.89-4.36-5.89-6.36-9-1.64-2.5-3.44-3.61-6.09-1.47-2.31,1.86-4.24,1.29-7.11.52-4.26-1.15-9.11-.19-13.71,0-1.28.06-3.06,1.41-3.72.93-4.57-3.31-9-1.89-13.43.58-1-4.46-2.19-8.25-2.31-12.07,0-1,3.51-3.34,5-3a17.12,17.12,0,0,1,8.2,4.16c2.82,2.75,5.1,3.1,8.2.91a34.58,34.58,0,0,1,4.88-2.52c.74-.36,1.55-.57,2.32-.88,4.75-1.89,7.28,6.64,13.43,2.12,4.23-3.11,9.24,1.26,12.69,4.41,6.6,6,13.09,3.73,19.8.78,1.89-.83,4.46-3,5.5-2.37a43.26,43.26,0,0,1,9.39,7.59C128.09,961.53,128.4,963.94,129.09,965.65Z"/><path class="cls-6" d="M225.53,1186.28q-1.32-2.1-2.62-4.2l-1.59.6c.46,3.08.54,6.29,1.46,9.23,1.29,4.1.44,5.57-4,6.3-1.94.32-3.71,1.63-5.61,2.35a27.24,27.24,0,0,1-5,1.5,54.3,54.3,0,0,1-5.81.39c.87,2.75,2.09,4.92,2,7,0,1-3.42,2.92-4,2.53a16.66,16.66,0,0,1-5.65-5.8c-2.52-5.11-4.2-10.64-6.65-15.79a5,5,0,0,0-4.26-2.08c-4.65.78-10.39.37-11.14,7.3,0,.4-.59.78-1,1.1a17,17,0,0,0-2.54,2c-1-1.78-1.55-4-3-5.19-1.74-1.36-4.24-1.73-6.4-2.54s-4.54-1.1-6.14-2.44c-4.7-4-8.84-8.52-15.74-8.68-1.26,0-2.67-2.15-3.66-3.55-5.56-7.86-4-17.25-5.57-26a36.3,36.3,0,0,0-3.52-9.35c-1.51-3.06-3.65-5.69.76-8.36,1-.64,1.63-3.34,1.27-4.81-1.52-6.13-3.3-12.21-5.42-18.16a6.8,6.8,0,0,0-4.15-3.45c-6.93-1.91-9.74-6-7.67-12.8,1.56-5.14,1.73-11,6.72-14.62,1.87-1.33,4-2.35,5.87-3.62,2.28-1.52,4.94-2.79,6.64-4.82,5.34-6.37,11.43-7.69,19.21-4.44a13.52,13.52,0,0,0,8.57.38,29.71,29.71,0,0,1,21.82,1,23.9,23.9,0,0,0,9.19,2c10,.07,13.73,7.22,17.49,14.58,2.07,4,4.32,8,6.42,12a23.3,23.3,0,0,1,1.69,4.07c.34,1.1,0,2.54.6,3.4,7,10.09,4.58,21.76,5.53,32.82.48,5.6,1.9,10.21,6.42,13.89,7.4,6,5.57,14.62,5.64,22.58a21,21,0,0,1-1.11,6.26c-.75,2.45-1.89,4.78-2.85,7.16Z"/><path class="cls-7" d="M270.8,1146.63c0-3.11-.48-6,.11-8.65a7.06,7.06,0,0,0-3.85-8.34c-1.5-.79-4.09.48-6.19.85-1.11.2-2.71,1.09-3.22.66-4-3.42-6.24,0-9,1.88a8.61,8.61,0,0,0-4.15,8.9,46.41,46.41,0,0,1,0,6.2c-4.86,1.32-9.13,2.63-13.46,3.6-2.64.6-9.21-7.67-9.48-11.61-.62-9-.36-18.11-2.18-26.82-1.47-7-5.42-13.5-8.36-20.18-1-2.25-2.34-4.33-3.35-6.56-1.09-2.4-1.74-5-3-7.33-3.8-6.92-9-11.88-17.67-11.28a8.23,8.23,0,0,1-3.89-.81c-9.56-4.52-19.26-5.9-29.37-1.86a4.06,4.06,0,0,1-3.35-.25c-4.43-3.27-9.18-4.2-15.74-1.27,3-5.93,5.28-10.3,7.51-14.68s4.4-9,6.76-13.37c2.24-4.19,4.46-8.23,1.43-13a4,4,0,0,1,0-3.34c1.64-3.23.36-5.63-1.54-8.2-2.82-3.82-1.52-7.39,3.23-7.53,5-.14,7.17-3,9-6.6,1.9-3.81,4.67-5.52,9-5.9,6.22-.56,11.24-3.39,14.35-9.34,2.85-5.46,3.12-5.21,7.92-1.19,6.34,5.3,13.66,9.53,17.85,17.08a2.59,2.59,0,0,0,1.51,1.23c9.42,1.53,13.53,9.81,19.11,15.8,2.68,2.88,3,8.29,3.62,12.67.86,6.12,2.79,11,8.82,13.91,2.25,1.09,3.84,3.6,5.64,5.54,3.38,3.64,5.35,3.14,7.7-1.35a19,19,0,0,1,5.23-6.22c3.88-2.88,5.91-1.93,6.79,2.87,1.38,7.52,3.11,15,3.71,22.64.56,7,5.74,11,8.5,16.59,1.31,2.62,4.28,5.88,3.57,7.74-1.64,4.33-4.28,9.11-7.95,11.64-5.46,3.76-8.38,7.63-8.39,14.43,0,3.61.87,5.4,3.87,7,5.09,2.76,8.73,13.76,6.89,19.25C277.59,1145.08,275.39,1147,270.8,1146.63Z"/><path class="cls-8" d="M194.62,807.62a31.12,31.12,0,0,1-5.69-1.09c-1.91-.73-3.49-2.32-5.4-3a56.77,56.77,0,0,0-9.07-2.45c-1-.19-2.39,1.25-3.24,1a37.91,37.91,0,0,1-5.68-3.11,47.83,47.83,0,0,1,3.26-4.41c.6-.65,1.68-.85,2.85-1.4a14.47,14.47,0,0,0-1.53-2.68c-4.58-4.82-4.89-8.11-1-11.81,5.48-5.25,9.89-5.45,14.57-.63,1.4,1.43,2.87,2.8,4.12,4.35,2.11,2.62,4.45,3.44,7.89,2.58,1.93-.49,4.23.56,6.37.86a13.6,13.6,0,0,0,3.84.29c5.93-1,8.62.46,10.74,6.2a37.16,37.16,0,0,1,1.06,4.86c.36,1.63.25,3.69,1.22,4.78,3.93,4.39,8.18,8.5,12.35,12.67.25.24.9.08,1.94.15a33.2,33.2,0,0,0-1.76-4.24c-3.15-5.41-6.91-10.55-9.46-16.23-2.35-5.22-3.56-11-4.92-16.59-.25-1,1.21-3.39,1.93-3.41,1.39,0,3.74.86,4.07,1.89,1.92,6,3.12,12.33,5.15,18.33.52,1.54,3.17,2.36,4.85,3.5.81-1.28,2-2.47,2.36-3.87.48-2,.34-4.2.51-7.12a27.82,27.82,0,0,0-4.12-1.59c-4.18-1-5.07-4.28-4.69-7.64.4-3.6,5.25-6.5,8.21-4.72,6.77,4.07,10.5-1.82,16.19-3.88-3.37-2.51-7.37-4.22-5.84-8.91.49-1.49,1.41-3.92,2.31-4,4.83-.45,6.3-3.37,6.29-8,3.19,4,5.21,7.57,3.67,12.43a42.75,42.75,0,0,0-1.45,8.82,8.57,8.57,0,0,0,10.28,9.27c1.42-.25,2.49-2.11,3.92-2.79,1.94-.92,4.51-2.44,6-1.82s2.83,3.51,3,5.5c.36,4.76-.55,9.63,3.23,13.67.6.64.07,2.88-.57,4a115.79,115.79,0,0,1-7.26,11.94,11.37,11.37,0,0,1-5.07,3.62c-6.35,2.44-12.83,4.55-20.13,7.09,2.73,4.76,5,9.32,7.84,13.47,2.51,3.67,2.38,6.65.15,10.46-6.17,10.54-5.94,10.49-17.31,5.66a22.66,22.66,0,0,0-9.08-1.28c-4.31.08-8.6,1-12.91,1.23-6.38.36-12,2-16.11,7.37-3.36,4.33-7.35,6.89-13.39,4.22-1.58-.7-4.59,1-6.58,2.21-3.29,2-5.8,5.57-10.61,3.46-.91-.39-3.08,1.06-4.11,2.18a10.66,10.66,0,0,1-9.42,3.5,12.35,12.35,0,0,0-3.49,0c-9.16,1.78-15.8-2-20.69-9.41-2-3.06-4.13-3.34-7-1.18a17.63,17.63,0,0,1-5.59,3.23c-1.83.5-4.43.63-5.84-.33-2.77-1.88-5.2-1.86-8.38-1.46s-6.79-1-10.22-1.26c-12.91-1.05-21.44-8.8-28.74-18.48-2.72-3.61-2.13-7.23,0-12l9.34,12.54c4.29-6.73,5.16-6.63,11.7,0l12.69-2.47c.17,3.07.17,5.32.45,7.54a11.48,11.48,0,0,0,1.32,4.5c.24.37,2.84,0,3.4-.73a7,7,0,0,0,1.54-4.69c-.91-6,1.65-12.6,6.66-16,5.58-3.81,7.26-3.48,10.82,2.09.7,1.1,1.45,2.16,2.5,3.71a13.32,13.32,0,0,0,2.17-2.77c2.27-5.82,6.05-7.82,12.25-6.26,2.74.69,5.44,1.52,8.18,2.21.39.1.9-.26,1.35-.41A8,8,0,0,0,144,823.6c-2.65.23-5.29,1.08-7.91,1-2.27-.09-4.49-1.16-6.73-1.8l.15-2,10.77-3-10.62-6.87c1.61-4.1,5.09-3.55,8.34-3.26,3.41.3,6.85,1.71,10-1.27.48-.47,2.52.09,3.4.76a44,44,0,0,1,4.57,4.49c7.33-3.81,8.07-3.63,11.44,2.69l.76-1.24c4.09,2.46,8.19,4.89,12.25,7.39,1.56.95,2.95,2.21,4.57,3,.69.34,1.77-.1,2.67-.19-.11-.88.11-2.14-.39-2.58-4.46-3.87-.75-6.08,1.76-8.24,1.7-1.45,3.88-2.34,5.84-3.49Z"/><path class="cls-9" d="M8.9,1100.44c3.75-8.72,10-12.66,17-17,.52,3.12.91,5.44,1.37,8.16,1.17-.5,1.89-.59,2.27-1,5.49-5.78,5.55-5.77,10.85-.28a3,3,0,0,0,2.45.81c.76-.26,1.91-1.53,1.77-2-1.75-5.89,2.34-6.27,6.73-6.85l.34-5.32c-4.41,1.08-6.67-.46-6.87-4.7-.22-4.69,2.67-9.6,6.6-9.73,4.54-.15,6.76-2.19,8.52-6.18.82-1.87,3.53-3.09,5.6-4.19a33.14,33.14,0,0,1,5.54-1.92c-.57-3.08-2-6.07-1.3-8.34s3.49-4.18,5.65-5.87c4-3.19,8.3-6.13,12.5-9.14,5.27-3.77,7.62-2.93,9.64,3.41.19.6.43,1.19,1.08,3,3-3.25,5.33-6.23,8.14-8.65,2.41-2.08,5.44-3.42,8-5.29,1-.68,1.47-2,2.19-3-1.08-.39-2.29-1.29-3.22-1.06a58.71,58.71,0,0,0-7,2.6c-2.76,1.09-5.37,2.58-8.39.17-.78-.61-2.83,0-4.15.5-5.15,1.82-10.25,3.79-15.36,5.73a8.9,8.9,0,0,0-2.67,1.27c-5.69,4.88-11.72,9.47-16.8,14.93-2.56,2.74-3.18,7.21-5,10.7-.77,1.45-3.14,3.65-3.62,3.39-2.31-1.26-3.44-3-1.38-6,3.05-4.44,1.48-8.2-4.12-11.14,1.86-4.46,3.76-9,5.65-13.53l-1.73-1.19c-1.42,1.29-2.85,2.56-4.25,3.86-2.67,2.46-5.08,5.29-8,7.29-3.26,2.2-6.18.22-6.44-3.63-.21-3.18-.87-6.32-1.23-9.49a7.24,7.24,0,0,1,.25-2.89c1.3-4.27,2.54-8.58,4.14-12.75.58-1.53,1.84-3.32,3.22-3.84,1-.36,2.93,1,4,2,2,2,3.61,4.36,5.61,6.35,2.66,2.62,6.1,2.59,7.53-.65a107.8,107.8,0,0,0,5.66-17.83c.39-1.58-1.22-3.64-1.91-5.48a50.92,50.92,0,0,0-6.47,2.89c-3.12,1.93-5.81,4.72-9.1,6.21-3.67,1.66-7-.72-7.33-4.78-.45-5-.6-10.1-.93-16.2,2.92,3.26,5.43,6.19,8.12,9,.78.8,2.11,1.07,3.18,1.58a18,18,0,0,0,.73-3.48,4.48,4.48,0,0,0-.85-2.32c-2.16-3.37-1.74-6.19,1.53-8.63.69-.52,1-1.52,2.38-3.6-2.81.75-4.3,1.54-5.72,1.42s-3-1.1-4.56-1.7c.75-1.09,1.27-2.56,2.29-3.18,3.28-2,6.61-4.06,10.51-.79.8.67,2.84.21,4.18-.18,5.62-1.61,11.1-3.34,16.45,1,.69.56,3.18-.34,4.3-1.23,3.15-2.51,5.28-1.88,7.13,1.46.72,1.3,1.93,2.34,2.59,3.66,2.91,5.8,6.78,7.76,13.65,6.19,3.78-.86,8.43,1.85,12.58,3.24.68.23,1.15,2,1.18,3.06.22,9.58,5.9,15.54,13.47,20.07,4.28,2.56,8.89,4.56,13.34,6.83,7.18,3.68,8.66,6.39,7.91,14.29a3.24,3.24,0,0,0,.19,1.93c3.49,5.13.76,9.43-1.69,13.83-5.91,10.59-11.54,21.35-17.83,31.7-1.63,2.69-5.12,4.51-8.1,6-5.11,2.63-9.37,5.8-10.53,11.76-.84,4.35-3.12,5.8-7.67,5.67-3.48-.1-7.07,1.41-10.5,2.53-5,1.64-5.87.87-5.79-4.18.05-2.9-.35-7.13-2.17-8.36s-6.08-.49-8.8.57c-6.35,2.48-12.18,5.72-16.16,11.9-2.46,3.81-6.59,4.92-11.51,3.38-3.06-1-6.63-.31-10-.35-1.32,0-2.72.4-4,.09-5-1.24-9.11-.37-13.57,2.64C17.72,1101.29,13.41,1100.23,8.9,1100.44Z"/><path class="cls-10" d="M171.19,1200.23a62.26,62.26,0,0,1,3.6-5.36c1.25-1.51,2.6-3.22,4.29-4,4.66-2.22,8.35-1.22,10.06,4.15,1.22,3.83,2.31,7.72,3.79,11.44.82,2.06,2.34,3.85,3.77,6.13-3.61.84-5.28,2.83-4.53,7.12.24,1.42-2.75,3.79-4.7,5.06-1.58,1-3.78,1.16-5.74,1.57-7.42,1.57-9.76,10.62-17.45,11.79-1.78,7.23-8.33,10.53-12.95,15.39-1.21,1.27-3.75,1.2-5.59,2-3.38,1.4-6.69,3-10.71,4.73-1.79-3.62-3.68-7.8-5.9-11.8-1.46-2.63-2.42-6-6.65-5.79-.64,0-1.44-1.78-2-2.82-3.18-5.49-5-12.07-13-13-3-.34-3.59-2.75-2.47-5.76,1.25-3.34,1.68-7,2.91-10.35a16.31,16.31,0,0,1,3.6-5.66c6.6-6.77,5.1-13.62-4-16.74-5-1.72-10.19-3.09-15.32-4.54-3-.86-3.49-2.15-1.89-5a143,143,0,0,0,7.26-15.26c2.06-5,.28-8.86-4.46-11.6-12.35-7.16-10.57-3.44-7.39-17.26,1.26-5.52,3.48-9.74,8.81-12.38,1.62-.8,2.79-3.46,3.22-5.48.72-3.35,8.17-11.42,11.6-11.79,2.2-.24,10.79,5.62,11.49,7.83,1.1,3.49,2.29,7,3.26,10.48s3.3,7.14-1.91,9.89c-.91.48-.81,5.78.54,7.08,5.13,5,4.53,11.28,4.82,17.23.36,7.48,1.71,14.58,5.78,20.86,1.14,1.76,3.64,3.59,5.59,3.67,4,.17,6.82,1.71,9.64,4.35,3.6,3.39,6.61,7.87,13.11,6.4,1.64-.37,4.17,3.2,6.31,4.94C168.76,1198.39,169.67,1199.06,171.19,1200.23Z"/><path class="cls-11" d="M39.07,1169.77l10.16-9.58-9.08.45c-1.77-3-3.35-5.77-5-8.5-1.76-2.94-1.67-5.12,1.84-6.85,1.83-.91,3.14-2.83,4.73-4.24a14.46,14.46,0,0,1,3.36-2.69c8.88-4,10.35-7.61,5.79-16.94,1.29-1,2.95-2.1,4.43-3.42a11.24,11.24,0,0,0,3.36-5l-12.74,5.73-1.38-.56,2.28-7.78-5.38-6.06a61.78,61.78,0,0,0-7.2,6.16c-.39.43,1.39,3,2.41,4.46.68,1,2.67,1.92,2.53,2.38-.4,1.25-1.47,2.94-2.56,3.18-4.93,1.07-10,1.73-15,2.44a2.22,2.22,0,0,1-1.8-.67c-4.12-6-8.15-12.13-12.57-18.76,2-.59,2.89-1.19,3.72-1.07,5.23.74,10.3,1.12,14.14-3.57a1.3,1.3,0,0,1,.91-.35c7.15.06,14.39-.54,21.42.42,6,.82,10.35.64,13.43-4.46,3.76-6.19,9.66-9,15.77-11.59,6.29-2.67,9.2-.15,8.49,6.48-.22,2,.27,4.88,1.6,6.12,1,.93,3.86,0,5.84-.33,3.84-.73,7.6-2,11.47-2.41,2.56-.28,3.71,1.36,3.13,4.26-.39,2,.12,4.15.25,6.76-1.88,1.38-4.07,3.15-6.43,4.68-3,1.92-4.82,4.11-4.75,8.06,0,1.61-1.87,4-3.48,4.75-5.28,2.41-7.64,6.49-8.63,11.9-.6,3.26-1.7,6.43-2.55,9.65-.25,1-.91,2.18-.56,2.88,4.74,9.42-4.72,12.08-8.41,17.35-1.43,2-4.39,3-6.39,4.7-1.45,1.26-3,2.85-3.58,4.6-1.66,5.42-2.66,11.05-4.32,16.47a9.48,9.48,0,0,1-3.61,4.72c-4.89,3.27-5.1,4.55-1.12,8.57a4.68,4.68,0,0,1,.95,3.79c-1.4,5.65-2.91,11.28-4.72,16.81-2,6.17-6.67,7.53-11.82,3.73-3.08-2.27-6.15-4.56-9.18-6.9-1.05-.81-2.76-1.71-2.83-2.68-.47-5.89-5-8.63-8.65-12.22C10,1197.36,8.65,1187.54,7,1178a7.19,7.19,0,0,1,.75-3.81c1-2.3,2.28-4.45,3.28-6.73,2.32-5.3,4.53-10.65,7-16.43,2.34.72,3,3,2.63,6.42-.21,1.71.56,3.54.89,5.32,1.76-.45,3.9-.41,5.2-1.44,3.81-3,5.83-1.45,7.82,2.09A61.52,61.52,0,0,0,39.07,1169.77Z"/><path class="cls-12" d="M127.64,1264.41c-.94-1.91-1.47-4.26-2.93-5.62-1.3-1.2-3.63-1.3-5.5-1.89-.46,1.48-1.53,3.09-1.27,4.44.77,3.94-1.65,5.2-4.53,5.69-5.83,1-12,3-17.54,2-6.4-1.14-12.31-5.06-18.43-7.78-1.23-.55-2.46-1.67-3.65-1.61-6.66.32-10-2.34-11.13-8.89-.22-1.27-1.33-2.39-2-3.58a22.24,22.24,0,0,0-2.63,3.48c-.58,1.16-.47,2.64-1,3.84-1.44,3.24-3.78,3.47-5.93.7-4.68-6-4.13-8.16,2.83-11.71,2-1,3.92-2.31,7-4.13L45.47,1231c9.32-7.35,8.14-18.51,11.59-27.76.24-.66-1-2.35-2-2.88-3.48-2-2.35-3.75.28-4.89,4-1.71,5.72-4.08,4.62-8.52-.29-1.16.83-2.71,1.42-4s2-2.65,1.91-3.9c-.39-6.67,3.66-10,8.51-13.53,3.81-2.76,6.92-6.65,9.81-10.44,2.55-3.34,4.63-5.12,8.93-2.48,5.14,3.16,7,5.63,5.22,10.23a107.82,107.82,0,0,1-7.11,14.77c-2.93,5-2.67,6.26,3.11,7.92,4.8,1.38,9.79,2.32,14.35,4.27,2.8,1.2,5.81,3.5,7.15,6.11,1.66,3.26-.6,6.41-3.54,8.47s-4.23,4.52-3.65,8.44c.31,2.13-1.34,4.66-2.4,6.86-2.16,4.44-1.21,8,3.41,8.72,7.37,1.13,9.25,6.85,11.49,12.27,1,2.33,1.31,4.23,4.55,4.07,1.22-.06,3,1.42,3.72,2.66a62.58,62.58,0,0,1,5.67,12.18c.44,1.43-1.85,3.69-2.89,5.57Z"/><path class="cls-13" d="M317.61,1052.28c4.25,5.68,9.76,10.56,9.94,18.55.21,9.7,4.64,17.93,10.32,25.44,4.57,6,7,12.3,4.79,19.86a28.51,28.51,0,0,0-.54,3.94c-1.33,9.31-1.37,9.27-8.69,15.12a16,16,0,0,0-3,4c-4.07,6.19-8.14,6-11.72-.62-.24-.44-.47-.89-.7-1.33-3.9-7.25-4.31-7.33-10.7-2.52-.73.55-2,1.13-2.66.87-5.65-2-9,1.61-12.67,4.75-3.09,2.66-6.25,5.22-8.9,7.43-.45-6.6-.95-13.1-1.3-19.61-.28-5,2.63-7.39,7.37-6.18,5.6,1.43,8.79-.89,11.23-5.86,3.63-7.4,1.06-13.64-2.5-19.71s-3.79-11.38.09-17.17c1.37-2,1.86-4.66,3.14-6.77,2.35-3.86,2.53-7.3-.61-10.87-.82-.93-.76-2.64-1.11-4,1.38-.16,2.94-.81,4.13-.41,6.08,2.1,10.14-1.17,14.11-4.9Z"/><path class="cls-14" d="M300.44,1189.05c-2.38-.61-4.77-1.19-7.14-1.83a17.43,17.43,0,0,0-1.81-.76c-6.56-1-9.4-4.1-9.83-10.82a18.07,18.07,0,0,0-.79-4.33c-.82-2.55-3.05-5.31-2.55-7.5,1.28-5.66,1.67-12,7.45-15.76a55.19,55.19,0,0,0,8-6.77c3.08-3,6.07-5.44,10.92-4.21,1.31.33,3.4-1,4.65-2.16,2.77-2.49,4.66-1.94,6.3,1.11.79,1.47,1.67,2.88,2.48,4.33,3.58,6.42,8.94,6.27,13.39.16a20.65,20.65,0,0,1,7.79-6.16c3.11-1.44,5.56,1.23,3.79,4.19a22.64,22.64,0,0,1-7.49,7.46c-3.42,2-4.86,3.85-4.33,8.18,1.15,9.39,1.4,18.89,2,28.34a5.48,5.48,0,0,1-.29,2.46c-4.43,10.16-8.74,20.39-13.55,30.37-.83,1.74-3.82,2.44-5.82,3.61-.92-2-2.2-3.81-2.67-5.87a20.26,20.26,0,0,1-.08-6.46c.54-5.07-.65-8.8-5.61-11.53-2.12-1.17-2.91-4.75-4.3-7.23C300.75,1188.26,300.59,1188.65,300.44,1189.05Z"/><path class="cls-15" d="M268.68,1146.33l-7-.65c1.87,3.23,2.74,5.85,4.5,7.58,5.33,5.22,1.52,11.16,1.79,16.76a1.05,1.05,0,0,1-.52.82c-8.46,3.2-7.58,13.39-13.69,18.26-1.87,1.49-4.3,2.26-6.45,3.39-2.92,1.54-5.73,3.31-8.76,4.58-1.83.76-4.2,1.42-5.91.87-1-.31-1.08-3.21-1.55-5-.34-1.24-.64-2.48-1-3.72-.24-.91-1-2.34-.69-2.63,3.32-3.14,2.85-7.07,2.85-11,0-4.89.85-9.81.47-14.65-.65-8.26.31-9.86,8.61-9.63,4.53.13,5.75-1.83,4.72-5.72-1.54-5.82.1-10.61,5.57-12.75a40.71,40.71,0,0,1,14.11-2.29c1.28,0,3.41,3.57,3.69,5.69C269.91,1139.43,269,1142.78,268.68,1146.33Z"/><path class="cls-16" d="M263.23,739.45c-6.94,0-13.88,0-20.82-.06-1,0-2.82-.61-2.91-1.17-.18-1.11.21-3.05,1-3.46,3-1.55,6.21-2.51,9.23-4,1.45-.69,2.47-2.35,3.93-2.93a69.94,69.94,0,0,1,11.91-3.73c.76-.15,1.95,3,3.26,4.28a38,38,0,0,0,4.52,3.22c1.1.8,3,1.66,3,2.53a4.51,4.51,0,0,1-2.3,3.37c-3.38,1.52-7,2.58-10.48,3.82Z"/><path class="cls-17" d="M301.42,1107.49c-1.39,4-2.34,7.74-4.08,11.09-.56,1.09-3.16,1.49-4.83,1.51-.91,0-2.19-1.25-2.7-2.24-2.48-4.79-4.56-9.79-7.15-14.52-2.37-4.32,1.75-13.58,6.65-14.09,1.18-.12,3.16.15,3.55.89C295.89,1095.84,298.62,1101.71,301.42,1107.49Z"/><path class="cls-18" d="M273.55,1121.06c-2.31-.22-4.09-2-3.59-6,.61-4.78.67-10,6.41-11.57,1.56-.42,4.5.85,5.4,2.25s1.18,4.64.23,6.09C279.94,1114.94,276.94,1117.47,273.55,1121.06Z"/><path class="cls-19" d="M222,749.84c-2.48-2.23-4.51-4.11-6.61-5.91-2.54-2.17-2-4.23.65-5.42a23.38,23.38,0,0,1,8.13-2.1c1.13-.07,3.14,1.77,3.42,3,.49,2.26.7,5.14-.34,7S223.5,748.91,222,749.84Z"/><path class="cls-20" d="M6.52,1111.08c3.88,6.34,3.19,14.84-1.45,19.5-2.21,2.22-3.78,1.65-4.51-1.34C-1.16,1122.14,1.13,1116.3,6.52,1111.08Z"/><path class="cls-21" d="M245.46,716.4c3.59-1,7.23-2,10.75-3.19,2-.68,3.74-2,5.67-2.81.9-.4,2.35-1,2.86-.57a3.87,3.87,0,0,1,1.1,3c-.29,3.58-5.18,7.4-9.58,7.12-3.57-.23-7.08-1.23-10.61-1.88C245.59,717.49,245.53,716.94,245.46,716.4Z"/><path class="cls-22" d="M39.31,1048.94c.16,0,.37,0,.48,0,1.2.89,3.54,2.25,3.4,2.62-1.47,3.64-3.34,7.12-5.1,10.65-1.26-.93-3-1.6-3.72-2.84C31.78,1055.18,34.76,1049.1,39.31,1048.94Z"/><path class="cls-23" d="M199.25,770.33c2.16,3.38,1.15,6.63-1.19,9.28-1.09,1.25-4.15,2.51-5,1.92-2-1.44-3.32-3.88-4.49-6.14-.2-.4,1.5-2.31,2.63-2.77A69.92,69.92,0,0,1,199.25,770.33Z"/><path class="cls-24" d="M61.52,867.11c-3.29,1.32-5.2,2.37-7.24,2.83s-5.51.76-5.7.22a11.85,11.85,0,0,1-.33-7.08c.32-1,3.65-2,5-1.47C55.91,862.64,58.13,864.76,61.52,867.11Z"/><path class="cls-25" d="M27.88,1072.6c-4-2.45-6-11.19-3.28-14.35.44-.51,3.28-.08,3.51.51C29.89,1063.2,31.33,1067.8,27.88,1072.6Z"/><path class="cls-26" d="M379,616c4.46-5.53,6.83-5.78,10.29-.44.76,1.18.23,4.09-.78,5.3-1.45,1.74-3.49,2.07-5-.89C382.68,618.35,380.56,617.34,379,616Z"/><path class="cls-27" d="M104.62,832.47c-.86-7.69-.06-10.61,3.55-13C113.33,825.36,111.83,830.87,104.62,832.47Z"/><path class="cls-28" d="M244.16,763.25c-2.81,2.2-5,5-6.12,4.56-2.08-.73-4.51-3-5-5.1-.9-3.67,2.84-3.83,5-3.54C239.83,759.41,241.43,761.34,244.16,763.25Z"/><path class="cls-29" d="M392.91,632.22c-.2-3.82-.32-6.17-.45-8.52h9.82c.15.5.31,1,.46,1.5Z"/><path class="cls-30" d="M368.12,613.33l11.94-5.5C376.5,615.34,370.93,617.68,368.12,613.33Z"/><path class="cls-31" d="M92.4,830l4.81,4.06c-1.55,1.19-3,3-4.68,3.34-1,.18-2.89-1.95-3.38-3.38C88.9,833.32,90.87,831.83,92.4,830Z"/><path class="cls-32" d="M155.3,796.22l4.91,4.19c-1.44.9-3,2.66-4.29,2.5-1.73-.22-3.28-1.94-4.91-3Z"/><path class="cls-33" d="M46.61,1132.4l-7.8.59c0-1.14-.41-3,.12-3.31,2.59-1.67,5.38-2.43,7.62.47Z"/><path class="cls-34" d="M224.27,761.05c-1.25,3.45-1.6,6.92-6,6.34-.79-.1-2.18-1.83-2-2.16C217.72,762.33,219.81,760.25,224.27,761.05Z"/><path class="cls-35" d="M386.48,648.9l4.38,4.9-4,2.65q-1.35-3-2.69-6.07Z"/><path class="cls-36" d="M36.54,936.92c-1.74,1.43-3.19,3.16-3.66,2.92-1.43-.71-3-2-3.45-3.43-.22-.74,2-3.17,2.91-3C33.66,933.54,34.76,935.3,36.54,936.92Z"/><path class="cls-37" d="M212.55,772.84l-6.25,4.24c-.47-1.35-1.64-2.92-1.28-4C206.06,770,208.35,770,212.55,772.84Z"/><path class="cls-38" d="M29.43,998.34C27.72,996,26,993.58,24,990.76,29,990.86,31.18,993.4,29.43,998.34Z"/><path class="cls-39" d="M17,1074.59c-2.53-2.08-6.29-3.6-2.77-9.44,1.59,3.47,2.8,6.1,4,8.73Z"/><path class="cls-40" d="M155.79,788.93c1.66-1.22,2.92-2.68,3.47-2.45a7,7,0,0,1,3.08,3c.19.35-1.66,2.53-2.14,2.39C158.85,791.46,157.72,790.3,155.79,788.93Z"/><path class="cls-41" d="M242,750.63l5.64-2.31c.21,1.28.84,3.57.55,3.69a30.4,30.4,0,0,1-5.51,1.36C242.49,752.46,242.27,751.54,242,750.63Z"/><path class="cls-42" d="M117.63,819.75c1.9.4,3.83.75,5.68,1.31a11.08,11.08,0,0,1-.25,2.42l-5.86-.86C117.35,821.66,117.49,820.7,117.63,819.75Z"/><path class="cls-43" d="M19.2,1027l-2.7-5.21,2.13-1.23c1,1.71,2,3.42,3.05,5.12Z"/><path class="cls-44" d="M20.44,1008.77q.36,3.33.7,6.66l-2.51.19c-.14-2.26-.29-4.51-.43-6.76Z"/></g><g id="NordNorge"><path class="cls-45" d="M853.55,221.85c1.81-.56,3.53-1.11,5.25-1.61,8-2.35,11.51-8.85,8.91-16.67-1.68-5-3.43-10.06-5-15.13-2.25-7.09-1.5-9,5.12-12,4.9-2.24,10-4.16,11-10.36a11.19,11.19,0,0,0-.7-5.32,10,10,0,0,0-2.79-3.48,17.52,17.52,0,0,1-5.88-16.09c.65-4.85-.76-8.8-5-11.57-5.62-3.63-7.91-9.07-8.46-15.53-.18-2.12-.39-4.6-1.56-6.19-1.8-2.43-4.57-4.34-7.58-1.47-3.39,3.24-6.11,2.45-9.34-.43-2.71-2.41-6-4.14-8.33-5.67l5.36-4.42c1.91,2.42,4,5.17,6.18,7.8,2,2.43,3.6,2.07,4.42-1,.13-.49.27-1,.38-1.45,1.76-7.59,1.74-7.54,8.73-4.91,1.09.41,2.47,0,4.6,0a70.72,70.72,0,0,0,.59,8.54c.27,1.51,1.56,2.84,2.38,4.26a34,34,0,0,0,2.32-4.27c.77-2,1.25-4.22,1.85-6.34,2.36.83,4.76,1.57,7.07,2.54s4.3,2.1,7,3.42c-.24,2.61-.45,6,3.83,7,.41.1.6,1.09.88,1.67,2.09,4.19,3.83,8.62,6.45,12.45.8,1.16,4.3,1.42,6,.74a9,9,0,0,0,4.93-4.77c.39-1.17-1.73-3.9-3.35-4.89-5-3-4.82-2.66-1.46-7.37,1-1.49.95-4.42.32-6.34-1.1-3.34-.44-5.7,2-8,2-1.9,4.28-3.79,3-7.28-.27-.72.75-2.08,1.43-2.94,1.24-1.56,2.8-2.87,4-4.45,4.27-5.62,9-10.29,16.89-9.36.74.09,1.55-.45,2.81-.84-5.94-8.21,2.61-11.85,4.64-18l9.67,5c3.53-4.9,2.13-6.74-13-17.23.74-1.88,1.55-3.91,2.44-6.18l8.69,3.18-.71-12.18c-.18-3.2,1.7-3.5,4.88-2.49,3.93,1.25,7.1,2.15,9.26,6.62,1.23,2.53,6.34,3.17,9.3,4.48,1.93-6.42,3.9-13,6.06-20.13-.5-.38-1.78-1.32-4.23-3.12l8.86-2.76c.18-2.1.37-4.53.61-7.35l10.38,4.41c-1.21,3.59-1.45,7.09,3.83,8.66l-.48,1.65c-3.25,1-6.44,2.44-9.76,2.85-5.41.65-9,4.17-8.74,9.82h12.17c-.89,2.85-1.18,5.6-2.5,7.7C972.4,45.64,965.5,56,958.74,66.39c6,7.59,6,7.59-1.76,16.25,5.46,3.52,2.18,7.49.37,11.47-.62,1.36-1.25,2.72-1.88,4.08-3.46,7.55-3.4,7.88,2.64,15,8.41-5.07,10.83-14.33,15.41-22-3.72-10.46,4.38-17.42,8.06-25.44,6.36-13.88,13.89-27.24,21.2-40.67,1.15-2.12,3.73-3.48,5.65-5.19l1.29.87c.27,6.14.56,12.27.83,18.4a3.34,3.34,0,0,1-.09,1.49c-5.69,11.58,2.13,23.51-2.42,35.11l1.62.29,15.5-11.34c-.2-1.11-1.35-3.81-.92-6.22.4-2.23,2.51-4.15,2.88-5.95a79.39,79.39,0,0,1-.1-10c.13-1.21,1.91-2.24,2.89-3.39a17.37,17.37,0,0,0,2.55-3.25c1.25-2.51,2.25-5.14,3.74-7.55-.27-6.44-6.26-5-10.47-6.61l4.56-12.56,6.77,2.31c.25-2.56-.1-5.06.85-6.89.79-1.54,4.35-3.45,4.52-3.25,4.66,5.16,9.15,1.43,13.65,0l3.15-1a15.89,15.89,0,0,1,1.29,3.08c.74,3.91,2.14,6.31,7,5.14,2.94-.72,5.21,2.71,3.88,6a84.57,84.57,0,0,1-6.7,13.35c-.87,1.38-3.64,1.75-5.63,2.17-3.06.66-6.45.58-7.2,5.08l6.7,3.35c-.75,2.4-1.39,4.43-2,6.47,2-.77,4-1.5,5.93-2.32.87-.37,1.66-.91,2.93-1.61,1,9.4-7.65,13.59-10.11,21.45,2,.24,4,.43,5.84.71,2.08.31,4.14,1,6.2,1,2.29,0,4.88-.11,6.73-1.2,1-.62,1.45-3.45,1.1-5.05a41.65,41.65,0,0,1,5.7-32.32c6.69-10.68,12.8-6.61,19.25,1,2.12,2.51,2.29,6.66,3.49,10.51l10.69-6.15,5.12,7.09,7.81-7c2.59,2.9,6.57,5.42,7.15,8.58s-2.12,7.07-3.64,11.34c4.13-.78,7.93-1.12,11.46-2.27,4-1.31,6.73-.31,8.82,3.15.34.56.94,1,1.29,1.52,2.37,3.79,5.24,5.94,9.81,2.61,1,2.92,1.79,5.43,2.6,7.95,2,6.32,1.17,8-5,10.89-3.68,1.73-7.67,3.28-10.61,5.93-2,1.81-2.41,5.39-3.61,8.14a16.76,16.76,0,0,1-1.84,3.18,6.17,6.17,0,0,1-1.65,1.1c-6,3.91-11.07,7.25-19.77,4.4-11.34-3.73-23.88-3.84-35.89-5.51-1.32,6.91-.17,8.42,6.18,10.23,4.55,1.29,8.87,3.34,13.33,5a5.05,5.05,0,0,0,2.87.22c4.51-1.25,8.13.3,11.43,3.38-.32,1.56-.65,3.15-1,5,4.43,1.4,8.24,6.13,13.19.76l4.76,6.68L1126.8,132c.3.46,1.13,2.92,2.06,2.95,4.23.17,9.93,1.23,12.37-1a10.92,10.92,0,0,0,1.56-13.93c6-3.9,5.94,3.54,9.57,4.19,7.87-2.73,12-.86,15.59,7.43,1.06,2.44,2.76,4.82,3,7.34.3,3.13.3,7-1.29,9.37-1,1.57-5.34,2-7.8,1.36-3.56-.88-6.87-3-10.11-4.86-1.85-1.07-3.24-2.92-5.07-4a3.88,3.88,0,0,0-3.42,0,3.69,3.69,0,0,0-1,3.09c.35,2.35,2.31,5.17,1.54,6.84-2.54,5.5-5.39,11.1-9.31,15.65-3.39,3.93-8.26,6.68-12.72,9.58-3.12,2-4.53,4.31-4.29,8.15.35,5.47-.23,11,.13,16.47.29,4.44-2.66,6.74-5.61,7.89-2,.78-5.25-.74-7.55-2-4.7-2.5-5.18-6.27-4.34-11.63,1.44-9.24,7-16,11.56-23.46,1.81-3,2.37-5.48,1-8.79-2.46-6.17-4.32-12.59-6.83-18.74a9.89,9.89,0,0,0-4.38-4.72c-4.61-2.28-9.5-4-14.29-5.91-4.58-1.83-9.58-3-11.13-8.82a3.49,3.49,0,0,0-2.63-1.89c-5.07-.29-7.09-3.61-8.38-7.82a9,9,0,0,0-.76-1.84c-1.53-2.63-3.15-7.47-4.64-7.44-4.87.11-10.63-.53-14.07,4.54-2.37,3.5-3.86,8.08-7,10.4-3.66,2.68-8.66,4.15-13.25,4.75-4,.52-8.27-.67-12.32-1.56-2.77-.6-3.84.51-4.93,2.74-4.21,8.62-7.48,17.85-15.21,24.31a5.12,5.12,0,0,0-1.26,3.12c-1.75,13.83-4.09,27.63-4.87,41.52-.42,7.41,1.36,15.1,3.1,22.44,1.92,8.11-4.28,12.81-6.76,19-.16.4-1.48.4-2.27.5-2.2.27-5.38-.33-6.41.89a44.28,44.28,0,0,0-6.77,11.26c-1.11,2.65-.91,5.88-1.16,8.86-.61,7.18-.67,7.31-7.84,11.07a72.93,72.93,0,0,1-5.78-7.23,10.23,10.23,0,0,0-9.54-5.19c-5.72.18-9.58-2.43-13.07-6.75a25.18,25.18,0,0,0-8.29-6.37c-2.38-1.16-4.71.06-5.69,3.11-2.06,6.39-5.13,11.49-13,12.36-2.68.3-5,3.5-8.11,5.8-3-7.35-9.3-6.69-15.48-6.53-1.37,0-2.75-.83-4.15-1.2-2.28-.6-4.59-1.14-6.88-1.71-.34.54-.67,1.08-1,1.62-2.18-6-4.22-12.13-6.58-18.1C858.77,233.47,856.2,228,853.55,221.85Z"/><path class="cls-46" d="M579.93,375c5.31-.11,11.08-1.28,14.86,5.66,1.22-3.62,2-5.9,3-8.7a31.27,31.27,0,0,0-5.28-2.63c-5.36-1.56-5.61-2.12-2.21-6.77a11.94,11.94,0,0,0,.81-1.56l-4.72-2.24a62.8,62.8,0,0,1,3.85-7.6c2.08-3,5.13-3.78,8.8-2.94,1.51.34,3.26-.33,4.9-.54.08-.6.17-1.2.25-1.79l-10-6.47c-5.56,4.38-10.8,8.76-16.33,12.72-1.8,1.29-4.37,1.51-6.58,2.21-.45-1.53-1.71-3.93-1.19-4.42,1.74-1.62,4.11-2.58,6.27-3.73a8.14,8.14,0,0,1,2.07-.26c-.24-1.93-.47-3.81-.72-5.91l-6.84-.76,9.3-9.12-2.4-3.72.46-1.43c2,.37,4.36.21,5.81,1.29.89.66.35,3.22.52,6l3.16,3.58c3.52-2,6.21-5.55,10.9-3.34.95.45,3-1.83,4.69-2.45,2.07-.75,4.51-.69,6.41-1.69,2.63-1.39,4.91-3.45,7.52-5.35-8.4-9.94,1.49-15.18,3.59-23.43a22.88,22.88,0,0,1,1.28,16.38c-1,3.48-.48,5.13,3.36,6.6,3.05,1.17,5.27,4.52,8.28,7.29,6.19-2.25.45-6.27.43-9.82l6.22-4.83-6.94-1c1.94-3.15,3.84-6.21,6.28-10.15l-8.89-.89,1.07-.87c-1-2-2.13-3.88-3-5.91-.52-1.27-.58-2.72-1.12-5.44,3.78,2.06,6.16,3.5,8.67,4.65.85.38,2,0,3.07,0-.18-1.14,0-2.51-.61-3.35a70.66,70.66,0,0,0-4.85-5.69c6.15-3.18,14.33-2.25,19,1.75a7,7,0,0,0,3.46,1.26c2.41.36,4.85.47,5.9.56,5.23-.59,9.5-.35,13.18-1.71s6.59-4.28,10.36-6.87l-7.13-8.33c-6.05,1.15-9.67,8.34-16.78,5.4l-1.46-5.52c-4.7,5.05-9.93,6.95-15.88,4.42-.92-.39-1.05-2.62-1.05-2.61,3.17-1.39,5.94-2,7.87-3.59,2.93-2.44,5.52-3.83,9.25-1.78,5.32,2.92,10.53.29,15.44-1.24,6.94-2.15,13.56-.6,20.16.7,2.18.44,3.91,3.22,5.84,4.92l-1.45.37c-.28,3.9-.72,7.8-.78,11.7,0,3-.12,6.13.71,8.94,4.55,15.35-5,26.16-11.74,38.51-6-4.87-11.75-9.37-17.31-14.1-2.31-2-4.19-2.45-6.32,0a7,7,0,0,1-1.55,1.25c-12.53,7.79-20.4,18.57-24,33.18-1.69,6.85-6.69,12.9-10.29,19.26a4.16,4.16,0,0,1-2.32,1.52c-1.66.48-4.14.09-4.95,1.11a28.85,28.85,0,0,0-4.74,8.69c-.42,1.26.8,3.55,1.92,4.77,9.6,10.4,4.94,22.57,4.31,34.2-.06,1.23-1.41,2.61-2.5,3.52-10.54,8.9-18.8,19.56-26,31.34-3.4,5.59-8.82,9.93-13,15.12a16.21,16.21,0,0,0-2.8,7,27.59,27.59,0,0,0-.28,8.46c1,8.18-2.37,13.63-9.76,16.79a18.53,18.53,0,0,1-6,1.8c-5,.28-10,.06-15,.17-5.8.12-8.14,2.58-7.89,8.27s.23,11.69,1.05,17.43c1.07,7.53-1.05,14.3-3.09,21.37-2.38,8.22-3.51,16.8-5.08,25.25-.49,2.61.33,6.39-1.17,7.72-5.87,5.24-5.74,13.41-10.29,19.07a6.5,6.5,0,0,1-4.91,1.9c-14.59-1.14-29.16-2.61-43.76-3.76a7.53,7.53,0,0,0-4.78,1.82c-2.68,2.22-5,4.85-7.53,7.3-3.29,3.25-7.08,4.59-11.74,3.39-6-1.54-12-2.86-18.42-4.37,2.22-5.13,4.76-7.65,9.54-8.33,5.73-.83,12.13-1.38,14-9.12h-8.27c-.46-3-1-6-1.27-9-.08-1,.65-2.14,1.12-3.16,1.74-3.79,3.54-7.57,5.59-11.95,5.63-.75,5.57-.74,4.47-7.74a67,67,0,0,1-.35-6.82c-1.29.16-2.36.28-3.41.44s-1.9.32-3.55.6c1.17-5.38-2.46-11.45,4.88-15.21a56.67,56.67,0,0,0,4,5.29c.75.79,2.12,1,3.2,1.44.42-1.21,1.29-2.46,1.17-3.61-.22-2-1.3-3.79-1.56-5.74-.18-1.31,0-3.15.78-4,2.14-2.29,3.52-4.17,1.12-7.27-.46-.59,1.21-3.07,2.19-4.48,1.2-1.75,2.7-3.28,4.22-5.08l13,8.66,1.25-.66c-.45-2.26-.15-5.21-1.49-6.63-2.8-3-5.83-5.4-4.73-10.16.1-.43-1.75-1.53-2.84-2a52,52,0,0,0-5.15-1.57v-1.59q9.66-2.79,19.32-5.61c2.87-.84,5.71-1.78,8.58-2.59,5.05-1.41,5.74-.84,5.66,4.53,0,.83,0,1.66,0,2.47,5.85,1.3,6.38.9,8.43-4.8l16.87-10.64-.65-1.81c-4,1.23-8.09,2.44-12.12,3.68-3,.91-5.9,3.67-8.88-.33-.41-.56-2.76.08-4.11.51-5.08,1.61-10.13,3.37-15.18,5.07l-.75-1.54c2.89-2,6-3.84,8.58-6.22,1.39-1.28,1.87-3.56,2.76-5.39-2.1,0-4.22,0-6.32.18-.57.05-1.1.69-2.15,1.39l-3.94-5.2c3.58-4,6-8.12,3.16-13.49-.38-.74.67-2.24,1.06-3.38a15.68,15.68,0,0,1,3.25,1.63,24.21,24.21,0,0,1,2.81,3.44c1.74-1.55,3.28-2.92,5.17-4.58l-4.85-4.26c2-3.37,5.53-5.8,3.87-10.95-.9-2.81,2.59-3.33,4.83-1.51,4.46,3.62,9.38,3.3,14.79,2.43-.94-3.46-2.49-5.08-6.1-4.61-1.35.17-2.89-1.12-4.62-1.87,4.35-6.54,9.65-1.79,14.21-3.19.41-4.56-3.13-6.34-6-8.66A32.11,32.11,0,0,1,513,426.2a42.09,42.09,0,0,1,4.32-3c1.29-.7,2.91-1.59,4.2-1.36,5.45,1,9.12-.63,10.35-7.62,6.48,9.43,11.57,2.3,17.71.35L545.32,410c1.76-5.62,5.68-7.83,11.47-8.39,4.94-.48,9.91-2.75,13,4.13,2.82-4.78,6.58-3.95,9.83-2.43s5.74,3.93,8.3,5.76l4.94-6.89c-.91-.45-2.13-1.12-3.4-1.67-2.59-1.12-6.28-1.46-7.63-3.41-4.22-6.14-9.64-5-15.61-4.46-4.51.4-9.17-.77-13.89-1.26,2.31-3.41,4.91-7.43,7.72-11.3,1.79-2.48,4.14-3,7-1.41a56.19,56.19,0,0,0,5.92,2.51c3.79-3.29,1-4.61-1.37-6.42-1.5-1.16-2.47-3-3.68-4.54,3.06-1.71,6-3.69,9.26-4.94.68-.26,3.09,2,3.44,3.38C581.07,370.51,580.26,372.64,579.93,375Z"/><path class="cls-47" d="M645.6,271c3.46-3.22.66-9.06,6.29-11.89,4.45-2.25,8-5.07,12.18.38l3.73-4.6c4.42-1.1,8.73,5,13.8-.2l-6.18-4.7c2.8-6.43,8.32-2.62,13.46-4.39l-5.39-3.19c2.24-6.08,8-3.3,12.13-6.82-2.53-1-4.52-2.16-6.66-2.62-6-1.28-7.12-3.91-4.33-9.56,3.59-7.25,8.94-12.13,16.89-14.11a31.43,31.43,0,0,0,4.81-2c.19-.64.45-1,.34-1.25-3-6.18-3-11.74,2.13-17.1,1.5-1.55,1.25-4.71,2-7.05.61-1.84,1.59-3.56,3-6.73,3,6.17,5.58,10.62,7.4,15.35,1.67,4.35,4.13,5.92,8.64,4.68,2.33-.64,4.79-.82,7.55-1.76-8.37-2.21-9.93-9.69-13.41-15.71-1.78-3.07-.32-4.77,1.84-6.13,3.62-2.29,8.71-.43,10.51,3.56a33.73,33.73,0,0,1,1.63,3.64c2.2,6.92,6,12.5,11.63,14.88-.29,3.81-1.78,8-.46,9.27,3.33,3.16,5.64-.91,7.94-2.41a91.47,91.47,0,0,0-3.41-9.66c-.78-1.64-2.47-2.88-3.87-4.19-2.93-2.74-5.94-5.41-9.79-8.91l9-7.11-.47-1.38-8.28-1.88c-.47-6.15,5.08-16.51,10.32-19,3.58-1.73,7.15-3.69,10.95-4.72,4.79-1.29,7,.89,6.16,5.79C766,159.71,763.92,170,762,180.25c-.12.62-.13,1.26-.2,1.89l1.17.67a45.63,45.63,0,0,0,3.08-4.65c2.16-4.26,1.92-10,7.77-12,.48-.17.75-2.48.33-3.47-2-4.77-.82-8.83,1.73-13.09,3.92-6.55,7.34-13.39,11-20.16,4.46,1.16,4.24,4.59,4,7.59-.4,4.47-1.39,8.87-2,13.32-.3,2.29-1.13,5.09-.19,6.84,3.27,6.08.87,11.22-1.6,16.54a50.48,50.48,0,0,0-3,7.36c-.45,1.63-.08,3.49-.08,5.25l1.33.22,8.43-16.27,9.51,3,1.07-1.22c-1.58-1.75-2.87-4-4.81-5.16-4.54-2.75-2.7-7-3.17-10.74-.56-4.47.46-7.84,5.37-8.92,3.89-.85,4.41-3.77,4.89-7.08.29-2,1.55-3.89,2.37-5.84l1.31.59c.67,2.56,1.33,5.13,2.27,8.76,2.41-4.36,4.83-6.05,8-2.31,3-3.32,3.57-6.51,1.84-10.29-1.3-2.85-1.88-6.67,1.7-7.54,2.37-.58,7.22,1.11,7.92,3,3.68,9.63,15,12,18.13,21.81l1.66-.93c-1-4.2-2-8.38-2.85-12.6-.42-2.09-1.05-3.79,1.25-6.07,3.27-3.25.61-6.26-3.07-8.13a18.82,18.82,0,0,0,1.55-2.17c.55-1.06,1-2.2,1.42-3.31-1.34-.17-2.88-.85-4-.43-5.24,2-10.21,2.08-14.08-2.33-2-2.33-3.15-5.47-5.06-9,6.61.29,9.79,6.69,15.29,8.67a1,1,0,0,0,.38-.08c9.31-5.33,9.81-5.4,11.35,5.17,1,6.59,4.25,10.94,9.21,14.54,2.82,2.06,4.3,4.57,3.7,8.06-1.4,8.11,1.74,14.36,7.41,20,4,3.93,2.66,9.31-2.37,12-2.05,1.1-4.19,2-6.28,3.07-6.48,3.16-7.86,6.31-5.64,13.39,1.78,5.71,3.78,11.35,5.64,17a9.78,9.78,0,0,1-6.47,12.37c-2.55.74-5.13,1.38-8.22,2.21-3.3-5.6-7-11.11-9.91-17-3.17-6.56-9.77-6.12-15-8.37-.51-.22-1.71.76-2.38,1.4-1.09,1-1.86,2.41-3,3.31-6.09,4.67-7.24,10.52-4.87,17.6.52,1.53-.44,3.56-.72,5.36a26.54,26.54,0,0,1-5.33-1.11c-2.58-1.11-5-2.65-7.69-4.13-5,8.35-14.6,4.34-20.7,7.75,2,6.69,4,13.06,5.56,19.56a10.62,10.62,0,0,1-1,6.53c-3.22,6.57-6.58,13.1-10.38,19.34-2.21,3.62-1.83,5.92,1.56,8.21A34.19,34.19,0,0,1,781,281.8a5.46,5.46,0,0,1-.43,1.24c-9.14,11.45-9.21,11.59-22.34,5.2-10.68-5.19-21.35-9.91-33.63-9.78-2.19,0-4.66-2.18-6.54-3.87-2.27-2-4.27-3.33-7.51-2.2-4,1.4-7.67,1.23-10.16-3.19-.67-1.2-2.58-2.09-4.07-2.38-8.52-1.65-16.94-2.37-25.49.6a16.53,16.53,0,0,1-10-.25c-4-1.34-6.87-1.25-9.79,1.85-1.19,1.25-3,1.93-4.52,2.88Z"/><path class="cls-48" d="M699.11,203.05c-7.5,4.82-13.66,5.41-16.92,2L669,216.28l-8-2.18c.7-3.9,9.53-4.33,4.35-11l5.23-3.33L667,194.41c3-3.43,1.55-6.35-2.17-8.73,3.61-3.16,6.93-4.54,11.23-2.6,1.22.56,3,0,4.45,0a22.45,22.45,0,0,0-.81-4.61,38,38,0,0,0-2.93-5l3.74-2.76c3.57.31,4.94,6.39,9.15,3a15.92,15.92,0,0,0,4-6.14c2.39-1.06,2.39-1.06,5.24,5.69a20.34,20.34,0,0,0,2.26-.16,4,4,0,0,0,1.16-.33c1.09,2.95,2.67,5.4,2.76,7.91s-.59,6.85-2.12,7.48c-7.56,3.08-5.21,8.4-4.05,13.65C699,202.17,699,202.64,699.11,203.05Z"/><path class="cls-49" d="M615.06,226.63c0,14.54-3,27.19-6.95,39.69-1.85,5.85-1.74,5.89,3.43,10.3,2.36-3.17,5-6.17,7-9.52s4.69-4.76,8.61-4.15c3.08.47,6.21.62,9.72,2-10,1.5-13.9,9-17.85,17.38-.85-2.36-1.34-3.72-2.15-5.93L606.5,288.44l-9.78-2.73,5-9.19-1-1c-6,3-8.46,10.11-14.32,13.57,1.87-4.88,1.71-10.5,6.81-14a7.53,7.53,0,0,0,2.66-5.64c-.22-4.3,1.41-6.6,5.24-8.39,5.65-2.63,6-4.26,3.3-10.21l4.76-3.22-3.44-6.44c3.15-1.92,5.72-3.91,5.2-8.37C610.69,231.22,613.2,229.27,615.06,226.63Z"/><path class="cls-50" d="M619.43,258.73c2.05-1.08,4.51-1.76,6.05-3.33,2-2.11,3.41-4.9,5-7.43.44-.68,1.15-1.84.9-2.21-3.7-5.46,2.07-7.8,3.32-11.85,8.83,5.79,11.07,13.42,8.43,22.84-.4,1.43-.56,2.93-.82,4.4-.59,3.31-1.73,3.88-4.54,1.51-5.21-4.4-17.07-2.64-21.11,2.79-1.73,2.33-3.57,4.58-5.36,6.87l-1.13-.51L619,228l.91-.06c-.24,3.34-.44,6.68-.73,10-.25,2.83-1.83,5.88,1.86,7.91.42.23.13,2.16-.18,3.2-.79,2.66-1.79,5.27-2.7,7.89Z"/><path class="cls-51" d="M579.54,259.25c2.35-7.84,9.89-8.4,13.8-13.42l-3.1-4.1c-1.94,1.43-3.66,2.65-5.33,3.93-2.24,1.71-4.19,3.36-7.59,2.36-1.43-.43-3.55,1.65-5.4,2.47-1.69.75-3.44,1.35-5.16,2,0-2.31-.84-5.06.13-6.84,1.71-3.14,4.51-5.68,7-8.66l5.76,2.83c3.1-3.74,6.47-7.23,11.76-4.62,2.21-6.51-3.35-13.54,3.31-19.16a11.94,11.94,0,0,1,1.78,2.78c1.51,5.17,4,10.4,4,15.59,0,5-1.18,10-.3,15.05.08.45-1.36,1.29-2.2,1.78-4.31,2.51-8.59,5.08-13,7.35C583.61,259.27,581.83,259,579.54,259.25Z"/><path class="cls-52" d="M857.29,70.5c3.8-6.55,0-9.33-6.28-11.83,5.76-2.63,10.17-4.73,14.69-6.6.64-.27,1.91.34,2.6.9,4.74,3.87,6.79,3.19,8.47-2.89.25-.88.65-1.72,1-2.65,7.11,4.45,9.06,3.36,10.81-4.86.42-2,2.29-4.46,4.08-5.1,3.5-1.27,5.5,1.23,3.78,4.64s-4.09,6.28-6.14,9.42c-1.32,2-2.32,4.31-3.93,6-2.47,2.63-5.14,6.51-8.1,6.88-4.39.55-7.75,2.24-11.38,4.23-2.42,1.33-5.3,1.83-8,2.7Z"/><path class="cls-53" d="M751.15,115.1l5.74,6,3.52-2.74c5.08,2.41,5.37,3.5,2.37,7.74-2.49,3.53-4.92,7.09-7.33,10.67-2.64,3.92-7.22,4.75-11,1.91-1.86-1.41-3.68-2.86-5.52-4.29-4.72-3.68-4.65-3.61-.48-7.63.69-.67.23-2.4.74-3.42.8-1.59,1.67-3.47,3.06-4.37C744.65,117.49,747.43,116.68,751.15,115.1Z"/><path class="cls-54" d="M902.28,62.82A62.54,62.54,0,0,1,905,70.75a7.06,7.06,0,0,1-.74,5,159.49,159.49,0,0,1-9.89,13.11c-2.07,2.46-4.49,4-5.9-.92a5,5,0,0,0-3.12-2.77c-3.76-1-4.2-3.64-3.28-6.51,1.42-4.48,3.61-8.19,8.84-9.76C894.81,67.73,898.24,65.05,902.28,62.82Z"/><path class="cls-55" d="M713.58,160.27c.15-2.12.31-4.24.46-6.39l6.11-1.9c-.67-2.07-1.27-3.88-2-6,1.55-.71,3-1.46,4.49-2.05,4.18-1.64,5-.68,5.75,3.56.92,5.28,2.79,10.39,4.54,16.6-1.35.65-3.35,2.16-5.55,2.56-4.4.81-8.95.77-13.36,1.55-3.81.68-4.86-2.06-5.41-4.39-.24-1,2.27-2.66,3.53-4Z"/><path class="cls-56" d="M608,227.88c-1.22-1.45-2-2-2-2.38,1.55-5.91,1.22-12.35,6.72-17,3.63-3.08,5.73-7.94,9.27-11.17,2.87-2.62,6.86-4,11.19-6.37-1.58,11.56-5.12,20.64-13.73,27.11-.52.4-1.1,1.15-1.6,1.1C612.18,218.67,609.75,222.36,608,227.88Z"/><path class="cls-57" d="M574.94,289.49l-3.7-3.14c-2.16,3-3.69,6.43-6.3,8.41s-6.27,2.48-9.65,3.7c-1-5.59-1-10,5.21-11.38.72-.16,1.83-.92,1.85-1.44.26-7,7.17-6.32,10.73-10l4.29,5.45,7.4-5.63C585.07,280.11,585.07,280.11,574.94,289.49Z"/><path class="cls-58" d="M529.18,288.45c3.78-1.6,7.25-2.53,10.15,2.08.8,1.27,3.3,1.47,5.75,2.45-.91,1-1.52,2.11-2.47,2.6-3.79,1.93-8,3.12-9.32,8.12-.18.71-4.18,1.35-5.7.58-3.78-1.9-2.42-5.12-.93-8,1.18-2.3,2.4-4.57,3.61-6.86Z"/><path class="cls-59" d="M909.77,46.8c3.57,2.19,5.66,3.21,7.44,4.62,4.68,3.7,4,10.52-1.22,13.51-2.81,1.61-6.91-.06-7-3.27C908.84,57.18,909.41,52.68,909.77,46.8Z"/><path class="cls-60" d="M806.09,104.44c-.58,3.67-.8,7-1.78,10.13-.32,1-2.62,1.86-4,1.92a7.39,7.39,0,0,1-4.42-1.54c-1.39-1.06-3.54-3.54-3.24-4,2.31-3.47,4.75-7,7.92-9.67C803.25,99,806.26,101.25,806.09,104.44Z"/><path class="cls-61" d="M432.36,584.14c-.06-1.14-.65-2.68-.12-3.56,2.5-4.19,5.46-8.12,7.92-12.34.78-1.33.6-3.27.7-4.94s0-3.36,0-5.75c1.76.81,2.89,1,3.39,1.62,3.06,4,.68,16.71-3.45,19.31C438.17,580.16,435.61,582,432.36,584.14Z"/><path class="cls-62" d="M780.81,111.09c-2.59,4.42-5.15,4.9-8.69,3.86s-2.13-3.94-2.86-6c-.94-2.75-2-5.46-2.91-8.22-.52-1.62-.81-3.31-1.2-5l1.78-.86C771.6,100.32,776.27,105.79,780.81,111.09Z"/><path class="cls-63" d="M605.08,320.29c-3.06-4.87-6.76-6.08-11.21-2.09-.77-5.57.91-7.69,5.67-8.58A71.67,71.67,0,0,0,608,307c-.37,4.69-.69,8.73-1,12.77Z"/><path class="cls-64" d="M865.43,90.19c3.14-2.16,5.17-4.22,7.61-5s8.94,6.49,8,9c-.31.8-2.78,1.5-3.88,1.13C873.57,94,870.19,92.3,865.43,90.19Z"/><path class="cls-65" d="M736.29,136.82c1.37,2,2.82,4,4.09,6.12,2.08,3.42.21,7.5-3.78,7.78-1.07.07-3.16-1.45-3.24-2.37a81.11,81.11,0,0,1,.29-10Z"/><path class="cls-66" d="M507,306.39c-.19,3.28-.37,6.56-.61,10.65a7.34,7.34,0,0,1-2.12.87c-3.18.6-4.78,2.28-5.18,5.63-.22,1.86-.21,5.18-4.52,3.4,3.83-7.07,7.59-14,11.34-20.92Z"/><path class="cls-67" d="M761.2,136.36l9.67-12.15,1.57.2c0,1.38.51,3.07-.09,4.09C770.13,132.22,770.05,138.58,761.2,136.36Z"/><path class="cls-68" d="M635.89,272.32c2,7.58,1.6,8.19-7,10.13C627.33,278.59,630.85,273.53,635.89,272.32Z"/><path class="cls-69" d="M539.43,413.52l-9-4.55,11.59-6.42C541.12,406.43,540.38,409.53,539.43,413.52Z"/><path class="cls-70" d="M640.72,222.8c2.76,2.4,7.79,2.41,6.33,7.7-.16.6-2.68,1.33-3.23.9C641.31,229.42,637.22,227.82,640.72,222.8Z"/><path class="cls-71" d="M656.45,248.18l5.66-9.53C667.21,244.06,666,246.68,656.45,248.18Z"/><path class="cls-72" d="M452.63,522.47c2.05-3,3.83-5.61,5.62-8.21l2,.5c0,1.73.66,3.87-.12,5.11C457.77,523.6,456.13,524.06,452.63,522.47Z"/><path class="cls-73" d="M808.11,120.63l6.52,3.14c-1.21,3-2,6-5.76,4.4C805.41,126.64,805.43,123.94,808.11,120.63Z"/><path class="cls-74" d="M435.15,592.25c-.73,3.08-1.38,6.19-2.26,9.24-.11.38-1.47.72-2.1.54s-1.61-1.22-1.5-1.57c1-3,2.25-6,3.41-8.94Z"/><path class="cls-75" d="M674.76,233c.35,2.38,1,4.78.83,7.13,0,.45-3,.73-4.64,1.09.33-2.72.66-5.45,1-8.17Z"/><path class="cls-76" d="M459.72,499.64c2.62,5.86-.07,8.27-8.2,7.56Z"/><path class="cls-77" d="M431.5,545.26c-1.83,1.38-3.13,3-3.95,2.83-1.36-.35-2.41-1.9-3.59-3a21.18,21.18,0,0,1,4.07-3.43C428.37,541.53,429.86,543.55,431.5,545.26Z"/><path class="cls-78" d="M519.11,298.16c.38,4.37,1.19,8.16-2.86,10.24-1,.53-2.86-.44-4.45-.74Z"/><path class="cls-79" d="M920.29,16.28c.54,2.27,1.07,4.55,1.61,6.82l-3.23.62c-.43-2.29-.87-4.57-1.3-6.86Z"/><path class="cls-80" d="M677.1,221.87l3.07-6.81,2.54,1.15-3.05,6.71Z"/><path class="cls-81" d="M732.1,119c1.39-2.81,2.4-4.87,3.47-7C739.26,114.94,738.7,116.18,732.1,119Z"/></g></g></g></g></svg>