<svg id="Layer_1" data-name="Layer 1" xmlns="http://www.w3.org/2000/svg" xmlns:xlink="http://www.w3.org/1999/xlink" width="363.47" height="500.83" viewBox="0 0 363.47 500.83">
  <defs>
    <style>
      .cls-1 {
        fill: url(#linear-gradient);
      }

      .cls-2 {
        fill: url(#linear-gradient-2);
      }

      .cls-3 {
        fill: url(#linear-gradient-3);
      }

      .cls-4 {
        fill: url(#linear-gradient-4);
      }

      .cls-5 {
        fill: #fff;
      }

      .cls-6 {
        fill: url(#linear-gradient-5);
      }

      .cls-7 {
        fill: url(#linear-gradient-6);
      }

      .cls-8 {
        fill: url(#linear-gradient-10);
      }

      .cls-9 {
        fill: url(#linear-gradient-11);
      }

      .cls-10 {
        fill: url(#linear-gradient-12);
      }

      .cls-11 {
        fill: url(#linear-gradient-13);
      }

      .cls-12 {
        fill: url(#linear-gradient-14);
      }

      .cls-13 {
        fill: url(#linear-gradient-18);
      }
    </style>
    <linearGradient id="linear-gradient" x1="250.18" y1="243.47" x2="250.18" y2="12.24" gradientUnits="userSpaceOnUse">
      <stop offset="0" stop-color="#22e6e6"/>
      <stop offset="1" stop-color="#47fdb9"/>
    </linearGradient>
    <linearGradient id="linear-gradient-2" x1="250.18" y1="243.47" x2="250.18" y2="12.24" xlink:href="#linear-gradient"/>
    <linearGradient id="linear-gradient-3" x1="250.18" y1="243.47" x2="250.18" y2="12.24" xlink:href="#linear-gradient"/>
    <linearGradient id="linear-gradient-4" x1="68.44" y1="231.27" x2="431.92" y2="231.27" gradientUnits="userSpaceOnUse">
      <stop offset="0" stop-color="#63c"/>
      <stop offset="1" stop-color="#855cd6"/>
    </linearGradient>
    <linearGradient id="linear-gradient-5" x1="66.81" y1="385.96" x2="429.34" y2="385.96" xlink:href="#linear-gradient-4"/>
    <linearGradient id="linear-gradient-6" x1="66.85" y1="385.96" x2="429.37" y2="385.96" xlink:href="#linear-gradient-4"/>
    <linearGradient id="linear-gradient-10" x1="66.81" y1="462.8" x2="429.34" y2="462.8" xlink:href="#linear-gradient-4"/>
    <linearGradient id="linear-gradient-11" x1="66.81" y1="468.81" x2="429.34" y2="468.81" xlink:href="#linear-gradient-4"/>
    <linearGradient id="linear-gradient-12" x1="66.81" y1="468.56" x2="429.34" y2="468.56" xlink:href="#linear-gradient-4"/>
    <linearGradient id="linear-gradient-13" x1="66.81" y1="462.47" x2="429.34" y2="462.47" xlink:href="#linear-gradient-4"/>
    <linearGradient id="linear-gradient-14" x1="66.81" y1="467.98" x2="429.34" y2="467.98" xlink:href="#linear-gradient-4"/>
    <linearGradient id="linear-gradient-18" x1="66.81" y1="475.67" x2="429.34" y2="475.67" xlink:href="#linear-gradient-4"/>
  </defs>
  <g id="v9_Group_" data-name="v9&lt;Group&gt;">
    <path class="cls-1" d="M244.16,66.73c-51.27,3-92.18,45.51-93.4,96.86q-.1,4.56.19,9a6.75,6.75,0,0,0,12.18,3.57h0a6.86,6.86,0,0,0,1.27-4.52c-.13-1.87-.2-3.76-.2-5.65a86,86,0,1,1,172,0c0,1.89-.07,3.78-.19,5.64a6.86,6.86,0,0,0,1.27,4.54h0a6.76,6.76,0,0,0,12.19-3.64q.22-3.24.22-6.54A99.57,99.57,0,0,0,244.16,66.73Z" transform="translate(-68.44 0.83)"/>
    <path class="cls-2" d="M242.78,33.07C174.51,36.79,119.66,92.65,117.12,161a132.6,132.6,0,0,0,7.68,49.86,6.75,6.75,0,0,0,11.8,1.71h0a6.63,6.63,0,0,0,.93-6.17,119.06,119.06,0,0,1-6.94-44.47c2.06-61.33,51-111.67,112.27-115.34a119.69,119.69,0,0,1,120,159.66,6.78,6.78,0,0,0,.86,6.33h0a6.74,6.74,0,0,0,11.78-1.69A132.36,132.36,0,0,0,383.32,166C383.32,90.14,319.54,28.89,242.78,33.07Z" transform="translate(-68.44 0.83)"/>
    <path class="cls-3" d="M250.18-.83C158.18-.83,83.34,74,83.34,166a165.92,165.92,0,0,0,18.94,77.17,6.71,6.71,0,0,0,11.35.84l.06-.09a6.74,6.74,0,0,0,.48-7.11A152.33,152.33,0,0,1,96.82,166c0-86.54,72.05-156.59,159.34-153.26,81.27,3.1,146.45,70.17,147.37,151.5a152.51,152.51,0,0,1-17.4,72.67,6.69,6.69,0,0,0,.55,7h0a6.75,6.75,0,0,0,11.43-.85A165.77,165.77,0,0,0,417,166C417,74,342.17-.83,250.18-.83Z" transform="translate(-68.44 0.83)"/>
    <path class="cls-4" d="M430.3,317.47l-42.14-57.75-8.49-11.65L330,180a8.38,8.38,0,0,0-13.52,0l-13.44,18.42-46.14-63.24a8.37,8.37,0,0,0-13.52,0l-46.14,63.25L183.84,180a8.36,8.36,0,0,0-13.51,0L70.07,317.47a8.36,8.36,0,0,0,6.76,13.3h346.7A8.37,8.37,0,0,0,430.3,317.47Z" transform="translate(-68.44 0.83)"/>
    <path class="cls-5" d="M243.42,153.11l-32.83,45c-4.24,5.81,2.59,13.23,8.73,9.49l37.42-22.78a6.57,6.57,0,0,1,7.75.67h0c5.9,5.18,14.27-2.47,9.65-8.81l-17.2-23.57A8.37,8.37,0,0,0,243.42,153.11Z" transform="translate(-68.44 0.83)"/>
    <path class="cls-5" d="M191,207l-22.77,31.21-22,13.42c-6.14,3.73-13-3.68-8.74-9.49l32.83-45a8.37,8.37,0,0,1,13.53,0Z" transform="translate(-68.44 0.83)"/>
    <path class="cls-5" d="M316.52,197.17l-32.83,45c-4.24,5.81,2.58,13.23,8.72,9.49l37.42-22.78a6.56,6.56,0,0,1,7.76.67h0c5.89,5.18,14.27-2.47,9.64-8.81L330,197.17A8.37,8.37,0,0,0,316.52,197.17Z" transform="translate(-68.44 0.83)"/>
  </g>
  <g>
    <g>
      <path class="cls-6" d="M110.26,418.77,97.6,400.49h-14v18.28H68.44V353.14H96.85A36.42,36.42,0,0,1,112,356.05,21.72,21.72,0,0,1,125.35,377a21.39,21.39,0,0,1-13.5,20.71l14.72,21.1Zm-3.85-50.3q-3.55-3-10.4-3H83.63v22.87H96q6.84,0,10.4-3A10.41,10.41,0,0,0,110,377Q110,371.42,106.41,368.47Z" transform="translate(-68.44 0.83)"/>
      <path class="cls-7" d="M192.29,404.71H161.82L156,418.77H140.44l29.26-65.63h15L214,418.77H198.1Zm-4.78-11.54L177.1,368.05l-10.4,25.12Z" transform="translate(-68.44 0.83)"/>
      <path class="cls-6" d="M232.6,353.14h29.82a41.9,41.9,0,0,1,18.89,4.08,30.57,30.57,0,0,1,12.75,11.48,35,35,0,0,1,0,34.51,30.57,30.57,0,0,1-12.75,11.48,41.9,41.9,0,0,1-18.89,4.08H232.6Zm29.07,53.16q9.84,0,15.7-5.49T283.23,386q0-9.37-5.86-14.86t-15.7-5.49H247.79V406.3Z" transform="translate(-68.44 0.83)"/>
      <path class="cls-6" d="M321.77,353.14H337v65.63H321.77Z" transform="translate(-68.44 0.83)"/>
      <path class="cls-6" d="M377.59,415.49a32.72,32.72,0,0,1-12.84-12.14,34.93,34.93,0,0,1,0-34.79,32.72,32.72,0,0,1,12.84-12.14,40.67,40.67,0,0,1,36.8,0,33.48,33.48,0,0,1,0,59.07,40.67,40.67,0,0,1-36.8,0Zm28.92-11.21a19,19,0,0,0,7.36-7.45,23.4,23.4,0,0,0,0-21.75,19,19,0,0,0-7.36-7.45,21.89,21.89,0,0,0-21,0,19,19,0,0,0-7.36,7.45,23.4,23.4,0,0,0,0,21.75,19,19,0,0,0,7.36,7.45,21.89,21.89,0,0,0,21,0Z" transform="translate(-68.44 0.83)"/>
    </g>
    <g>
      <path class="cls-8" d="M77.32,456.36v29.29H68.44V440h6.89l23.82,30V440H108v45.64h-7.21Z" transform="translate(-68.44 0.83)"/>
      <path class="cls-9" d="M131.85,486.29a18.44,18.44,0,0,1-7.41-1.42,16.62,16.62,0,0,1-5.57-3.83,16.85,16.85,0,0,1-3.5-5.56,18.67,18.67,0,0,1,0-13.33,16.5,16.5,0,0,1,9.07-9.39,18.44,18.44,0,0,1,7.41-1.42,18.13,18.13,0,0,1,7.36,1.42,16.59,16.59,0,0,1,5.54,3.83,16.94,16.94,0,0,1,3.51,5.56,18.82,18.82,0,0,1,0,13.33,17.3,17.3,0,0,1-3.48,5.56,16.1,16.1,0,0,1-5.54,3.83A18.35,18.35,0,0,1,131.85,486.29ZM123,468.85a11.72,11.72,0,0,0,.67,4.08,9.8,9.8,0,0,0,1.87,3.19,8.34,8.34,0,0,0,12.55,0A9.92,9.92,0,0,0,140,472.9a12,12,0,0,0,.67-4.12,11.79,11.79,0,0,0-.67-4,9.92,9.92,0,0,0-1.87-3.22,8.3,8.3,0,0,0-2.8-2.09,8.1,8.1,0,0,0-3.47-.74,7.85,7.85,0,0,0-3.48.77,8.66,8.66,0,0,0-2.8,2.12,9.85,9.85,0,0,0-1.87,3.22A11.89,11.89,0,0,0,123,468.85Z" transform="translate(-68.44 0.83)"/>
      <path class="cls-10" d="M175.35,459.38a17,17,0,0,0-7,1.52,8.82,8.82,0,0,0-4.44,4.34v20.41h-8.63V451.92h7.92v7.21a15.42,15.42,0,0,1,2.12-3.12,16.62,16.62,0,0,1,2.64-2.42,12.76,12.76,0,0,1,2.87-1.58,8,8,0,0,1,2.79-.54h1.07a3.63,3.63,0,0,1,.67.06Z" transform="translate(-68.44 0.83)"/>
      <path class="cls-11" d="M192.48,486.29A15.21,15.21,0,0,1,181,481.21a17.58,17.58,0,0,1-3.32-5.57,19.55,19.55,0,0,1-1.19-6.86,19.88,19.88,0,0,1,1.13-6.82,18,18,0,0,1,3.12-5.54,14.5,14.5,0,0,1,4.76-3.73,13.62,13.62,0,0,1,6-1.35,12.82,12.82,0,0,1,6.73,1.8,13.06,13.06,0,0,1,4.67,4.7V438.66h8.62v37.07a3.24,3.24,0,0,0,.45,1.94,2,2,0,0,0,1.55.64v7.34a19.6,19.6,0,0,1-3.67.45,6,6,0,0,1-3.8-1.16,4.2,4.2,0,0,1-1.67-3l-.19-2.12a12.38,12.38,0,0,1-5.06,4.86A14.38,14.38,0,0,1,192.48,486.29Zm2.25-7.34a8.05,8.05,0,0,0,2.51-.42,8.43,8.43,0,0,0,2.38-1.19,10.18,10.18,0,0,0,2-1.8,7.56,7.56,0,0,0,1.32-2.25v-8.05a9.62,9.62,0,0,0-1.45-2.6,10.44,10.44,0,0,0-2.13-2.07,11.21,11.21,0,0,0-2.51-1.38,7.16,7.16,0,0,0-2.61-.51,7.88,7.88,0,0,0-3.57.83,8.59,8.59,0,0,0-2.8,2.29,11,11,0,0,0-1.8,3.31,11.8,11.8,0,0,0-.64,3.86,10.48,10.48,0,0,0,.71,3.93,10.24,10.24,0,0,0,1.93,3.16,8.65,8.65,0,0,0,2.93,2.12A9.06,9.06,0,0,0,194.73,479Z" transform="translate(-68.44 0.83)"/>
      <path class="cls-12" d="M219.83,471.87v-7.79h19.5v7.79Z" transform="translate(-68.44 0.83)"/>
      <path class="cls-8" d="M256.65,456.36v29.29h-8.88V440h6.89l23.81,30V440h8.89v45.64h-7.21Z" transform="translate(-68.44 0.83)"/>
      <path class="cls-9" d="M311.17,486.29a18.39,18.39,0,0,1-7.4-1.42A16.52,16.52,0,0,1,298.2,481a17,17,0,0,1-3.51-5.56,18.82,18.82,0,0,1,0-13.33,16.94,16.94,0,0,1,3.51-5.56,16.52,16.52,0,0,1,5.57-3.83,18.39,18.39,0,0,1,7.4-1.42,18.18,18.18,0,0,1,7.37,1.42,16.58,16.58,0,0,1,9,9.39,18.67,18.67,0,0,1,0,13.33,17.11,17.11,0,0,1-3.47,5.56,16.2,16.2,0,0,1-5.54,3.83A18.43,18.43,0,0,1,311.17,486.29Zm-8.82-17.44a11.72,11.72,0,0,0,.68,4.08,10,10,0,0,0,1.86,3.19,8.33,8.33,0,0,0,2.81,2.09,8.18,8.18,0,0,0,3.47.74,8.23,8.23,0,0,0,6.28-2.83,9.9,9.9,0,0,0,1.86-3.22,12,12,0,0,0,.68-4.12,11.79,11.79,0,0,0-.68-4,9.9,9.9,0,0,0-1.86-3.22,8.4,8.4,0,0,0-2.8-2.09,8.17,8.17,0,0,0-3.48-.74,7.77,7.77,0,0,0-3.47.77,8.7,8.7,0,0,0-2.81,2.12,10,10,0,0,0-1.86,3.22A11.89,11.89,0,0,0,302.35,468.85Z" transform="translate(-68.44 0.83)"/>
      <path class="cls-10" d="M354.68,459.38a17,17,0,0,0-7,1.52,8.8,8.8,0,0,0-4.45,4.34v20.41H334.6V451.92h7.92v7.21a15,15,0,0,1,2.12-3.12,15.79,15.79,0,0,1,2.64-2.42,12.7,12.7,0,0,1,2.86-1.58,8,8,0,0,1,2.8-.54H354a3.74,3.74,0,0,1,.68.06Z" transform="translate(-68.44 0.83)"/>
      <path class="cls-13" d="M371,485.84a13.94,13.94,0,0,1-6.18-1.35,15.16,15.16,0,0,1-4.79-3.7,16.73,16.73,0,0,1-3.12-5.44,19.28,19.28,0,0,1-1.1-6.57A19.65,19.65,0,0,1,357,462a17.61,17.61,0,0,1,3.22-5.54,14.7,14.7,0,0,1,11.33-5.08,13.15,13.15,0,0,1,6.88,1.77,15,15,0,0,1,4.9,4.73v-5.92h7.53V484a15.21,15.21,0,0,1-1.42,6.69,14.65,14.65,0,0,1-3.89,5,17.51,17.51,0,0,1-5.93,3.15,24.56,24.56,0,0,1-7.49,1.1,21.17,21.17,0,0,1-9.3-1.83,18.87,18.87,0,0,1-6.47-5.19l4.69-4.57a13.44,13.44,0,0,0,4.87,3.74,14.64,14.64,0,0,0,6.21,1.35A13.54,13.54,0,0,0,376,493a9.13,9.13,0,0,0,3.25-1.71,8,8,0,0,0,2.22-2.95,10.5,10.5,0,0,0,.8-4.25v-4.25a11.38,11.38,0,0,1-4.7,4.47A13.84,13.84,0,0,1,371,485.84Zm2.9-6.89a8.14,8.14,0,0,0,2.7-.45,9.63,9.63,0,0,0,4.31-3,8.18,8.18,0,0,0,1.29-2.19v-8.05a10.46,10.46,0,0,0-3.63-4.76,8.72,8.72,0,0,0-5.19-1.8,7.32,7.32,0,0,0-3.6.87,9.17,9.17,0,0,0-2.77,2.31,10.58,10.58,0,0,0-1.77,3.32,12.23,12.23,0,0,0-.61,3.86,10.5,10.5,0,0,0,.71,3.86,10.13,10.13,0,0,0,2,3.16,9.17,9.17,0,0,0,2.93,2.12A8.74,8.74,0,0,0,373.93,479Z" transform="translate(-68.44 0.83)"/>
      <path class="cls-9" d="M414.28,486.29A18.53,18.53,0,0,1,407,484.9a16.55,16.55,0,0,1-9.18-9.3,17.88,17.88,0,0,1-1.25-6.63,18.72,18.72,0,0,1,1.22-6.79,16.32,16.32,0,0,1,3.54-5.59,16.77,16.77,0,0,1,5.63-3.83,18.64,18.64,0,0,1,7.43-1.42,18.23,18.23,0,0,1,7.38,1.42,16.85,16.85,0,0,1,5.53,3.79,16.36,16.36,0,0,1,3.48,5.54,18.5,18.5,0,0,1,1.19,6.56c0,.56,0,1.1,0,1.61a6.75,6.75,0,0,1-.17,1.29H405.66a10.14,10.14,0,0,0,1,3.54,8.78,8.78,0,0,0,2,2.64,8.51,8.51,0,0,0,2.77,1.67,9,9,0,0,0,3.21.58,10,10,0,0,0,4.86-1.25,6.57,6.57,0,0,0,3.12-3.32l7.41,2.06a15,15,0,0,1-6,6.34A18.45,18.45,0,0,1,414.28,486.29ZM423,466a9,9,0,0,0-2.8-6.08,8.59,8.59,0,0,0-6-2.29,8.7,8.7,0,0,0-3.25.61,8.47,8.47,0,0,0-2.67,1.71,8.66,8.66,0,0,0-1.9,2.64,9,9,0,0,0-.87,3.41Z" transform="translate(-68.44 0.83)"/>
    </g>
  </g>
</svg>
