<svg id="Layer_2" data-name="Layer 2" xmlns="http://www.w3.org/2000/svg" xmlns:xlink="http://www.w3.org/1999/xlink" width="426.94" height="500" viewBox="0 0 426.94 500">
  <defs>
    <style>
      .cls-1 {
        fill: url(#linear-gradient);
      }

      .cls-2 {
        fill: url(#linear-gradient-2);
      }

      .cls-3 {
        fill: url(#linear-gradient-3);
      }

      .cls-4 {
        fill: url(#linear-gradient-4);
      }

      .cls-5 {
        fill: url(#linear-gradient-5);
      }

      .cls-6 {
        fill: url(#linear-gradient-6);
      }

      .cls-7 {
        fill: url(#linear-gradient-7);
      }

      .cls-8 {
        fill: url(#linear-gradient-8);
      }

      .cls-9 {
        fill: url(#linear-gradient-9);
      }

      .cls-10 {
        fill: url(#linear-gradient-10);
      }

      .cls-11 {
        fill: url(#linear-gradient-11);
      }

      .cls-12 {
        fill: url(#linear-gradient-12);
      }

      .cls-13 {
        fill: url(#linear-gradient-13);
      }

      .cls-14 {
        fill: url(#linear-gradient-14);
      }

      .cls-15 {
        fill: url(#linear-gradient-15);
      }

      .cls-16 {
        fill: url(#linear-gradient-16);
      }

      .cls-17 {
        fill: url(#linear-gradient-17);
      }

      .cls-18 {
        fill: url(#linear-gradient-18);
      }

      .cls-19 {
        fill: url(#linear-gradient-19);
      }

      .cls-20 {
        fill: url(#linear-gradient-20);
      }

      .cls-21 {
        fill: url(#linear-gradient-21);
      }

      .cls-22 {
        fill: url(#linear-gradient-22);
      }

      .cls-23 {
        fill: url(#linear-gradient-23);
      }

      .cls-24 {
        fill: url(#linear-gradient-24);
      }

      .cls-25 {
        fill: url(#linear-gradient-25);
      }

      .cls-26 {
        fill: url(#linear-gradient-26);
      }

      .cls-27 {
        fill: url(#linear-gradient-27);
      }

      .cls-28 {
        fill: url(#linear-gradient-28);
      }

      .cls-29 {
        fill: url(#linear-gradient-29);
      }

      .cls-30 {
        fill: url(#linear-gradient-30);
      }

      .cls-31 {
        fill: url(#linear-gradient-31);
      }

      .cls-32 {
        fill: url(#linear-gradient-32);
      }

      .cls-33 {
        fill: url(#linear-gradient-33);
      }

      .cls-34 {
        fill: url(#linear-gradient-34);
      }

      .cls-35 {
        fill: url(#linear-gradient-35);
      }

      .cls-36 {
        fill: url(#linear-gradient-36);
      }

      .cls-37 {
        fill: url(#linear-gradient-37);
      }

      .cls-38 {
        fill: url(#linear-gradient-38);
      }

      .cls-39 {
        fill: url(#linear-gradient-39);
      }

      .cls-40 {
        fill: url(#linear-gradient-40);
      }

      .cls-41 {
        fill: url(#linear-gradient-41);
      }

      .cls-42 {
        fill: url(#linear-gradient-42);
      }
    </style>
    <linearGradient id="linear-gradient" x1="70.85" y1="407.18" x2="70.85" y2="325.97" gradientUnits="userSpaceOnUse">
      <stop offset="0" stop-color="#63c"/>
      <stop offset="1" stop-color="#855cd6"/>
    </linearGradient>
    <linearGradient id="linear-gradient-2" x1="164.51" y1="407.18" x2="164.51" y2="325.97" xlink:href="#linear-gradient"/>
    <linearGradient id="linear-gradient-3" x1="268.3" y1="407.18" x2="268.3" y2="325.97" xlink:href="#linear-gradient"/>
    <linearGradient id="linear-gradient-4" x1="343.18" y1="407.18" x2="343.18" y2="325.97" xlink:href="#linear-gradient"/>
    <linearGradient id="linear-gradient-5" x1="421.47" y1="407.18" x2="421.47" y2="325.97" xlink:href="#linear-gradient"/>
    <linearGradient id="linear-gradient-6" x1="59.96" y1="483.79" x2="59.96" y2="428.52" gradientUnits="userSpaceOnUse">
      <stop offset="0" stop-color="#f6c"/>
      <stop offset="1" stop-color="#f9c"/>
    </linearGradient>
    <linearGradient id="linear-gradient-7" x1="111.14" y1="483.79" x2="111.14" y2="428.52" xlink:href="#linear-gradient-6"/>
    <linearGradient id="linear-gradient-8" x1="150.49" y1="483.79" x2="150.49" y2="428.52" xlink:href="#linear-gradient-6"/>
    <linearGradient id="linear-gradient-9" x1="185.35" y1="483.79" x2="185.35" y2="428.52" xlink:href="#linear-gradient-6"/>
    <linearGradient id="linear-gradient-10" x1="225.98" y1="483.79" x2="225.98" y2="428.52" xlink:href="#linear-gradient-6"/>
    <linearGradient id="linear-gradient-11" x1="270.6" y1="483.79" x2="270.6" y2="428.52" xlink:href="#linear-gradient-6"/>
    <linearGradient id="linear-gradient-12" x1="321.78" y1="483.79" x2="321.78" y2="428.52" xlink:href="#linear-gradient-6"/>
    <linearGradient id="linear-gradient-13" x1="361.13" y1="483.79" x2="361.13" y2="428.52" xlink:href="#linear-gradient-6"/>
    <linearGradient id="linear-gradient-14" x1="394.85" y1="483.79" x2="394.85" y2="428.52" xlink:href="#linear-gradient-6"/>
    <linearGradient id="linear-gradient-15" x1="442.86" y1="483.79" x2="442.86" y2="428.52" xlink:href="#linear-gradient-6"/>
    <linearGradient id="linear-gradient-16" x1="450.99" y1="273.59" x2="450.99" y2="197.59" xlink:href="#linear-gradient-6"/>
    <linearGradient id="linear-gradient-17" x1="49.37" y1="273.59" x2="49.37" y2="212.66" xlink:href="#linear-gradient-6"/>
    <linearGradient id="linear-gradient-18" x1="99.57" y1="241.38" x2="99.57" y2="204.09" xlink:href="#linear-gradient-6"/>
    <linearGradient id="linear-gradient-19" x1="149.77" y1="273.59" x2="149.77" y2="197.59" xlink:href="#linear-gradient-6"/>
    <linearGradient id="linear-gradient-20" x1="199.98" y1="240.65" x2="199.98" y2="193.07" xlink:href="#linear-gradient-6"/>
    <linearGradient id="linear-gradient-21" x1="250.18" y1="209.17" x2="250.18" y2="190.56" xlink:href="#linear-gradient-6"/>
    <linearGradient id="linear-gradient-22" x1="300.38" y1="241.38" x2="300.38" y2="189.93" xlink:href="#linear-gradient-6"/>
    <linearGradient id="linear-gradient-23" x1="350.59" y1="273.59" x2="350.59" y2="190.56" xlink:href="#linear-gradient-6"/>
    <linearGradient id="linear-gradient-24" x1="400.79" y1="241.38" x2="400.79" y2="193.07" xlink:href="#linear-gradient-6"/>
    <linearGradient id="linear-gradient-25" x1="49.37" y1="215.12" x2="49.37" y2="149.75" xlink:href="#linear-gradient"/>
    <linearGradient id="linear-gradient-26" x1="450.99" y1="215.12" x2="450.99" y2="149.75" xlink:href="#linear-gradient"/>
    <linearGradient id="linear-gradient-27" x1="400.79" y1="215.12" x2="400.79" y2="149.75" xlink:href="#linear-gradient"/>
    <linearGradient id="linear-gradient-28" x1="350.59" y1="215.12" x2="350.59" y2="149.75" xlink:href="#linear-gradient"/>
    <linearGradient id="linear-gradient-29" x1="300.38" y1="215.12" x2="300.38" y2="149.75" xlink:href="#linear-gradient"/>
    <linearGradient id="linear-gradient-30" x1="250.18" y1="215.12" x2="250.18" y2="149.75" xlink:href="#linear-gradient"/>
    <linearGradient id="linear-gradient-31" x1="199.98" y1="215.12" x2="199.98" y2="149.75" xlink:href="#linear-gradient"/>
    <linearGradient id="linear-gradient-32" x1="149.77" y1="215.12" x2="149.77" y2="149.75" xlink:href="#linear-gradient"/>
    <linearGradient id="linear-gradient-33" x1="99.57" y1="215.12" x2="99.57" y2="149.75" xlink:href="#linear-gradient"/>
    <linearGradient id="linear-gradient-34" x1="49.37" y1="139.82" x2="49.37" y2="-1.95" gradientUnits="userSpaceOnUse">
      <stop offset="0" stop-color="#22e6e6"/>
      <stop offset="1" stop-color="#47fdb9"/>
    </linearGradient>
    <linearGradient id="linear-gradient-35" x1="99.57" y1="139.82" x2="99.57" y2="-1.95" xlink:href="#linear-gradient-34"/>
    <linearGradient id="linear-gradient-36" x1="149.77" y1="139.82" x2="149.77" y2="-1.95" xlink:href="#linear-gradient-34"/>
    <linearGradient id="linear-gradient-37" x1="199.98" y1="139.82" x2="199.98" y2="-1.95" xlink:href="#linear-gradient-34"/>
    <linearGradient id="linear-gradient-38" x1="250.18" y1="139.82" x2="250.18" y2="-1.95" xlink:href="#linear-gradient-34"/>
    <linearGradient id="linear-gradient-39" x1="300.38" y1="139.82" x2="300.38" y2="-1.95" xlink:href="#linear-gradient-34"/>
    <linearGradient id="linear-gradient-40" x1="350.59" y1="139.82" x2="350.59" y2="-1.95" xlink:href="#linear-gradient-34"/>
    <linearGradient id="linear-gradient-41" x1="400.79" y1="139.82" x2="400.79" y2="-1.95" xlink:href="#linear-gradient-34"/>
    <linearGradient id="linear-gradient-42" x1="450.99" y1="139.82" x2="450.99" y2="-1.95" xlink:href="#linear-gradient-34"/>
  </defs>
  <g>
    <g>
      <path class="cls-1" d="M85.83,404.59,71,383.11H54.55v21.48H36.71V327.5H70.08a42.89,42.89,0,0,1,17.78,3.41,25.49,25.49,0,0,1,15.69,24.56A25.09,25.09,0,0,1,87.7,379.81L105,404.59ZM81.31,345.5Q77.13,342,69.09,342H54.55v26.87H69.09q8,0,12.22-3.53t4.19-9.91Q85.5,349,81.31,345.5Z" transform="translate(-36.71)"/>
      <path class="cls-2" d="M182.18,388.07H146.39l-6.82,16.52H121.28l34.36-77.09h17.62l34.47,77.09H189Zm-5.61-13.55L164.34,345l-12.22,29.51Z" transform="translate(-36.71)"/>
      <path class="cls-3" d="M229.54,327.5h35a49.24,49.24,0,0,1,22.18,4.79,35.81,35.81,0,0,1,15,13.49,41.12,41.12,0,0,1,0,40.53,35.79,35.79,0,0,1-15,13.48,49.11,49.11,0,0,1-22.18,4.8h-35Zm34.13,62.44q11.56,0,18.45-6.44T289,366q0-11-6.88-17.45t-18.45-6.44h-16.3v47.79Z" transform="translate(-36.71)"/>
      <path class="cls-4" d="M334.27,327.5H352.1v77.09H334.27Z" transform="translate(-36.71)"/>
      <path class="cls-5" d="M399.83,400.73a38.27,38.27,0,0,1-15.07-14.26,40.93,40.93,0,0,1,0-40.85,38.2,38.2,0,0,1,15.07-14.26,47.71,47.71,0,0,1,43.24,0,39.33,39.33,0,0,1,0,69.37,47.71,47.71,0,0,1-43.24,0Zm34-13.16a22.43,22.43,0,0,0,8.64-8.75,27.56,27.56,0,0,0,0-25.55,22.46,22.46,0,0,0-8.64-8.76,25.85,25.85,0,0,0-24.66,0,22.48,22.48,0,0,0-8.65,8.76,27.56,27.56,0,0,0,0,25.55,22.46,22.46,0,0,0,8.65,8.75,25.78,25.78,0,0,0,24.66,0Z" transform="translate(-36.71)"/>
    </g>
    <g>
      <path class="cls-6" d="M47.14,448.74v34.4H36.71V429.46H44.8l28,35.23V429.54H83.21v53.6H74.74Z" transform="translate(-36.71)"/>
      <path class="cls-7" d="M111.18,483.9a21.72,21.72,0,0,1-8.69-1.67,19.43,19.43,0,0,1-10.66-11,21.24,21.24,0,0,1-1.44-7.78,21.56,21.56,0,0,1,1.44-7.87A19.72,19.72,0,0,1,96,449a19.4,19.4,0,0,1,6.54-4.49,21.72,21.72,0,0,1,8.69-1.67,21.44,21.44,0,0,1,8.66,1.67,19.43,19.43,0,0,1,6.5,4.49,19.88,19.88,0,0,1,4.12,6.54,21.56,21.56,0,0,1,1.44,7.87,21.24,21.24,0,0,1-1.44,7.78,20.17,20.17,0,0,1-4.08,6.54,19,19,0,0,1-6.51,4.5A21.65,21.65,0,0,1,111.18,483.9Zm-10.35-20.49a13.81,13.81,0,0,0,.79,4.8,11.86,11.86,0,0,0,2.19,3.74,9.77,9.77,0,0,0,3.29,2.46,10,10,0,0,0,8.17,0,9.87,9.87,0,0,0,3.29-2.46,11.92,11.92,0,0,0,2.19-3.78,14.08,14.08,0,0,0,.79-4.84,13.86,13.86,0,0,0-.79-4.76,11.81,11.81,0,0,0-2.19-3.78,9.87,9.87,0,0,0-3.29-2.46,9.68,9.68,0,0,0-4.09-.87,9.24,9.24,0,0,0-4.08.91,10.13,10.13,0,0,0-3.29,2.49,11.73,11.73,0,0,0-2.19,3.78A13.92,13.92,0,0,0,100.83,463.41Z" transform="translate(-36.71)"/>
      <path class="cls-8" d="M162.29,452.29a20,20,0,0,0-8.24,1.78,10.38,10.38,0,0,0-5.22,5.1v24H138.7V443.52H148V452a18.35,18.35,0,0,1,2.49-3.67,18.78,18.78,0,0,1,3.11-2.83,14.17,14.17,0,0,1,3.36-1.85,9.25,9.25,0,0,1,3.29-.65h1.25a4.15,4.15,0,0,1,.79.08Z" transform="translate(-36.71)"/>
      <path class="cls-9" d="M182.4,483.9a17.87,17.87,0,0,1-13.53-6,20.39,20.39,0,0,1-3.89-6.54,22.63,22.63,0,0,1-1.4-8.05,23.7,23.7,0,0,1,1.32-8,21.15,21.15,0,0,1,3.67-6.51,17,17,0,0,1,5.59-4.38,16,16,0,0,1,7.11-1.59,15,15,0,0,1,7.9,2.12,15.33,15.33,0,0,1,5.48,5.52V428h10.13V471.5a3.79,3.79,0,0,0,.53,2.27,2.36,2.36,0,0,0,1.82.75v8.62a23.36,23.36,0,0,1-4.31.53,7,7,0,0,1-4.47-1.36,5,5,0,0,1-2-3.56l-.22-2.49a14.5,14.5,0,0,1-5.94,5.71A17,17,0,0,1,182.4,483.9Zm2.65-8.62a9.75,9.75,0,0,0,2.95-.49,10.8,10.8,0,0,0,2.8-1.4,12.48,12.48,0,0,0,2.3-2.12,8.78,8.78,0,0,0,1.55-2.65v-9.45a11.08,11.08,0,0,0-1.7-3.06,12.45,12.45,0,0,0-2.5-2.42,12.85,12.85,0,0,0-2.94-1.62,8.31,8.31,0,0,0-3.07-.61,9.16,9.16,0,0,0-4.19,1,10,10,0,0,0-3.29,2.69,12.94,12.94,0,0,0-2.12,3.89,14,14,0,0,0-.76,4.54,12.39,12.39,0,0,0,.84,4.61,11.89,11.89,0,0,0,2.27,3.7,10.23,10.23,0,0,0,3.44,2.5A10.65,10.65,0,0,0,185.05,475.28Z" transform="translate(-36.71)"/>
      <path class="cls-10" d="M214.53,467v-9.15h22.91V467Z" transform="translate(-36.71)"/>
      <path class="cls-11" d="M257.78,448.74v34.4H247.35V429.46h8.09l28,35.23V429.54h10.44v53.6h-8.47Z" transform="translate(-36.71)"/>
      <path class="cls-12" d="M321.82,483.9a21.77,21.77,0,0,1-8.7-1.67,19.37,19.37,0,0,1-10.65-11,21.24,21.24,0,0,1-1.44-7.78,21.56,21.56,0,0,1,1.44-7.87,19.85,19.85,0,0,1,4.11-6.54,19.49,19.49,0,0,1,6.54-4.49,21.77,21.77,0,0,1,8.7-1.67,21.42,21.42,0,0,1,8.65,1.67A19.47,19.47,0,0,1,337,449a20,20,0,0,1,4.12,6.54,21.56,21.56,0,0,1,1.44,7.87,21.24,21.24,0,0,1-1.44,7.78,20,20,0,0,1-4.09,6.54,19,19,0,0,1-6.5,4.5A21.72,21.72,0,0,1,321.82,483.9Zm-10.36-20.49a14,14,0,0,0,.79,4.8,11.88,11.88,0,0,0,2.2,3.74,9.77,9.77,0,0,0,3.29,2.46,10,10,0,0,0,8.16,0,9.77,9.77,0,0,0,3.29-2.46,11.73,11.73,0,0,0,2.19-3.78,14.08,14.08,0,0,0,.8-4.84,13.86,13.86,0,0,0-.8-4.76,11.63,11.63,0,0,0-2.19-3.78,9.77,9.77,0,0,0-3.29-2.46,9.64,9.64,0,0,0-4.08-.87,9.17,9.17,0,0,0-4.08.91,10.13,10.13,0,0,0-3.29,2.49,11.75,11.75,0,0,0-2.2,3.78A14.16,14.16,0,0,0,311.46,463.41Z" transform="translate(-36.71)"/>
      <path class="cls-13" d="M372.92,452.29a20,20,0,0,0-8.23,1.78,10.34,10.34,0,0,0-5.22,5.1v24H349.33V443.52h9.31V452a17.94,17.94,0,0,1,2.49-3.67,19.13,19.13,0,0,1,3.1-2.83,14.23,14.23,0,0,1,3.37-1.85,9.24,9.24,0,0,1,3.28-.65h1.25a4,4,0,0,1,.79.08Z" transform="translate(-36.71)"/>
      <path class="cls-14" d="M392.13,483.37a16.32,16.32,0,0,1-7.26-1.59,17.65,17.65,0,0,1-5.63-4.35,19.6,19.6,0,0,1-3.66-6.39,24,24,0,0,1,.07-15.72,21,21,0,0,1,3.78-6.51,17.27,17.27,0,0,1,13.31-6,15.54,15.54,0,0,1,8.09,2.08,17.64,17.64,0,0,1,5.75,5.56v-7h8.84v37.73a17.85,17.85,0,0,1-1.67,7.86,17.1,17.1,0,0,1-4.57,5.9,20.33,20.33,0,0,1-7,3.7,28.79,28.79,0,0,1-8.8,1.29,24.85,24.85,0,0,1-10.92-2.15,22,22,0,0,1-7.6-6.09l5.51-5.37a15.76,15.76,0,0,0,5.71,4.39,17.33,17.33,0,0,0,7.3,1.58,15.64,15.64,0,0,0,4.5-.64,10.78,10.78,0,0,0,3.81-2,9.35,9.35,0,0,0,2.61-3.48,12.17,12.17,0,0,0,1-5v-5a13.4,13.4,0,0,1-5.52,5.26A16.36,16.36,0,0,1,392.13,483.37Zm3.4-8.09a9.6,9.6,0,0,0,3.18-.53,11.08,11.08,0,0,0,2.8-1.44,11.41,11.41,0,0,0,2.27-2.12,9.48,9.48,0,0,0,1.51-2.57v-9.45a12.29,12.29,0,0,0-4.27-5.59,10.22,10.22,0,0,0-6.09-2.12,8.73,8.73,0,0,0-4.23,1,10.5,10.5,0,0,0-3.25,2.72,12.41,12.41,0,0,0-2.09,3.9,14.4,14.4,0,0,0-.71,4.53,12.37,12.37,0,0,0,.83,4.54,11.46,11.46,0,0,0,2.31,3.7,10.82,10.82,0,0,0,3.43,2.5A10.28,10.28,0,0,0,395.53,475.28Z" transform="translate(-36.71)"/>
      <path class="cls-15" d="M442.93,483.9a22,22,0,0,1-8.61-1.63,19.42,19.42,0,0,1-10.78-10.93,20.85,20.85,0,0,1-1.47-7.78,22.06,22.06,0,0,1,1.43-8,19.34,19.34,0,0,1,10.78-11.07,22,22,0,0,1,8.73-1.67,21.51,21.51,0,0,1,8.66,1.67,19.75,19.75,0,0,1,6.5,4.46,18.85,18.85,0,0,1,4.08,6.5,21.49,21.49,0,0,1,1.4,7.71c0,.65,0,1.28,0,1.89a7.26,7.26,0,0,1-.19,1.51H432.8a11.8,11.8,0,0,0,1.14,4.16,10.19,10.19,0,0,0,2.34,3.1,10.3,10.3,0,0,0,3.25,2,10.76,10.76,0,0,0,3.78.68A11.71,11.71,0,0,0,449,475a7.76,7.76,0,0,0,3.66-3.89l8.7,2.42a17.74,17.74,0,0,1-7,7.45A21.69,21.69,0,0,1,442.93,483.9ZM453.22,460a10.57,10.57,0,0,0-3.29-7.14,10.05,10.05,0,0,0-7.07-2.68,10.26,10.26,0,0,0-3.82.71,9.92,9.92,0,0,0-3.14,2,10.43,10.43,0,0,0-2.23,3.1,10.87,10.87,0,0,0-1,4Z" transform="translate(-36.71)"/>
    </g>
  </g>
  <g>
    <path class="cls-16" d="M463.65,200v61A12.66,12.66,0,0,1,451,273.59h0a12.66,12.66,0,0,1-12.66-12.66V197.59Q451,198.69,463.65,200Z" transform="translate(-36.71)"/>
    <path class="cls-17" d="M62,212.66v48.27a12.66,12.66,0,0,1-12.66,12.66h0a12.66,12.66,0,0,1-12.66-12.66V216.69C45.12,215.29,53.58,213.93,62,212.66Z" transform="translate(-36.71)"/>
    <path class="cls-18" d="M112.23,204.09v24.63a12.66,12.66,0,0,1-12.66,12.66h0a12.66,12.66,0,0,1-12.66-12.66V207.29Q99.56,205.63,112.23,204.09Z" transform="translate(-36.71)"/>
    <path class="cls-19" d="M162.43,197.59v63.34a12.66,12.66,0,0,1-12.66,12.66h0a12.66,12.66,0,0,1-12.66-12.66V200Q149.76,198.69,162.43,197.59Z" transform="translate(-36.71)"/>
    <path class="cls-20" d="M212.64,193.07V228A12.65,12.65,0,0,1,200,240.65h0A12.66,12.66,0,0,1,187.32,228V194.65Q200,193.8,212.64,193.07Z" transform="translate(-36.71)"/>
    <path class="cls-21" d="M262.84,190.56v5.95a12.66,12.66,0,0,1-12.66,12.66h0a12.66,12.66,0,0,1-12.66-12.66v-5.16Q250.16,190.86,262.84,190.56Z" transform="translate(-36.71)"/>
    <path class="cls-22" d="M313,190v38.75a12.66,12.66,0,0,1-12.66,12.66h0a12.66,12.66,0,0,1-12.66-12.66V190c4.2,0,8.43,0,12.66,0S308.83,190,313,190Z" transform="translate(-36.71)"/>
    <path class="cls-23" d="M363.26,191.35v69.58a12.66,12.66,0,0,1-12.67,12.66h0a12.66,12.66,0,0,1-12.66-12.66V190.56Q350.62,190.86,363.26,191.35Z" transform="translate(-36.71)"/>
    <path class="cls-24" d="M413.45,194.65v34.07a12.66,12.66,0,0,1-12.66,12.66h0a12.66,12.66,0,0,1-12.66-12.66V193.07Q400.82,193.81,413.45,194.65Z" transform="translate(-36.71)"/>
    <g>
      <path class="cls-25" d="M62,150.49v62.17c-8.45,1.27-16.91,2.63-25.32,4V152.86Q49.36,151.58,62,150.49Z" transform="translate(-36.71)"/>
      <path class="cls-26" d="M463.65,169.59V200q-12.64-1.28-25.32-2.37v-32Q451,167.48,463.65,169.59Z" transform="translate(-36.71)"/>
      <path class="cls-27" d="M413.45,160.19v34.46q-12.65-.85-25.32-1.58V157Q400.82,158.51,413.45,160.19Z" transform="translate(-36.71)"/>
      <path class="cls-28" d="M363.26,152.86v38.49q-12.66-.49-25.33-.79V150.49Q350.62,151.58,363.26,152.86Z" transform="translate(-36.71)"/>
      <path class="cls-29" d="M313,147.55V190q-6.32,0-12.66,0c-4.23,0-8.46,0-12.66,0V146Q300.4,146.71,313,147.55Z" transform="translate(-36.71)"/>
      <path class="cls-30" d="M262.84,144.25v46.31q-12.69.3-25.32.79V143.46Q250.21,143.76,262.84,144.25Z" transform="translate(-36.71)"/>
      <path class="cls-31" d="M212.64,142.87v50.2q-12.67.74-25.32,1.58V142.87q6.31,0,12.66,0C204.21,142.83,208.44,142.85,212.64,142.87Z" transform="translate(-36.71)"/>
      <path class="cls-32" d="M162.43,143.46v54.13q-12.69,1.09-25.32,2.37V144.25Q149.76,143.77,162.43,143.46Z" transform="translate(-36.71)"/>
      <path class="cls-33" d="M112.23,146v58.12q-12.69,1.51-25.32,3.2V147.55Q99.56,146.71,112.23,146Z" transform="translate(-36.71)"/>
    </g>
    <g>
      <path class="cls-34" d="M62,139.83v10.66q-12.68,1.09-25.32,2.37v-13a12.66,12.66,0,0,1,12.66-12.66h0A12.66,12.66,0,0,1,62,139.83Z" transform="translate(-36.71)"/>
      <path class="cls-35" d="M112.23,86.7V146q-12.69.74-25.32,1.58V86.7A12.66,12.66,0,0,1,99.57,74h0A12.66,12.66,0,0,1,112.23,86.7Z" transform="translate(-36.71)"/>
      <path class="cls-36" d="M162.43,98v45.46q-12.69.3-25.32.79V98a12.66,12.66,0,0,1,12.66-12.66h0A12.66,12.66,0,0,1,162.43,98Z" transform="translate(-36.71)"/>
      <path class="cls-37" d="M212.64,44.14v98.73c-4.2,0-8.43,0-12.66,0s-8.45,0-12.66,0V44.14A12.66,12.66,0,0,1,200,31.48h0A12.66,12.66,0,0,1,212.64,44.14Z" transform="translate(-36.71)"/>
      <path class="cls-38" d="M262.84,12.66V144.25q-12.64-.48-25.32-.79V12.66A12.66,12.66,0,0,1,250.18,0h0A12.66,12.66,0,0,1,262.84,12.66Z" transform="translate(-36.71)"/>
      <path class="cls-39" d="M313,65.79v81.76q-12.65-.84-25.32-1.58V65.79a12.66,12.66,0,0,1,12.66-12.66h0A12.66,12.66,0,0,1,313,65.79Z" transform="translate(-36.71)"/>
      <path class="cls-40" d="M363.26,118.91v34q-12.66-1.28-25.33-2.37V118.91a12.66,12.66,0,0,1,12.66-12.66h0A12.66,12.66,0,0,1,363.26,118.91Z" transform="translate(-36.71)"/>
      <path class="cls-41" d="M413.45,107.63v52.56q-12.65-1.66-25.32-3.2V107.63A12.66,12.66,0,0,1,400.79,95h0A12.66,12.66,0,0,1,413.45,107.63Z" transform="translate(-36.71)"/>
      <path class="cls-42" d="M463.65,139.83v29.76q-12.61-2.1-25.32-4V139.83A12.66,12.66,0,0,1,451,127.17h0A12.66,12.66,0,0,1,463.65,139.83Z" transform="translate(-36.71)"/>
    </g>
  </g>
</svg>
