<svg id="Layer_1" data-name="Layer 1" xmlns="http://www.w3.org/2000/svg" viewBox="0 0 115.45 121.96"><defs><style>.cls-1{fill:#0868ac;}</style></defs><path class="cls-1" d="M27.76,20.42C20.41,31,21.32,44.73,26.94,56l.41.8.26.5.17.3.29.52c.17.31.35.61.53.92l.31.5c.2.33.41.65.62,1l.27.4c.29.44.59.88.9,1.31l0,0,.16.2c.26.37.54.74.82,1.1l.31.39.76.93.29.35c.34.41.69.81,1,1.21l0,0,0,0,1.08,1.13.34.35.86.84.35.33c.39.36.78.72,1.18,1.07l0,0,.2.17c.35.31.71.61,1.07.9l.44.36.89.69.48.36c.33.25.66.48,1,.72l.36.26.1.07,1,.64.42.28c.5.32,1,.63,1.52.93l.42.24,1.14.64.63.32.82.43.19.09.33.16,1.29.6.28.12c.49.22,1,.43,1.5.63l.37.14,1.43.53.17.06c.53.19,1.06.35,1.59.52l.38.12c.55.16,1.08.35,1.64.46,35.56,6.48,45.88-21.37,45.88-21.37-8.67,11.3-24.07,14.28-38.65,11-.56-.13-1.09-.3-1.63-.46l-.41-.12-1.57-.52L61,69.08l-1.38-.52-.39-.15c-.5-.2-1-.4-1.49-.62l-.3-.13c-.42-.19-.84-.38-1.26-.59l-.36-.17-1-.5-.65-.34-1.16-.65-.4-.22c-.51-.3-1-.61-1.52-.93L50.74,64l-1.08-.72L49.31,63l-1-.74-.45-.34-.92-.72-.42-.33c-.38-.32-.77-.64-1.14-1l-.13-.1c-.41-.36-.81-.73-1.21-1.1l-.34-.33-.87-.85-.34-.34c-.36-.37-.71-.75-1.06-1.13l0,0q-.55-.62-1.08-1.23L40,54.45l-.77-1-.29-.36c-.31-.39-.6-.79-.9-1.19-8.1-11-11-26.28-4.53-38.8m17.08-1.62c-5.32,7.65-5,17.89-.88,26a32.64,32.64,0,0,0,2.35,3.93,18.46,18.46,0,0,0,2.74,3.41c.38.43.78.84,1.19,1.24l.31.31c.4.39.8.77,1.22,1.14l.05,0h0c.46.41.94.79,1.43,1.18l.32.25c.49.37,1,.74,1.49,1.09l0,0,.68.45.32.21c.37.23.73.46,1.11.68l.15.09c.32.18.65.37,1,.54l.34.18.69.36.1,0c.47.23.94.46,1.42.67l.32.13,1.16.47.5.18c.36.14.72.26,1.08.38l.48.15a11.94,11.94,0,0,0,1.55.45c27.45,4.55,33.79-16.59,33.79-16.59-5.71,8.23-16.78,12.16-28.58,9.09q-.8-.21-1.56-.45L74.91,47l-1.08-.37-.49-.19c-.4-.15-.79-.3-1.17-.47l-.32-.13c-.48-.21-1-.44-1.43-.67l-.72-.36-.41-.22c-.31-.16-.61-.33-.91-.51L68.16,44c-.37-.22-.74-.44-1.1-.67l-.33-.23L66,42.6c-.51-.35-1-.71-1.49-1.08l-.33-.27A33.09,33.09,0,0,1,53,25.28,24.82,24.82,0,0,1,54.92,5.39m14.85-.52A16,16,0,0,0,68.5,20.3,21.76,21.76,0,0,0,81,32l.68.24.3.09a9.08,9.08,0,0,0,1,.29c15.16,2.93,19.27-7.78,20.36-9.36-3.6,5.19-9.65,6.43-17.08,4.63a16.13,16.13,0,0,1-1.79-.56,20.91,20.91,0,0,1-2.14-.88,23.07,23.07,0,0,1-3.74-2.28c-6.64-5.05-10.77-14.66-6.43-22.5" transform="translate(-6.27 -1.63)"/><path class="cls-1" d="M66.36,96.29H62.13a.55.55,0,0,0-.51.42l-1.5,6.94-1.5,6.94a.56.56,0,0,1-.52.42h-3c-3,0-2.62-2.05-2-4.85l0-.09.06-.35v-.07l.14-.72.14-.77.16-.78.68-3.34L55,96.71a.33.33,0,0,0-.34-.42H50.32a.56.56,0,0,0-.52.42l-.93,4.43-.93,4.42h0l-.08.41c-1.08,4.9-.79,9.58,5,9.73h9.33a.56.56,0,0,0,.52-.42l2-9.29,2-9.29A.34.34,0,0,0,66.36,96.29Zm-45.26,0H16.46a.56.56,0,0,0-.52.41L15.5,98.6l-.44,2a.32.32,0,0,0,.34.41h4.67a.56.56,0,0,0,.52-.41l.42-2,.43-1.94A.32.32,0,0,0,21.1,96.25Zm-1.34,6H15.08a.56.56,0,0,0-.52.42l-.66,2.91-.65,2.91-.19.83-.63,3-.63,3c-.05.23-.15.6-.22.82,0,0-.88,2.6-2.35,2.57H9.05l-1.27,0h0a.57.57,0,0,0-.53.41l-.48,2-.48,2a.32.32,0,0,0,.32.42l3.83,0c3.67,0,5.6-2,6.84-7.88L18.73,109l1.36-6.29A.33.33,0,0,0,19.76,102.29Zm86.11-1.57-.19-.8-.19-.82-.1-.42c-.38-1.48-1.49-2.33-3.92-2.33H90.33a.56.56,0,0,0-.52.42l-.17.82-.21,1-.05.27-1.76,8.24L86,114.87a1.81,1.81,0,0,0,0,.63c0,.11.48.21.71.21h3.53a2,2,0,0,0,.66-.1c.13,0,.31-.51.36-.74l.63-3.1.62-3.1h0l.08-.41.76-3.56.67-3.15a.55.55,0,0,1,.52-.41h11.08A.32.32,0,0,0,105.87,100.72Zm14.28-7.24h-4.4a.91.91,0,0,0-.67.35l-7.85,11.5c-.13.19-.28.17-.33-.06l-.58-2.53a.58.58,0,0,0-.53-.42h-5a.3.3,0,0,0-.31.41l2.26,7.92a1.75,1.75,0,0,1,0,.82l-1,3.84a.31.31,0,0,0,.32.41h5a.59.59,0,0,0,.54-.41l1-3.84a2.39,2.39,0,0,1,.37-.75l12.74-16.91c.14-.19.06-.34-.17-.34Zm-40.09,9.91h0a.51.51,0,0,1-.5.44H73.17c-.23,0-.34-.15-.3-.33v0h0v0l0-.11a4,4,0,0,1,4.19-2.69C79.73,100.66,80.24,102,80.06,103.39ZM78.19,96C70,96,68,101,66.94,106s-1,9.92,7.5,9.92h2.38l5.41,0a.55.55,0,0,0,.51-.42l.34-1.68.07-.33.41-2a.34.34,0,0,0-.34-.42H75.58c-3,0-3.94-.81-3.61-3.18H84.19a.51.51,0,0,0,.44-.32l0-.1h0C86.47,100.62,86,96,78.19,96Zm-38.81,7.36-.12.41h0l-.92,3.27-.92,3.26a.6.6,0,0,1-.55.41H32c-3.7,0-4.6-2.89-3.7-7.16S31,96.48,34.6,96.2C39.58,95.82,40.58,99.33,39.38,103.37Zm3.34,7.1a55.1,55.1,0,0,0,2.83-8.81c.71-4.32-1.45-10.58-9.81-10.58s-11.91,6-13.29,12.48.43,12.29,8.69,12.25l6.51,0,6.09,0a.59.59,0,0,0,.54-.41l1.06-4a.32.32,0,0,0-.32-.42H43c-.2,0-.32-.13-.29-.3Zm41.12-3.74a.27.27,0,0,1-.28.28.28.28,0,0,1-.28-.28.29.29,0,0,1,.28-.28A.28.28,0,0,1,83.84,106.73Z" transform="translate(-6.27 -1.63)"/></svg>