<svg id="Layer_2" data-name="Layer 2" xmlns="http://www.w3.org/2000/svg" viewBox="0 0 363.72 512"><defs><style>.cls-1{fill:#e6a329;}.cls-2{fill:#f1bf22;}.cls-3{fill:#fff;}.cls-4{fill:#ebebeb;}</style></defs><path class="cls-1" d="M438.36,100.33H74.64l34.1,369.77L256.48,512l147.74-41.9Z" transform="translate(-74.64)"/><path class="cls-2" d="M256.48,130.46V480.67l119.71-33.92,29.12-316.29Z" transform="translate(-74.64)"/><path class="cls-3" d="M351.71,175.82h-184L154.84,314.27l.26-.86H311.47L306.37,372l-49.89,14.35-50.63-14.58-3-35.45h-46l6.56,70.84,93.06,26.42,93.1-26.42,12.82-139H196.45l2.13-46.32H313.72l1.72,26.54h46.37Z" transform="translate(-74.64)"/><path class="cls-4" d="M256.52,175.82H167.66L154.84,314.27l.26-.86H256.52V268.25h-53.6l2.13-46.33h51.47ZM202.92,336.3H156.86l6.56,70.8,93.06,26.38v-47.1l-50.63-14.63Z" transform="translate(-74.64)"/><path d="M221.11,45.79H188.73V69h55.54V0H221.11ZM324.25.37H267.8V24.54c7.54,7.53,11.47,11.16,22.57,22.07H267.8v22h56.45v-22L301.68,24.58h22.57Z" transform="translate(-74.64)"/></svg>