<svg id="Layer_1" data-name="Layer 1" xmlns="http://www.w3.org/2000/svg" xmlns:xlink="http://www.w3.org/1999/xlink" viewBox="0 0 1000 747.65"><defs><style>.cls-1{fill:url(#radial-gradient);}.cls-2{fill:url(#linear-gradient);}.cls-3{fill:url(#linear-gradient-2);}.cls-4,.cls-5{opacity:0.75;}.cls-4{fill:url(#linear-gradient-3);}.cls-5{fill:url(#linear-gradient-4);}.cls-6{fill:url(#linear-gradient-5);}.cls-7{fill:url(#linear-gradient-6);}.cls-10,.cls-11,.cls-12,.cls-13,.cls-8,.cls-9{stroke-miterlimit:10;stroke-width:2.35px;}.cls-8{fill:url(#linear-gradient-7);stroke:url(#linear-gradient-8);}.cls-9{fill:url(#linear-gradient-9);stroke:url(#linear-gradient-10);}.cls-10{fill:url(#linear-gradient-11);stroke:url(#linear-gradient-12);}.cls-11{fill:url(#linear-gradient-13);stroke:url(#linear-gradient-14);}.cls-12{fill:url(#linear-gradient-15);stroke:url(#linear-gradient-16);}.cls-13{fill:url(#linear-gradient-17);stroke:url(#linear-gradient-18);}.cls-14{opacity:0.5;}.cls-15{fill:url(#linear-gradient-19);}.cls-16{fill:url(#linear-gradient-20);}.cls-17{fill:url(#linear-gradient-21);}.cls-18{fill:url(#linear-gradient-22);}.cls-19{fill:url(#linear-gradient-23);}.cls-20{fill:url(#linear-gradient-24);}.cls-21{fill:url(#linear-gradient-25);}.cls-22{fill:url(#linear-gradient-26);}</style><radialGradient id="radial-gradient" cx="494.68" cy="596.35" r="593.26" gradientUnits="userSpaceOnUse"><stop offset="0" stop-color="red"/><stop offset="1" stop-opacity="0"/></radialGradient><linearGradient id="linear-gradient" x1="490.61" y1="640.85" x2="490.61" y2="246.48" gradientUnits="userSpaceOnUse"><stop offset="0"/><stop offset="0.75" stop-color="#bf0000"/><stop offset="1" stop-color="#f33"/></linearGradient><linearGradient id="linear-gradient-2" x1="500" y1="693.66" x2="500" y2="219.48" gradientUnits="userSpaceOnUse"><stop offset="0"/><stop offset="1" stop-color="#400000"/></linearGradient><linearGradient id="linear-gradient-3" x1="180.75" y1="406.51" x2="180.75" y2="301.11" gradientUnits="userSpaceOnUse"><stop offset="0"/><stop offset="1" stop-color="maroon"/></linearGradient><linearGradient id="linear-gradient-4" x1="1800.75" y1="406.95" x2="1800.75" y2="301.55" gradientTransform="matrix(-1, 0, 0, 1, 2620, -0.44)" xlink:href="#linear-gradient-3"/><linearGradient id="linear-gradient-5" x1="2178.69" y1="406.95" x2="2178.69" y2="301.55" gradientTransform="matrix(-1, 0, 0, 1, 2620, -0.44)" xlink:href="#linear-gradient-3"/><linearGradient id="linear-gradient-6" x1="500" y1="506.93" x2="500" y2="158.85" xlink:href="#linear-gradient-2"/><linearGradient id="linear-gradient-7" x1="190.34" y1="506.93" x2="190.34" y2="158.85" xlink:href="#linear-gradient-2"/><linearGradient id="linear-gradient-8" x1="190.34" y1="512.83" x2="190.34" y2="148.11" gradientUnits="userSpaceOnUse"><stop offset="0"/><stop offset="1" stop-color="#600"/></linearGradient><linearGradient id="linear-gradient-9" x1="286.84" y1="506.93" x2="286.84" y2="158.85" xlink:href="#linear-gradient-2"/><linearGradient id="linear-gradient-10" x1="286.84" y1="488.28" x2="286.84" y2="177.26" xlink:href="#linear-gradient-8"/><linearGradient id="linear-gradient-11" x1="669.58" y1="506.93" x2="669.58" y2="158.85" xlink:href="#linear-gradient-2"/><linearGradient id="linear-gradient-12" x1="669.58" y1="492.3" x2="669.58" y2="147.95" xlink:href="#linear-gradient-8"/><linearGradient id="linear-gradient-13" x1="728.03" y1="506.93" x2="728.03" y2="158.85" xlink:href="#linear-gradient-2"/><linearGradient id="linear-gradient-14" x1="728.02" y1="544.67" x2="728.02" y2="354.72" xlink:href="#linear-gradient-8"/><linearGradient id="linear-gradient-15" x1="850.29" y1="506.93" x2="850.29" y2="158.85" xlink:href="#linear-gradient-2"/><linearGradient id="linear-gradient-16" x1="851.46" y1="410.01" x2="851.46" y2="230.02" xlink:href="#linear-gradient-8"/><linearGradient id="linear-gradient-17" x1="798.4" y1="506.93" x2="798.4" y2="158.85" xlink:href="#linear-gradient-2"/><linearGradient id="linear-gradient-18" x1="798.38" y1="515.47" x2="798.38" y2="267.32" xlink:href="#linear-gradient-8"/><linearGradient id="linear-gradient-19" x1="446.18" y1="312.75" x2="446.18" y2="283.31" xlink:href="#linear-gradient-2"/><linearGradient id="linear-gradient-20" x1="461.44" y1="326.58" x2="461.44" y2="271.57" xlink:href="#linear-gradient-2"/><linearGradient id="linear-gradient-21" x1="598.82" y1="376.69" x2="598.82" y2="343.17" xlink:href="#linear-gradient-2"/><linearGradient id="linear-gradient-22" x1="748.01" y1="361.44" x2="748.01" y2="327.91" xlink:href="#linear-gradient-2"/><linearGradient id="linear-gradient-23" x1="880.66" y1="298.06" x2="880.66" y2="283.58" xlink:href="#linear-gradient-2"/><linearGradient id="linear-gradient-24" x1="419.19" y1="374.7" x2="419.19" y2="319.69" xlink:href="#linear-gradient-2"/><linearGradient id="linear-gradient-25" x1="344.31" y1="325.4" x2="344.31" y2="270.4" xlink:href="#linear-gradient-2"/><linearGradient id="linear-gradient-26" x1="501.35" y1="383.84" x2="501.35" y2="285.65" xlink:href="#linear-gradient-2"/></defs><rect class="cls-1" width="1000" height="747.65"/><circle class="cls-2" cx="490.61" cy="443.66" r="197.18"/><polygon class="cls-3" points="0 300.47 68.08 281.12 110.33 292.09 154.93 292.09 223 292.09 272.3 323.25 322.77 347.65 421.36 324.18 552.82 288.14 684.27 281.69 750 295.11 866.2 243.88 954.23 219.48 1000 219.48 1000 693.66 0 693.66 0 300.47"/><polyline class="cls-4" points="0 538.73 361.5 538.73 361.5 326.97 343.35 321.59 321.84 328.99 295.62 328.99 274.78 333.02 255.96 331 233.1 329.66 224.36 324.95 211.59 328.99 211.59 305.46 209.57 300.08 204.87 300.08 202.85 302.77 202.85 327.64 197.47 331 190.07 329.66 181.34 330.33 180.66 304.78 169.91 304.78 169.91 326.97 166.54 328.99 163.86 328.31 162.51 322.94 160.5 322.26 160.5 308.82 153.1 308.82 153.1 322.26 151.08 322.26 148.39 321.59 148.39 308.14 136.97 308.14 136.97 321.59 134.28 322.94 129.57 325.62 127.55 326.3 127.55 312.18 124.86 312.18 124.86 297.39 116.13 297.39 116.13 302.77 105.37 302.77 102.01 288.65 97.3 283.94 93.27 289.32 93.27 294.7 84.53 294.7 84.53 325.62 80.5 326.3 80.5 313.52 69.74 313.52 69.74 315.54 67.72 315.54 67.72 296.72 49.57 296.72 49.57 287.98 42.18 287.98 38.81 289.32 38.81 320.92 32.09 320.92 27.39 321.59 23.35 322.26 20.66 321.59 19.99 302.1 9.91 302.1 9.91 322.94 6.55 324.28 6.55 287.31 5.2 277.89 0 277"/><polyline class="cls-5" points="1000 538.73 638.5 538.73 638.5 326.97 656.65 321.59 678.16 328.99 704.38 328.99 725.22 333.02 744.04 331 766.9 329.66 775.64 324.95 788.41 328.99 788.41 305.46 790.43 300.08 795.13 300.08 797.15 302.77 797.15 327.64 802.53 331 809.92 329.66 818.66 330.33 819.34 304.78 830.09 304.78 830.09 326.97 833.46 328.99 836.14 328.31 837.49 322.94 839.5 322.26 839.5 308.82 846.9 308.82 846.9 322.26 848.92 322.26 851.61 321.59 851.61 308.14 863.03 308.14 863.03 321.59 865.72 322.94 870.43 325.62 872.45 326.3 872.45 312.18 875.13 312.18 875.13 297.39 883.87 297.39 883.87 302.77 894.63 302.77 897.99 288.65 902.7 283.94 906.73 289.32 906.73 294.7 915.47 294.7 915.47 325.62 919.5 326.3 919.5 313.52 930.26 313.52 930.26 315.54 932.28 315.54 932.28 296.72 950.43 296.72 950.43 287.98 957.82 287.98 961.18 289.32 961.18 320.92 967.91 320.92 972.61 321.59 976.65 322.26 979.34 321.59 980.01 302.1 990.09 302.1 990.09 322.94 993.45 324.28 993.45 287.31 994.8 277.89 1000 277"/><polyline class="cls-6" points="622.07 538.73 260.56 538.73 260.56 326.97 278.71 321.59 300.23 328.99 326.44 328.99 347.29 333.02 366.11 331 388.97 329.66 397.7 324.95 410.48 328.99 410.48 305.46 412.5 300.08 417.2 300.08 419.22 302.77 419.22 327.64 424.6 331 431.99 329.66 440.73 330.33 441.4 304.78 452.16 304.78 452.16 326.97 455.52 328.99 458.21 328.31 459.55 322.94 461.57 322.26 461.57 308.82 468.97 308.82 468.97 322.26 470.98 322.26 473.67 321.59 473.67 308.14 485.1 308.14 485.1 321.59 487.79 322.94 492.5 325.62 494.51 326.3 494.51 312.18 497.2 312.18 497.2 297.39 505.94 297.39 505.94 302.77 516.7 302.77 520.06 288.65 524.76 283.94 528.8 289.32 528.8 294.7 537.54 294.7 537.54 325.62 541.57 326.3 541.57 313.52 552.33 313.52 552.33 315.54 554.34 315.54 554.34 296.72 572.49 296.72 572.49 287.98 579.89 287.98 583.25 289.32 583.25 320.92 589.97 320.92 594.68 321.59 598.71 322.26 601.4 321.59 602.07 302.1 612.16 302.1 612.16 322.94 615.52 324.28 615.52 287.31 616.86 277.89 622.07 277"/><polygon class="cls-7" points="1000 377.93 968.31 368.55 930.75 381.45 884.98 381.45 848.59 388.5 815.73 384.98 775.82 382.63 760.56 374.41 738.26 381.45 738.26 340.38 734.74 330.99 726.53 330.99 723 335.68 723 379.11 713.62 384.98 700.7 382.63 685.45 383.8 684.27 339.2 665.49 339.2 665.49 377.93 659.62 381.45 654.93 380.28 652.58 370.89 649.06 369.72 649.06 346.24 636.15 346.24 636.15 369.72 632.63 369.72 627.93 368.55 627.93 345.07 607.98 345.07 607.98 368.55 603.29 370.89 595.07 375.59 591.55 376.76 591.55 352.11 586.85 352.11 586.85 326.29 571.6 326.29 571.6 335.68 552.82 335.68 546.95 311.03 538.73 302.82 531.69 312.21 531.69 321.6 516.43 321.6 516.43 375.59 509.39 376.76 509.39 354.46 490.61 354.46 490.61 357.98 487.09 357.98 487.09 325.12 455.4 325.12 455.4 309.86 442.49 309.86 436.62 312.21 436.62 367.37 424.88 367.37 416.67 368.55 409.62 369.72 404.93 368.55 403.76 334.51 386.15 334.51 386.15 370.89 380.28 373.24 380.28 308.69 377.93 292.25 366.2 292.25 363.85 307.51 361.5 375.59 356.81 376.76 356.81 319.25 335.68 319.25 330.99 322.77 312.21 322.77 312.21 374.41 307.51 373.24 307.51 327.46 306.34 315.73 275.82 315.73 275.82 328.64 269.95 328.64 269.95 372.07 267.61 375.59 262.91 375.59 253.52 374.41 253.52 368.55 226.53 367.37 226.53 373.24 214.79 374.41 203.05 372.07 187.79 375.59 177.23 377.93 163.15 375.59 130.28 370.89 107.98 370.89 100.94 377.93 71.6 372.07 52.82 372.07 38.73 367.37 17.61 369.72 0 369.72 0 747.65 1000 747.65 1000 377.93"/><polygon class="cls-8" points="144.37 506.17 148.01 152.03 165.31 149.3 195.35 154.76 236.31 175.7 236.31 488.87 194.44 506.17 163.48 511.63 144.37 506.17"/><polygon class="cls-9" points="249.97 477.95 254.52 181.16 273.64 178.43 301.86 178.43 323.71 184.81 321.89 482.5 298.22 484.32 282.74 484.32 259.07 487.05 249.97 477.95"/><polygon class="cls-10" points="617.69 453.3 622.24 171.99 646.82 168.35 660.48 151.97 689.61 149.23 689.61 163.8 702.35 169.26 721.47 167.44 719.65 352.25 721.47 490.63 617.69 453.3"/><polygon class="cls-11" points="687.97 528.86 690.71 364.99 704.36 355.89 742.6 355.89 750.79 355.89 768.09 364.08 768.09 531.59 739.87 543.43 687.97 528.86"/><polygon class="cls-12" points="861.67 405.07 863.49 245.76 874.41 237.56 848.01 237.56 848.01 231.19 826.16 231.19 826.16 408.71 861.67 405.07"/><polygon class="cls-13" points="763.35 268.49 757.88 514.29 838.91 514.29 838.91 268.49 763.35 268.49"/><g class="cls-14"><path class="cls-15" d="M445.88,311.79a10.9,10.9,0,0,0,2.24-3.49,5.18,5.18,0,0,0,.09-3.55,4.74,4.74,0,0,0-2.29-2.45,9.06,9.06,0,0,0-.83-.38,10.08,10.08,0,0,1-1.1-.47,5.2,5.2,0,0,1-1.16-.79,2.68,2.68,0,0,1-.86-1.61,3,3,0,0,1,.3-1.62,7,7,0,0,1,.63-1.09c.45-.65.9-1.21,1.34-1.77a32.86,32.86,0,0,0,2.48-3.38,19.1,19.1,0,0,0,2.81-7.88,15.38,15.38,0,0,1-1.43,8.63,28.7,28.7,0,0,1-2.25,3.81c-.41.6-.82,1.18-1.16,1.74a2.42,2.42,0,0,0-.49,1.27.53.53,0,0,0,.18.22,3.24,3.24,0,0,0,.64.4c.27.12.55.24.88.36a8.65,8.65,0,0,1,1.13.5,6.22,6.22,0,0,1,3.19,3.9,6,6,0,0,1-.86,4.8A7.5,7.5,0,0,1,445.88,311.79Z" transform="translate(0 -0.44)"/></g><g class="cls-14"><path class="cls-16" d="M461.14,325.87a21.53,21.53,0,0,0,2.32-13.59,10.58,10.58,0,0,0-2.71-5.79,4.35,4.35,0,0,0-.57-.49c-.18-.15-.52-.38-.77-.59a6.79,6.79,0,0,1-1.45-1.64,5.16,5.16,0,0,1-.72-2.18,6.72,6.72,0,0,1,.13-2.12,21.43,21.43,0,0,1,1.17-3.63l1.36-3.36a68.52,68.52,0,0,0,2.39-6.75,67.75,67.75,0,0,0,2.5-14.16,50.24,50.24,0,0,1-1,14.55,63.19,63.19,0,0,1-2,7.05,50.13,50.13,0,0,0-2.19,6.7,3.68,3.68,0,0,0,.35,2.71,4.67,4.67,0,0,0,1,1.05l.68.5a7.49,7.49,0,0,1,.82.67,9.87,9.87,0,0,1,2.24,3.39,13.65,13.65,0,0,1,1,3.78,18.47,18.47,0,0,1-.74,7.52A15.76,15.76,0,0,1,461.14,325.87Z" transform="translate(0 -0.44)"/></g><g class="cls-14"><path class="cls-17" d="M598.63,376.34a12.68,12.68,0,0,0,1.53-8.32,6.57,6.57,0,0,0-1.68-3.61,7.5,7.5,0,0,1-1.68-1.64,3.48,3.48,0,0,1-.36-2.54A31.18,31.18,0,0,1,598,356a38.38,38.38,0,0,0,1.46-4.14,40.68,40.68,0,0,0,1.43-8.67,31.49,31.49,0,0,1-.71,8.86,39.91,39.91,0,0,1-1.25,4.3,29.91,29.91,0,0,0-1.36,4.11,2.41,2.41,0,0,0,.23,1.74,2.94,2.94,0,0,0,.61.67c.23.18.6.42.91.71a7.21,7.21,0,0,1,1.93,4.31,11.44,11.44,0,0,1-.43,4.55,9.37,9.37,0,0,1-.86,2.1A9.11,9.11,0,0,1,598.63,376.34Z" transform="translate(0 -0.44)"/></g><g class="cls-14"><path class="cls-18" d="M748.2,361.09a9.48,9.48,0,0,1-1.3-1.83,9.18,9.18,0,0,1-.86-2.1,11.4,11.4,0,0,1-.43-4.55,7.21,7.21,0,0,1,1.93-4.31c.31-.29.68-.53.91-.71a2.94,2.94,0,0,0,.61-.67,2.41,2.41,0,0,0,.23-1.74,29.91,29.91,0,0,0-1.36-4.11,42.34,42.34,0,0,1-1.25-4.3,31.49,31.49,0,0,1-.71-8.86,40.88,40.88,0,0,0,1.43,8.68,39,39,0,0,0,1.46,4.13,31.82,31.82,0,0,1,1.53,4.26,3.46,3.46,0,0,1-.36,2.53,7.29,7.29,0,0,1-1.68,1.64,6.57,6.57,0,0,0-1.68,3.61A12.72,12.72,0,0,0,748.2,361.09Z" transform="translate(0 -0.44)"/></g><g class="cls-14"><path class="cls-19" d="M880.73,297.71a4.32,4.32,0,0,1-1.41-3.66,3.24,3.24,0,0,1,.89-2c.39-.32.5-.36.6-.52a.65.65,0,0,0,.06-.51,12.54,12.54,0,0,0-.53-1.71,14.64,14.64,0,0,1-.48-1.87,11.46,11.46,0,0,1-.08-3.83,20.51,20.51,0,0,0,.83,3.64,17.74,17.74,0,0,0,.66,1.71,13.2,13.2,0,0,1,.7,1.86,1.79,1.79,0,0,1-.19,1.31,3.37,3.37,0,0,1-.76.77,2.63,2.63,0,0,0-.64,1.34A6.32,6.32,0,0,0,880.73,297.71Z" transform="translate(0 -0.44)"/></g><g class="cls-14"><path class="cls-20" d="M418.89,374a21.49,21.49,0,0,0,2.31-13.6,10.67,10.67,0,0,0-2.7-5.79,6.68,6.68,0,0,0-.57-.49c-.18-.14-.53-.38-.77-.59a6.37,6.37,0,0,1-1.45-1.63,5.13,5.13,0,0,1-.73-2.18,7.41,7.41,0,0,1,.13-2.13,23.74,23.74,0,0,1,1.17-3.63l1.36-3.36a66.79,66.79,0,0,0,2.4-6.74,68,68,0,0,0,2.5-14.17,50.22,50.22,0,0,1-1,14.55,65.57,65.57,0,0,1-2,7.06,47.87,47.87,0,0,0-2.19,6.7,3.61,3.61,0,0,0,.35,2.7,4.09,4.09,0,0,0,1,1.05c.22.18.38.28.68.5a7.49,7.49,0,0,1,.82.67,9.87,9.87,0,0,1,2.24,3.39,13.37,13.37,0,0,1,.95,3.78,18.13,18.13,0,0,1-.74,7.52A15.66,15.66,0,0,1,418.89,374Z" transform="translate(0 -0.44)"/></g><g class="cls-14"><path class="cls-21" d="M344.61,324.7a15.82,15.82,0,0,1-3.69-6.38,18.48,18.48,0,0,1-.74-7.52,13.8,13.8,0,0,1,1-3.79,9.83,9.83,0,0,1,2.24-3.38,9,9,0,0,1,.82-.68c.3-.22.46-.32.68-.5a4.43,4.43,0,0,0,1-1,3.63,3.63,0,0,0,.35-2.71A49.67,49.67,0,0,0,344,292a63.36,63.36,0,0,1-2-7.06,50.15,50.15,0,0,1-1-14.54,67.75,67.75,0,0,0,2.5,14.16,65.09,65.09,0,0,0,2.4,6.74l1.35,3.37a22.25,22.25,0,0,1,1.18,3.62,7.1,7.1,0,0,1,.12,2.13,5.16,5.16,0,0,1-.72,2.18,6.56,6.56,0,0,1-1.45,1.63c-.25.22-.59.45-.77.59a6.68,6.68,0,0,0-.57.49,10.61,10.61,0,0,0-2.71,5.79A21.56,21.56,0,0,0,344.61,324.7Z" transform="translate(0 -0.44)"/></g><g class="cls-14"><path class="cls-22" d="M501.05,383.39a51.72,51.72,0,0,0,1.5-6c.36-2,.62-4.09.8-6.14a69.11,69.11,0,0,0,0-12.29,47.89,47.89,0,0,0-.94-6,20,20,0,0,0-2-5.48,12.49,12.49,0,0,0-.81-1.18l-.5-.69-.45-.74a11.56,11.56,0,0,1-1.22-3.24,19.24,19.24,0,0,1,0-6.6c.65-4.23,1.72-8.24,2.58-12.3s1.68-8.12,2.33-12.22,1.14-8.21,1.55-12.35.63-8.29.83-12.46a162.19,162.19,0,0,1-.85,25c-.48,4.16-1.16,8.3-1.93,12.4s-1.77,8.18-2.3,12.2a17.53,17.53,0,0,0,0,5.83,9.07,9.07,0,0,0,1,2.58l.36.59.42.57a14.63,14.63,0,0,1,1,1.39,20.71,20.71,0,0,1,2.29,6.17,40.48,40.48,0,0,1,.84,6.35,56.17,56.17,0,0,1-.71,12.64,46.14,46.14,0,0,1-1.44,6.15A36.45,36.45,0,0,1,501.05,383.39Z" transform="translate(0 -0.44)"/></g></svg>