<svg id="Layer_1" data-name="Layer 1" xmlns="http://www.w3.org/2000/svg" xmlns:xlink="http://www.w3.org/1999/xlink" viewBox="0 0 999.2 932.97"><defs><style>.cls-1{fill:url(#linear-gradient);}.cls-2{fill:url(#linear-gradient-2);}.cls-3{fill:url(#linear-gradient-3);}.cls-4{fill:url(#linear-gradient-5);}.cls-5{fill:url(#linear-gradient-6);}.cls-6{fill:url(#linear-gradient-7);}.cls-7{fill:url(#linear-gradient-8);}</style><linearGradient id="linear-gradient" x1="500.4" y1="2667.63" x2="500.4" y2="42.95" gradientUnits="userSpaceOnUse"><stop offset="0"/><stop offset="1" stop-color="#c80000"/></linearGradient><linearGradient id="linear-gradient-2" x1="862.52" y1="2667.63" x2="862.52" y2="42.95" xlink:href="#linear-gradient"/><linearGradient id="linear-gradient-3" x1="138.28" y1="2667.63" x2="138.28" y2="42.95" xlink:href="#linear-gradient"/><linearGradient id="linear-gradient-5" x1="501.26" y1="2633.85" x2="501.26" y2="9.17" xlink:href="#linear-gradient"/><linearGradient id="linear-gradient-6" x1="499.6" y1="2633.85" x2="499.6" y2="9.17" xlink:href="#linear-gradient"/><linearGradient id="linear-gradient-7" x1="663.44" y1="2633.85" x2="663.44" y2="9.17" xlink:href="#linear-gradient"/><linearGradient id="linear-gradient-8" x1="335.76" y1="2633.85" x2="335.76" y2="9.17" xlink:href="#linear-gradient"/></defs><path class="cls-1" d="M500.4,260.8A364.72,364.72,0,0,1,646.05,291L500.4,33.78,354.75,291A364.72,364.72,0,0,1,500.4,260.8Z" transform="translate(-0.8 -33.78)"/><path class="cls-2" d="M1000,916,863.37,674.76A365.7,365.7,0,0,1,725,916Z" transform="translate(-0.8 -33.78)"/><path class="cls-3" d="M137.43,674.76.8,916h275A365.65,365.65,0,0,1,137.43,674.76Z" transform="translate(-0.8 -33.78)"/><path class="cls-1" d="M500.4,314.06c172.82,0,312.92,140.1,312.92,312.91S673.22,939.89,500.4,939.89,187.48,799.79,187.48,627,327.58,314.06,500.4,314.06m0-26.87C313,287.19,160.62,439.62,160.62,627S313,966.76,500.4,966.76,840.18,814.33,840.18,627,687.75,287.19,500.4,287.19Z" transform="translate(-0.8 -33.78)"/><polygon class="cls-4" points="385.16 549.16 346.48 690.45 380.53 752.68 492.17 675.63 474.14 595.13 403.5 562.79 456.27 524.49 499.6 521.08 542.93 524.49 595.7 562.79 525.06 595.13 506 674.92 618.68 752.68 652.72 690.45 618.21 551.37 623.89 535.87 572.83 450.76 727.72 447.36 589.85 328.21 501.26 407.21 412.68 328.21 274.81 447.36 429.7 450.76 378.64 535.87 385.16 549.16"/><polygon class="cls-5" points="499.6 706.29 390.93 781.29 501.12 858.17 608.28 781.29 499.6 706.29"/><polygon class="cls-6" points="630.87 498.6 727.72 609.59 599.17 541.25 630.87 498.6"/><polygon class="cls-7" points="368.34 498.6 271.49 609.59 400.04 541.25 368.34 498.6"/></svg>